<svg version="1.1" xmlns="http://www.w3.org/2000/svg" xmlns:xlink="http://www.w3.org/1999/xlink" width="700" height="690"><defs/><g><text fill="#eeeeee" stroke="none" font-family="Arial" font-size="24px" font-style="normal" font-weight="normal" text-decoration="none" x="0" y="0">UNREGISTERED</text><text fill="#eeeeee" stroke="none" font-family="Arial" font-size="24px" font-style="normal" font-weight="normal" text-decoration="none" x="0" y="30">UNREGISTERED</text><text fill="#eeeeee" stroke="none" font-family="Arial" font-size="24px" font-style="normal" font-weight="normal" text-decoration="none" x="0" y="60">UNREGISTERED</text><text fill="#eeeeee" stroke="none" font-family="Arial" font-size="24px" font-style="normal" font-weight="normal" text-decoration="none" x="0" y="90">UNREGISTERED</text><text fill="#eeeeee" stroke="none" font-family="Arial" font-size="24px" font-style="normal" font-weight="normal" text-decoration="none" x="0" y="120">UNREGISTERED</text><text fill="#eeeeee" stroke="none" font-family="Arial" font-size="24px" font-style="normal" font-weight="normal" text-decoration="none" x="0" y="150">UNREGISTERED</text><text fill="#eeeeee" stroke="none" font-family="Arial" font-size="24px" font-style="normal" font-weight="normal" text-decoration="none" x="0" y="180">UNREGISTERED</text><text fill="#eeeeee" stroke="none" font-family="Arial" font-size="24px" font-style="normal" font-weight="normal" text-decoration="none" x="0" y="210">UNREGISTERED</text><text fill="#eeeeee" stroke="none" font-family="Arial" font-size="24px" font-style="normal" font-weight="normal" text-decoration="none" x="0" y="240">UNREGISTERED</text><text fill="#eeeeee" stroke="none" font-family="Arial" font-size="24px" font-style="normal" font-weight="normal" text-decoration="none" x="0" y="270">UNREGISTERED</text><text fill="#eeeeee" stroke="none" font-family="Arial" font-size="24px" font-style="normal" font-weight="normal" text-decoration="none" x="0" y="300">UNREGISTERED</text><text fill="#eeeeee" stroke="none" font-family="Arial" font-size="24px" font-style="normal" font-weight="normal" text-decoration="none" x="0" y="330">UNREGISTERED</text><text fill="#eeeeee" stroke="none" font-family="Arial" font-size="24px" font-style="normal" font-weight="normal" text-decoration="none" x="0" y="360">UNREGISTERED</text><text fill="#eeeeee" stroke="none" font-family="Arial" font-size="24px" font-style="normal" font-weight="normal" text-decoration="none" x="0" y="390">UNREGISTERED</text><text fill="#eeeeee" stroke="none" font-family="Arial" font-size="24px" font-style="normal" font-weight="normal" text-decoration="none" x="0" y="420">UNREGISTERED</text><text fill="#eeeeee" stroke="none" font-family="Arial" font-size="24px" font-style="normal" font-weight="normal" text-decoration="none" x="0" y="450">UNREGISTERED</text><text fill="#eeeeee" stroke="none" font-family="Arial" font-size="24px" font-style="normal" font-weight="normal" text-decoration="none" x="0" y="480">UNREGISTERED</text><text fill="#eeeeee" stroke="none" font-family="Arial" font-size="24px" font-style="normal" font-weight="normal" text-decoration="none" x="0" y="510">UNREGISTERED</text><text fill="#eeeeee" stroke="none" font-family="Arial" font-size="24px" font-style="normal" font-weight="normal" text-decoration="none" x="0" y="540">UNREGISTERED</text><text fill="#eeeeee" stroke="none" font-family="Arial" font-size="24px" font-style="normal" font-weight="normal" text-decoration="none" x="0" y="570">UNREGISTERED</text><text fill="#eeeeee" stroke="none" font-family="Arial" font-size="24px" font-style="normal" font-weight="normal" text-decoration="none" x="0" y="600">UNREGISTERED</text><text fill="#eeeeee" stroke="none" font-family="Arial" font-size="24px" font-style="normal" font-weight="normal" text-decoration="none" x="0" y="630">UNREGISTERED</text><text fill="#eeeeee" stroke="none" font-family="Arial" font-size="24px" font-style="normal" font-weight="normal" text-decoration="none" x="0" y="660">UNREGISTERED</text><text fill="#eeeeee" stroke="none" font-family="Arial" font-size="24px" font-style="normal" font-weight="normal" text-decoration="none" x="200" y="0">UNREGISTERED</text><text fill="#eeeeee" stroke="none" font-family="Arial" font-size="24px" font-style="normal" font-weight="normal" text-decoration="none" x="200" y="30">UNREGISTERED</text><text fill="#eeeeee" stroke="none" font-family="Arial" font-size="24px" font-style="normal" font-weight="normal" text-decoration="none" x="200" y="60">UNREGISTERED</text><text fill="#eeeeee" stroke="none" font-family="Arial" font-size="24px" font-style="normal" font-weight="normal" text-decoration="none" x="200" y="90">UNREGISTERED</text><text fill="#eeeeee" stroke="none" font-family="Arial" font-size="24px" font-style="normal" font-weight="normal" text-decoration="none" x="200" y="120">UNREGISTERED</text><text fill="#eeeeee" stroke="none" font-family="Arial" font-size="24px" font-style="normal" font-weight="normal" text-decoration="none" x="200" y="150">UNREGISTERED</text><text fill="#eeeeee" stroke="none" font-family="Arial" font-size="24px" font-style="normal" font-weight="normal" text-decoration="none" x="200" y="180">UNREGISTERED</text><text fill="#eeeeee" stroke="none" font-family="Arial" font-size="24px" font-style="normal" font-weight="normal" text-decoration="none" x="200" y="210">UNREGISTERED</text><text fill="#eeeeee" stroke="none" font-family="Arial" font-size="24px" font-style="normal" font-weight="normal" text-decoration="none" x="200" y="240">UNREGISTERED</text><text fill="#eeeeee" stroke="none" font-family="Arial" font-size="24px" font-style="normal" font-weight="normal" text-decoration="none" x="200" y="270">UNREGISTERED</text><text fill="#eeeeee" stroke="none" font-family="Arial" font-size="24px" font-style="normal" font-weight="normal" text-decoration="none" x="200" y="300">UNREGISTERED</text><text fill="#eeeeee" stroke="none" font-family="Arial" font-size="24px" font-style="normal" font-weight="normal" text-decoration="none" x="200" y="330">UNREGISTERED</text><text fill="#eeeeee" stroke="none" font-family="Arial" font-size="24px" font-style="normal" font-weight="normal" text-decoration="none" x="200" y="360">UNREGISTERED</text><text fill="#eeeeee" stroke="none" font-family="Arial" font-size="24px" font-style="normal" font-weight="normal" text-decoration="none" x="200" y="390">UNREGISTERED</text><text fill="#eeeeee" stroke="none" font-family="Arial" font-size="24px" font-style="normal" font-weight="normal" text-decoration="none" x="200" y="420">UNREGISTERED</text><text fill="#eeeeee" stroke="none" font-family="Arial" font-size="24px" font-style="normal" font-weight="normal" text-decoration="none" x="200" y="450">UNREGISTERED</text><text fill="#eeeeee" stroke="none" font-family="Arial" font-size="24px" font-style="normal" font-weight="normal" text-decoration="none" x="200" y="480">UNREGISTERED</text><text fill="#eeeeee" stroke="none" font-family="Arial" font-size="24px" font-style="normal" font-weight="normal" text-decoration="none" x="200" y="510">UNREGISTERED</text><text fill="#eeeeee" stroke="none" font-family="Arial" font-size="24px" font-style="normal" font-weight="normal" text-decoration="none" x="200" y="540">UNREGISTERED</text><text fill="#eeeeee" stroke="none" font-family="Arial" font-size="24px" font-style="normal" font-weight="normal" text-decoration="none" x="200" y="570">UNREGISTERED</text><text fill="#eeeeee" stroke="none" font-family="Arial" font-size="24px" font-style="normal" font-weight="normal" text-decoration="none" x="200" y="600">UNREGISTERED</text><text fill="#eeeeee" stroke="none" font-family="Arial" font-size="24px" font-style="normal" font-weight="normal" text-decoration="none" x="200" y="630">UNREGISTERED</text><text fill="#eeeeee" stroke="none" font-family="Arial" font-size="24px" font-style="normal" font-weight="normal" text-decoration="none" x="200" y="660">UNREGISTERED</text><text fill="#eeeeee" stroke="none" font-family="Arial" font-size="24px" font-style="normal" font-weight="normal" text-decoration="none" x="400" y="0">UNREGISTERED</text><text fill="#eeeeee" stroke="none" font-family="Arial" font-size="24px" font-style="normal" font-weight="normal" text-decoration="none" x="400" y="30">UNREGISTERED</text><text fill="#eeeeee" stroke="none" font-family="Arial" font-size="24px" font-style="normal" font-weight="normal" text-decoration="none" x="400" y="60">UNREGISTERED</text><text fill="#eeeeee" stroke="none" font-family="Arial" font-size="24px" font-style="normal" font-weight="normal" text-decoration="none" x="400" y="90">UNREGISTERED</text><text fill="#eeeeee" stroke="none" font-family="Arial" font-size="24px" font-style="normal" font-weight="normal" text-decoration="none" x="400" y="120">UNREGISTERED</text><text fill="#eeeeee" stroke="none" font-family="Arial" font-size="24px" font-style="normal" font-weight="normal" text-decoration="none" x="400" y="150">UNREGISTERED</text><text fill="#eeeeee" stroke="none" font-family="Arial" font-size="24px" font-style="normal" font-weight="normal" text-decoration="none" x="400" y="180">UNREGISTERED</text><text fill="#eeeeee" stroke="none" font-family="Arial" font-size="24px" font-style="normal" font-weight="normal" text-decoration="none" x="400" y="210">UNREGISTERED</text><text fill="#eeeeee" stroke="none" font-family="Arial" font-size="24px" font-style="normal" font-weight="normal" text-decoration="none" x="400" y="240">UNREGISTERED</text><text fill="#eeeeee" stroke="none" font-family="Arial" font-size="24px" font-style="normal" font-weight="normal" text-decoration="none" x="400" y="270">UNREGISTERED</text><text fill="#eeeeee" stroke="none" font-family="Arial" font-size="24px" font-style="normal" font-weight="normal" text-decoration="none" x="400" y="300">UNREGISTERED</text><text fill="#eeeeee" stroke="none" font-family="Arial" font-size="24px" font-style="normal" font-weight="normal" text-decoration="none" x="400" y="330">UNREGISTERED</text><text fill="#eeeeee" stroke="none" font-family="Arial" font-size="24px" font-style="normal" font-weight="normal" text-decoration="none" x="400" y="360">UNREGISTERED</text><text fill="#eeeeee" stroke="none" font-family="Arial" font-size="24px" font-style="normal" font-weight="normal" text-decoration="none" x="400" y="390">UNREGISTERED</text><text fill="#eeeeee" stroke="none" font-family="Arial" font-size="24px" font-style="normal" font-weight="normal" text-decoration="none" x="400" y="420">UNREGISTERED</text><text fill="#eeeeee" stroke="none" font-family="Arial" font-size="24px" font-style="normal" font-weight="normal" text-decoration="none" x="400" y="450">UNREGISTERED</text><text fill="#eeeeee" stroke="none" font-family="Arial" font-size="24px" font-style="normal" font-weight="normal" text-decoration="none" x="400" y="480">UNREGISTERED</text><text fill="#eeeeee" stroke="none" font-family="Arial" font-size="24px" font-style="normal" font-weight="normal" text-decoration="none" x="400" y="510">UNREGISTERED</text><text fill="#eeeeee" stroke="none" font-family="Arial" font-size="24px" font-style="normal" font-weight="normal" text-decoration="none" x="400" y="540">UNREGISTERED</text><text fill="#eeeeee" stroke="none" font-family="Arial" font-size="24px" font-style="normal" font-weight="normal" text-decoration="none" x="400" y="570">UNREGISTERED</text><text fill="#eeeeee" stroke="none" font-family="Arial" font-size="24px" font-style="normal" font-weight="normal" text-decoration="none" x="400" y="600">UNREGISTERED</text><text fill="#eeeeee" stroke="none" font-family="Arial" font-size="24px" font-style="normal" font-weight="normal" text-decoration="none" x="400" y="630">UNREGISTERED</text><text fill="#eeeeee" stroke="none" font-family="Arial" font-size="24px" font-style="normal" font-weight="normal" text-decoration="none" x="400" y="660">UNREGISTERED</text><text fill="#eeeeee" stroke="none" font-family="Arial" font-size="24px" font-style="normal" font-weight="normal" text-decoration="none" x="600" y="0">UNREGISTERED</text><text fill="#eeeeee" stroke="none" font-family="Arial" font-size="24px" font-style="normal" font-weight="normal" text-decoration="none" x="600" y="30">UNREGISTERED</text><text fill="#eeeeee" stroke="none" font-family="Arial" font-size="24px" font-style="normal" font-weight="normal" text-decoration="none" x="600" y="60">UNREGISTERED</text><text fill="#eeeeee" stroke="none" font-family="Arial" font-size="24px" font-style="normal" font-weight="normal" text-decoration="none" x="600" y="90">UNREGISTERED</text><text fill="#eeeeee" stroke="none" font-family="Arial" font-size="24px" font-style="normal" font-weight="normal" text-decoration="none" x="600" y="120">UNREGISTERED</text><text fill="#eeeeee" stroke="none" font-family="Arial" font-size="24px" font-style="normal" font-weight="normal" text-decoration="none" x="600" y="150">UNREGISTERED</text><text fill="#eeeeee" stroke="none" font-family="Arial" font-size="24px" font-style="normal" font-weight="normal" text-decoration="none" x="600" y="180">UNREGISTERED</text><text fill="#eeeeee" stroke="none" font-family="Arial" font-size="24px" font-style="normal" font-weight="normal" text-decoration="none" x="600" y="210">UNREGISTERED</text><text fill="#eeeeee" stroke="none" font-family="Arial" font-size="24px" font-style="normal" font-weight="normal" text-decoration="none" x="600" y="240">UNREGISTERED</text><text fill="#eeeeee" stroke="none" font-family="Arial" font-size="24px" font-style="normal" font-weight="normal" text-decoration="none" x="600" y="270">UNREGISTERED</text><text fill="#eeeeee" stroke="none" font-family="Arial" font-size="24px" font-style="normal" font-weight="normal" text-decoration="none" x="600" y="300">UNREGISTERED</text><text fill="#eeeeee" stroke="none" font-family="Arial" font-size="24px" font-style="normal" font-weight="normal" text-decoration="none" x="600" y="330">UNREGISTERED</text><text fill="#eeeeee" stroke="none" font-family="Arial" font-size="24px" font-style="normal" font-weight="normal" text-decoration="none" x="600" y="360">UNREGISTERED</text><text fill="#eeeeee" stroke="none" font-family="Arial" font-size="24px" font-style="normal" font-weight="normal" text-decoration="none" x="600" y="390">UNREGISTERED</text><text fill="#eeeeee" stroke="none" font-family="Arial" font-size="24px" font-style="normal" font-weight="normal" text-decoration="none" x="600" y="420">UNREGISTERED</text><text fill="#eeeeee" stroke="none" font-family="Arial" font-size="24px" font-style="normal" font-weight="normal" text-decoration="none" x="600" y="450">UNREGISTERED</text><text fill="#eeeeee" stroke="none" font-family="Arial" font-size="24px" font-style="normal" font-weight="normal" text-decoration="none" x="600" y="480">UNREGISTERED</text><text fill="#eeeeee" stroke="none" font-family="Arial" font-size="24px" font-style="normal" font-weight="normal" text-decoration="none" x="600" y="510">UNREGISTERED</text><text fill="#eeeeee" stroke="none" font-family="Arial" font-size="24px" font-style="normal" font-weight="normal" text-decoration="none" x="600" y="540">UNREGISTERED</text><text fill="#eeeeee" stroke="none" font-family="Arial" font-size="24px" font-style="normal" font-weight="normal" text-decoration="none" x="600" y="570">UNREGISTERED</text><text fill="#eeeeee" stroke="none" font-family="Arial" font-size="24px" font-style="normal" font-weight="normal" text-decoration="none" x="600" y="600">UNREGISTERED</text><text fill="#eeeeee" stroke="none" font-family="Arial" font-size="24px" font-style="normal" font-weight="normal" text-decoration="none" x="600" y="630">UNREGISTERED</text><text fill="#eeeeee" stroke="none" font-family="Arial" font-size="24px" font-style="normal" font-weight="normal" text-decoration="none" x="600" y="660">UNREGISTERED</text><g transform="translate(-86,-14) scale(1,1)"><path fill="#C0C0C0" stroke="none" d="M 223 64.5 C 223 59.2532944 227.2532944 55 232.5 55 C 237.7467056 55 242 59.2532944 242 64.5 C 242 69.7467056 237.7467056 74 232.5 74 C 227.2532944 74 223 69.7467056 223 64.5 Z" opacity="0.2"/></g><g transform="translate(-86,-14) scale(1,1)"><path fill="#000000" stroke="none" d="M 216 57.5 C 216 52.2532944 220.2532944 48 225.5 48 C 230.7467056 48 235 52.2532944 235 57.5 C 235 62.7467056 230.7467056 67 225.5 67 C 220.2532944 67 216 62.7467056 216 57.5 Z"/></g><g transform="translate(-86,-14) scale(1,1)"><path fill="#C0C0C0" stroke="none" d="M 143 595.5 C 143 588.59644 148.59644 583 155.5 583 C 162.40356 583 168 588.59644 168 595.5 C 168 602.40356 162.40356 608 155.5 608 C 148.59644 608 143 602.40356 143 595.5 Z" opacity="0.2"/></g><g transform="translate(-86,-14) scale(1,1)"><path fill="none" stroke="#000000" d="M 136 588.5 C 136 581.59644 141.59644 576 148.5 576 C 155.40356 576 161 581.59644 161 588.5 C 161 595.40356 155.40356 601 148.5 601 C 141.59644 601 136 595.40356 136 588.5 Z" stroke-miterlimit="10"/></g><g transform="translate(-86,-14) scale(1,1)"><path fill="#000000" stroke="none" d="M 141 588.5 C 141 584.357864 144.357864 581 148.5 581 C 152.642136 581 156 584.357864 156 588.5 C 156 592.642136 152.642136 596 148.5 596 C 144.357864 596 141 592.642136 141 588.5 Z"/></g><g transform="translate(-86,-14) scale(1,1)"><path fill="#C0C0C0" stroke="none" d="M 217 111 L 390.25341796875 111 Q 400.25341796875 111 400.25341796875 121 L 400.25341796875 141 Q 400.25341796875 151 390.25341796875 151 L 217 151 Q 207 151 207 141 L 207 121 Q 207 111 217 111 Z" opacity="0.2"/></g><g transform="translate(-86,-14) scale(1,1)"><path fill="#ffffff" stroke="none" d="M 210 104 L 383.25341796875 104 Q 393.25341796875 104 393.25341796875 114 L 393.25341796875 134 Q 393.25341796875 144 383.25341796875 144 L 210 144 Q 200 144 200 134 L 200 114 Q 200 104 210 104 Z"/></g><g transform="translate(-86,-14) scale(1,1)"><path fill="none" stroke="#000000" d="M 210 104 L 383.25341796875 104 Q 393.25341796875 104 393.25341796875 114 L 393.25341796875 134 Q 393.25341796875 144 383.25341796875 144 L 210 144 Q 200 144 200 134 L 200 114 Q 200 104 210 104 Z" stroke-miterlimit="10"/></g><g transform="translate(-86,-14) scale(1,1)"><g><path fill="none" stroke="none"/><text fill="#000000" stroke="none" font-family="Arial" font-size="13px" font-style="normal" font-weight="bold" text-decoration="none" x="204.5" y="122">récupérer_details_commande</text></g></g><g transform="translate(-86,-14) scale(1,1)"><path fill="#C0C0C0" stroke="none" d="M 193 191 L 401.71142578125 191 Q 411.71142578125 191 411.71142578125 201 L 411.71142578125 221 Q 411.71142578125 231 401.71142578125 231 L 193 231 Q 183 231 183 221 L 183 201 Q 183 191 193 191 Z" opacity="0.2"/></g><g transform="translate(-86,-14) scale(1,1)"><path fill="#ffffff" stroke="none" d="M 186 184 L 394.71142578125 184 Q 404.71142578125 184 404.71142578125 194 L 404.71142578125 214 Q 404.71142578125 224 394.71142578125 224 L 186 224 Q 176 224 176 214 L 176 194 Q 176 184 186 184 Z"/></g><g transform="translate(-86,-14) scale(1,1)"><path fill="none" stroke="#000000" d="M 186 184 L 394.71142578125 184 Q 404.71142578125 184 404.71142578125 194 L 404.71142578125 214 Q 404.71142578125 224 394.71142578125 224 L 186 224 Q 176 224 176 214 L 176 194 Q 176 184 186 184 Z" stroke-miterlimit="10"/></g><g transform="translate(-86,-14) scale(1,1)"><g><path fill="none" stroke="none"/><text fill="#000000" stroke="none" font-family="Arial" font-size="13px" font-style="normal" font-weight="bold" text-decoration="none" x="180.5" y="202">rassembler_matériaux_nécessaires</text></g></g><g transform="translate(-86,-14) scale(1,1)"><path fill="#C0C0C0" stroke="none" d="M 231 312.5 L 242.5 303 L 253 312.5 L 242.5 321 L 231 312.5" opacity="0.2"/></g><g transform="translate(-86,-14) scale(1,1)"><path fill="#ffffff" stroke="none" d="M 224 305 L 235 296 L 246 305 L 235 314 L 224 305"/></g><g transform="translate(-86,-14) scale(1,1)"><path fill="none" stroke="#000000" d="M 224 305 L 235 296 L 246 305 L 235 314 L 224 305 L 224 305" stroke-miterlimit="10"/></g><g transform="translate(-86,-14) scale(1,1)"><path fill="none" stroke="#000000" d="M 279 225 L 240 295" stroke-miterlimit="10"/></g><g transform="translate(-86,-14) scale(1,1)"><path fill="none" stroke="#000000" d="M 241.26889587919206 284.0734313140964 L 240 295 L 248.6234956936994 288.17099406789333" stroke-miterlimit="10"/></g><g transform="translate(-86,-14) scale(1,1)"><g><path fill="none" stroke="none"/><text fill="#000000" stroke="none" font-family="Arial" font-size="13px" font-style="normal" font-weight="normal" text-decoration="none" x="153.84765625" y="266">assez de stock ?</text></g></g><g transform="translate(-86,-14) scale(1,1)"><path fill="none" stroke="#000000" d="M 236 67 L 274 103" stroke-miterlimit="10"/></g><g transform="translate(-86,-14) scale(1,1)"><path fill="none" stroke="#000000" d="M 263.72730560446007 99.06658547114054 L 274 103 L 269.5174522184309 92.95476404528247" stroke-miterlimit="10"/></g><g transform="translate(-86,-14) scale(1,1)"><path fill="none" stroke="#000000" d="M 294 145 L 292 183" stroke-miterlimit="10"/></g><g transform="translate(-86,-14) scale(1,1)"><path fill="none" stroke="#000000" d="M 288.33043884787344 172.63012435220153 L 292 183 L 296.7378378159721 173.07261903473304" stroke-miterlimit="10"/></g><g transform="translate(-86,-14) scale(1,1)"><path fill="#C0C0C0" stroke="none" d="M 417 295 L 553.38623046875 295 Q 563.38623046875 295 563.38623046875 305 L 563.38623046875 325 Q 563.38623046875 335 553.38623046875 335 L 417 335 Q 407 335 407 325 L 407 305 Q 407 295 417 295 Z" opacity="0.2"/></g><g transform="translate(-86,-14) scale(1,1)"><path fill="#ffffff" stroke="none" d="M 410 288 L 546.38623046875 288 Q 556.38623046875 288 556.38623046875 298 L 556.38623046875 318 Q 556.38623046875 328 546.38623046875 328 L 410 328 Q 400 328 400 318 L 400 298 Q 400 288 410 288 Z"/></g><g transform="translate(-86,-14) scale(1,1)"><path fill="none" stroke="#000000" d="M 410 288 L 546.38623046875 288 Q 556.38623046875 288 556.38623046875 298 L 556.38623046875 318 Q 556.38623046875 328 546.38623046875 328 L 410 328 Q 400 328 400 318 L 400 298 Q 400 288 410 288 Z" stroke-miterlimit="10"/></g><g transform="translate(-86,-14) scale(1,1)"><g><path fill="none" stroke="none"/><text fill="#000000" stroke="none" font-family="Arial" font-size="13px" font-style="normal" font-weight="bold" text-decoration="none" x="404.5" y="306">réapprovisionner_stock</text></g></g><g transform="translate(-86,-14) scale(1,1)"><path fill="#C0C0C0" stroke="none" d="M 223 392.5 L 234.5 383 L 245 392.5 L 234.5 401 L 223 392.5" opacity="0.2"/></g><g transform="translate(-86,-14) scale(1,1)"><path fill="#ffffff" stroke="none" d="M 216 385 L 227 376 L 238 385 L 227 394 L 216 385"/></g><g transform="translate(-86,-14) scale(1,1)"><path fill="none" stroke="#000000" d="M 216 385 L 227 376 L 238 385 L 227 394 L 216 385 L 216 385" stroke-miterlimit="10"/></g><g transform="translate(-86,-14) scale(1,1)"><path fill="none" stroke="#000000" d="M 247 305 L 399 307" stroke-miterlimit="10"/></g><g transform="translate(-86,-14) scale(1,1)"><path fill="none" stroke="#000000" d="M 388.7828211636479 311.0754455739218 L 399 307 L 388.89358835854296 302.65713876189653" stroke-miterlimit="10"/></g><g transform="translate(-86,-14) scale(1,1)"><g><path fill="none" stroke="none"/><text fill="#000000" stroke="none" font-family="Arial" font-size="13px" font-style="normal" font-weight="normal" text-decoration="none" x="306.522705078125" y="296"> [non]</text></g></g><g transform="translate(-86,-14) scale(1,1)"><path fill="none" stroke="#000000" d="M 477 329 L 475 375" stroke-miterlimit="10"/></g><g transform="translate(-86,-14) scale(1,1)"><path fill="none" stroke="#000000" d="M 471.23589374918504 364.6640673312673 L 475 375 L 479.6469830248906 365.02976686499363" stroke-miterlimit="10"/></g><g transform="translate(-86,-14) scale(1,1)"><g><path fill="none" stroke="none"/><text fill="#000000" stroke="none" font-family="Arial" font-size="13px" font-style="normal" font-weight="normal" text-decoration="none" x="486.5" y="355">stock_réapprovionné_delais_acceptable ?</text></g></g><g transform="translate(-86,-14) scale(1,1)"><path fill="none" stroke="#000000" d="M 234 315 L 228 375" stroke-miterlimit="10"/></g><g transform="translate(-86,-14) scale(1,1)"><path fill="none" stroke="#000000" d="M 224.8225972234496 364.46889789264344 L 228 375 L 233.19985066362 365.30662323666047" stroke-miterlimit="10"/></g><g transform="translate(-86,-14) scale(1,1)"><g><path fill="none" stroke="none"/><text fill="#000000" stroke="none" font-family="Arial" font-size="13px" font-style="normal" font-weight="normal" text-decoration="none" x="230.668212890625" y="351"> [oui]</text></g></g><g transform="translate(-86,-14) scale(1,1)"><path fill="#C0C0C0" stroke="none" d="M 161 439 L 304.5908203125 439 Q 314.5908203125 439 314.5908203125 449 L 314.5908203125 482 Q 314.5908203125 492 304.5908203125 492 L 161 492 Q 151 492 151 482 L 151 449 Q 151 439 161 439 Z" opacity="0.2"/></g><g transform="translate(-86,-14) scale(1,1)"><path fill="#ffffff" stroke="none" d="M 154 432 L 297.5908203125 432 Q 307.5908203125 432 307.5908203125 442 L 307.5908203125 475 Q 307.5908203125 485 297.5908203125 485 L 154 485 Q 144 485 144 475 L 144 442 Q 144 432 154 432 Z"/></g><g transform="translate(-86,-14) scale(1,1)"><path fill="none" stroke="#000000" d="M 154 432 L 297.5908203125 432 Q 307.5908203125 432 307.5908203125 442 L 307.5908203125 475 Q 307.5908203125 485 297.5908203125 485 L 154 485 Q 144 485 144 475 L 144 442 Q 144 432 154 432 Z" stroke-miterlimit="10"/></g><g transform="translate(-86,-14) scale(1,1)"><g><path fill="none" stroke="none"/><text fill="#000000" stroke="none" font-family="Arial" font-size="13px" font-style="normal" font-weight="bold" text-decoration="none" x="148.5" y="450">confectionner réalisation</text></g></g><g transform="translate(-86,-14) scale(1,1)"><path fill="none" stroke="#000000" d="M 227 395 L 226 431" stroke-miterlimit="10"/></g><g transform="translate(-86,-14) scale(1,1)"><path fill="none" stroke="#000000" d="M 222.07429302320625 420.72435769733335 L 226 431 L 230.49008232902074 420.9581296224948" stroke-miterlimit="10"/></g><g transform="translate(-86,-14) scale(1,1)"><path fill="#C0C0C0" stroke="none" d="M 201 519 L 258.65625 519 Q 268.65625 519 268.65625 529 L 268.65625 549 Q 268.65625 559 258.65625 559 L 201 559 Q 191 559 191 549 L 191 529 Q 191 519 201 519 Z" opacity="0.2"/></g><g transform="translate(-86,-14) scale(1,1)"><path fill="#ffffff" stroke="none" d="M 194 512 L 251.65625 512 Q 261.65625 512 261.65625 522 L 261.65625 542 Q 261.65625 552 251.65625 552 L 194 552 Q 184 552 184 542 L 184 522 Q 184 512 194 512 Z"/></g><g transform="translate(-86,-14) scale(1,1)"><path fill="none" stroke="#000000" d="M 194 512 L 251.65625 512 Q 261.65625 512 261.65625 522 L 261.65625 542 Q 261.65625 552 251.65625 552 L 194 552 Q 184 552 184 542 L 184 522 Q 184 512 194 512 Z" stroke-miterlimit="10"/></g><g transform="translate(-86,-14) scale(1,1)"><g><path fill="none" stroke="none"/><text fill="#000000" stroke="none" font-family="Arial" font-size="13px" font-style="normal" font-weight="bold" text-decoration="none" x="188.5" y="530">livrer_colis</text></g></g><g transform="translate(-86,-14) scale(1,1)"><path fill="none" stroke="#000000" d="M 224 486 L 223 511" stroke-miterlimit="10"/></g><g transform="translate(-86,-14) scale(1,1)"><path fill="none" stroke="#000000" d="M 219.20002800086905 500.67719937198143 L 223 511 L 227.6123363560042 501.0136917061868" stroke-miterlimit="10"/></g><g transform="translate(-86,-14) scale(1,1)"><path fill="none" stroke="#000000" d="M 194 553 L 162 577" stroke-miterlimit="10"/></g><g transform="translate(-86,-14) scale(1,1)"><path fill="none" stroke="#000000" d="M 167.60442923248974 567.5347808806127 L 162 577 L 172.65585053970892 574.2700092902382" stroke-miterlimit="10"/></g><g transform="translate(-86,-14) scale(1,1)"><path fill="#C0C0C0" stroke="none" d="M 471 392.5 L 482.5 383 L 493 392.5 L 482.5 401 L 471 392.5" opacity="0.2"/></g><g transform="translate(-86,-14) scale(1,1)"><path fill="#ffffff" stroke="none" d="M 464 385 L 475 376 L 486 385 L 475 394 L 464 385"/></g><g transform="translate(-86,-14) scale(1,1)"><path fill="none" stroke="#000000" d="M 464 385 L 475 376 L 486 385 L 475 394 L 464 385 L 464 385" stroke-miterlimit="10"/></g><g transform="translate(-86,-14) scale(1,1)"><path fill="none" stroke="#000000" d="M 463 385 L 239 385" stroke-miterlimit="10"/></g><g transform="translate(-86,-14) scale(1,1)"><path fill="none" stroke="#000000" d="M 249.16267485762415 380.790482243984 L 239 385 L 249.16267485762415 389.209517756016" stroke-miterlimit="10"/></g><g transform="translate(-86,-14) scale(1,1)"><g><path fill="none" stroke="none"/><text fill="#000000" stroke="none" font-family="Arial" font-size="13px" font-style="normal" font-weight="normal" text-decoration="none" x="335.668212890625" y="374"> [oui]</text></g></g><g transform="translate(-86,-14) scale(1,1)"><path fill="#C0C0C0" stroke="none" d="M 559 539.5 C 559 532.59644 564.59644 527 571.5 527 C 578.40356 527 584 532.59644 584 539.5 C 584 546.40356 578.40356 552 571.5 552 C 564.59644 552 559 546.40356 559 539.5 Z" opacity="0.2"/></g><g transform="translate(-86,-14) scale(1,1)"><path fill="none" stroke="#000000" d="M 552 532.5 C 552 525.59644 557.59644 520 564.5 520 C 571.40356 520 577 525.59644 577 532.5 C 577 539.40356 571.40356 545 564.5 545 C 557.59644 545 552 539.40356 552 532.5 Z" stroke-miterlimit="10"/></g><g transform="translate(-86,-14) scale(1,1)"><path fill="#000000" stroke="none" d="M 557 532.5 C 557 528.357864 560.357864 525 564.5 525 C 568.642136 525 572 528.357864 572 532.5 C 572 536.642136 568.642136 540 564.5 540 C 560.357864 540 557 536.642136 557 532.5 Z"/></g><g transform="translate(-86,-14) scale(1,1)"><path fill="#C0C0C0" stroke="none" d="M 513 439 L 691.9853515625 439 Q 701.9853515625 439 701.9853515625 449 L 701.9853515625 469 Q 701.9853515625 479 691.9853515625 479 L 513 479 Q 503 479 503 469 L 503 449 Q 503 439 513 439 Z" opacity="0.2"/></g><g transform="translate(-86,-14) scale(1,1)"><path fill="#ffffff" stroke="none" d="M 506 432 L 684.9853515625 432 Q 694.9853515625 432 694.9853515625 442 L 694.9853515625 462 Q 694.9853515625 472 684.9853515625 472 L 506 472 Q 496 472 496 462 L 496 442 Q 496 432 506 432 Z"/></g><g transform="translate(-86,-14) scale(1,1)"><path fill="none" stroke="#000000" d="M 506 432 L 684.9853515625 432 Q 694.9853515625 432 694.9853515625 442 L 694.9853515625 462 Q 694.9853515625 472 684.9853515625 472 L 506 472 Q 496 472 496 462 L 496 442 Q 496 432 506 432 Z" stroke-miterlimit="10"/></g><g transform="translate(-86,-14) scale(1,1)"><g><path fill="none" stroke="none"/><text fill="#000000" stroke="none" font-family="Arial" font-size="13px" font-style="normal" font-weight="bold" text-decoration="none" x="500.5" y="450">annulation_et_remboursement</text></g></g><g transform="translate(-86,-14) scale(1,1)"><path fill="none" stroke="#000000" d="M 487 392 L 557 431" stroke-miterlimit="10"/></g><g transform="translate(-86,-14) scale(1,1)"><path fill="none" stroke="#000000" d="M 546.0734313140964 429.73110412080797 L 557 431 L 550.1709940678934 422.3765043063006" stroke-miterlimit="10"/></g><g transform="translate(-86,-14) scale(1,1)"><g><path fill="none" stroke="none"/><text fill="#000000" stroke="none" font-family="Arial" font-size="13px" font-style="normal" font-weight="normal" text-decoration="none" x="517.5" y="409"> [non]</text></g></g><g transform="translate(-86,-14) scale(1,1)"><path fill="none" stroke="#000000" d="M 587 473 L 569 519" stroke-miterlimit="10"/></g><g transform="translate(-86,-14) scale(1,1)"><path fill="none" stroke="#000000" d="M 568.7831890816208 508.00213688821 L 569 519 L 576.6233551142868 511.0700279444706" stroke-miterlimit="10"/></g><g transform="translate(-86,-14) scale(1,1)"><g><path fill="none" stroke="none"/><text fill="#000000" stroke="none" font-family="Arial" font-size="13px" font-style="normal" font-weight="normal" text-decoration="none" x="133" y="615">commande honorée</text></g></g><g transform="translate(-86,-14) scale(1,1)"><rect fill="#ffffff" stroke="none" x="584" y="512" width="76.92626953125" height="63"/></g><g transform="translate(-86,-14) scale(1,1)"><path fill="none" stroke="#000000" d="M 584 512 L 660.92626953125 512 L 660.92626953125 575 L 584 575 L 584 512 Z Z" stroke-miterlimit="10"/></g><g transform="translate(-86,-14) scale(1,1)"><g><path fill="none" stroke="none"/><text fill="#000000" stroke="none" font-family="Arial" font-size="13px" font-style="normal" font-weight="normal" text-decoration="none" x="589" y="527">commande</text><text fill="#000000" stroke="none" font-family="Arial" font-size="13px" font-style="normal" font-weight="normal" text-decoration="none" x="589" y="540">annulée</text><text fill="#000000" stroke="none" font-family="Arial" font-size="13px" font-style="normal" font-weight="normal" text-decoration="none" x="589" y="550">avec</text><text fill="#000000" stroke="none" font-family="Arial" font-size="13px" font-style="normal" font-weight="normal" text-decoration="none" x="589" y="566">explications</text></g></g><g transform="translate(-86,-14) scale(1,1)"><g><path fill="none" stroke="none"/><text fill="#000000" stroke="none" font-family="Arial" font-size="18px" font-style="normal" font-weight="normal" text-decoration="none" x="261" y="43">processus métier "honorer commande" (diag. d'activités UML)</text></g></g></g></svg>