<svg version="1.1" xmlns="http://www.w3.org/2000/svg" xmlns:xlink="http://www.w3.org/1999/xlink" width="750" height="693"><defs/><g><text fill="#eeeeee" stroke="none" font-family="Arial" font-size="24px" font-style="normal" font-weight="normal" text-decoration="none" x="0" y="0">UNREGISTERED</text><text fill="#eeeeee" stroke="none" font-family="Arial" font-size="24px" font-style="normal" font-weight="normal" text-decoration="none" x="0" y="30">UNREGISTERED</text><text fill="#eeeeee" stroke="none" font-family="Arial" font-size="24px" font-style="normal" font-weight="normal" text-decoration="none" x="0" y="60">UNREGISTERED</text><text fill="#eeeeee" stroke="none" font-family="Arial" font-size="24px" font-style="normal" font-weight="normal" text-decoration="none" x="0" y="90">UNREGISTERED</text><text fill="#eeeeee" stroke="none" font-family="Arial" font-size="24px" font-style="normal" font-weight="normal" text-decoration="none" x="0" y="120">UNREGISTERED</text><text fill="#eeeeee" stroke="none" font-family="Arial" font-size="24px" font-style="normal" font-weight="normal" text-decoration="none" x="0" y="150">UNREGISTERED</text><text fill="#eeeeee" stroke="none" font-family="Arial" font-size="24px" font-style="normal" font-weight="normal" text-decoration="none" x="0" y="180">UNREGISTERED</text><text fill="#eeeeee" stroke="none" font-family="Arial" font-size="24px" font-style="normal" font-weight="normal" text-decoration="none" x="0" y="210">UNREGISTERED</text><text fill="#eeeeee" stroke="none" font-family="Arial" font-size="24px" font-style="normal" font-weight="normal" text-decoration="none" x="0" y="240">UNREGISTERED</text><text fill="#eeeeee" stroke="none" font-family="Arial" font-size="24px" font-style="normal" font-weight="normal" text-decoration="none" x="0" y="270">UNREGISTERED</text><text fill="#eeeeee" stroke="none" font-family="Arial" font-size="24px" font-style="normal" font-weight="normal" text-decoration="none" x="0" y="300">UNREGISTERED</text><text fill="#eeeeee" stroke="none" font-family="Arial" font-size="24px" font-style="normal" font-weight="normal" text-decoration="none" x="0" y="330">UNREGISTERED</text><text fill="#eeeeee" stroke="none" font-family="Arial" font-size="24px" font-style="normal" font-weight="normal" text-decoration="none" x="0" y="360">UNREGISTERED</text><text fill="#eeeeee" stroke="none" font-family="Arial" font-size="24px" font-style="normal" font-weight="normal" text-decoration="none" x="0" y="390">UNREGISTERED</text><text fill="#eeeeee" stroke="none" font-family="Arial" font-size="24px" font-style="normal" font-weight="normal" text-decoration="none" x="0" y="420">UNREGISTERED</text><text fill="#eeeeee" stroke="none" font-family="Arial" font-size="24px" font-style="normal" font-weight="normal" text-decoration="none" x="0" y="450">UNREGISTERED</text><text fill="#eeeeee" stroke="none" font-family="Arial" font-size="24px" font-style="normal" font-weight="normal" text-decoration="none" x="0" y="480">UNREGISTERED</text><text fill="#eeeeee" stroke="none" font-family="Arial" font-size="24px" font-style="normal" font-weight="normal" text-decoration="none" x="0" y="510">UNREGISTERED</text><text fill="#eeeeee" stroke="none" font-family="Arial" font-size="24px" font-style="normal" font-weight="normal" text-decoration="none" x="0" y="540">UNREGISTERED</text><text fill="#eeeeee" stroke="none" font-family="Arial" font-size="24px" font-style="normal" font-weight="normal" text-decoration="none" x="0" y="570">UNREGISTERED</text><text fill="#eeeeee" stroke="none" font-family="Arial" font-size="24px" font-style="normal" font-weight="normal" text-decoration="none" x="0" y="600">UNREGISTERED</text><text fill="#eeeeee" stroke="none" font-family="Arial" font-size="24px" font-style="normal" font-weight="normal" text-decoration="none" x="0" y="630">UNREGISTERED</text><text fill="#eeeeee" stroke="none" font-family="Arial" font-size="24px" font-style="normal" font-weight="normal" text-decoration="none" x="0" y="660">UNREGISTERED</text><text fill="#eeeeee" stroke="none" font-family="Arial" font-size="24px" font-style="normal" font-weight="normal" text-decoration="none" x="0" y="690">UNREGISTERED</text><text fill="#eeeeee" stroke="none" font-family="Arial" font-size="24px" font-style="normal" font-weight="normal" text-decoration="none" x="200" y="0">UNREGISTERED</text><text fill="#eeeeee" stroke="none" font-family="Arial" font-size="24px" font-style="normal" font-weight="normal" text-decoration="none" x="200" y="30">UNREGISTERED</text><text fill="#eeeeee" stroke="none" font-family="Arial" font-size="24px" font-style="normal" font-weight="normal" text-decoration="none" x="200" y="60">UNREGISTERED</text><text fill="#eeeeee" stroke="none" font-family="Arial" font-size="24px" font-style="normal" font-weight="normal" text-decoration="none" x="200" y="90">UNREGISTERED</text><text fill="#eeeeee" stroke="none" font-family="Arial" font-size="24px" font-style="normal" font-weight="normal" text-decoration="none" x="200" y="120">UNREGISTERED</text><text fill="#eeeeee" stroke="none" font-family="Arial" font-size="24px" font-style="normal" font-weight="normal" text-decoration="none" x="200" y="150">UNREGISTERED</text><text fill="#eeeeee" stroke="none" font-family="Arial" font-size="24px" font-style="normal" font-weight="normal" text-decoration="none" x="200" y="180">UNREGISTERED</text><text fill="#eeeeee" stroke="none" font-family="Arial" font-size="24px" font-style="normal" font-weight="normal" text-decoration="none" x="200" y="210">UNREGISTERED</text><text fill="#eeeeee" stroke="none" font-family="Arial" font-size="24px" font-style="normal" font-weight="normal" text-decoration="none" x="200" y="240">UNREGISTERED</text><text fill="#eeeeee" stroke="none" font-family="Arial" font-size="24px" font-style="normal" font-weight="normal" text-decoration="none" x="200" y="270">UNREGISTERED</text><text fill="#eeeeee" stroke="none" font-family="Arial" font-size="24px" font-style="normal" font-weight="normal" text-decoration="none" x="200" y="300">UNREGISTERED</text><text fill="#eeeeee" stroke="none" font-family="Arial" font-size="24px" font-style="normal" font-weight="normal" text-decoration="none" x="200" y="330">UNREGISTERED</text><text fill="#eeeeee" stroke="none" font-family="Arial" font-size="24px" font-style="normal" font-weight="normal" text-decoration="none" x="200" y="360">UNREGISTERED</text><text fill="#eeeeee" stroke="none" font-family="Arial" font-size="24px" font-style="normal" font-weight="normal" text-decoration="none" x="200" y="390">UNREGISTERED</text><text fill="#eeeeee" stroke="none" font-family="Arial" font-size="24px" font-style="normal" font-weight="normal" text-decoration="none" x="200" y="420">UNREGISTERED</text><text fill="#eeeeee" stroke="none" font-family="Arial" font-size="24px" font-style="normal" font-weight="normal" text-decoration="none" x="200" y="450">UNREGISTERED</text><text fill="#eeeeee" stroke="none" font-family="Arial" font-size="24px" font-style="normal" font-weight="normal" text-decoration="none" x="200" y="480">UNREGISTERED</text><text fill="#eeeeee" stroke="none" font-family="Arial" font-size="24px" font-style="normal" font-weight="normal" text-decoration="none" x="200" y="510">UNREGISTERED</text><text fill="#eeeeee" stroke="none" font-family="Arial" font-size="24px" font-style="normal" font-weight="normal" text-decoration="none" x="200" y="540">UNREGISTERED</text><text fill="#eeeeee" stroke="none" font-family="Arial" font-size="24px" font-style="normal" font-weight="normal" text-decoration="none" x="200" y="570">UNREGISTERED</text><text fill="#eeeeee" stroke="none" font-family="Arial" font-size="24px" font-style="normal" font-weight="normal" text-decoration="none" x="200" y="600">UNREGISTERED</text><text fill="#eeeeee" stroke="none" font-family="Arial" font-size="24px" font-style="normal" font-weight="normal" text-decoration="none" x="200" y="630">UNREGISTERED</text><text fill="#eeeeee" stroke="none" font-family="Arial" font-size="24px" font-style="normal" font-weight="normal" text-decoration="none" x="200" y="660">UNREGISTERED</text><text fill="#eeeeee" stroke="none" font-family="Arial" font-size="24px" font-style="normal" font-weight="normal" text-decoration="none" x="200" y="690">UNREGISTERED</text><text fill="#eeeeee" stroke="none" font-family="Arial" font-size="24px" font-style="normal" font-weight="normal" text-decoration="none" x="400" y="0">UNREGISTERED</text><text fill="#eeeeee" stroke="none" font-family="Arial" font-size="24px" font-style="normal" font-weight="normal" text-decoration="none" x="400" y="30">UNREGISTERED</text><text fill="#eeeeee" stroke="none" font-family="Arial" font-size="24px" font-style="normal" font-weight="normal" text-decoration="none" x="400" y="60">UNREGISTERED</text><text fill="#eeeeee" stroke="none" font-family="Arial" font-size="24px" font-style="normal" font-weight="normal" text-decoration="none" x="400" y="90">UNREGISTERED</text><text fill="#eeeeee" stroke="none" font-family="Arial" font-size="24px" font-style="normal" font-weight="normal" text-decoration="none" x="400" y="120">UNREGISTERED</text><text fill="#eeeeee" stroke="none" font-family="Arial" font-size="24px" font-style="normal" font-weight="normal" text-decoration="none" x="400" y="150">UNREGISTERED</text><text fill="#eeeeee" stroke="none" font-family="Arial" font-size="24px" font-style="normal" font-weight="normal" text-decoration="none" x="400" y="180">UNREGISTERED</text><text fill="#eeeeee" stroke="none" font-family="Arial" font-size="24px" font-style="normal" font-weight="normal" text-decoration="none" x="400" y="210">UNREGISTERED</text><text fill="#eeeeee" stroke="none" font-family="Arial" font-size="24px" font-style="normal" font-weight="normal" text-decoration="none" x="400" y="240">UNREGISTERED</text><text fill="#eeeeee" stroke="none" font-family="Arial" font-size="24px" font-style="normal" font-weight="normal" text-decoration="none" x="400" y="270">UNREGISTERED</text><text fill="#eeeeee" stroke="none" font-family="Arial" font-size="24px" font-style="normal" font-weight="normal" text-decoration="none" x="400" y="300">UNREGISTERED</text><text fill="#eeeeee" stroke="none" font-family="Arial" font-size="24px" font-style="normal" font-weight="normal" text-decoration="none" x="400" y="330">UNREGISTERED</text><text fill="#eeeeee" stroke="none" font-family="Arial" font-size="24px" font-style="normal" font-weight="normal" text-decoration="none" x="400" y="360">UNREGISTERED</text><text fill="#eeeeee" stroke="none" font-family="Arial" font-size="24px" font-style="normal" font-weight="normal" text-decoration="none" x="400" y="390">UNREGISTERED</text><text fill="#eeeeee" stroke="none" font-family="Arial" font-size="24px" font-style="normal" font-weight="normal" text-decoration="none" x="400" y="420">UNREGISTERED</text><text fill="#eeeeee" stroke="none" font-family="Arial" font-size="24px" font-style="normal" font-weight="normal" text-decoration="none" x="400" y="450">UNREGISTERED</text><text fill="#eeeeee" stroke="none" font-family="Arial" font-size="24px" font-style="normal" font-weight="normal" text-decoration="none" x="400" y="480">UNREGISTERED</text><text fill="#eeeeee" stroke="none" font-family="Arial" font-size="24px" font-style="normal" font-weight="normal" text-decoration="none" x="400" y="510">UNREGISTERED</text><text fill="#eeeeee" stroke="none" font-family="Arial" font-size="24px" font-style="normal" font-weight="normal" text-decoration="none" x="400" y="540">UNREGISTERED</text><text fill="#eeeeee" stroke="none" font-family="Arial" font-size="24px" font-style="normal" font-weight="normal" text-decoration="none" x="400" y="570">UNREGISTERED</text><text fill="#eeeeee" stroke="none" font-family="Arial" font-size="24px" font-style="normal" font-weight="normal" text-decoration="none" x="400" y="600">UNREGISTERED</text><text fill="#eeeeee" stroke="none" font-family="Arial" font-size="24px" font-style="normal" font-weight="normal" text-decoration="none" x="400" y="630">UNREGISTERED</text><text fill="#eeeeee" stroke="none" font-family="Arial" font-size="24px" font-style="normal" font-weight="normal" text-decoration="none" x="400" y="660">UNREGISTERED</text><text fill="#eeeeee" stroke="none" font-family="Arial" font-size="24px" font-style="normal" font-weight="normal" text-decoration="none" x="400" y="690">UNREGISTERED</text><text fill="#eeeeee" stroke="none" font-family="Arial" font-size="24px" font-style="normal" font-weight="normal" text-decoration="none" x="600" y="0">UNREGISTERED</text><text fill="#eeeeee" stroke="none" font-family="Arial" font-size="24px" font-style="normal" font-weight="normal" text-decoration="none" x="600" y="30">UNREGISTERED</text><text fill="#eeeeee" stroke="none" font-family="Arial" font-size="24px" font-style="normal" font-weight="normal" text-decoration="none" x="600" y="60">UNREGISTERED</text><text fill="#eeeeee" stroke="none" font-family="Arial" font-size="24px" font-style="normal" font-weight="normal" text-decoration="none" x="600" y="90">UNREGISTERED</text><text fill="#eeeeee" stroke="none" font-family="Arial" font-size="24px" font-style="normal" font-weight="normal" text-decoration="none" x="600" y="120">UNREGISTERED</text><text fill="#eeeeee" stroke="none" font-family="Arial" font-size="24px" font-style="normal" font-weight="normal" text-decoration="none" x="600" y="150">UNREGISTERED</text><text fill="#eeeeee" stroke="none" font-family="Arial" font-size="24px" font-style="normal" font-weight="normal" text-decoration="none" x="600" y="180">UNREGISTERED</text><text fill="#eeeeee" stroke="none" font-family="Arial" font-size="24px" font-style="normal" font-weight="normal" text-decoration="none" x="600" y="210">UNREGISTERED</text><text fill="#eeeeee" stroke="none" font-family="Arial" font-size="24px" font-style="normal" font-weight="normal" text-decoration="none" x="600" y="240">UNREGISTERED</text><text fill="#eeeeee" stroke="none" font-family="Arial" font-size="24px" font-style="normal" font-weight="normal" text-decoration="none" x="600" y="270">UNREGISTERED</text><text fill="#eeeeee" stroke="none" font-family="Arial" font-size="24px" font-style="normal" font-weight="normal" text-decoration="none" x="600" y="300">UNREGISTERED</text><text fill="#eeeeee" stroke="none" font-family="Arial" font-size="24px" font-style="normal" font-weight="normal" text-decoration="none" x="600" y="330">UNREGISTERED</text><text fill="#eeeeee" stroke="none" font-family="Arial" font-size="24px" font-style="normal" font-weight="normal" text-decoration="none" x="600" y="360">UNREGISTERED</text><text fill="#eeeeee" stroke="none" font-family="Arial" font-size="24px" font-style="normal" font-weight="normal" text-decoration="none" x="600" y="390">UNREGISTERED</text><text fill="#eeeeee" stroke="none" font-family="Arial" font-size="24px" font-style="normal" font-weight="normal" text-decoration="none" x="600" y="420">UNREGISTERED</text><text fill="#eeeeee" stroke="none" font-family="Arial" font-size="24px" font-style="normal" font-weight="normal" text-decoration="none" x="600" y="450">UNREGISTERED</text><text fill="#eeeeee" stroke="none" font-family="Arial" font-size="24px" font-style="normal" font-weight="normal" text-decoration="none" x="600" y="480">UNREGISTERED</text><text fill="#eeeeee" stroke="none" font-family="Arial" font-size="24px" font-style="normal" font-weight="normal" text-decoration="none" x="600" y="510">UNREGISTERED</text><text fill="#eeeeee" stroke="none" font-family="Arial" font-size="24px" font-style="normal" font-weight="normal" text-decoration="none" x="600" y="540">UNREGISTERED</text><text fill="#eeeeee" stroke="none" font-family="Arial" font-size="24px" font-style="normal" font-weight="normal" text-decoration="none" x="600" y="570">UNREGISTERED</text><text fill="#eeeeee" stroke="none" font-family="Arial" font-size="24px" font-style="normal" font-weight="normal" text-decoration="none" x="600" y="600">UNREGISTERED</text><text fill="#eeeeee" stroke="none" font-family="Arial" font-size="24px" font-style="normal" font-weight="normal" text-decoration="none" x="600" y="630">UNREGISTERED</text><text fill="#eeeeee" stroke="none" font-family="Arial" font-size="24px" font-style="normal" font-weight="normal" text-decoration="none" x="600" y="660">UNREGISTERED</text><text fill="#eeeeee" stroke="none" font-family="Arial" font-size="24px" font-style="normal" font-weight="normal" text-decoration="none" x="600" y="690">UNREGISTERED</text><g transform="translate(4,-6) scale(1,1)"><g><path fill="none" stroke="none"/><text fill="#000000" stroke="none" font-family="Arial" font-size="18px" font-style="normal" font-weight="normal" text-decoration="none" x="149" y="35">Diag d'états pour l'entité commande (cycle  de vie)</text></g></g><g transform="translate(4,-6) scale(1,1)"><path fill="#C0C0C0" stroke="none" d="M 94 103.5 C 94 98.2532944 98.2532944 94 103.5 94 C 108.7467056 94 113 98.2532944 113 103.5 C 113 108.7467056 108.7467056 113 103.5 113 C 98.2532944 113 94 108.7467056 94 103.5 Z" opacity="0.2"/></g><g transform="translate(4,-6) scale(1,1)"><path fill="#000000" stroke="none" d="M 87 96.5 C 87 91.2532944 91.2532944 87 96.5 87 C 101.7467056 87 106 91.2532944 106 96.5 C 106 101.7467056 101.7467056 106 96.5 106 C 91.2532944 106 87 101.7467056 87 96.5 Z"/></g><g transform="translate(4,-6) scale(1,1)"><path fill="#C0C0C0" stroke="none" d="M 175 683.5 C 175 676.59644 180.59644 671 187.5 671 C 194.40356 671 200 676.59644 200 683.5 C 200 690.40356 194.40356 696 187.5 696 C 180.59644 696 175 690.40356 175 683.5 Z" opacity="0.2"/></g><g transform="translate(4,-6) scale(1,1)"><path fill="none" stroke="#000000" d="M 168 676.5 C 168 669.59644 173.59644 664 180.5 664 C 187.40356 664 193 669.59644 193 676.5 C 193 683.40356 187.40356 689 180.5 689 C 173.59644 689 168 683.40356 168 676.5 Z" stroke-miterlimit="10"/></g><g transform="translate(4,-6) scale(1,1)"><path fill="#000000" stroke="none" d="M 173 676.5 C 173 672.357864 176.357864 669 180.5 669 C 184.642136 669 188 672.357864 188 676.5 C 188 680.642136 184.642136 684 180.5 684 C 176.357864 684 173 680.642136 173 676.5 Z"/></g><g transform="translate(4,-6) scale(1,1)"><path fill="#C0C0C0" stroke="none" d="M 177 135 L 287.11328125 135 Q 297.11328125 135 297.11328125 145 L 297.11328125 164 Q 297.11328125 174 287.11328125 174 L 177 174 Q 167 174 167 164 L 167 145 Q 167 135 177 135 Z" opacity="0.2"/></g><g transform="translate(4,-6) scale(1,1)"><path fill="#ffffff" stroke="none" d="M 170 128 L 280.11328125 128 Q 290.11328125 128 290.11328125 138 L 290.11328125 157 Q 290.11328125 167 280.11328125 167 L 170 167 Q 160 167 160 157 L 160 138 Q 160 128 170 128 Z"/></g><g transform="translate(4,-6) scale(1,1)"><path fill="none" stroke="#000000" d="M 170 128 L 280.11328125 128 Q 290.11328125 128 290.11328125 138 L 290.11328125 157 Q 290.11328125 167 280.11328125 167 L 170 167 Q 160 167 160 157 L 160 138 Q 160 128 170 128 Z" stroke-miterlimit="10"/></g><g transform="translate(4,-6) scale(1,1)"><g><path fill="none" stroke="none"/><text fill="#000000" stroke="none" font-family="Arial" font-size="13px" font-style="normal" font-weight="bold" text-decoration="none" x="165.22998046875" y="146">EN_ELABORATION</text></g></g><g transform="translate(4,-6) scale(1,1)"><path fill="#C0C0C0" stroke="none" d="M 441 263 L 480 263 Q 490 263 490 273 L 490 292 Q 490 302 480 302 L 441 302 Q 431 302 431 292 L 431 273 Q 431 263 441 263 Z" opacity="0.2"/></g><g transform="translate(4,-6) scale(1,1)"><path fill="#ffffff" stroke="none" d="M 434 256 L 473 256 Q 483 256 483 266 L 483 285 Q 483 295 473 295 L 434 295 Q 424 295 424 285 L 424 266 Q 424 256 434 256 Z"/></g><g transform="translate(4,-6) scale(1,1)"><path fill="none" stroke="#000000" d="M 434 256 L 473 256 Q 483 256 483 266 L 483 285 Q 483 295 473 295 L 434 295 Q 424 295 424 285 L 424 266 Q 424 256 434 256 Z" stroke-miterlimit="10"/></g><g transform="translate(4,-6) scale(1,1)"><g><path fill="none" stroke="none"/><text fill="#000000" stroke="none" font-family="Arial" font-size="13px" font-style="normal" font-weight="bold" text-decoration="none" x="432.543212890625" y="274">PAYEE</text></g></g><g transform="translate(4,-6) scale(1,1)"><path fill="#C0C0C0" stroke="none" d="M 177 311 L 281.0830078125 311 Q 291.0830078125 311 291.0830078125 321 L 291.0830078125 340 Q 291.0830078125 350 281.0830078125 350 L 177 350 Q 167 350 167 340 L 167 321 Q 167 311 177 311 Z" opacity="0.2"/></g><g transform="translate(4,-6) scale(1,1)"><path fill="#ffffff" stroke="none" d="M 170 304 L 274.0830078125 304 Q 284.0830078125 304 284.0830078125 314 L 284.0830078125 333 Q 284.0830078125 343 274.0830078125 343 L 170 343 Q 160 343 160 333 L 160 314 Q 160 304 170 304 Z"/></g><g transform="translate(4,-6) scale(1,1)"><path fill="none" stroke="#000000" d="M 170 304 L 274.0830078125 304 Q 284.0830078125 304 284.0830078125 314 L 284.0830078125 333 Q 284.0830078125 343 274.0830078125 343 L 170 343 Q 160 343 160 333 L 160 314 Q 160 304 170 304 Z" stroke-miterlimit="10"/></g><g transform="translate(4,-6) scale(1,1)"><g><path fill="none" stroke="none"/><text fill="#000000" stroke="none" font-family="Arial" font-size="13px" font-style="normal" font-weight="bold" text-decoration="none" x="165.46484375" y="322">EN_FABRICATION</text></g></g><g transform="translate(4,-6) scale(1,1)"><path fill="#C0C0C0" stroke="none" d="M 481 359 L 542.71240234375 359 Q 552.71240234375 359 552.71240234375 369 L 552.71240234375 388 Q 552.71240234375 398 542.71240234375 398 L 481 398 Q 471 398 471 388 L 471 369 Q 471 359 481 359 Z" opacity="0.2"/></g><g transform="translate(4,-6) scale(1,1)"><path fill="#ffffff" stroke="none" d="M 474 352 L 535.71240234375 352 Q 545.71240234375 352 545.71240234375 362 L 545.71240234375 381 Q 545.71240234375 391 535.71240234375 391 L 474 391 Q 464 391 464 381 L 464 362 Q 464 352 474 352 Z"/></g><g transform="translate(4,-6) scale(1,1)"><path fill="none" stroke="#000000" d="M 474 352 L 535.71240234375 352 Q 545.71240234375 352 545.71240234375 362 L 545.71240234375 381 Q 545.71240234375 391 535.71240234375 391 L 474 391 Q 464 391 464 381 L 464 362 Q 464 352 474 352 Z" stroke-miterlimit="10"/></g><g transform="translate(4,-6) scale(1,1)"><g><path fill="none" stroke="none"/><text fill="#000000" stroke="none" font-family="Arial" font-size="13px" font-style="normal" font-weight="bold" text-decoration="none" x="468.5" y="370">PACKAGEE</text></g></g><g transform="translate(4,-6) scale(1,1)"><path fill="#C0C0C0" stroke="none" d="M 417 439 L 472.4599609375 439 Q 482.4599609375 439 482.4599609375 449 L 482.4599609375 468 Q 482.4599609375 478 472.4599609375 478 L 417 478 Q 407 478 407 468 L 407 449 Q 407 439 417 439 Z" opacity="0.2"/></g><g transform="translate(4,-6) scale(1,1)"><path fill="#ffffff" stroke="none" d="M 410 432 L 465.4599609375 432 Q 475.4599609375 432 475.4599609375 442 L 475.4599609375 461 Q 475.4599609375 471 465.4599609375 471 L 410 471 Q 400 471 400 461 L 400 442 Q 400 432 410 432 Z"/></g><g transform="translate(4,-6) scale(1,1)"><path fill="none" stroke="#000000" d="M 410 432 L 465.4599609375 432 Q 475.4599609375 432 475.4599609375 442 L 475.4599609375 461 Q 475.4599609375 471 465.4599609375 471 L 410 471 Q 400 471 400 461 L 400 442 Q 400 432 410 432 Z" stroke-miterlimit="10"/></g><g transform="translate(4,-6) scale(1,1)"><g><path fill="none" stroke="none"/><text fill="#000000" stroke="none" font-family="Arial" font-size="13px" font-style="normal" font-weight="bold" text-decoration="none" x="405.21728515625" y="450">EXPEDIEE</text></g></g><g transform="translate(4,-6) scale(1,1)"><path fill="#C0C0C0" stroke="none" d="M 545 575 L 638.01904296875 575 Q 648.01904296875 575 648.01904296875 585 L 648.01904296875 604 Q 648.01904296875 614 638.01904296875 614 L 545 614 Q 535 614 535 604 L 535 585 Q 535 575 545 575 Z" opacity="0.2"/></g><g transform="translate(4,-6) scale(1,1)"><path fill="#ffffff" stroke="none" d="M 538 568 L 631.01904296875 568 Q 641.01904296875 568 641.01904296875 578 L 641.01904296875 597 Q 641.01904296875 607 631.01904296875 607 L 538 607 Q 528 607 528 597 L 528 578 Q 528 568 538 568 Z"/></g><g transform="translate(4,-6) scale(1,1)"><path fill="none" stroke="#000000" d="M 538 568 L 631.01904296875 568 Q 641.01904296875 568 641.01904296875 578 L 641.01904296875 597 Q 641.01904296875 607 631.01904296875 607 L 538 607 Q 528 607 528 597 L 528 578 Q 528 568 538 568 Z" stroke-miterlimit="10"/></g><g transform="translate(4,-6) scale(1,1)"><g><path fill="none" stroke="none"/><text fill="#000000" stroke="none" font-family="Arial" font-size="13px" font-style="normal" font-weight="bold" text-decoration="none" x="533.2236328125" y="586">RECEPTIONNEE</text></g></g><g transform="translate(4,-6) scale(1,1)"><path fill="#C0C0C0" stroke="none" d="M 257 543 L 328.11328125 543 Q 338.11328125 543 338.11328125 553 L 338.11328125 572 Q 338.11328125 582 328.11328125 582 L 257 582 Q 247 582 247 572 L 247 553 Q 247 543 257 543 Z" opacity="0.2"/></g><g transform="translate(4,-6) scale(1,1)"><path fill="#ffffff" stroke="none" d="M 250 536 L 321.11328125 536 Q 331.11328125 536 331.11328125 546 L 331.11328125 565 Q 331.11328125 575 321.11328125 575 L 250 575 Q 240 575 240 565 L 240 546 Q 240 536 250 536 Z"/></g><g transform="translate(4,-6) scale(1,1)"><path fill="none" stroke="#000000" d="M 250 536 L 321.11328125 536 Q 331.11328125 536 331.11328125 546 L 331.11328125 565 Q 331.11328125 575 321.11328125 575 L 250 575 Q 240 575 240 565 L 240 546 Q 240 536 250 536 Z" stroke-miterlimit="10"/></g><g transform="translate(4,-6) scale(1,1)"><g><path fill="none" stroke="none"/><text fill="#000000" stroke="none" font-family="Arial" font-size="13px" font-style="normal" font-weight="bold" text-decoration="none" x="244.864990234375" y="554">RETOURNEE</text></g></g><g transform="translate(4,-6) scale(1,1)"><path fill="#C0C0C0" stroke="none" d="M 369 591 L 428.0654296875 591 Q 438.0654296875 591 438.0654296875 601 L 438.0654296875 620 Q 438.0654296875 630 428.0654296875 630 L 369 630 Q 359 630 359 620 L 359 601 Q 359 591 369 591 Z" opacity="0.2"/></g><g transform="translate(4,-6) scale(1,1)"><path fill="#ffffff" stroke="none" d="M 362 584 L 421.0654296875 584 Q 431.0654296875 584 431.0654296875 594 L 431.0654296875 613 Q 431.0654296875 623 421.0654296875 623 L 362 623 Q 352 623 352 613 L 352 594 Q 352 584 362 584 Z"/></g><g transform="translate(4,-6) scale(1,1)"><path fill="none" stroke="#000000" d="M 362 584 L 421.0654296875 584 Q 431.0654296875 584 431.0654296875 594 L 431.0654296875 613 Q 431.0654296875 623 421.0654296875 623 L 362 623 Q 352 623 352 613 L 352 594 Q 352 584 362 584 Z" stroke-miterlimit="10"/></g><g transform="translate(4,-6) scale(1,1)"><g><path fill="none" stroke="none"/><text fill="#000000" stroke="none" font-family="Arial" font-size="13px" font-style="normal" font-weight="bold" text-decoration="none" x="357.944091796875" y="602">ARCHIVEE</text></g></g><g transform="translate(4,-6) scale(1,1)"><path fill="#C0C0C0" stroke="none" d="M 209 215 L 255.560546875 215 Q 265.560546875 215 265.560546875 225 L 265.560546875 244 Q 265.560546875 254 255.560546875 254 L 209 254 Q 199 254 199 244 L 199 225 Q 199 215 209 215 Z" opacity="0.2"/></g><g transform="translate(4,-6) scale(1,1)"><path fill="#ffffff" stroke="none" d="M 202 208 L 248.560546875 208 Q 258.560546875 208 258.560546875 218 L 258.560546875 237 Q 258.560546875 247 248.560546875 247 L 202 247 Q 192 247 192 237 L 192 218 Q 192 208 202 208 Z"/></g><g transform="translate(4,-6) scale(1,1)"><path fill="none" stroke="#000000" d="M 202 208 L 248.560546875 208 Q 258.560546875 208 258.560546875 218 L 258.560546875 237 Q 258.560546875 247 248.560546875 247 L 202 247 Q 192 247 192 237 L 192 218 Q 192 208 202 208 Z" stroke-miterlimit="10"/></g><g transform="translate(4,-6) scale(1,1)"><g><path fill="none" stroke="none"/><text fill="#000000" stroke="none" font-family="Arial" font-size="13px" font-style="normal" font-weight="bold" text-decoration="none" x="197.591796875" y="226">VALIDEE</text></g></g><g transform="translate(4,-6) scale(1,1)"><path fill="none" stroke="#000000" d="M 107 100 L 174 127" stroke-miterlimit="10"/></g><g transform="translate(4,-6) scale(1,1)"><path fill="none" stroke="#000000" d="M 163.00050920364393 127.10584054458528 L 174 127 L 166.14734490149687 119.29702603509833" stroke-miterlimit="10"/></g><g transform="translate(4,-6) scale(1,1)"><path fill="none" stroke="#000000" d="M 211 128 L 211 107 L 320 107 L 320 147 L 290 147" stroke-miterlimit="10"/></g><g transform="translate(4,-6) scale(1,1)"><path fill="none" stroke="#000000" d="M 300.16267485762415 142.790482243984 L 290 147 L 300.16267485762415 151.209517756016" stroke-miterlimit="10"/></g><g transform="translate(4,-6) scale(1,1)"><g><path fill="none" stroke="none"/><text fill="#000000" stroke="none" font-family="Arial" font-size="13px" font-style="normal" font-weight="normal" text-decoration="none" x="246.5" y="90">ajustements dans caddy</text></g></g><g transform="translate(4,-6) scale(1,1)"><path fill="none" stroke="#000000" d="M 225 168 L 225 207" stroke-miterlimit="10"/></g><g transform="translate(4,-6) scale(1,1)"><path fill="none" stroke="#000000" d="M 220.790482243984 196.83732514237585 L 225 207 L 229.209517756016 196.83732514237585" stroke-miterlimit="10"/></g><g transform="translate(4,-6) scale(1,1)"><g><path fill="none" stroke="none"/><text fill="#000000" stroke="none" font-family="Arial" font-size="13px" font-style="normal" font-weight="normal" text-decoration="none" x="236.5" y="203">entièrement paramétrée et validée</text></g></g><g transform="translate(4,-6) scale(1,1)"><path fill="none" stroke="#000000" d="M 260 234 L 423 269" stroke-miterlimit="10"/></g><g transform="translate(4,-6) scale(1,1)"><path fill="none" stroke="#000000" d="M 412.1800642205869 270.9821679367242 L 423 269 L 413.94754564886586 262.75075442788227" stroke-miterlimit="10"/></g><g transform="translate(4,-6) scale(1,1)"><g><path fill="none" stroke="none"/><text fill="#000000" stroke="none" font-family="Arial" font-size="13px" font-style="normal" font-weight="normal" text-decoration="none" x="305.5" y="236">paiement en ligne effectué</text></g></g><g transform="translate(4,-6) scale(1,1)"><path fill="none" stroke="#000000" d="M 423 281 L 285 310" stroke-miterlimit="10"/></g><g transform="translate(4,-6) scale(1,1)"><path fill="none" stroke="#000000" d="M 294.07974702955386 303.79047555127545 L 285 310 L 295.8111475416927 312.0295538504191" stroke-miterlimit="10"/></g><g transform="translate(4,-6) scale(1,1)"><g><path fill="none" stroke="none"/><text fill="#000000" stroke="none" font-family="Arial" font-size="13px" font-style="normal" font-weight="normal" text-decoration="none" x="238.5" y="291">fabrication commencée</text></g></g><g transform="translate(4,-6) scale(1,1)"><path fill="none" stroke="#000000" d="M 285 334 L 463 364" stroke-miterlimit="10"/></g><g transform="translate(4,-6) scale(1,1)"><path fill="none" stroke="#000000" d="M 452.2790565462557 366.4619852683589 L 463 364 L 453.6782617047019 358.1600346615778" stroke-miterlimit="10"/></g><g transform="translate(4,-6) scale(1,1)"><g><path fill="none" stroke="none"/><text fill="#000000" stroke="none" font-family="Arial" font-size="13px" font-style="normal" font-weight="normal" text-decoration="none" x="375.5" y="339">fabrication terminée</text></g></g><g transform="translate(4,-6) scale(1,1)"><path fill="none" stroke="#000000" d="M 486 392 L 454 431" stroke-miterlimit="10"/></g><g transform="translate(4,-6) scale(1,1)"><path fill="none" stroke="#000000" d="M 457.192087401524 420.47333965490327 L 454 431 L 463.7006195610232 425.81367373449234" stroke-miterlimit="10"/></g><g transform="translate(4,-6) scale(1,1)"><g><path fill="none" stroke="none"/><text fill="#000000" stroke="none" font-family="Arial" font-size="13px" font-style="normal" font-weight="normal" text-decoration="none" x="483.5" y="438">colis confié au transporteur</text></g></g><g transform="translate(4,-6) scale(1,1)"><path fill="none" stroke="#000000" d="M 460 472 L 562 567" stroke-miterlimit="10"/></g><g transform="translate(4,-6) scale(1,1)"><path fill="none" stroke="#000000" d="M 551.694252303214 563.1540197075141 L 562 567 L 557.4322546635316 556.9932171732784" stroke-miterlimit="10"/></g><g transform="translate(4,-6) scale(1,1)"><g><path fill="none" stroke="none"/><text fill="#000000" stroke="none" font-family="Arial" font-size="13px" font-style="normal" font-weight="normal" text-decoration="none" x="531.5" y="521">A.R. reçu</text></g></g><g transform="translate(4,-6) scale(1,1)"><path fill="none" stroke="#000000" d="M 406 472 L 314 535" stroke-miterlimit="10"/></g><g transform="translate(4,-6) scale(1,1)"><path fill="none" stroke="#000000" d="M 320.006692974842 525.7848147329539 L 314 535 L 324.76349332723504 532.7312533427977" stroke-miterlimit="10"/></g><g transform="translate(4,-6) scale(1,1)"><g><path fill="none" stroke="none"/><text fill="#000000" stroke="none" font-family="Arial" font-size="13px" font-style="normal" font-weight="normal" text-decoration="none" x="357.5" y="531">livraison impossible</text></g></g><g transform="translate(4,-6) scale(1,1)"><path fill="none" stroke="#000000" d="M 527 592 L 432 600" stroke-miterlimit="10"/></g><g transform="translate(4,-6) scale(1,1)"><path fill="none" stroke="#000000" d="M 441.77359607011175 594.9525432286848 L 432 600 L 442.48006696849717 603.3418851470113" stroke-miterlimit="10"/></g><g transform="translate(4,-6) scale(1,1)"><g><path fill="none" stroke="none"/><text fill="#000000" stroke="none" font-family="Arial" font-size="13px" font-style="normal" font-weight="normal" text-decoration="none" x="449.5" y="615">après 1 an</text></g></g><g transform="translate(4,-6) scale(1,1)"><path fill="none" stroke="#000000" d="M 351 617 L 194 671" stroke-miterlimit="10"/></g><g transform="translate(4,-6) scale(1,1)"><path fill="none" stroke="#000000" d="M 202.24097959042803 663.7139684745296 L 194 671 L 204.97925485161068 671.6752502524125" stroke-miterlimit="10"/></g><g transform="translate(4,-6) scale(1,1)"><g><path fill="none" stroke="none"/><text fill="#000000" stroke="none" font-family="Arial" font-size="13px" font-style="normal" font-weight="normal" text-decoration="none" x="242.5" y="663">après 5 ans</text></g></g><g transform="translate(4,-6) scale(1,1)"><path fill="#C0C0C0" stroke="none" d="M 41 575 L 93.5654296875 575 Q 103.5654296875 575 103.5654296875 585 L 103.5654296875 604 Q 103.5654296875 614 93.5654296875 614 L 41 614 Q 31 614 31 604 L 31 585 Q 31 575 41 575 Z" opacity="0.2"/></g><g transform="translate(4,-6) scale(1,1)"><path fill="#ffffff" stroke="none" d="M 34 568 L 86.5654296875 568 Q 96.5654296875 568 96.5654296875 578 L 96.5654296875 597 Q 96.5654296875 607 86.5654296875 607 L 34 607 Q 24 607 24 597 L 24 578 Q 24 568 34 568 Z"/></g><g transform="translate(4,-6) scale(1,1)"><path fill="none" stroke="#000000" d="M 34 568 L 86.5654296875 568 Q 96.5654296875 568 96.5654296875 578 L 96.5654296875 597 Q 96.5654296875 607 86.5654296875 607 L 34 607 Q 24 607 24 597 L 24 578 Q 24 568 34 568 Z" stroke-miterlimit="10"/></g><g transform="translate(4,-6) scale(1,1)"><g><path fill="none" stroke="none"/><text fill="#000000" stroke="none" font-family="Arial" font-size="13px" font-style="normal" font-weight="bold" text-decoration="none" x="28.864990234375" y="586">ANNULEE</text></g></g><g transform="translate(4,-6) scale(1,1)"><path fill="none" stroke="#000000" d="M 191 238 L 56 280 L 60 567" stroke-miterlimit="10"/></g><g transform="translate(4,-6) scale(1,1)"><path fill="none" stroke="#000000" d="M 55.649264716220415 556.8969755770623 L 60 567 L 64.06748265764442 556.7796484977393" stroke-miterlimit="10"/></g><g transform="translate(4,-6) scale(1,1)"><g><path fill="none" stroke="none"/><text fill="#000000" stroke="none" font-family="Arial" font-size="13px" font-style="normal" font-weight="normal" text-decoration="none" x="5.5" y="262">abandonnée</text></g></g><g transform="translate(4,-6) scale(1,1)"><path fill="none" stroke="#000000" d="M 88 608 L 167 666" stroke-miterlimit="10"/></g><g transform="translate(4,-6) scale(1,1)"><path fill="none" stroke="#000000" d="M 156.31684858014896 663.3788789153238 L 167 666 L 161.29928367986625 656.592458693295" stroke-miterlimit="10"/></g><g transform="translate(4,-6) scale(1,1)"><path fill="#C0C0C0" stroke="none" d="M 121 423 L 315.13720703125 423 Q 325.13720703125 423 325.13720703125 433 L 325.13720703125 452 Q 325.13720703125 462 315.13720703125 462 L 121 462 Q 111 462 111 452 L 111 433 Q 111 423 121 423 Z" opacity="0.2"/></g><g transform="translate(4,-6) scale(1,1)"><path fill="#ffffff" stroke="none" d="M 114 416 L 308.13720703125 416 Q 318.13720703125 416 318.13720703125 426 L 318.13720703125 445 Q 318.13720703125 455 308.13720703125 455 L 114 455 Q 104 455 104 445 L 104 426 Q 104 416 114 416 Z"/></g><g transform="translate(4,-6) scale(1,1)"><path fill="none" stroke="#000000" d="M 114 416 L 308.13720703125 416 Q 318.13720703125 416 318.13720703125 426 L 318.13720703125 445 Q 318.13720703125 455 308.13720703125 455 L 114 455 Q 104 455 104 445 L 104 426 Q 104 416 114 416 Z" stroke-miterlimit="10"/></g><g transform="translate(4,-6) scale(1,1)"><g><path fill="none" stroke="none"/><text fill="#000000" stroke="none" font-family="Arial" font-size="13px" font-style="normal" font-weight="bold" text-decoration="none" x="108.5" y="434">A_REMBOURSER_ET_ANNULER</text></g></g><g transform="translate(4,-6) scale(1,1)"><path fill="none" stroke="#000000" d="M 190 456 L 80 567" stroke-miterlimit="10"/></g><g transform="translate(4,-6) scale(1,1)"><path fill="none" stroke="#000000" d="M 84.16349017922663 556.8183817824727 L 80 567 L 90.14352342420078 562.7445408540688" stroke-miterlimit="10"/></g><g transform="translate(4,-6) scale(1,1)"><g><path fill="none" stroke="none"/><text fill="#000000" stroke="none" font-family="Arial" font-size="13px" font-style="normal" font-weight="normal" text-decoration="none" x="71.5" y="515">remboursement effectué</text></g></g><g transform="translate(4,-6) scale(1,1)"><path fill="none" stroke="#000000" d="M 264 535 L 224 496 L 215 456" stroke-miterlimit="10"/></g><g transform="translate(4,-6) scale(1,1)"><path fill="none" stroke="#000000" d="M 221.33767765754286 464.99076425611764 L 215 456 L 213.12398447507263 466.8388452221734" stroke-miterlimit="10"/></g><g transform="translate(4,-6) scale(1,1)"><g><path fill="none" stroke="none"/><text fill="#000000" stroke="none" font-family="Arial" font-size="13px" font-style="normal" font-weight="normal" text-decoration="none" x="221.5" y="489">colis retourné vérifié</text></g></g><g transform="translate(4,-6) scale(1,1)"><path fill="none" stroke="#000000" d="M 220 344 L 213 415" stroke-miterlimit="10"/></g><g transform="translate(4,-6) scale(1,1)"><path fill="none" stroke="#000000" d="M 209.807912598476 404.47333965490327 L 213 415 L 218.18632626550766 405.2993804389768" stroke-miterlimit="10"/></g><g transform="translate(4,-6) scale(1,1)"><g><path fill="none" stroke="none"/><text fill="#000000" stroke="none" font-family="Arial" font-size="13px" font-style="normal" font-weight="normal" text-decoration="none" x="151.5" y="379">fabrication   impossible dans les délais</text></g></g><g transform="translate(4,-6) scale(1,1)"><path fill="#ffffff" stroke="none" d="M 456 120 L 725 120 L 735 130 L 735 184 L 456 184 L 456 120"/></g><g transform="translate(4,-6) scale(1,1)"><path fill="none" stroke="#000000" d="M 456 120 L 725 120 L 735 130 L 735 184 L 456 184 L 456 120 L 456 120" stroke-miterlimit="10"/></g><g transform="translate(4,-6) scale(1,1)"><path fill="none" stroke="#000000" d="M 725 120 L 725 130 L 735 130 L 725 120" stroke-miterlimit="10"/></g><g transform="translate(4,-6) scale(1,1)"><g><path fill="none" stroke="none"/><text fill="#000000" stroke="none" font-family="Arial" font-size="13px" font-style="normal" font-weight="normal" text-decoration="none" x="461" y="135">associée à un client (email validé ,</text><text fill="#000000" stroke="none" font-family="Arial" font-size="13px" font-style="normal" font-weight="normal" text-decoration="none" x="461" y="148">coordonnées renseignées) </text></g></g><g transform="translate(4,-6) scale(1,1)"><g><path fill="none" stroke="none"/><text fill="#000000" stroke="none" font-family="Arial" font-size="13px" font-style="normal" font-weight="normal" text-decoration="none" x="461" y="163">acceptée par le client (conditions de vente, ...)</text></g></g><g transform="translate(4,-6) scale(1,1)"><path fill="none" stroke="#000000" d="M 455 165 L 225 187" stroke-miterlimit="10" stroke-dasharray="3"/></g></g></svg>