<svg version="1.1" xmlns="http://www.w3.org/2000/svg" xmlns:xlink="http://www.w3.org/1999/xlink" width="756.4072265625" height="742"><defs/><g><text fill="#eeeeee" stroke="none" font-family="Arial" font-size="24px" font-style="normal" font-weight="normal" text-decoration="none" x="0" y="0">UNREGISTERED</text><text fill="#eeeeee" stroke="none" font-family="Arial" font-size="24px" font-style="normal" font-weight="normal" text-decoration="none" x="0" y="30">UNREGISTERED</text><text fill="#eeeeee" stroke="none" font-family="Arial" font-size="24px" font-style="normal" font-weight="normal" text-decoration="none" x="0" y="60">UNREGISTERED</text><text fill="#eeeeee" stroke="none" font-family="Arial" font-size="24px" font-style="normal" font-weight="normal" text-decoration="none" x="0" y="90">UNREGISTERED</text><text fill="#eeeeee" stroke="none" font-family="Arial" font-size="24px" font-style="normal" font-weight="normal" text-decoration="none" x="0" y="120">UNREGISTERED</text><text fill="#eeeeee" stroke="none" font-family="Arial" font-size="24px" font-style="normal" font-weight="normal" text-decoration="none" x="0" y="150">UNREGISTERED</text><text fill="#eeeeee" stroke="none" font-family="Arial" font-size="24px" font-style="normal" font-weight="normal" text-decoration="none" x="0" y="180">UNREGISTERED</text><text fill="#eeeeee" stroke="none" font-family="Arial" font-size="24px" font-style="normal" font-weight="normal" text-decoration="none" x="0" y="210">UNREGISTERED</text><text fill="#eeeeee" stroke="none" font-family="Arial" font-size="24px" font-style="normal" font-weight="normal" text-decoration="none" x="0" y="240">UNREGISTERED</text><text fill="#eeeeee" stroke="none" font-family="Arial" font-size="24px" font-style="normal" font-weight="normal" text-decoration="none" x="0" y="270">UNREGISTERED</text><text fill="#eeeeee" stroke="none" font-family="Arial" font-size="24px" font-style="normal" font-weight="normal" text-decoration="none" x="0" y="300">UNREGISTERED</text><text fill="#eeeeee" stroke="none" font-family="Arial" font-size="24px" font-style="normal" font-weight="normal" text-decoration="none" x="0" y="330">UNREGISTERED</text><text fill="#eeeeee" stroke="none" font-family="Arial" font-size="24px" font-style="normal" font-weight="normal" text-decoration="none" x="0" y="360">UNREGISTERED</text><text fill="#eeeeee" stroke="none" font-family="Arial" font-size="24px" font-style="normal" font-weight="normal" text-decoration="none" x="0" y="390">UNREGISTERED</text><text fill="#eeeeee" stroke="none" font-family="Arial" font-size="24px" font-style="normal" font-weight="normal" text-decoration="none" x="0" y="420">UNREGISTERED</text><text fill="#eeeeee" stroke="none" font-family="Arial" font-size="24px" font-style="normal" font-weight="normal" text-decoration="none" x="0" y="450">UNREGISTERED</text><text fill="#eeeeee" stroke="none" font-family="Arial" font-size="24px" font-style="normal" font-weight="normal" text-decoration="none" x="0" y="480">UNREGISTERED</text><text fill="#eeeeee" stroke="none" font-family="Arial" font-size="24px" font-style="normal" font-weight="normal" text-decoration="none" x="0" y="510">UNREGISTERED</text><text fill="#eeeeee" stroke="none" font-family="Arial" font-size="24px" font-style="normal" font-weight="normal" text-decoration="none" x="0" y="540">UNREGISTERED</text><text fill="#eeeeee" stroke="none" font-family="Arial" font-size="24px" font-style="normal" font-weight="normal" text-decoration="none" x="0" y="570">UNREGISTERED</text><text fill="#eeeeee" stroke="none" font-family="Arial" font-size="24px" font-style="normal" font-weight="normal" text-decoration="none" x="0" y="600">UNREGISTERED</text><text fill="#eeeeee" stroke="none" font-family="Arial" font-size="24px" font-style="normal" font-weight="normal" text-decoration="none" x="0" y="630">UNREGISTERED</text><text fill="#eeeeee" stroke="none" font-family="Arial" font-size="24px" font-style="normal" font-weight="normal" text-decoration="none" x="0" y="660">UNREGISTERED</text><text fill="#eeeeee" stroke="none" font-family="Arial" font-size="24px" font-style="normal" font-weight="normal" text-decoration="none" x="0" y="690">UNREGISTERED</text><text fill="#eeeeee" stroke="none" font-family="Arial" font-size="24px" font-style="normal" font-weight="normal" text-decoration="none" x="0" y="720">UNREGISTERED</text><text fill="#eeeeee" stroke="none" font-family="Arial" font-size="24px" font-style="normal" font-weight="normal" text-decoration="none" x="200" y="0">UNREGISTERED</text><text fill="#eeeeee" stroke="none" font-family="Arial" font-size="24px" font-style="normal" font-weight="normal" text-decoration="none" x="200" y="30">UNREGISTERED</text><text fill="#eeeeee" stroke="none" font-family="Arial" font-size="24px" font-style="normal" font-weight="normal" text-decoration="none" x="200" y="60">UNREGISTERED</text><text fill="#eeeeee" stroke="none" font-family="Arial" font-size="24px" font-style="normal" font-weight="normal" text-decoration="none" x="200" y="90">UNREGISTERED</text><text fill="#eeeeee" stroke="none" font-family="Arial" font-size="24px" font-style="normal" font-weight="normal" text-decoration="none" x="200" y="120">UNREGISTERED</text><text fill="#eeeeee" stroke="none" font-family="Arial" font-size="24px" font-style="normal" font-weight="normal" text-decoration="none" x="200" y="150">UNREGISTERED</text><text fill="#eeeeee" stroke="none" font-family="Arial" font-size="24px" font-style="normal" font-weight="normal" text-decoration="none" x="200" y="180">UNREGISTERED</text><text fill="#eeeeee" stroke="none" font-family="Arial" font-size="24px" font-style="normal" font-weight="normal" text-decoration="none" x="200" y="210">UNREGISTERED</text><text fill="#eeeeee" stroke="none" font-family="Arial" font-size="24px" font-style="normal" font-weight="normal" text-decoration="none" x="200" y="240">UNREGISTERED</text><text fill="#eeeeee" stroke="none" font-family="Arial" font-size="24px" font-style="normal" font-weight="normal" text-decoration="none" x="200" y="270">UNREGISTERED</text><text fill="#eeeeee" stroke="none" font-family="Arial" font-size="24px" font-style="normal" font-weight="normal" text-decoration="none" x="200" y="300">UNREGISTERED</text><text fill="#eeeeee" stroke="none" font-family="Arial" font-size="24px" font-style="normal" font-weight="normal" text-decoration="none" x="200" y="330">UNREGISTERED</text><text fill="#eeeeee" stroke="none" font-family="Arial" font-size="24px" font-style="normal" font-weight="normal" text-decoration="none" x="200" y="360">UNREGISTERED</text><text fill="#eeeeee" stroke="none" font-family="Arial" font-size="24px" font-style="normal" font-weight="normal" text-decoration="none" x="200" y="390">UNREGISTERED</text><text fill="#eeeeee" stroke="none" font-family="Arial" font-size="24px" font-style="normal" font-weight="normal" text-decoration="none" x="200" y="420">UNREGISTERED</text><text fill="#eeeeee" stroke="none" font-family="Arial" font-size="24px" font-style="normal" font-weight="normal" text-decoration="none" x="200" y="450">UNREGISTERED</text><text fill="#eeeeee" stroke="none" font-family="Arial" font-size="24px" font-style="normal" font-weight="normal" text-decoration="none" x="200" y="480">UNREGISTERED</text><text fill="#eeeeee" stroke="none" font-family="Arial" font-size="24px" font-style="normal" font-weight="normal" text-decoration="none" x="200" y="510">UNREGISTERED</text><text fill="#eeeeee" stroke="none" font-family="Arial" font-size="24px" font-style="normal" font-weight="normal" text-decoration="none" x="200" y="540">UNREGISTERED</text><text fill="#eeeeee" stroke="none" font-family="Arial" font-size="24px" font-style="normal" font-weight="normal" text-decoration="none" x="200" y="570">UNREGISTERED</text><text fill="#eeeeee" stroke="none" font-family="Arial" font-size="24px" font-style="normal" font-weight="normal" text-decoration="none" x="200" y="600">UNREGISTERED</text><text fill="#eeeeee" stroke="none" font-family="Arial" font-size="24px" font-style="normal" font-weight="normal" text-decoration="none" x="200" y="630">UNREGISTERED</text><text fill="#eeeeee" stroke="none" font-family="Arial" font-size="24px" font-style="normal" font-weight="normal" text-decoration="none" x="200" y="660">UNREGISTERED</text><text fill="#eeeeee" stroke="none" font-family="Arial" font-size="24px" font-style="normal" font-weight="normal" text-decoration="none" x="200" y="690">UNREGISTERED</text><text fill="#eeeeee" stroke="none" font-family="Arial" font-size="24px" font-style="normal" font-weight="normal" text-decoration="none" x="200" y="720">UNREGISTERED</text><text fill="#eeeeee" stroke="none" font-family="Arial" font-size="24px" font-style="normal" font-weight="normal" text-decoration="none" x="400" y="0">UNREGISTERED</text><text fill="#eeeeee" stroke="none" font-family="Arial" font-size="24px" font-style="normal" font-weight="normal" text-decoration="none" x="400" y="30">UNREGISTERED</text><text fill="#eeeeee" stroke="none" font-family="Arial" font-size="24px" font-style="normal" font-weight="normal" text-decoration="none" x="400" y="60">UNREGISTERED</text><text fill="#eeeeee" stroke="none" font-family="Arial" font-size="24px" font-style="normal" font-weight="normal" text-decoration="none" x="400" y="90">UNREGISTERED</text><text fill="#eeeeee" stroke="none" font-family="Arial" font-size="24px" font-style="normal" font-weight="normal" text-decoration="none" x="400" y="120">UNREGISTERED</text><text fill="#eeeeee" stroke="none" font-family="Arial" font-size="24px" font-style="normal" font-weight="normal" text-decoration="none" x="400" y="150">UNREGISTERED</text><text fill="#eeeeee" stroke="none" font-family="Arial" font-size="24px" font-style="normal" font-weight="normal" text-decoration="none" x="400" y="180">UNREGISTERED</text><text fill="#eeeeee" stroke="none" font-family="Arial" font-size="24px" font-style="normal" font-weight="normal" text-decoration="none" x="400" y="210">UNREGISTERED</text><text fill="#eeeeee" stroke="none" font-family="Arial" font-size="24px" font-style="normal" font-weight="normal" text-decoration="none" x="400" y="240">UNREGISTERED</text><text fill="#eeeeee" stroke="none" font-family="Arial" font-size="24px" font-style="normal" font-weight="normal" text-decoration="none" x="400" y="270">UNREGISTERED</text><text fill="#eeeeee" stroke="none" font-family="Arial" font-size="24px" font-style="normal" font-weight="normal" text-decoration="none" x="400" y="300">UNREGISTERED</text><text fill="#eeeeee" stroke="none" font-family="Arial" font-size="24px" font-style="normal" font-weight="normal" text-decoration="none" x="400" y="330">UNREGISTERED</text><text fill="#eeeeee" stroke="none" font-family="Arial" font-size="24px" font-style="normal" font-weight="normal" text-decoration="none" x="400" y="360">UNREGISTERED</text><text fill="#eeeeee" stroke="none" font-family="Arial" font-size="24px" font-style="normal" font-weight="normal" text-decoration="none" x="400" y="390">UNREGISTERED</text><text fill="#eeeeee" stroke="none" font-family="Arial" font-size="24px" font-style="normal" font-weight="normal" text-decoration="none" x="400" y="420">UNREGISTERED</text><text fill="#eeeeee" stroke="none" font-family="Arial" font-size="24px" font-style="normal" font-weight="normal" text-decoration="none" x="400" y="450">UNREGISTERED</text><text fill="#eeeeee" stroke="none" font-family="Arial" font-size="24px" font-style="normal" font-weight="normal" text-decoration="none" x="400" y="480">UNREGISTERED</text><text fill="#eeeeee" stroke="none" font-family="Arial" font-size="24px" font-style="normal" font-weight="normal" text-decoration="none" x="400" y="510">UNREGISTERED</text><text fill="#eeeeee" stroke="none" font-family="Arial" font-size="24px" font-style="normal" font-weight="normal" text-decoration="none" x="400" y="540">UNREGISTERED</text><text fill="#eeeeee" stroke="none" font-family="Arial" font-size="24px" font-style="normal" font-weight="normal" text-decoration="none" x="400" y="570">UNREGISTERED</text><text fill="#eeeeee" stroke="none" font-family="Arial" font-size="24px" font-style="normal" font-weight="normal" text-decoration="none" x="400" y="600">UNREGISTERED</text><text fill="#eeeeee" stroke="none" font-family="Arial" font-size="24px" font-style="normal" font-weight="normal" text-decoration="none" x="400" y="630">UNREGISTERED</text><text fill="#eeeeee" stroke="none" font-family="Arial" font-size="24px" font-style="normal" font-weight="normal" text-decoration="none" x="400" y="660">UNREGISTERED</text><text fill="#eeeeee" stroke="none" font-family="Arial" font-size="24px" font-style="normal" font-weight="normal" text-decoration="none" x="400" y="690">UNREGISTERED</text><text fill="#eeeeee" stroke="none" font-family="Arial" font-size="24px" font-style="normal" font-weight="normal" text-decoration="none" x="400" y="720">UNREGISTERED</text><text fill="#eeeeee" stroke="none" font-family="Arial" font-size="24px" font-style="normal" font-weight="normal" text-decoration="none" x="600" y="0">UNREGISTERED</text><text fill="#eeeeee" stroke="none" font-family="Arial" font-size="24px" font-style="normal" font-weight="normal" text-decoration="none" x="600" y="30">UNREGISTERED</text><text fill="#eeeeee" stroke="none" font-family="Arial" font-size="24px" font-style="normal" font-weight="normal" text-decoration="none" x="600" y="60">UNREGISTERED</text><text fill="#eeeeee" stroke="none" font-family="Arial" font-size="24px" font-style="normal" font-weight="normal" text-decoration="none" x="600" y="90">UNREGISTERED</text><text fill="#eeeeee" stroke="none" font-family="Arial" font-size="24px" font-style="normal" font-weight="normal" text-decoration="none" x="600" y="120">UNREGISTERED</text><text fill="#eeeeee" stroke="none" font-family="Arial" font-size="24px" font-style="normal" font-weight="normal" text-decoration="none" x="600" y="150">UNREGISTERED</text><text fill="#eeeeee" stroke="none" font-family="Arial" font-size="24px" font-style="normal" font-weight="normal" text-decoration="none" x="600" y="180">UNREGISTERED</text><text fill="#eeeeee" stroke="none" font-family="Arial" font-size="24px" font-style="normal" font-weight="normal" text-decoration="none" x="600" y="210">UNREGISTERED</text><text fill="#eeeeee" stroke="none" font-family="Arial" font-size="24px" font-style="normal" font-weight="normal" text-decoration="none" x="600" y="240">UNREGISTERED</text><text fill="#eeeeee" stroke="none" font-family="Arial" font-size="24px" font-style="normal" font-weight="normal" text-decoration="none" x="600" y="270">UNREGISTERED</text><text fill="#eeeeee" stroke="none" font-family="Arial" font-size="24px" font-style="normal" font-weight="normal" text-decoration="none" x="600" y="300">UNREGISTERED</text><text fill="#eeeeee" stroke="none" font-family="Arial" font-size="24px" font-style="normal" font-weight="normal" text-decoration="none" x="600" y="330">UNREGISTERED</text><text fill="#eeeeee" stroke="none" font-family="Arial" font-size="24px" font-style="normal" font-weight="normal" text-decoration="none" x="600" y="360">UNREGISTERED</text><text fill="#eeeeee" stroke="none" font-family="Arial" font-size="24px" font-style="normal" font-weight="normal" text-decoration="none" x="600" y="390">UNREGISTERED</text><text fill="#eeeeee" stroke="none" font-family="Arial" font-size="24px" font-style="normal" font-weight="normal" text-decoration="none" x="600" y="420">UNREGISTERED</text><text fill="#eeeeee" stroke="none" font-family="Arial" font-size="24px" font-style="normal" font-weight="normal" text-decoration="none" x="600" y="450">UNREGISTERED</text><text fill="#eeeeee" stroke="none" font-family="Arial" font-size="24px" font-style="normal" font-weight="normal" text-decoration="none" x="600" y="480">UNREGISTERED</text><text fill="#eeeeee" stroke="none" font-family="Arial" font-size="24px" font-style="normal" font-weight="normal" text-decoration="none" x="600" y="510">UNREGISTERED</text><text fill="#eeeeee" stroke="none" font-family="Arial" font-size="24px" font-style="normal" font-weight="normal" text-decoration="none" x="600" y="540">UNREGISTERED</text><text fill="#eeeeee" stroke="none" font-family="Arial" font-size="24px" font-style="normal" font-weight="normal" text-decoration="none" x="600" y="570">UNREGISTERED</text><text fill="#eeeeee" stroke="none" font-family="Arial" font-size="24px" font-style="normal" font-weight="normal" text-decoration="none" x="600" y="600">UNREGISTERED</text><text fill="#eeeeee" stroke="none" font-family="Arial" font-size="24px" font-style="normal" font-weight="normal" text-decoration="none" x="600" y="630">UNREGISTERED</text><text fill="#eeeeee" stroke="none" font-family="Arial" font-size="24px" font-style="normal" font-weight="normal" text-decoration="none" x="600" y="660">UNREGISTERED</text><text fill="#eeeeee" stroke="none" font-family="Arial" font-size="24px" font-style="normal" font-weight="normal" text-decoration="none" x="600" y="690">UNREGISTERED</text><text fill="#eeeeee" stroke="none" font-family="Arial" font-size="24px" font-style="normal" font-weight="normal" text-decoration="none" x="600" y="720">UNREGISTERED</text><g transform="translate(-30,2) scale(1,1)"><rect fill="#C0C0C0" stroke="none" x="47" y="63" width="234.3037109375" height="112" opacity="0.2"/></g><g transform="translate(-30,2) scale(1,1)"><rect fill="#d8e5ff" stroke="none" x="40" y="56" width="234.3037109375" height="112"/></g><g transform="translate(-30,2) scale(1,1)"><path fill="none" stroke="#000000" d="M 40 56 L 274.3037109375 56 L 274.3037109375 168 L 40 168 L 40 56 Z Z" stroke-miterlimit="10"/></g><g transform="translate(-30,2) scale(1,1)"><rect fill="#d8e5ff" stroke="none" x="40" y="56" width="234.3037109375" height="112"/></g><g transform="translate(-30,2) scale(1,1)"><path fill="none" stroke="#000000" d="M 40 56 L 274.3037109375 56 L 274.3037109375 168 L 40 168 L 40 56 Z Z" stroke-miterlimit="10"/></g><g transform="translate(-30,2) scale(1,1)"><path fill="none" stroke="#000000" d="M 40 81 L 274.3037109375 81" stroke-miterlimit="10"/></g><g transform="translate(-30,2) scale(1,1)"><g><path fill="none" stroke="none"/><text fill="#000000" stroke="none" font-family="Arial" font-size="13px" font-style="normal" font-weight="bold" text-decoration="none" x="127.8955078125" y="74">c1: Client</text><path fill="none" stroke="#000000" d="M 186.408203125 75.5 L 127.8955078125 75.5" stroke-miterlimit="10"/></g></g><g transform="translate(-30,2) scale(1,1)"><g><path fill="none" stroke="none"/><text fill="#000000" stroke="none" font-family="Arial" font-size="13px" font-style="normal" font-weight="normal" text-decoration="none" x="45" y="97">+prenom = jean</text></g></g><g transform="translate(-30,2) scale(1,1)"><g><path fill="none" stroke="none"/><text fill="#000000" stroke="none" font-family="Arial" font-size="13px" font-style="normal" font-weight="normal" text-decoration="none" x="45" y="112">+nom = Bon</text></g></g><g transform="translate(-30,2) scale(1,1)"><g><path fill="none" stroke="none"/><text fill="#000000" stroke="none" font-family="Arial" font-size="13px" font-style="normal" font-weight="normal" text-decoration="none" x="45" y="127">+adresse = "12 rue Elle 75000 ParisCi"</text></g></g><g transform="translate(-30,2) scale(1,1)"><g><path fill="none" stroke="none"/><text fill="#000000" stroke="none" font-family="Arial" font-size="13px" font-style="normal" font-weight="normal" text-decoration="none" x="45" y="142">+telMobile = 0605040302</text></g></g><g transform="translate(-30,2) scale(1,1)"><g><path fill="none" stroke="none"/><text fill="#000000" stroke="none" font-family="Arial" font-size="13px" font-style="normal" font-weight="normal" text-decoration="none" x="45" y="157">+email = "jean.Bon@xyz.com"</text></g></g><g transform="translate(-30,2) scale(1,1)"><rect fill="#C0C0C0" stroke="none" x="359" y="63" width="199.6328125" height="92" opacity="0.2"/></g><g transform="translate(-30,2) scale(1,1)"><rect fill="#d8ffd8" stroke="none" x="352" y="56" width="199.6328125" height="92"/></g><g transform="translate(-30,2) scale(1,1)"><path fill="none" stroke="#000000" d="M 352 56 L 551.6328125 56 L 551.6328125 148 L 352 148 L 352 56 Z Z" stroke-miterlimit="10"/></g><g transform="translate(-30,2) scale(1,1)"><rect fill="#d8ffd8" stroke="none" x="352" y="56" width="199.6328125" height="92"/></g><g transform="translate(-30,2) scale(1,1)"><path fill="none" stroke="#000000" d="M 352 56 L 551.6328125 56 L 551.6328125 148 L 352 148 L 352 56 Z Z" stroke-miterlimit="10"/></g><g transform="translate(-30,2) scale(1,1)"><path fill="none" stroke="#000000" d="M 352 81 L 551.6328125 81" stroke-miterlimit="10"/></g><g transform="translate(-30,2) scale(1,1)"><g><path fill="none" stroke="none"/><text fill="#000000" stroke="none" font-family="Arial" font-size="13px" font-style="normal" font-weight="bold" text-decoration="none" x="388.241455078125" y="74">cmde12: Commande</text><path fill="none" stroke="#000000" d="M 515.391357421875 75.5 L 388.241455078125 75.5" stroke-miterlimit="10"/></g></g><g transform="translate(-30,2) scale(1,1)"><g><path fill="none" stroke="none"/><text fill="#000000" stroke="none" font-family="Arial" font-size="13px" font-style="normal" font-weight="normal" text-decoration="none" x="357" y="97">+numero = 12</text></g></g><g transform="translate(-30,2) scale(1,1)"><g><path fill="none" stroke="none"/><text fill="#000000" stroke="none" font-family="Arial" font-size="13px" font-style="normal" font-weight="normal" text-decoration="none" x="357" y="112">+dateCommande = "2023-12-14"</text></g></g><g transform="translate(-30,2) scale(1,1)"><g><path fill="none" stroke="none"/><text fill="#000000" stroke="none" font-family="Arial" font-size="13px" font-style="normal" font-weight="normal" text-decoration="none" x="357" y="127">+etat = PAYEE</text></g></g><g transform="translate(-30,2) scale(1,1)"><g><path fill="none" stroke="none"/><text fill="#000000" stroke="none" font-family="Arial" font-size="13px" font-style="normal" font-weight="normal" text-decoration="none" x="357" y="142">+prixTotal = 24.0</text></g></g><g transform="translate(-30,2) scale(1,1)"><rect fill="#C0C0C0" stroke="none" x="303" y="191" width="133.236328125" height="47" opacity="0.2"/></g><g transform="translate(-30,2) scale(1,1)"><rect fill="#d8ffd8" stroke="none" x="296" y="184" width="133.236328125" height="47"/></g><g transform="translate(-30,2) scale(1,1)"><path fill="none" stroke="#000000" d="M 296 184 L 429.236328125 184 L 429.236328125 231 L 296 231 L 296 184 Z Z" stroke-miterlimit="10"/></g><g transform="translate(-30,2) scale(1,1)"><rect fill="#d8ffd8" stroke="none" x="296" y="184" width="133.236328125" height="47"/></g><g transform="translate(-30,2) scale(1,1)"><path fill="none" stroke="#000000" d="M 296 184 L 429.236328125 184 L 429.236328125 231 L 296 231 L 296 184 Z Z" stroke-miterlimit="10"/></g><g transform="translate(-30,2) scale(1,1)"><path fill="none" stroke="#000000" d="M 296 209 L 429.236328125 209" stroke-miterlimit="10"/></g><g transform="translate(-30,2) scale(1,1)"><g><path fill="none" stroke="none"/><text fill="#000000" stroke="none" font-family="Arial" font-size="13px" font-style="normal" font-weight="bold" text-decoration="none" x="300.5" y="202">l1: LigneCommande</text><path fill="none" stroke="#000000" d="M 424.736328125 203.5 L 300.5 203.5" stroke-miterlimit="10"/></g></g><g transform="translate(-30,2) scale(1,1)"><g><path fill="none" stroke="none"/><text fill="#000000" stroke="none" font-family="Arial" font-size="13px" font-style="normal" font-weight="normal" text-decoration="none" x="301" y="225">+quantité = 2</text></g></g><g transform="translate(-30,2) scale(1,1)"><path fill="none" stroke="#000000" d="M 351 105 L 275 108" stroke-miterlimit="10"/></g><g transform="translate(-30,2) scale(1,1)"><path fill="none" stroke="#000000" d="M 284.9887306332177 103.39291194603155 L 275 108 L 285.3208023706786 111.8053959617094" stroke-miterlimit="10"/></g><g transform="translate(-30,2) scale(1,1)"><path fill="none" stroke="#000000" d="M 411 149 L 382 183" stroke-miterlimit="10"/></g><g transform="translate(-30,2) scale(1,1)"><path fill="none" stroke="#000000" d="M 385.3922893274261 172.53613966458693 L 382 183 L 391.7977773877293 177.99964418661023" stroke-miterlimit="10"/></g><g transform="translate(-30,2) scale(1,1)"><rect fill="#C0C0C0" stroke="none" x="151" y="287" width="109.37548828125" height="24" opacity="0.2"/></g><g transform="translate(-30,2) scale(1,1)"><rect fill="#ffebd8" stroke="none" x="144" y="280" width="109.37548828125" height="24"/></g><g transform="translate(-30,2) scale(1,1)"><path fill="none" stroke="#000000" d="M 144 280 L 253.37548828125 280 L 253.37548828125 304 L 144 304 L 144 280 Z Z" stroke-miterlimit="10"/></g><g transform="translate(-30,2) scale(1,1)"><rect fill="#ffebd8" stroke="none" x="144" y="280" width="109.37548828125" height="24"/></g><g transform="translate(-30,2) scale(1,1)"><path fill="none" stroke="#000000" d="M 144 280 L 253.37548828125 280 L 253.37548828125 304 L 144 304 L 144 280 Z Z" stroke-miterlimit="10"/></g><g transform="translate(-30,2) scale(1,1)"><g><path fill="none" stroke="none"/><text fill="#000000" stroke="none" font-family="Arial" font-size="13px" font-style="normal" font-weight="bold" text-decoration="none" x="148.5" y="298">phmbm: Produit</text><path fill="none" stroke="#000000" d="M 248.87548828125 299.5 L 148.5 299.5" stroke-miterlimit="10"/></g></g><g transform="translate(-30,2) scale(1,1)"><path fill="none" stroke="#000000" d="M 314 232 L 223 279" stroke-miterlimit="10"/></g><g transform="translate(-30,2) scale(1,1)"><path fill="none" stroke="#000000" d="M 230.0977455746957 270.5963098726281 L 223 279 L 233.96117030305925 278.076557750949" stroke-miterlimit="10"/></g><g transform="translate(-30,2) scale(1,1)"><rect fill="#C0C0C0" stroke="none" x="367" y="287" width="318.17529296875" height="77" opacity="0.2"/></g><g transform="translate(-30,2) scale(1,1)"><rect fill="#ffebd8" stroke="none" x="360" y="280" width="318.17529296875" height="77"/></g><g transform="translate(-30,2) scale(1,1)"><path fill="none" stroke="#000000" d="M 360 280 L 678.17529296875 280 L 678.17529296875 357 L 360 357 L 360 280 Z Z" stroke-miterlimit="10"/></g><g transform="translate(-30,2) scale(1,1)"><rect fill="#ffebd8" stroke="none" x="360" y="280" width="318.17529296875" height="77"/></g><g transform="translate(-30,2) scale(1,1)"><path fill="none" stroke="#000000" d="M 360 280 L 678.17529296875 280 L 678.17529296875 357 L 360 357 L 360 280 Z Z" stroke-miterlimit="10"/></g><g transform="translate(-30,2) scale(1,1)"><path fill="none" stroke="#000000" d="M 360 305 L 678.17529296875 305" stroke-miterlimit="10"/></g><g transform="translate(-30,2) scale(1,1)"><g><path fill="none" stroke="none"/><text fill="#000000" stroke="none" font-family="Arial" font-size="13px" font-style="normal" font-weight="bold" text-decoration="none" x="457.4423828125" y="298">rt1: RéalisationType</text><path fill="none" stroke="#000000" d="M 580.73291015625 299.5 L 457.4423828125 299.5" stroke-miterlimit="10"/></g></g><g transform="translate(-30,2) scale(1,1)"><g><path fill="none" stroke="none"/><text fill="#000000" stroke="none" font-family="Arial" font-size="13px" font-style="normal" font-weight="normal" text-decoration="none" x="365" y="321">+titre = hibou_macramé</text></g></g><g transform="translate(-30,2) scale(1,1)"><g><path fill="none" stroke="none"/><text fill="#000000" stroke="none" font-family="Arial" font-size="13px" font-style="normal" font-weight="normal" text-decoration="none" x="365" y="336">+description = "hibou en corde nouée et bout de bois"</text></g></g><g transform="translate(-30,2) scale(1,1)"><g><path fill="none" stroke="none"/><text fill="#000000" stroke="none" font-family="Arial" font-size="13px" font-style="normal" font-weight="normal" text-decoration="none" x="365" y="351">+image = "hibou_macramé.jpeg"</text></g></g><g transform="translate(-30,2) scale(1,1)"><path fill="none" stroke="#000000" d="M 254 297 L 359 305" stroke-miterlimit="10"/></g><g transform="translate(-30,2) scale(1,1)"><path fill="none" stroke="#000000" d="M 348.54689615106673 308.42529121731513 L 359 305 L 349.18649273666983 300.0305860312743" stroke-miterlimit="10"/></g><g transform="translate(-30,2) scale(1,1)"><rect fill="#C0C0C0" stroke="none" x="47" y="399" width="212.01708984375" height="77" opacity="0.2"/></g><g transform="translate(-30,2) scale(1,1)"><rect fill="#ffebd8" stroke="none" x="40" y="392" width="212.01708984375" height="77"/></g><g transform="translate(-30,2) scale(1,1)"><path fill="none" stroke="#000000" d="M 40 392 L 252.01708984375 392 L 252.01708984375 469 L 40 469 L 40 392 Z Z" stroke-miterlimit="10"/></g><g transform="translate(-30,2) scale(1,1)"><rect fill="#ffebd8" stroke="none" x="40" y="392" width="212.01708984375" height="77"/></g><g transform="translate(-30,2) scale(1,1)"><path fill="none" stroke="#000000" d="M 40 392 L 252.01708984375 392 L 252.01708984375 469 L 40 469 L 40 392 Z Z" stroke-miterlimit="10"/></g><g transform="translate(-30,2) scale(1,1)"><path fill="none" stroke="#000000" d="M 40 417 L 252.01708984375 417" stroke-miterlimit="10"/></g><g transform="translate(-30,2) scale(1,1)"><g><path fill="none" stroke="none"/><text fill="#000000" stroke="none" font-family="Arial" font-size="13px" font-style="normal" font-weight="bold" text-decoration="none" x="44.5" y="410">vBeige: VarianteComplémentaire</text><path fill="none" stroke="#000000" d="M 247.51708984375 411.5 L 44.5 411.5" stroke-miterlimit="10"/></g></g><g transform="translate(-30,2) scale(1,1)"><g><path fill="none" stroke="none"/><text fill="#000000" stroke="none" font-family="Arial" font-size="13px" font-style="normal" font-weight="normal" text-decoration="none" x="45" y="433">+type = COULEUR</text></g></g><g transform="translate(-30,2) scale(1,1)"><g><path fill="none" stroke="none"/><text fill="#000000" stroke="none" font-family="Arial" font-size="13px" font-style="normal" font-weight="normal" text-decoration="none" x="45" y="448">+nom = couleur_corde</text></g></g><g transform="translate(-30,2) scale(1,1)"><g><path fill="none" stroke="none"/><text fill="#000000" stroke="none" font-family="Arial" font-size="13px" font-style="normal" font-weight="normal" text-decoration="none" x="45" y="463">+valeur = beige</text></g></g><g transform="translate(-30,2) scale(1,1)"><path fill="none" stroke="#000000" d="M 193 305 L 161 391" stroke-miterlimit="10"/></g><g transform="translate(-30,2) scale(1,1)"><path fill="none" stroke="#000000" d="M 160.59881530381304 380.0073183053658 L 161 391 L 168.489319350519 382.94331981111685" stroke-miterlimit="10"/></g><g transform="translate(-30,2) scale(1,1)"><rect fill="#C0C0C0" stroke="none" x="327" y="391" width="186.00439453125" height="92" opacity="0.2"/></g><g transform="translate(-30,2) scale(1,1)"><rect fill="#ffebd8" stroke="none" x="320" y="384" width="186.00439453125" height="92"/></g><g transform="translate(-30,2) scale(1,1)"><path fill="none" stroke="#000000" d="M 320 384 L 506.00439453125 384 L 506.00439453125 476 L 320 476 L 320 384 Z Z" stroke-miterlimit="10"/></g><g transform="translate(-30,2) scale(1,1)"><rect fill="#ffebd8" stroke="none" x="320" y="384" width="186.00439453125" height="92"/></g><g transform="translate(-30,2) scale(1,1)"><path fill="none" stroke="#000000" d="M 320 384 L 506.00439453125 384 L 506.00439453125 476 L 320 476 L 320 384 Z Z" stroke-miterlimit="10"/></g><g transform="translate(-30,2) scale(1,1)"><path fill="none" stroke="#000000" d="M 320 409 L 506.00439453125 409" stroke-miterlimit="10"/></g><g transform="translate(-30,2) scale(1,1)"><g><path fill="none" stroke="none"/><text fill="#000000" stroke="none" font-family="Arial" font-size="13px" font-style="normal" font-weight="bold" text-decoration="none" x="324.5" y="402">vMedium: VariantePrincipale</text><path fill="none" stroke="#000000" d="M 501.50439453125 403.5 L 324.5 403.5" stroke-miterlimit="10"/></g></g><g transform="translate(-30,2) scale(1,1)"><g><path fill="none" stroke="none"/><text fill="#000000" stroke="none" font-family="Arial" font-size="13px" font-style="normal" font-weight="normal" text-decoration="none" x="325" y="425">+type = TAILLE</text></g></g><g transform="translate(-30,2) scale(1,1)"><g><path fill="none" stroke="none"/><text fill="#000000" stroke="none" font-family="Arial" font-size="13px" font-style="normal" font-weight="normal" text-decoration="none" x="325" y="440">+nom = taille_deco</text></g></g><g transform="translate(-30,2) scale(1,1)"><g><path fill="none" stroke="none"/><text fill="#000000" stroke="none" font-family="Arial" font-size="13px" font-style="normal" font-weight="normal" text-decoration="none" x="325" y="455">+valeur = "15x15cm"</text></g></g><g transform="translate(-30,2) scale(1,1)"><g><path fill="none" stroke="none"/><text fill="#000000" stroke="none" font-family="Arial" font-size="13px" font-style="normal" font-weight="normal" text-decoration="none" x="325" y="470">+prix = 12.0</text></g></g><g transform="translate(-30,2) scale(1,1)"><rect fill="#C0C0C0" stroke="none" x="583" y="431" width="200.4072265625" height="24" opacity="0.2"/></g><g transform="translate(-30,2) scale(1,1)"><rect fill="#e2e2e2" stroke="none" x="576" y="424" width="200.4072265625" height="24"/></g><g transform="translate(-30,2) scale(1,1)"><path fill="none" stroke="#000000" d="M 576 424 L 776.4072265625 424 L 776.4072265625 448 L 576 448 L 576 424 Z Z" stroke-miterlimit="10"/></g><g transform="translate(-30,2) scale(1,1)"><rect fill="#e2e2e2" stroke="none" x="576" y="424" width="200.4072265625" height="24"/></g><g transform="translate(-30,2) scale(1,1)"><path fill="none" stroke="#000000" d="M 576 424 L 776.4072265625 424 L 776.4072265625 448 L 576 448 L 576 424 Z Z" stroke-miterlimit="10"/></g><g transform="translate(-30,2) scale(1,1)"><g><path fill="none" stroke="none"/><text fill="#000000" stroke="none" font-family="Arial" font-size="13px" font-style="normal" font-weight="bold" text-decoration="none" x="580.5" y="442">cf1: ConsommationFabrication</text><path fill="none" stroke="#000000" d="M 771.9072265625 443.5 L 580.5 443.5" stroke-miterlimit="10"/></g></g><g transform="translate(-30,2) scale(1,1)"><path fill="none" stroke="#000000" d="M 218 305 L 340 383" stroke-miterlimit="10"/></g><g transform="translate(-30,2) scale(1,1)"><path fill="none" stroke="#000000" d="M 329.1702153441183 381.0723682127469 L 340 383 L 333.7052273394334 373.9791443226386" stroke-miterlimit="10"/></g><g transform="translate(-30,2) scale(1,1)"><path fill="none" stroke="#000000" d="M 659 423 L 572 358" stroke-miterlimit="10"/></g><g transform="translate(-30,2) scale(1,1)"><path fill="none" stroke="#000000" d="M 582.6608600684165 360.7103620794358 L 572 358 L 577.6218510418182 367.4548818534981" stroke-miterlimit="10"/></g><g transform="translate(-30,2) scale(1,1)"><rect fill="#C0C0C0" stroke="none" x="231" y="519" width="289.2744140625" height="62" opacity="0.2"/></g><g transform="translate(-30,2) scale(1,1)"><rect fill="#e2e2e2" stroke="none" x="224" y="512" width="289.2744140625" height="62"/></g><g transform="translate(-30,2) scale(1,1)"><path fill="none" stroke="#000000" d="M 224 512 L 513.2744140625 512 L 513.2744140625 574 L 224 574 L 224 512 Z Z" stroke-miterlimit="10"/></g><g transform="translate(-30,2) scale(1,1)"><rect fill="#e2e2e2" stroke="none" x="224" y="512" width="289.2744140625" height="62"/></g><g transform="translate(-30,2) scale(1,1)"><path fill="none" stroke="#000000" d="M 224 512 L 513.2744140625 512 L 513.2744140625 574 L 224 574 L 224 512 Z Z" stroke-miterlimit="10"/></g><g transform="translate(-30,2) scale(1,1)"><path fill="none" stroke="#000000" d="M 224 537 L 513.2744140625 537" stroke-miterlimit="10"/></g><g transform="translate(-30,2) scale(1,1)"><g><path fill="none" stroke="none"/><text fill="#000000" stroke="none" font-family="Arial" font-size="13px" font-style="normal" font-weight="bold" text-decoration="none" x="228.5" y="530">consoCordeBeige: ConsommationRessource</text><path fill="none" stroke="#000000" d="M 508.7744140625 531.5 L 228.5 531.5" stroke-miterlimit="10"/></g></g><g transform="translate(-30,2) scale(1,1)"><g><path fill="none" stroke="none"/><text fill="#000000" stroke="none" font-family="Arial" font-size="13px" font-style="normal" font-weight="normal" text-decoration="none" x="229" y="553">+quantité = 12</text></g></g><g transform="translate(-30,2) scale(1,1)"><g><path fill="none" stroke="none"/><text fill="#000000" stroke="none" font-family="Arial" font-size="13px" font-style="normal" font-weight="normal" text-decoration="none" x="229" y="568">+unité = m</text></g></g><g transform="translate(-30,2) scale(1,1)"><rect fill="#C0C0C0" stroke="none" x="191" y="615" width="241.82568359375" height="122" opacity="0.2"/></g><g transform="translate(-30,2) scale(1,1)"><rect fill="#ffd8ff" stroke="none" x="184" y="608" width="241.82568359375" height="122"/></g><g transform="translate(-30,2) scale(1,1)"><path fill="none" stroke="#000000" d="M 184 608 L 425.82568359375 608 L 425.82568359375 730 L 184 730 L 184 608 Z Z" stroke-miterlimit="10"/></g><g transform="translate(-30,2) scale(1,1)"><rect fill="#ffd8ff" stroke="none" x="184" y="608" width="241.82568359375" height="122"/></g><g transform="translate(-30,2) scale(1,1)"><path fill="none" stroke="#000000" d="M 184 608 L 425.82568359375 608 L 425.82568359375 730 L 184 730 L 184 608 Z Z" stroke-miterlimit="10"/></g><g transform="translate(-30,2) scale(1,1)"><path fill="none" stroke="#000000" d="M 184 633 L 425.82568359375 633" stroke-miterlimit="10"/></g><g transform="translate(-30,2) scale(1,1)"><g><path fill="none" stroke="none"/><text fill="#000000" stroke="none" font-family="Arial" font-size="13px" font-style="normal" font-weight="bold" text-decoration="none" x="257.616455078125" y="626">fCb: Fourniture</text><path fill="none" stroke="#000000" d="M 352.209228515625 627.5 L 257.616455078125 627.5" stroke-miterlimit="10"/></g></g><g transform="translate(-30,2) scale(1,1)"><g><path fill="none" stroke="none"/><text fill="#000000" stroke="none" font-family="Arial" font-size="13px" font-style="normal" font-weight="normal" text-decoration="none" x="189" y="649">+ref = cb23453</text></g></g><g transform="translate(-30,2) scale(1,1)"><g><path fill="none" stroke="none"/><text fill="#000000" stroke="none" font-family="Arial" font-size="13px" font-style="normal" font-weight="normal" text-decoration="none" x="189" y="664">+catégorie = corde</text></g></g><g transform="translate(-30,2) scale(1,1)"><g><path fill="none" stroke="none"/><text fill="#000000" stroke="none" font-family="Arial" font-size="13px" font-style="normal" font-weight="normal" text-decoration="none" x="189" y="679">+description = "corde 4mm d' épaisseur"</text></g></g><g transform="translate(-30,2) scale(1,1)"><g><path fill="none" stroke="none"/><text fill="#000000" stroke="none" font-family="Arial" font-size="13px" font-style="normal" font-weight="normal" text-decoration="none" x="189" y="694">+couleur = beige</text></g></g><g transform="translate(-30,2) scale(1,1)"><g><path fill="none" stroke="none"/><text fill="#000000" stroke="none" font-family="Arial" font-size="13px" font-style="normal" font-weight="normal" text-decoration="none" x="189" y="709">+taille = 25</text></g></g><g transform="translate(-30,2) scale(1,1)"><g><path fill="none" stroke="none"/><text fill="#000000" stroke="none" font-family="Arial" font-size="13px" font-style="normal" font-weight="normal" text-decoration="none" x="189" y="724">+unité = m</text></g></g><g transform="translate(-30,2) scale(1,1)"><rect fill="#C0C0C0" stroke="none" x="519" y="615" width="204.6728515625" height="122" opacity="0.2"/></g><g transform="translate(-30,2) scale(1,1)"><rect fill="#ffd8ff" stroke="none" x="512" y="608" width="204.6728515625" height="122"/></g><g transform="translate(-30,2) scale(1,1)"><path fill="none" stroke="#000000" d="M 512 608 L 716.6728515625 608 L 716.6728515625 730 L 512 730 L 512 608 Z Z" stroke-miterlimit="10"/></g><g transform="translate(-30,2) scale(1,1)"><rect fill="#ffd8ff" stroke="none" x="512" y="608" width="204.6728515625" height="122"/></g><g transform="translate(-30,2) scale(1,1)"><path fill="none" stroke="#000000" d="M 512 608 L 716.6728515625 608 L 716.6728515625 730 L 512 730 L 512 608 Z Z" stroke-miterlimit="10"/></g><g transform="translate(-30,2) scale(1,1)"><path fill="none" stroke="#000000" d="M 512 633 L 716.6728515625 633" stroke-miterlimit="10"/></g><g transform="translate(-30,2) scale(1,1)"><g><path fill="none" stroke="none"/><text fill="#000000" stroke="none" font-family="Arial" font-size="13px" font-style="normal" font-weight="bold" text-decoration="none" x="571.010498046875" y="626">fB: Fourniture</text><path fill="none" stroke="#000000" d="M 657.662353515625 627.5 L 571.010498046875 627.5" stroke-miterlimit="10"/></g></g><g transform="translate(-30,2) scale(1,1)"><g><path fill="none" stroke="none"/><text fill="#000000" stroke="none" font-family="Arial" font-size="13px" font-style="normal" font-weight="normal" text-decoration="none" x="517" y="649">+ref = b654</text></g></g><g transform="translate(-30,2) scale(1,1)"><g><path fill="none" stroke="none"/><text fill="#000000" stroke="none" font-family="Arial" font-size="13px" font-style="normal" font-weight="normal" text-decoration="none" x="517" y="664">+catégorie = "bois"</text></g></g><g transform="translate(-30,2) scale(1,1)"><g><path fill="none" stroke="none"/><text fill="#000000" stroke="none" font-family="Arial" font-size="13px" font-style="normal" font-weight="normal" text-decoration="none" x="517" y="679">+description = "barre bois naturel"</text></g></g><g transform="translate(-30,2) scale(1,1)"><g><path fill="none" stroke="none"/><text fill="#000000" stroke="none" font-family="Arial" font-size="13px" font-style="normal" font-weight="normal" text-decoration="none" x="517" y="694">+couleur = marron</text></g></g><g transform="translate(-30,2) scale(1,1)"><g><path fill="none" stroke="none"/><text fill="#000000" stroke="none" font-family="Arial" font-size="13px" font-style="normal" font-weight="normal" text-decoration="none" x="517" y="709">+taille = 30</text></g></g><g transform="translate(-30,2) scale(1,1)"><g><path fill="none" stroke="none"/><text fill="#000000" stroke="none" font-family="Arial" font-size="13px" font-style="normal" font-weight="normal" text-decoration="none" x="517" y="724">+unité = cm</text></g></g><g transform="translate(-30,2) scale(1,1)"><rect fill="#C0C0C0" stroke="none" x="639" y="63" width="132.4365234375" height="92" opacity="0.2"/></g><g transform="translate(-30,2) scale(1,1)"><rect fill="#d8ffd8" stroke="none" x="632" y="56" width="132.4365234375" height="92"/></g><g transform="translate(-30,2) scale(1,1)"><path fill="none" stroke="#000000" d="M 632 56 L 764.4365234375 56 L 764.4365234375 148 L 632 148 L 632 56 Z Z" stroke-miterlimit="10"/></g><g transform="translate(-30,2) scale(1,1)"><rect fill="#d8ffd8" stroke="none" x="632" y="56" width="132.4365234375" height="92"/></g><g transform="translate(-30,2) scale(1,1)"><path fill="none" stroke="#000000" d="M 632 56 L 764.4365234375 56 L 764.4365234375 148 L 632 148 L 632 56 Z Z" stroke-miterlimit="10"/></g><g transform="translate(-30,2) scale(1,1)"><path fill="none" stroke="#000000" d="M 632 81 L 764.4365234375 81" stroke-miterlimit="10"/></g><g transform="translate(-30,2) scale(1,1)"><g><path fill="none" stroke="none"/><text fill="#000000" stroke="none" font-family="Arial" font-size="13px" font-style="normal" font-weight="bold" text-decoration="none" x="661.37646484375" y="74">p: Paiement</text><path fill="none" stroke="#000000" d="M 735.06005859375 75.5 L 661.37646484375 75.5" stroke-miterlimit="10"/></g></g><g transform="translate(-30,2) scale(1,1)"><g><path fill="none" stroke="none"/><text fill="#000000" stroke="none" font-family="Arial" font-size="13px" font-style="normal" font-weight="normal" text-decoration="none" x="637" y="97">+id = 35664533</text></g></g><g transform="translate(-30,2) scale(1,1)"><g><path fill="none" stroke="none"/><text fill="#000000" stroke="none" font-family="Arial" font-size="13px" font-style="normal" font-weight="normal" text-decoration="none" x="637" y="112">+montant = 24.0</text></g></g><g transform="translate(-30,2) scale(1,1)"><g><path fill="none" stroke="none"/><text fill="#000000" stroke="none" font-family="Arial" font-size="13px" font-style="normal" font-weight="normal" text-decoration="none" x="637" y="127">+date = "2023-12-14"</text></g></g><g transform="translate(-30,2) scale(1,1)"><g><path fill="none" stroke="none"/><text fill="#000000" stroke="none" font-family="Arial" font-size="13px" font-style="normal" font-weight="normal" text-decoration="none" x="637" y="142">+statut = "effectué"</text></g></g><g transform="translate(-30,2) scale(1,1)"><path fill="none" stroke="#000000" d="M 639 449 L 460 511" stroke-miterlimit="10"/></g><g transform="translate(-30,2) scale(1,1)"><path fill="none" stroke="#000000" d="M 468.22520728469254 503.6961677782249 L 460 511 L 470.9806891403371 511.6515105550051" stroke-miterlimit="10"/></g><g transform="translate(-30,2) scale(1,1)"><path fill="none" stroke="#000000" d="M 381 511 L 394 477" stroke-miterlimit="10"/></g><g transform="translate(-30,2) scale(1,1)"><path fill="none" stroke="#000000" d="M 394.3024358347019 487.9958416033466 L 394 477 L 386.43862026701197 484.9890885921711" stroke-miterlimit="10"/></g><g transform="translate(-30,2) scale(1,1)"><path fill="none" stroke="#000000" d="M 305 511 L 225 470" stroke-miterlimit="10"/></g><g transform="translate(-30,2) scale(1,1)"><path fill="none" stroke="#000000" d="M 235.9640245530908 470.8889125936908 L 225 470 L 232.1241799877054 478.3812922334672" stroke-miterlimit="10"/></g><g transform="translate(-30,2) scale(1,1)"><path fill="none" stroke="#000000" d="M 352 575 L 335 607" stroke-miterlimit="10"/></g><g transform="translate(-30,2) scale(1,1)"><path fill="none" stroke="#000000" d="M 336.05038071753165 596.0502648274838 L 335 607 L 343.48536332087724 600.0000993355112" stroke-miterlimit="10"/></g><g transform="translate(-30,2) scale(1,1)"><rect fill="#C0C0C0" stroke="none" x="591" y="519" width="119.5126953125" height="62" opacity="0.2"/></g><g transform="translate(-30,2) scale(1,1)"><rect fill="#e2e2e2" stroke="none" x="584" y="512" width="119.5126953125" height="62"/></g><g transform="translate(-30,2) scale(1,1)"><path fill="none" stroke="#000000" d="M 584 512 L 703.5126953125 512 L 703.5126953125 574 L 584 574 L 584 512 Z Z" stroke-miterlimit="10"/></g><g transform="translate(-30,2) scale(1,1)"><rect fill="#e2e2e2" stroke="none" x="584" y="512" width="119.5126953125" height="62"/></g><g transform="translate(-30,2) scale(1,1)"><path fill="none" stroke="#000000" d="M 584 512 L 703.5126953125 512 L 703.5126953125 574 L 584 574 L 584 512 Z Z" stroke-miterlimit="10"/></g><g transform="translate(-30,2) scale(1,1)"><path fill="none" stroke="#000000" d="M 584 537 L 703.5126953125 537" stroke-miterlimit="10"/></g><g transform="translate(-30,2) scale(1,1)"><g><path fill="none" stroke="none"/><text fill="#000000" stroke="none" font-family="Arial" font-size="13px" font-style="normal" font-weight="bold" text-decoration="none" x="588.5" y="530">consoBoisMarron</text><path fill="none" stroke="#000000" d="M 699.0126953125 531.5 L 588.5 531.5" stroke-miterlimit="10"/></g></g><g transform="translate(-30,2) scale(1,1)"><g><path fill="none" stroke="none"/><text fill="#000000" stroke="none" font-family="Arial" font-size="13px" font-style="normal" font-weight="normal" text-decoration="none" x="589" y="553">+quantité = 15</text></g></g><g transform="translate(-30,2) scale(1,1)"><g><path fill="none" stroke="none"/><text fill="#000000" stroke="none" font-family="Arial" font-size="13px" font-style="normal" font-weight="normal" text-decoration="none" x="589" y="568">+unité = cm</text></g></g><g transform="translate(-30,2) scale(1,1)"><path fill="none" stroke="#000000" d="M 672 449 L 653 511" stroke-miterlimit="10"/></g><g transform="translate(-30,2) scale(1,1)"><path fill="none" stroke="#000000" d="M 651.9529144653524 500.04994922919843 L 653 511 L 660.0024538723392 502.5167435635976" stroke-miterlimit="10"/></g><g transform="translate(-30,2) scale(1,1)"><path fill="none" stroke="#000000" d="M 583 514 L 507 476" stroke-miterlimit="10"/></g><g transform="translate(-30,2) scale(1,1)"><path fill="none" stroke="#000000" d="M 517.9723262969391 476.77977922099745 L 507 476 L 514.2072191549614 484.3099935049528" stroke-miterlimit="10"/></g><g transform="translate(-30,2) scale(1,1)"><path fill="none" stroke="#000000" d="M 636 575 L 628 607" stroke-miterlimit="10"/></g><g transform="translate(-30,2) scale(1,1)"><path fill="none" stroke="#000000" d="M 626.3809786184074 596.1197991854035 L 628 607 L 634.5486427788625 598.1617152255172" stroke-miterlimit="10"/></g><g transform="translate(-30,2) scale(1,1)"><path fill="none" stroke="#000000" d="M 553 102 L 631 102" stroke-miterlimit="10"/></g><g transform="translate(-30,2) scale(1,1)"><path fill="none" stroke="#000000" d="M 620.8373251423759 106.20951775601598 L 631 102 L 620.8373251423758 97.79048224398402" stroke-miterlimit="10"/></g><g transform="translate(-30,2) scale(1,1)"><g><path fill="none" stroke="none"/><text fill="#000000" stroke="none" font-family="Arial" font-size="16px" font-style="normal" font-weight="normal" text-decoration="none" x="77" y="25">diagramme d'objets (d'instances) pour illustrer les structures possibles des informations</text></g></g></g></svg>