<svg version="1.1" xmlns="http://www.w3.org/2000/svg" xmlns:xlink="http://www.w3.org/1999/xlink" width="719.865234375" height="520"><defs/><g><text fill="#eeeeee" stroke="none" font-family="Arial" font-size="24px" font-style="normal" font-weight="normal" text-decoration="none" x="0" y="0">UNREGISTERED</text><text fill="#eeeeee" stroke="none" font-family="Arial" font-size="24px" font-style="normal" font-weight="normal" text-decoration="none" x="0" y="30">UNREGISTERED</text><text fill="#eeeeee" stroke="none" font-family="Arial" font-size="24px" font-style="normal" font-weight="normal" text-decoration="none" x="0" y="60">UNREGISTERED</text><text fill="#eeeeee" stroke="none" font-family="Arial" font-size="24px" font-style="normal" font-weight="normal" text-decoration="none" x="0" y="90">UNREGISTERED</text><text fill="#eeeeee" stroke="none" font-family="Arial" font-size="24px" font-style="normal" font-weight="normal" text-decoration="none" x="0" y="120">UNREGISTERED</text><text fill="#eeeeee" stroke="none" font-family="Arial" font-size="24px" font-style="normal" font-weight="normal" text-decoration="none" x="0" y="150">UNREGISTERED</text><text fill="#eeeeee" stroke="none" font-family="Arial" font-size="24px" font-style="normal" font-weight="normal" text-decoration="none" x="0" y="180">UNREGISTERED</text><text fill="#eeeeee" stroke="none" font-family="Arial" font-size="24px" font-style="normal" font-weight="normal" text-decoration="none" x="0" y="210">UNREGISTERED</text><text fill="#eeeeee" stroke="none" font-family="Arial" font-size="24px" font-style="normal" font-weight="normal" text-decoration="none" x="0" y="240">UNREGISTERED</text><text fill="#eeeeee" stroke="none" font-family="Arial" font-size="24px" font-style="normal" font-weight="normal" text-decoration="none" x="0" y="270">UNREGISTERED</text><text fill="#eeeeee" stroke="none" font-family="Arial" font-size="24px" font-style="normal" font-weight="normal" text-decoration="none" x="0" y="300">UNREGISTERED</text><text fill="#eeeeee" stroke="none" font-family="Arial" font-size="24px" font-style="normal" font-weight="normal" text-decoration="none" x="0" y="330">UNREGISTERED</text><text fill="#eeeeee" stroke="none" font-family="Arial" font-size="24px" font-style="normal" font-weight="normal" text-decoration="none" x="0" y="360">UNREGISTERED</text><text fill="#eeeeee" stroke="none" font-family="Arial" font-size="24px" font-style="normal" font-weight="normal" text-decoration="none" x="0" y="390">UNREGISTERED</text><text fill="#eeeeee" stroke="none" font-family="Arial" font-size="24px" font-style="normal" font-weight="normal" text-decoration="none" x="0" y="420">UNREGISTERED</text><text fill="#eeeeee" stroke="none" font-family="Arial" font-size="24px" font-style="normal" font-weight="normal" text-decoration="none" x="0" y="450">UNREGISTERED</text><text fill="#eeeeee" stroke="none" font-family="Arial" font-size="24px" font-style="normal" font-weight="normal" text-decoration="none" x="0" y="480">UNREGISTERED</text><text fill="#eeeeee" stroke="none" font-family="Arial" font-size="24px" font-style="normal" font-weight="normal" text-decoration="none" x="0" y="510">UNREGISTERED</text><text fill="#eeeeee" stroke="none" font-family="Arial" font-size="24px" font-style="normal" font-weight="normal" text-decoration="none" x="200" y="0">UNREGISTERED</text><text fill="#eeeeee" stroke="none" font-family="Arial" font-size="24px" font-style="normal" font-weight="normal" text-decoration="none" x="200" y="30">UNREGISTERED</text><text fill="#eeeeee" stroke="none" font-family="Arial" font-size="24px" font-style="normal" font-weight="normal" text-decoration="none" x="200" y="60">UNREGISTERED</text><text fill="#eeeeee" stroke="none" font-family="Arial" font-size="24px" font-style="normal" font-weight="normal" text-decoration="none" x="200" y="90">UNREGISTERED</text><text fill="#eeeeee" stroke="none" font-family="Arial" font-size="24px" font-style="normal" font-weight="normal" text-decoration="none" x="200" y="120">UNREGISTERED</text><text fill="#eeeeee" stroke="none" font-family="Arial" font-size="24px" font-style="normal" font-weight="normal" text-decoration="none" x="200" y="150">UNREGISTERED</text><text fill="#eeeeee" stroke="none" font-family="Arial" font-size="24px" font-style="normal" font-weight="normal" text-decoration="none" x="200" y="180">UNREGISTERED</text><text fill="#eeeeee" stroke="none" font-family="Arial" font-size="24px" font-style="normal" font-weight="normal" text-decoration="none" x="200" y="210">UNREGISTERED</text><text fill="#eeeeee" stroke="none" font-family="Arial" font-size="24px" font-style="normal" font-weight="normal" text-decoration="none" x="200" y="240">UNREGISTERED</text><text fill="#eeeeee" stroke="none" font-family="Arial" font-size="24px" font-style="normal" font-weight="normal" text-decoration="none" x="200" y="270">UNREGISTERED</text><text fill="#eeeeee" stroke="none" font-family="Arial" font-size="24px" font-style="normal" font-weight="normal" text-decoration="none" x="200" y="300">UNREGISTERED</text><text fill="#eeeeee" stroke="none" font-family="Arial" font-size="24px" font-style="normal" font-weight="normal" text-decoration="none" x="200" y="330">UNREGISTERED</text><text fill="#eeeeee" stroke="none" font-family="Arial" font-size="24px" font-style="normal" font-weight="normal" text-decoration="none" x="200" y="360">UNREGISTERED</text><text fill="#eeeeee" stroke="none" font-family="Arial" font-size="24px" font-style="normal" font-weight="normal" text-decoration="none" x="200" y="390">UNREGISTERED</text><text fill="#eeeeee" stroke="none" font-family="Arial" font-size="24px" font-style="normal" font-weight="normal" text-decoration="none" x="200" y="420">UNREGISTERED</text><text fill="#eeeeee" stroke="none" font-family="Arial" font-size="24px" font-style="normal" font-weight="normal" text-decoration="none" x="200" y="450">UNREGISTERED</text><text fill="#eeeeee" stroke="none" font-family="Arial" font-size="24px" font-style="normal" font-weight="normal" text-decoration="none" x="200" y="480">UNREGISTERED</text><text fill="#eeeeee" stroke="none" font-family="Arial" font-size="24px" font-style="normal" font-weight="normal" text-decoration="none" x="200" y="510">UNREGISTERED</text><text fill="#eeeeee" stroke="none" font-family="Arial" font-size="24px" font-style="normal" font-weight="normal" text-decoration="none" x="400" y="0">UNREGISTERED</text><text fill="#eeeeee" stroke="none" font-family="Arial" font-size="24px" font-style="normal" font-weight="normal" text-decoration="none" x="400" y="30">UNREGISTERED</text><text fill="#eeeeee" stroke="none" font-family="Arial" font-size="24px" font-style="normal" font-weight="normal" text-decoration="none" x="400" y="60">UNREGISTERED</text><text fill="#eeeeee" stroke="none" font-family="Arial" font-size="24px" font-style="normal" font-weight="normal" text-decoration="none" x="400" y="90">UNREGISTERED</text><text fill="#eeeeee" stroke="none" font-family="Arial" font-size="24px" font-style="normal" font-weight="normal" text-decoration="none" x="400" y="120">UNREGISTERED</text><text fill="#eeeeee" stroke="none" font-family="Arial" font-size="24px" font-style="normal" font-weight="normal" text-decoration="none" x="400" y="150">UNREGISTERED</text><text fill="#eeeeee" stroke="none" font-family="Arial" font-size="24px" font-style="normal" font-weight="normal" text-decoration="none" x="400" y="180">UNREGISTERED</text><text fill="#eeeeee" stroke="none" font-family="Arial" font-size="24px" font-style="normal" font-weight="normal" text-decoration="none" x="400" y="210">UNREGISTERED</text><text fill="#eeeeee" stroke="none" font-family="Arial" font-size="24px" font-style="normal" font-weight="normal" text-decoration="none" x="400" y="240">UNREGISTERED</text><text fill="#eeeeee" stroke="none" font-family="Arial" font-size="24px" font-style="normal" font-weight="normal" text-decoration="none" x="400" y="270">UNREGISTERED</text><text fill="#eeeeee" stroke="none" font-family="Arial" font-size="24px" font-style="normal" font-weight="normal" text-decoration="none" x="400" y="300">UNREGISTERED</text><text fill="#eeeeee" stroke="none" font-family="Arial" font-size="24px" font-style="normal" font-weight="normal" text-decoration="none" x="400" y="330">UNREGISTERED</text><text fill="#eeeeee" stroke="none" font-family="Arial" font-size="24px" font-style="normal" font-weight="normal" text-decoration="none" x="400" y="360">UNREGISTERED</text><text fill="#eeeeee" stroke="none" font-family="Arial" font-size="24px" font-style="normal" font-weight="normal" text-decoration="none" x="400" y="390">UNREGISTERED</text><text fill="#eeeeee" stroke="none" font-family="Arial" font-size="24px" font-style="normal" font-weight="normal" text-decoration="none" x="400" y="420">UNREGISTERED</text><text fill="#eeeeee" stroke="none" font-family="Arial" font-size="24px" font-style="normal" font-weight="normal" text-decoration="none" x="400" y="450">UNREGISTERED</text><text fill="#eeeeee" stroke="none" font-family="Arial" font-size="24px" font-style="normal" font-weight="normal" text-decoration="none" x="400" y="480">UNREGISTERED</text><text fill="#eeeeee" stroke="none" font-family="Arial" font-size="24px" font-style="normal" font-weight="normal" text-decoration="none" x="400" y="510">UNREGISTERED</text><text fill="#eeeeee" stroke="none" font-family="Arial" font-size="24px" font-style="normal" font-weight="normal" text-decoration="none" x="600" y="0">UNREGISTERED</text><text fill="#eeeeee" stroke="none" font-family="Arial" font-size="24px" font-style="normal" font-weight="normal" text-decoration="none" x="600" y="30">UNREGISTERED</text><text fill="#eeeeee" stroke="none" font-family="Arial" font-size="24px" font-style="normal" font-weight="normal" text-decoration="none" x="600" y="60">UNREGISTERED</text><text fill="#eeeeee" stroke="none" font-family="Arial" font-size="24px" font-style="normal" font-weight="normal" text-decoration="none" x="600" y="90">UNREGISTERED</text><text fill="#eeeeee" stroke="none" font-family="Arial" font-size="24px" font-style="normal" font-weight="normal" text-decoration="none" x="600" y="120">UNREGISTERED</text><text fill="#eeeeee" stroke="none" font-family="Arial" font-size="24px" font-style="normal" font-weight="normal" text-decoration="none" x="600" y="150">UNREGISTERED</text><text fill="#eeeeee" stroke="none" font-family="Arial" font-size="24px" font-style="normal" font-weight="normal" text-decoration="none" x="600" y="180">UNREGISTERED</text><text fill="#eeeeee" stroke="none" font-family="Arial" font-size="24px" font-style="normal" font-weight="normal" text-decoration="none" x="600" y="210">UNREGISTERED</text><text fill="#eeeeee" stroke="none" font-family="Arial" font-size="24px" font-style="normal" font-weight="normal" text-decoration="none" x="600" y="240">UNREGISTERED</text><text fill="#eeeeee" stroke="none" font-family="Arial" font-size="24px" font-style="normal" font-weight="normal" text-decoration="none" x="600" y="270">UNREGISTERED</text><text fill="#eeeeee" stroke="none" font-family="Arial" font-size="24px" font-style="normal" font-weight="normal" text-decoration="none" x="600" y="300">UNREGISTERED</text><text fill="#eeeeee" stroke="none" font-family="Arial" font-size="24px" font-style="normal" font-weight="normal" text-decoration="none" x="600" y="330">UNREGISTERED</text><text fill="#eeeeee" stroke="none" font-family="Arial" font-size="24px" font-style="normal" font-weight="normal" text-decoration="none" x="600" y="360">UNREGISTERED</text><text fill="#eeeeee" stroke="none" font-family="Arial" font-size="24px" font-style="normal" font-weight="normal" text-decoration="none" x="600" y="390">UNREGISTERED</text><text fill="#eeeeee" stroke="none" font-family="Arial" font-size="24px" font-style="normal" font-weight="normal" text-decoration="none" x="600" y="420">UNREGISTERED</text><text fill="#eeeeee" stroke="none" font-family="Arial" font-size="24px" font-style="normal" font-weight="normal" text-decoration="none" x="600" y="450">UNREGISTERED</text><text fill="#eeeeee" stroke="none" font-family="Arial" font-size="24px" font-style="normal" font-weight="normal" text-decoration="none" x="600" y="480">UNREGISTERED</text><text fill="#eeeeee" stroke="none" font-family="Arial" font-size="24px" font-style="normal" font-weight="normal" text-decoration="none" x="600" y="510">UNREGISTERED</text><g transform="translate(-166,-6) scale(1,1)"><rect fill="#C0C0C0" stroke="none" x="193" y="143" width="154.80810546875" height="44" opacity="0.2"/></g><g transform="translate(-166,-6) scale(1,1)"><rect fill="#fff5d8" stroke="none" x="186" y="136" width="154.80810546875" height="44"/></g><g transform="translate(-166,-6) scale(1,1)"><path fill="none" stroke="#000000" d="M 186 136 L 340.80810546875 136 L 340.80810546875 180 L 186 180 L 186 136 Z Z" stroke-miterlimit="10"/></g><g transform="translate(-166,-6) scale(1,1)"><rect fill="#fff5d8" stroke="none" x="176" y="143" width="20" height="10"/></g><g transform="translate(-166,-6) scale(1,1)"><path fill="none" stroke="#000000" d="M 176 143 L 196 143 L 196 153 L 176 153 L 176 143 Z Z" stroke-miterlimit="10"/></g><g transform="translate(-166,-6) scale(1,1)"><rect fill="#fff5d8" stroke="none" x="176" y="163" width="20" height="10"/></g><g transform="translate(-166,-6) scale(1,1)"><path fill="none" stroke="#000000" d="M 176 163 L 196 163 L 196 173 L 176 173 L 176 163 Z Z" stroke-miterlimit="10"/></g><g transform="translate(-166,-6) scale(1,1)"><g><path fill="none" stroke="none"/><text fill="#000000" stroke="none" font-family="Arial" font-size="13px" font-style="normal" font-weight="bold" text-decoration="none" x="200.5" y="154">frontEnd_eCommerce</text></g></g><g transform="translate(-166,-6) scale(1,1)"><rect fill="#C0C0C0" stroke="none" x="193" y="271" width="127.341796875" height="44" opacity="0.2"/></g><g transform="translate(-166,-6) scale(1,1)"><rect fill="#fff5d8" stroke="none" x="186" y="264" width="127.341796875" height="44"/></g><g transform="translate(-166,-6) scale(1,1)"><path fill="none" stroke="#000000" d="M 186 264 L 313.341796875 264 L 313.341796875 308 L 186 308 L 186 264 Z Z" stroke-miterlimit="10"/></g><g transform="translate(-166,-6) scale(1,1)"><rect fill="#fff5d8" stroke="none" x="176" y="271" width="20" height="10"/></g><g transform="translate(-166,-6) scale(1,1)"><path fill="none" stroke="#000000" d="M 176 271 L 196 271 L 196 281 L 176 281 L 176 271 Z Z" stroke-miterlimit="10"/></g><g transform="translate(-166,-6) scale(1,1)"><rect fill="#fff5d8" stroke="none" x="176" y="291" width="20" height="10"/></g><g transform="translate(-166,-6) scale(1,1)"><path fill="none" stroke="#000000" d="M 176 291 L 196 291 L 196 301 L 176 301 L 176 291 Z Z" stroke-miterlimit="10"/></g><g transform="translate(-166,-6) scale(1,1)"><g><path fill="none" stroke="none"/><text fill="#000000" stroke="none" font-family="Arial" font-size="13px" font-style="normal" font-weight="bold" text-decoration="none" x="202.66455078125" y="282">frontEnd_artisan</text></g></g><g transform="translate(-166,-6) scale(1,1)"><rect fill="#C0C0C0" stroke="none" x="425" y="159" width="203.21533203125" height="44" opacity="0.2"/></g><g transform="translate(-166,-6) scale(1,1)"><rect fill="#ffa3ff" stroke="none" x="418" y="152" width="203.21533203125" height="44"/></g><g transform="translate(-166,-6) scale(1,1)"><path fill="none" stroke="#000000" d="M 418 152 L 621.21533203125 152 L 621.21533203125 196 L 418 196 L 418 152 Z Z" stroke-miterlimit="10"/></g><g transform="translate(-166,-6) scale(1,1)"><rect fill="#ffa3ff" stroke="none" x="408" y="159" width="20" height="10"/></g><g transform="translate(-166,-6) scale(1,1)"><path fill="none" stroke="#000000" d="M 408 159 L 428 159 L 428 169 L 408 169 L 408 159 Z Z" stroke-miterlimit="10"/></g><g transform="translate(-166,-6) scale(1,1)"><rect fill="#ffa3ff" stroke="none" x="408" y="179" width="20" height="10"/></g><g transform="translate(-166,-6) scale(1,1)"><path fill="none" stroke="#000000" d="M 408 179 L 428 179 L 428 189 L 408 189 L 408 179 Z Z" stroke-miterlimit="10"/></g><g transform="translate(-166,-6) scale(1,1)"><g><path fill="none" stroke="none"/><text fill="#000000" stroke="none" font-family="Arial" font-size="13px" font-style="normal" font-weight="bold" text-decoration="none" x="432.5" y="170">backend_gestionCommandes</text></g></g><g transform="translate(-166,-6) scale(1,1)"><path fill="none" stroke="#000000" d="M 342 163 L 407 167" stroke-miterlimit="10" stroke-dasharray="3"/></g><g transform="translate(-166,-6) scale(1,1)"><path fill="none" stroke="#000000" d="M 396.59795546281214 170.57735509089608 L 407 167 L 397.11507172606514 162.17421581303483" stroke-miterlimit="10"/></g><g transform="translate(-166,-6) scale(1,1)"><path fill="none" stroke="#000000" d="M 299 263 L 459 197" stroke-miterlimit="10" stroke-dasharray="3"/></g><g transform="translate(-166,-6) scale(1,1)"><path fill="none" stroke="#000000" d="M 451.21045036229305 204.7667828887963 L 459 197 L 448.00001178011667 196.9839014774597" stroke-miterlimit="10"/></g><g transform="translate(-166,-6) scale(1,1)"><rect fill="#C0C0C0" stroke="none" x="457" y="335" width="151.22802734375" height="44" opacity="0.2"/></g><g transform="translate(-166,-6) scale(1,1)"><rect fill="#ffa3ff" stroke="none" x="450" y="328" width="151.22802734375" height="44"/></g><g transform="translate(-166,-6) scale(1,1)"><path fill="none" stroke="#000000" d="M 450 328 L 601.22802734375 328 L 601.22802734375 372 L 450 372 L 450 328 Z Z" stroke-miterlimit="10"/></g><g transform="translate(-166,-6) scale(1,1)"><rect fill="#ffa3ff" stroke="none" x="440" y="335" width="20" height="10"/></g><g transform="translate(-166,-6) scale(1,1)"><path fill="none" stroke="#000000" d="M 440 335 L 460 335 L 460 345 L 440 345 L 440 335 Z Z" stroke-miterlimit="10"/></g><g transform="translate(-166,-6) scale(1,1)"><rect fill="#ffa3ff" stroke="none" x="440" y="355" width="20" height="10"/></g><g transform="translate(-166,-6) scale(1,1)"><path fill="none" stroke="#000000" d="M 440 355 L 460 355 L 460 365 L 440 365 L 440 355 Z Z" stroke-miterlimit="10"/></g><g transform="translate(-166,-6) scale(1,1)"><g><path fill="none" stroke="none"/><text fill="#000000" stroke="none" font-family="Arial" font-size="13px" font-style="normal" font-weight="bold" text-decoration="none" x="464.5" y="346">backend_realisations</text></g></g><g transform="translate(-166,-6) scale(1,1)"><path fill="none" stroke="#000000" d="M 314 302 L 439 331" stroke-miterlimit="10" stroke-dasharray="3"/></g><g transform="translate(-166,-6) scale(1,1)"><path fill="none" stroke="#000000" d="M 428.1489142828082 332.8038677219121 L 439 331 L 430.0515966076096 324.6026508046648" stroke-miterlimit="10"/></g><g transform="translate(-166,-6) scale(1,1)"><path fill="#ffffff" stroke="none" d="M 176 440 L 397 440 L 407 450 L 407 493 L 176 493 L 176 440"/></g><g transform="translate(-166,-6) scale(1,1)"><path fill="none" stroke="#000000" d="M 176 440 L 397 440 L 407 450 L 407 493 L 176 493 L 176 440 L 176 440" stroke-miterlimit="10"/></g><g transform="translate(-166,-6) scale(1,1)"><path fill="none" stroke="#000000" d="M 397 440 L 397 450 L 407 450 L 397 440" stroke-miterlimit="10"/></g><g transform="translate(-166,-6) scale(1,1)"><g><path fill="none" stroke="none"/><text fill="#000000" stroke="none" font-family="Arial" font-size="13px" font-style="normal" font-weight="normal" text-decoration="none" x="181" y="455">ex: frontEnd js/html/css </text></g></g><g transform="translate(-166,-6) scale(1,1)"><g><path fill="none" stroke="none"/><text fill="#000000" stroke="none" font-family="Arial" font-size="13px" font-style="normal" font-weight="normal" text-decoration="none" x="181" y="470">basé sur angular ou react ou vueJs</text></g></g><g transform="translate(-166,-6) scale(1,1)"><path fill="#ffffff" stroke="none" d="M 472 440 L 613 440 L 623 450 L 623 489 L 472 489 L 472 440"/></g><g transform="translate(-166,-6) scale(1,1)"><path fill="none" stroke="#000000" d="M 472 440 L 613 440 L 623 450 L 623 489 L 472 489 L 472 440 L 472 440" stroke-miterlimit="10"/></g><g transform="translate(-166,-6) scale(1,1)"><path fill="none" stroke="#000000" d="M 613 440 L 613 450 L 623 450 L 613 440" stroke-miterlimit="10"/></g><g transform="translate(-166,-6) scale(1,1)"><g><path fill="none" stroke="none"/><text fill="#000000" stroke="none" font-family="Arial" font-size="13px" font-style="normal" font-weight="normal" text-decoration="none" x="477" y="455">exemple: backend basé</text><text fill="#000000" stroke="none" font-family="Arial" font-size="13px" font-style="normal" font-weight="normal" text-decoration="none" x="477" y="468">sur java/springBoot</text></g></g><g transform="translate(-166,-6) scale(1,1)"><g><path fill="none" stroke="none"/><text fill="#000000" stroke="none" font-family="Arial" font-size="13px" font-style="normal" font-weight="normal" text-decoration="none" x="189" y="31">embryon d'un modèle  de mise en oeuvre logicielle (travail maîtrise d'oeuvre)</text></g></g><g transform="translate(-166,-6) scale(1,1)"><rect fill="#C0C0C0" stroke="none" x="513" y="255" width="130.96630859375" height="44" opacity="0.2"/></g><g transform="translate(-166,-6) scale(1,1)"><rect fill="#ffadd6" stroke="none" x="506" y="248" width="130.96630859375" height="44"/></g><g transform="translate(-166,-6) scale(1,1)"><path fill="none" stroke="#000000" d="M 506 248 L 636.96630859375 248 L 636.96630859375 292 L 506 292 L 506 248 Z Z" stroke-miterlimit="10"/></g><g transform="translate(-166,-6) scale(1,1)"><rect fill="#ffadd6" stroke="none" x="496" y="255" width="20" height="10"/></g><g transform="translate(-166,-6) scale(1,1)"><path fill="none" stroke="#000000" d="M 496 255 L 516 255 L 516 265 L 496 265 L 496 255 Z Z" stroke-miterlimit="10"/></g><g transform="translate(-166,-6) scale(1,1)"><rect fill="#ffadd6" stroke="none" x="496" y="275" width="20" height="10"/></g><g transform="translate(-166,-6) scale(1,1)"><path fill="none" stroke="#000000" d="M 496 275 L 516 275 L 516 285 L 496 285 L 496 275 Z Z" stroke-miterlimit="10"/></g><g transform="translate(-166,-6) scale(1,1)"><g><path fill="none" stroke="none"/><text fill="#000000" stroke="none" font-family="Arial" font-size="13px" font-style="normal" font-weight="bold" text-decoration="none" x="520.5" y="266">backend_produits</text></g></g><g transform="translate(-166,-6) scale(1,1)"><path fill="none" stroke="#000000" d="M 321 181 L 503 247" stroke-miterlimit="10" stroke-dasharray="3"/></g><g transform="translate(-166,-6) scale(1,1)"><path fill="none" stroke="#000000" d="M 492.011042140965 247.49275264824544 L 503 247 L 494.8812046406812 239.57806211872514" stroke-miterlimit="10"/></g><g transform="translate(-166,-6) scale(1,1)"><path fill="none" stroke="#000000" d="M 526 197 L 554 247" stroke-miterlimit="10" stroke-dasharray="3"/></g><g transform="translate(-166,-6) scale(1,1)"><path fill="none" stroke="#000000" d="M 545.3616532608348 240.18978960574978 L 554 247 L 552.707312393577 236.07622049141415" stroke-miterlimit="10"/></g><g transform="translate(-166,-6) scale(1,1)"><path fill="none" stroke="#000000" d="M 314 283 L 495 274" stroke-miterlimit="10" stroke-dasharray="3"/></g><g transform="translate(-166,-6) scale(1,1)"><path fill="none" stroke="#000000" d="M 485.058920014643 278.7090263032536 L 495 274 L 484.64081049821976 270.30037936185266" stroke-miterlimit="10"/></g><g transform="translate(-166,-6) scale(1,1)"><path fill="none" stroke="#000000" d="M 533 327 L 553 293" stroke-miterlimit="10" stroke-dasharray="3"/></g><g transform="translate(-166,-6) scale(1,1)"><path fill="none" stroke="#000000" d="M 551.4756466906891 303.89386740273596 L 553 293 L 544.2189919242404 299.6252469518838" stroke-miterlimit="10"/></g><g transform="translate(-166,-6) scale(1,1)"><rect fill="#C0C0C0" stroke="none" x="713" y="191" width="159.89892578125" height="44" opacity="0.2"/></g><g transform="translate(-166,-6) scale(1,1)"><rect fill="#d8ffeb" stroke="none" x="706" y="184" width="159.89892578125" height="44"/></g><g transform="translate(-166,-6) scale(1,1)"><path fill="none" stroke="#000000" d="M 706 184 L 865.89892578125 184 L 865.89892578125 228 L 706 228 L 706 184 Z Z" stroke-miterlimit="10"/></g><g transform="translate(-166,-6) scale(1,1)"><rect fill="#d8ffeb" stroke="none" x="696" y="191" width="20" height="10"/></g><g transform="translate(-166,-6) scale(1,1)"><path fill="none" stroke="#000000" d="M 696 191 L 716 191 L 716 201 L 696 201 L 696 191 Z Z" stroke-miterlimit="10"/></g><g transform="translate(-166,-6) scale(1,1)"><rect fill="#d8ffeb" stroke="none" x="696" y="211" width="20" height="10"/></g><g transform="translate(-166,-6) scale(1,1)"><path fill="none" stroke="#000000" d="M 696 211 L 716 211 L 716 221 L 696 221 L 696 211 Z Z" stroke-miterlimit="10"/></g><g transform="translate(-166,-6) scale(1,1)"><g><path fill="none" stroke="none"/><text fill="#000000" stroke="none" font-family="Arial" font-size="13px" font-style="normal" font-weight="bold" text-decoration="none" x="720.5" y="202">dataBase_commandes</text></g></g><g transform="translate(-166,-6) scale(1,1)"><rect fill="#C0C0C0" stroke="none" x="721" y="287" width="136.03173828125" height="44" opacity="0.2"/></g><g transform="translate(-166,-6) scale(1,1)"><rect fill="#d8ffeb" stroke="none" x="714" y="280" width="136.03173828125" height="44"/></g><g transform="translate(-166,-6) scale(1,1)"><path fill="none" stroke="#000000" d="M 714 280 L 850.03173828125 280 L 850.03173828125 324 L 714 324 L 714 280 Z Z" stroke-miterlimit="10"/></g><g transform="translate(-166,-6) scale(1,1)"><rect fill="#d8ffeb" stroke="none" x="704" y="287" width="20" height="10"/></g><g transform="translate(-166,-6) scale(1,1)"><path fill="none" stroke="#000000" d="M 704 287 L 724 287 L 724 297 L 704 297 L 704 287 Z Z" stroke-miterlimit="10"/></g><g transform="translate(-166,-6) scale(1,1)"><rect fill="#d8ffeb" stroke="none" x="704" y="307" width="20" height="10"/></g><g transform="translate(-166,-6) scale(1,1)"><path fill="none" stroke="#000000" d="M 704 307 L 724 307 L 724 317 L 704 317 L 704 307 Z Z" stroke-miterlimit="10"/></g><g transform="translate(-166,-6) scale(1,1)"><g><path fill="none" stroke="none"/><text fill="#000000" stroke="none" font-family="Arial" font-size="13px" font-style="normal" font-weight="bold" text-decoration="none" x="728.5" y="298">dataBase_produits</text></g></g><g transform="translate(-166,-6) scale(1,1)"><path fill="none" stroke="#000000" d="M 622 187 L 695 196" stroke-miterlimit="10" stroke-dasharray="3"/></g><g transform="translate(-166,-6) scale(1,1)"><path fill="none" stroke="#000000" d="M 684.39860941673 198.93436836490474 L 695 196 L 685.4287730592391 190.578596597886" stroke-miterlimit="10"/></g><g transform="translate(-166,-6) scale(1,1)"><path fill="none" stroke="#000000" d="M 638 281 L 703 291" stroke-miterlimit="10" stroke-dasharray="3"/></g><g transform="translate(-166,-6) scale(1,1)"><path fill="none" stroke="#000000" d="M 692.315412381252 293.61526048746526 L 703 291 L 693.5955872153455 285.29412406585743" stroke-miterlimit="10"/></g><g transform="translate(-166,-6) scale(1,1)"><path fill="#ffffff" stroke="none" d="M 712 440 L 826.22802734375 440 L 836.22802734375 450 L 836.22802734375 515 L 712 515 L 712 440"/></g><g transform="translate(-166,-6) scale(1,1)"><path fill="none" stroke="#000000" d="M 712 440 L 826.22802734375 440 L 836.22802734375 450 L 836.22802734375 515 L 712 515 L 712 440 L 712 440" stroke-miterlimit="10"/></g><g transform="translate(-166,-6) scale(1,1)"><path fill="none" stroke="#000000" d="M 826.22802734375 440 L 826.22802734375 450 L 836.22802734375 450 L 826.22802734375 440" stroke-miterlimit="10"/></g><g transform="translate(-166,-6) scale(1,1)"><g><path fill="none" stroke="none"/><text fill="#000000" stroke="none" font-family="Arial" font-size="13px" font-style="normal" font-weight="normal" text-decoration="none" x="717" y="455">ex: bases</text><text fill="#000000" stroke="none" font-family="Arial" font-size="13px" font-style="normal" font-weight="normal" text-decoration="none" x="717" y="468">relationnelles/SQL </text><text fill="#000000" stroke="none" font-family="Arial" font-size="13px" font-style="normal" font-weight="normal" text-decoration="none" x="717" y="481">(mySql, postgres,</text><text fill="#000000" stroke="none" font-family="Arial" font-size="13px" font-style="normal" font-weight="normal" text-decoration="none" x="717" y="494">...) ou bien noSql</text><text fill="#000000" stroke="none" font-family="Arial" font-size="13px" font-style="normal" font-weight="normal" text-decoration="none" x="717" y="507">(mongo)</text></g></g><g transform="translate(-166,-6) scale(1,1)"><rect fill="#C0C0C0" stroke="none" x="497" y="79" width="120.15625" height="44" opacity="0.2"/></g><g transform="translate(-166,-6) scale(1,1)"><rect fill="#ffadd6" stroke="none" x="490" y="72" width="120.15625" height="44"/></g><g transform="translate(-166,-6) scale(1,1)"><path fill="none" stroke="#000000" d="M 490 72 L 610.15625 72 L 610.15625 116 L 490 116 L 490 72 Z Z" stroke-miterlimit="10"/></g><g transform="translate(-166,-6) scale(1,1)"><rect fill="#ffadd6" stroke="none" x="480" y="79" width="20" height="10"/></g><g transform="translate(-166,-6) scale(1,1)"><path fill="none" stroke="#000000" d="M 480 79 L 500 79 L 500 89 L 480 89 L 480 79 Z Z" stroke-miterlimit="10"/></g><g transform="translate(-166,-6) scale(1,1)"><rect fill="#ffadd6" stroke="none" x="480" y="99" width="20" height="10"/></g><g transform="translate(-166,-6) scale(1,1)"><path fill="none" stroke="#000000" d="M 480 99 L 500 99 L 500 109 L 480 109 L 480 99 Z Z" stroke-miterlimit="10"/></g><g transform="translate(-166,-6) scale(1,1)"><g><path fill="none" stroke="none"/><text fill="#000000" stroke="none" font-family="Arial" font-size="13px" font-style="normal" font-weight="bold" text-decoration="none" x="504.5" y="90">backend_clients</text></g></g><g transform="translate(-166,-6) scale(1,1)"><path fill="none" stroke="#000000" d="M 342 139 L 479 109" stroke-miterlimit="10" stroke-dasharray="3"/></g><g transform="translate(-166,-6) scale(1,1)"><path fill="none" stroke="#000000" d="M 469.97301164767566 115.28597496709948 L 479 109 L 468.1720997967746 107.06181084798442" stroke-miterlimit="10"/></g><g transform="translate(-166,-6) scale(1,1)"><rect fill="#C0C0C0" stroke="none" x="689" y="71" width="193.865234375" height="44" opacity="0.2"/></g><g transform="translate(-166,-6) scale(1,1)"><rect fill="#d8ffeb" stroke="none" x="682" y="64" width="193.865234375" height="44"/></g><g transform="translate(-166,-6) scale(1,1)"><path fill="none" stroke="#000000" d="M 682 64 L 875.865234375 64 L 875.865234375 108 L 682 108 L 682 64 Z Z" stroke-miterlimit="10"/></g><g transform="translate(-166,-6) scale(1,1)"><rect fill="#d8ffeb" stroke="none" x="672" y="71" width="20" height="10"/></g><g transform="translate(-166,-6) scale(1,1)"><path fill="none" stroke="#000000" d="M 672 71 L 692 71 L 692 81 L 672 81 L 672 71 Z Z" stroke-miterlimit="10"/></g><g transform="translate(-166,-6) scale(1,1)"><rect fill="#d8ffeb" stroke="none" x="672" y="91" width="20" height="10"/></g><g transform="translate(-166,-6) scale(1,1)"><path fill="none" stroke="#000000" d="M 672 91 L 692 91 L 692 101 L 672 101 L 672 91 Z Z" stroke-miterlimit="10"/></g><g transform="translate(-166,-6) scale(1,1)"><g><path fill="none" stroke="none"/><text fill="#000000" stroke="none" font-family="Arial" font-size="13px" font-style="normal" font-weight="bold" text-decoration="none" x="696.5" y="82">database_référentiel_clients</text></g></g><g transform="translate(-166,-6) scale(1,1)"><path fill="none" stroke="#000000" d="M 611 92 L 671 90" stroke-miterlimit="10" stroke-dasharray="3"/></g><g transform="translate(-166,-6) scale(1,1)"><path fill="none" stroke="#000000" d="M 660.9832057416654 94.54574886967976 L 671 90 L 660.7027270028594 86.13138670550276" stroke-miterlimit="10"/></g><g transform="translate(-166,-6) scale(1,1)"><path fill="none" stroke="#000000" d="M 523 151 L 536 117" stroke-miterlimit="10" stroke-dasharray="3"/></g><g transform="translate(-166,-6) scale(1,1)"><path fill="none" stroke="#000000" d="M 536.3024358347019 127.9958416033466 L 536 117 L 528.438620267012 124.98908859217106" stroke-miterlimit="10"/></g></g></svg>