<svg version="1.1" xmlns="http://www.w3.org/2000/svg" xmlns:xlink="http://www.w3.org/1999/xlink" width="827.55078125" height="459"><defs/><g><text fill="#eeeeee" stroke="none" font-family="Arial" font-size="24px" font-style="normal" font-weight="normal" text-decoration="none" x="0" y="0">UNREGISTERED</text><text fill="#eeeeee" stroke="none" font-family="Arial" font-size="24px" font-style="normal" font-weight="normal" text-decoration="none" x="0" y="30">UNREGISTERED</text><text fill="#eeeeee" stroke="none" font-family="Arial" font-size="24px" font-style="normal" font-weight="normal" text-decoration="none" x="0" y="60">UNREGISTERED</text><text fill="#eeeeee" stroke="none" font-family="Arial" font-size="24px" font-style="normal" font-weight="normal" text-decoration="none" x="0" y="90">UNREGISTERED</text><text fill="#eeeeee" stroke="none" font-family="Arial" font-size="24px" font-style="normal" font-weight="normal" text-decoration="none" x="0" y="120">UNREGISTERED</text><text fill="#eeeeee" stroke="none" font-family="Arial" font-size="24px" font-style="normal" font-weight="normal" text-decoration="none" x="0" y="150">UNREGISTERED</text><text fill="#eeeeee" stroke="none" font-family="Arial" font-size="24px" font-style="normal" font-weight="normal" text-decoration="none" x="0" y="180">UNREGISTERED</text><text fill="#eeeeee" stroke="none" font-family="Arial" font-size="24px" font-style="normal" font-weight="normal" text-decoration="none" x="0" y="210">UNREGISTERED</text><text fill="#eeeeee" stroke="none" font-family="Arial" font-size="24px" font-style="normal" font-weight="normal" text-decoration="none" x="0" y="240">UNREGISTERED</text><text fill="#eeeeee" stroke="none" font-family="Arial" font-size="24px" font-style="normal" font-weight="normal" text-decoration="none" x="0" y="270">UNREGISTERED</text><text fill="#eeeeee" stroke="none" font-family="Arial" font-size="24px" font-style="normal" font-weight="normal" text-decoration="none" x="0" y="300">UNREGISTERED</text><text fill="#eeeeee" stroke="none" font-family="Arial" font-size="24px" font-style="normal" font-weight="normal" text-decoration="none" x="0" y="330">UNREGISTERED</text><text fill="#eeeeee" stroke="none" font-family="Arial" font-size="24px" font-style="normal" font-weight="normal" text-decoration="none" x="0" y="360">UNREGISTERED</text><text fill="#eeeeee" stroke="none" font-family="Arial" font-size="24px" font-style="normal" font-weight="normal" text-decoration="none" x="0" y="390">UNREGISTERED</text><text fill="#eeeeee" stroke="none" font-family="Arial" font-size="24px" font-style="normal" font-weight="normal" text-decoration="none" x="0" y="420">UNREGISTERED</text><text fill="#eeeeee" stroke="none" font-family="Arial" font-size="24px" font-style="normal" font-weight="normal" text-decoration="none" x="0" y="450">UNREGISTERED</text><text fill="#eeeeee" stroke="none" font-family="Arial" font-size="24px" font-style="normal" font-weight="normal" text-decoration="none" x="200" y="0">UNREGISTERED</text><text fill="#eeeeee" stroke="none" font-family="Arial" font-size="24px" font-style="normal" font-weight="normal" text-decoration="none" x="200" y="30">UNREGISTERED</text><text fill="#eeeeee" stroke="none" font-family="Arial" font-size="24px" font-style="normal" font-weight="normal" text-decoration="none" x="200" y="60">UNREGISTERED</text><text fill="#eeeeee" stroke="none" font-family="Arial" font-size="24px" font-style="normal" font-weight="normal" text-decoration="none" x="200" y="90">UNREGISTERED</text><text fill="#eeeeee" stroke="none" font-family="Arial" font-size="24px" font-style="normal" font-weight="normal" text-decoration="none" x="200" y="120">UNREGISTERED</text><text fill="#eeeeee" stroke="none" font-family="Arial" font-size="24px" font-style="normal" font-weight="normal" text-decoration="none" x="200" y="150">UNREGISTERED</text><text fill="#eeeeee" stroke="none" font-family="Arial" font-size="24px" font-style="normal" font-weight="normal" text-decoration="none" x="200" y="180">UNREGISTERED</text><text fill="#eeeeee" stroke="none" font-family="Arial" font-size="24px" font-style="normal" font-weight="normal" text-decoration="none" x="200" y="210">UNREGISTERED</text><text fill="#eeeeee" stroke="none" font-family="Arial" font-size="24px" font-style="normal" font-weight="normal" text-decoration="none" x="200" y="240">UNREGISTERED</text><text fill="#eeeeee" stroke="none" font-family="Arial" font-size="24px" font-style="normal" font-weight="normal" text-decoration="none" x="200" y="270">UNREGISTERED</text><text fill="#eeeeee" stroke="none" font-family="Arial" font-size="24px" font-style="normal" font-weight="normal" text-decoration="none" x="200" y="300">UNREGISTERED</text><text fill="#eeeeee" stroke="none" font-family="Arial" font-size="24px" font-style="normal" font-weight="normal" text-decoration="none" x="200" y="330">UNREGISTERED</text><text fill="#eeeeee" stroke="none" font-family="Arial" font-size="24px" font-style="normal" font-weight="normal" text-decoration="none" x="200" y="360">UNREGISTERED</text><text fill="#eeeeee" stroke="none" font-family="Arial" font-size="24px" font-style="normal" font-weight="normal" text-decoration="none" x="200" y="390">UNREGISTERED</text><text fill="#eeeeee" stroke="none" font-family="Arial" font-size="24px" font-style="normal" font-weight="normal" text-decoration="none" x="200" y="420">UNREGISTERED</text><text fill="#eeeeee" stroke="none" font-family="Arial" font-size="24px" font-style="normal" font-weight="normal" text-decoration="none" x="200" y="450">UNREGISTERED</text><text fill="#eeeeee" stroke="none" font-family="Arial" font-size="24px" font-style="normal" font-weight="normal" text-decoration="none" x="400" y="0">UNREGISTERED</text><text fill="#eeeeee" stroke="none" font-family="Arial" font-size="24px" font-style="normal" font-weight="normal" text-decoration="none" x="400" y="30">UNREGISTERED</text><text fill="#eeeeee" stroke="none" font-family="Arial" font-size="24px" font-style="normal" font-weight="normal" text-decoration="none" x="400" y="60">UNREGISTERED</text><text fill="#eeeeee" stroke="none" font-family="Arial" font-size="24px" font-style="normal" font-weight="normal" text-decoration="none" x="400" y="90">UNREGISTERED</text><text fill="#eeeeee" stroke="none" font-family="Arial" font-size="24px" font-style="normal" font-weight="normal" text-decoration="none" x="400" y="120">UNREGISTERED</text><text fill="#eeeeee" stroke="none" font-family="Arial" font-size="24px" font-style="normal" font-weight="normal" text-decoration="none" x="400" y="150">UNREGISTERED</text><text fill="#eeeeee" stroke="none" font-family="Arial" font-size="24px" font-style="normal" font-weight="normal" text-decoration="none" x="400" y="180">UNREGISTERED</text><text fill="#eeeeee" stroke="none" font-family="Arial" font-size="24px" font-style="normal" font-weight="normal" text-decoration="none" x="400" y="210">UNREGISTERED</text><text fill="#eeeeee" stroke="none" font-family="Arial" font-size="24px" font-style="normal" font-weight="normal" text-decoration="none" x="400" y="240">UNREGISTERED</text><text fill="#eeeeee" stroke="none" font-family="Arial" font-size="24px" font-style="normal" font-weight="normal" text-decoration="none" x="400" y="270">UNREGISTERED</text><text fill="#eeeeee" stroke="none" font-family="Arial" font-size="24px" font-style="normal" font-weight="normal" text-decoration="none" x="400" y="300">UNREGISTERED</text><text fill="#eeeeee" stroke="none" font-family="Arial" font-size="24px" font-style="normal" font-weight="normal" text-decoration="none" x="400" y="330">UNREGISTERED</text><text fill="#eeeeee" stroke="none" font-family="Arial" font-size="24px" font-style="normal" font-weight="normal" text-decoration="none" x="400" y="360">UNREGISTERED</text><text fill="#eeeeee" stroke="none" font-family="Arial" font-size="24px" font-style="normal" font-weight="normal" text-decoration="none" x="400" y="390">UNREGISTERED</text><text fill="#eeeeee" stroke="none" font-family="Arial" font-size="24px" font-style="normal" font-weight="normal" text-decoration="none" x="400" y="420">UNREGISTERED</text><text fill="#eeeeee" stroke="none" font-family="Arial" font-size="24px" font-style="normal" font-weight="normal" text-decoration="none" x="400" y="450">UNREGISTERED</text><text fill="#eeeeee" stroke="none" font-family="Arial" font-size="24px" font-style="normal" font-weight="normal" text-decoration="none" x="600" y="0">UNREGISTERED</text><text fill="#eeeeee" stroke="none" font-family="Arial" font-size="24px" font-style="normal" font-weight="normal" text-decoration="none" x="600" y="30">UNREGISTERED</text><text fill="#eeeeee" stroke="none" font-family="Arial" font-size="24px" font-style="normal" font-weight="normal" text-decoration="none" x="600" y="60">UNREGISTERED</text><text fill="#eeeeee" stroke="none" font-family="Arial" font-size="24px" font-style="normal" font-weight="normal" text-decoration="none" x="600" y="90">UNREGISTERED</text><text fill="#eeeeee" stroke="none" font-family="Arial" font-size="24px" font-style="normal" font-weight="normal" text-decoration="none" x="600" y="120">UNREGISTERED</text><text fill="#eeeeee" stroke="none" font-family="Arial" font-size="24px" font-style="normal" font-weight="normal" text-decoration="none" x="600" y="150">UNREGISTERED</text><text fill="#eeeeee" stroke="none" font-family="Arial" font-size="24px" font-style="normal" font-weight="normal" text-decoration="none" x="600" y="180">UNREGISTERED</text><text fill="#eeeeee" stroke="none" font-family="Arial" font-size="24px" font-style="normal" font-weight="normal" text-decoration="none" x="600" y="210">UNREGISTERED</text><text fill="#eeeeee" stroke="none" font-family="Arial" font-size="24px" font-style="normal" font-weight="normal" text-decoration="none" x="600" y="240">UNREGISTERED</text><text fill="#eeeeee" stroke="none" font-family="Arial" font-size="24px" font-style="normal" font-weight="normal" text-decoration="none" x="600" y="270">UNREGISTERED</text><text fill="#eeeeee" stroke="none" font-family="Arial" font-size="24px" font-style="normal" font-weight="normal" text-decoration="none" x="600" y="300">UNREGISTERED</text><text fill="#eeeeee" stroke="none" font-family="Arial" font-size="24px" font-style="normal" font-weight="normal" text-decoration="none" x="600" y="330">UNREGISTERED</text><text fill="#eeeeee" stroke="none" font-family="Arial" font-size="24px" font-style="normal" font-weight="normal" text-decoration="none" x="600" y="360">UNREGISTERED</text><text fill="#eeeeee" stroke="none" font-family="Arial" font-size="24px" font-style="normal" font-weight="normal" text-decoration="none" x="600" y="390">UNREGISTERED</text><text fill="#eeeeee" stroke="none" font-family="Arial" font-size="24px" font-style="normal" font-weight="normal" text-decoration="none" x="600" y="420">UNREGISTERED</text><text fill="#eeeeee" stroke="none" font-family="Arial" font-size="24px" font-style="normal" font-weight="normal" text-decoration="none" x="600" y="450">UNREGISTERED</text><text fill="#eeeeee" stroke="none" font-family="Arial" font-size="24px" font-style="normal" font-weight="normal" text-decoration="none" x="800" y="0">UNREGISTERED</text><text fill="#eeeeee" stroke="none" font-family="Arial" font-size="24px" font-style="normal" font-weight="normal" text-decoration="none" x="800" y="30">UNREGISTERED</text><text fill="#eeeeee" stroke="none" font-family="Arial" font-size="24px" font-style="normal" font-weight="normal" text-decoration="none" x="800" y="60">UNREGISTERED</text><text fill="#eeeeee" stroke="none" font-family="Arial" font-size="24px" font-style="normal" font-weight="normal" text-decoration="none" x="800" y="90">UNREGISTERED</text><text fill="#eeeeee" stroke="none" font-family="Arial" font-size="24px" font-style="normal" font-weight="normal" text-decoration="none" x="800" y="120">UNREGISTERED</text><text fill="#eeeeee" stroke="none" font-family="Arial" font-size="24px" font-style="normal" font-weight="normal" text-decoration="none" x="800" y="150">UNREGISTERED</text><text fill="#eeeeee" stroke="none" font-family="Arial" font-size="24px" font-style="normal" font-weight="normal" text-decoration="none" x="800" y="180">UNREGISTERED</text><text fill="#eeeeee" stroke="none" font-family="Arial" font-size="24px" font-style="normal" font-weight="normal" text-decoration="none" x="800" y="210">UNREGISTERED</text><text fill="#eeeeee" stroke="none" font-family="Arial" font-size="24px" font-style="normal" font-weight="normal" text-decoration="none" x="800" y="240">UNREGISTERED</text><text fill="#eeeeee" stroke="none" font-family="Arial" font-size="24px" font-style="normal" font-weight="normal" text-decoration="none" x="800" y="270">UNREGISTERED</text><text fill="#eeeeee" stroke="none" font-family="Arial" font-size="24px" font-style="normal" font-weight="normal" text-decoration="none" x="800" y="300">UNREGISTERED</text><text fill="#eeeeee" stroke="none" font-family="Arial" font-size="24px" font-style="normal" font-weight="normal" text-decoration="none" x="800" y="330">UNREGISTERED</text><text fill="#eeeeee" stroke="none" font-family="Arial" font-size="24px" font-style="normal" font-weight="normal" text-decoration="none" x="800" y="360">UNREGISTERED</text><text fill="#eeeeee" stroke="none" font-family="Arial" font-size="24px" font-style="normal" font-weight="normal" text-decoration="none" x="800" y="390">UNREGISTERED</text><text fill="#eeeeee" stroke="none" font-family="Arial" font-size="24px" font-style="normal" font-weight="normal" text-decoration="none" x="800" y="420">UNREGISTERED</text><text fill="#eeeeee" stroke="none" font-family="Arial" font-size="24px" font-style="normal" font-weight="normal" text-decoration="none" x="800" y="450">UNREGISTERED</text><g transform="translate(-30,-22) scale(1,1)"><path fill="#C0C0C0" stroke="none" d="M 287 305 L 481.42431640625 305 L 481.42431640625 338 L 287 338" opacity="0.2"/></g><g transform="translate(-30,-22) scale(1,1)"><path fill="#C0C0C0" stroke="none" d="M 287 305 L 297 295 L 491.42431640625 295 L 481.42431640625 305" opacity="0.2"/></g><g transform="translate(-30,-22) scale(1,1)"><path fill="#C0C0C0" stroke="none" d="M 491.42431640625 295 L 481.42431640625 305 L 481.42431640625 338 L 491.42431640625 328" opacity="0.2"/></g><g transform="translate(-30,-22) scale(1,1)"><path fill="#ffff49" stroke="none" d="M 280 298 L 474.42431640625 298 L 474.42431640625 331 L 280 331"/></g><g transform="translate(-30,-22) scale(1,1)"><path fill="#ffff49" stroke="none" d="M 280 298 L 290 288 L 484.42431640625 288 L 474.42431640625 298"/></g><g transform="translate(-30,-22) scale(1,1)"><path fill="#ffff49" stroke="none" d="M 484.42431640625 288 L 474.42431640625 298 L 474.42431640625 331 L 484.42431640625 321"/></g><g transform="translate(-30,-22) scale(1,1)"><path fill="none" stroke="#000000" d="M 280 298 L 474.42431640625 298 L 474.42431640625 331 L 280 331 L 280 298" stroke-miterlimit="10"/></g><g transform="translate(-30,-22) scale(1,1)"><path fill="none" stroke="#000000" d="M 280 298 L 290 288 L 484.42431640625 288 L 474.42431640625 298 L 280 298" stroke-miterlimit="10"/></g><g transform="translate(-30,-22) scale(1,1)"><path fill="none" stroke="#000000" d="M 484.42431640625 288 L 474.42431640625 298 L 474.42431640625 331 L 484.42431640625 321 L 484.42431640625 288" stroke-miterlimit="10"/></g><g transform="translate(-30,-22) scale(1,1)"><g><path fill="none" stroke="none"/><text fill="#000000" stroke="none" font-family="Arial" font-size="13px" font-style="normal" font-weight="bold" text-decoration="none" x="284.5" y="316">http_server with reverseProxy</text></g></g><g transform="translate(-30,-22) scale(1,1)"><path fill="#C0C0C0" stroke="none" d="M 47 217 L 175.6435546875 217 L 175.6435546875 250 L 47 250" opacity="0.2"/></g><g transform="translate(-30,-22) scale(1,1)"><path fill="#C0C0C0" stroke="none" d="M 47 217 L 57 207 L 185.6435546875 207 L 175.6435546875 217" opacity="0.2"/></g><g transform="translate(-30,-22) scale(1,1)"><path fill="#C0C0C0" stroke="none" d="M 185.6435546875 207 L 175.6435546875 217 L 175.6435546875 250 L 185.6435546875 240" opacity="0.2"/></g><g transform="translate(-30,-22) scale(1,1)"><path fill="#c6c6c6" stroke="none" d="M 40 210 L 168.6435546875 210 L 168.6435546875 243 L 40 243"/></g><g transform="translate(-30,-22) scale(1,1)"><path fill="#c6c6c6" stroke="none" d="M 40 210 L 50 200 L 178.6435546875 200 L 168.6435546875 210"/></g><g transform="translate(-30,-22) scale(1,1)"><path fill="#c6c6c6" stroke="none" d="M 178.6435546875 200 L 168.6435546875 210 L 168.6435546875 243 L 178.6435546875 233"/></g><g transform="translate(-30,-22) scale(1,1)"><path fill="none" stroke="#000000" d="M 40 210 L 168.6435546875 210 L 168.6435546875 243 L 40 243 L 40 210" stroke-miterlimit="10"/></g><g transform="translate(-30,-22) scale(1,1)"><path fill="none" stroke="#000000" d="M 40 210 L 50 200 L 178.6435546875 200 L 168.6435546875 210 L 40 210" stroke-miterlimit="10"/></g><g transform="translate(-30,-22) scale(1,1)"><path fill="none" stroke="#000000" d="M 178.6435546875 200 L 168.6435546875 210 L 168.6435546875 243 L 178.6435546875 233 L 178.6435546875 200" stroke-miterlimit="10"/></g><g transform="translate(-30,-22) scale(1,1)"><g><path fill="none" stroke="none"/><text fill="#000000" stroke="none" font-family="Arial" font-size="13px" font-style="normal" font-weight="bold" text-decoration="none" x="44.5" y="228">navigateur_internet</text></g></g><g transform="translate(-30,-22) scale(1,1)"><path fill="none" stroke="#000000" d="M 311 287 L 180 245" stroke-miterlimit="10"/></g><g transform="translate(-30,-22) scale(1,1)"><g><path fill="none" stroke="none"/><text fill="#000000" stroke="none" font-family="Arial" font-size="13px" font-style="normal" font-weight="normal" text-decoration="none" x="203.5" y="279">+https</text></g></g><g transform="translate(-30,-22) scale(1,1)"><path fill="#C0C0C0" stroke="none" d="M 450.285009765625 151 L 477.725009765625 151 L 489.48500976562497 162.76 L 489.48500976562497 200 L 450.285009765625 200" opacity="0.2"/></g><g transform="translate(-30,-22) scale(1,1)"><path fill="#ffffd8" stroke="none" d="M 443.285009765625 144 L 470.72500976562503 144 L 482.485009765625 155.76000000000002 L 482.485009765625 193 L 443.285009765625 193"/></g><g transform="translate(-30,-22) scale(1,1)"><path fill="none" stroke="#000000" d="M 443.285009765625 144 L 470.72500976562503 144 L 482.485009765625 155.76000000000002 L 482.485009765625 193 L 443.285009765625 193 L 443.285009765625 144" stroke-miterlimit="10"/></g><g transform="translate(-30,-22) scale(1,1)"><path fill="none" stroke="#000000" d="M 470.72500976562503 144 L 470.72500976562503 155.76000000000002 L 482.485009765625 155.76000000000002 L 470.72500976562503 144" stroke-miterlimit="10"/></g><g transform="translate(-30,-22) scale(1,1)"><g><path fill="none" stroke="none"/><text fill="#000000" stroke="none" font-family="Arial" font-size="13px" font-style="normal" font-weight="bold" text-decoration="none" x="388.5" y="211">frontEnds_to_download</text></g></g><g transform="translate(-30,-22) scale(1,1)"><path fill="none" stroke="#000000" d="M 438 219 L 396 287" stroke-miterlimit="10" stroke-dasharray="3"/></g><g transform="translate(-30,-22) scale(1,1)"><path fill="none" stroke="#000000" d="M 397.7589640101063 276.1415449712608 L 396 287 L 404.9218625634399 280.56568819537864" stroke-miterlimit="10"/></g><g transform="translate(-30,-22) scale(1,1)"><g><path fill="none" stroke="none"/><text fill="#000000" stroke="none" font-family="Arial" font-size="13px" font-style="normal" font-weight="normal" text-decoration="none" x="426.5" y="248">«deploy»</text></g></g><g transform="translate(-30,-22) scale(1,1)"><path fill="#ffffff" stroke="none" d="M 48 120 L 157 120 L 167 130 L 167 156 L 48 156 L 48 120"/></g><g transform="translate(-30,-22) scale(1,1)"><path fill="none" stroke="#000000" d="M 48 120 L 157 120 L 167 130 L 167 156 L 48 156 L 48 120 L 48 120" stroke-miterlimit="10"/></g><g transform="translate(-30,-22) scale(1,1)"><path fill="none" stroke="#000000" d="M 157 120 L 157 130 L 167 130 L 157 120" stroke-miterlimit="10"/></g><g transform="translate(-30,-22) scale(1,1)"><g><path fill="none" stroke="none"/><text fill="#000000" stroke="none" font-family="Arial" font-size="13px" font-style="normal" font-weight="normal" text-decoration="none" x="53" y="135">ex: firefox ,</text><text fill="#000000" stroke="none" font-family="Arial" font-size="13px" font-style="normal" font-weight="normal" text-decoration="none" x="53" y="148">chrome, edge, ...</text></g></g><g transform="translate(-30,-22) scale(1,1)"><path fill="none" stroke="#000000" d="M 108 158 L 109 199" stroke-miterlimit="10" stroke-dasharray="3"/></g><g transform="translate(-30,-22) scale(1,1)"><path fill="#ffffff" stroke="none" d="M 224 120 L 341 120 L 351 130 L 351 156 L 224 156 L 224 120"/></g><g transform="translate(-30,-22) scale(1,1)"><path fill="none" stroke="#000000" d="M 224 120 L 341 120 L 351 130 L 351 156 L 224 156 L 224 120 L 224 120" stroke-miterlimit="10"/></g><g transform="translate(-30,-22) scale(1,1)"><path fill="none" stroke="#000000" d="M 341 120 L 341 130 L 351 130 L 341 120" stroke-miterlimit="10"/></g><g transform="translate(-30,-22) scale(1,1)"><g><path fill="none" stroke="none"/><text fill="#000000" stroke="none" font-family="Arial" font-size="13px" font-style="normal" font-weight="normal" text-decoration="none" x="229" y="135">ex: nginx avec</text><text fill="#000000" stroke="none" font-family="Arial" font-size="13px" font-style="normal" font-weight="normal" text-decoration="none" x="229" y="148">certificats ssl</text></g></g><g transform="translate(-30,-22) scale(1,1)"><path fill="none" stroke="#000000" d="M 299 158 L 369 287" stroke-miterlimit="10" stroke-dasharray="3"/></g><g transform="translate(-30,-22) scale(1,1)"><path fill="#C0C0C0" stroke="none" d="M 591 321 L 679.9326171875 321 L 679.9326171875 354 L 591 354" opacity="0.2"/></g><g transform="translate(-30,-22) scale(1,1)"><path fill="#C0C0C0" stroke="none" d="M 591 321 L 601 311 L 689.9326171875 311 L 679.9326171875 321" opacity="0.2"/></g><g transform="translate(-30,-22) scale(1,1)"><path fill="#C0C0C0" stroke="none" d="M 689.9326171875 311 L 679.9326171875 321 L 679.9326171875 354 L 689.9326171875 344" opacity="0.2"/></g><g transform="translate(-30,-22) scale(1,1)"><path fill="#ff6dff" stroke="none" d="M 584 314 L 672.9326171875 314 L 672.9326171875 347 L 584 347"/></g><g transform="translate(-30,-22) scale(1,1)"><path fill="#ff6dff" stroke="none" d="M 584 314 L 594 304 L 682.9326171875 304 L 672.9326171875 314"/></g><g transform="translate(-30,-22) scale(1,1)"><path fill="#ff6dff" stroke="none" d="M 682.9326171875 304 L 672.9326171875 314 L 672.9326171875 347 L 682.9326171875 337"/></g><g transform="translate(-30,-22) scale(1,1)"><path fill="none" stroke="#000000" d="M 584 314 L 672.9326171875 314 L 672.9326171875 347 L 584 347 L 584 314" stroke-miterlimit="10"/></g><g transform="translate(-30,-22) scale(1,1)"><path fill="none" stroke="#000000" d="M 584 314 L 594 304 L 682.9326171875 304 L 672.9326171875 314 L 584 314" stroke-miterlimit="10"/></g><g transform="translate(-30,-22) scale(1,1)"><path fill="none" stroke="#000000" d="M 682.9326171875 304 L 672.9326171875 314 L 672.9326171875 347 L 682.9326171875 337 L 682.9326171875 304" stroke-miterlimit="10"/></g><g transform="translate(-30,-22) scale(1,1)"><g><path fill="none" stroke="none"/><text fill="#000000" stroke="none" font-family="Arial" font-size="13px" font-style="normal" font-weight="bold" text-decoration="none" x="588.5" y="332">backend_xyz</text></g></g><g transform="translate(-30,-22) scale(1,1)"><path fill="#C0C0C0" stroke="none" d="M 751 233 L 843.55078125 233 L 843.55078125 266 L 751 266" opacity="0.2"/></g><g transform="translate(-30,-22) scale(1,1)"><path fill="#C0C0C0" stroke="none" d="M 751 233 L 761 223 L 853.55078125 223 L 843.55078125 233" opacity="0.2"/></g><g transform="translate(-30,-22) scale(1,1)"><path fill="#C0C0C0" stroke="none" d="M 853.55078125 223 L 843.55078125 233 L 843.55078125 266 L 853.55078125 256" opacity="0.2"/></g><g transform="translate(-30,-22) scale(1,1)"><path fill="#91ffec" stroke="none" d="M 744 226 L 836.55078125 226 L 836.55078125 259 L 744 259"/></g><g transform="translate(-30,-22) scale(1,1)"><path fill="#91ffec" stroke="none" d="M 744 226 L 754 216 L 846.55078125 216 L 836.55078125 226"/></g><g transform="translate(-30,-22) scale(1,1)"><path fill="#91ffec" stroke="none" d="M 846.55078125 216 L 836.55078125 226 L 836.55078125 259 L 846.55078125 249"/></g><g transform="translate(-30,-22) scale(1,1)"><path fill="none" stroke="#000000" d="M 744 226 L 836.55078125 226 L 836.55078125 259 L 744 259 L 744 226" stroke-miterlimit="10"/></g><g transform="translate(-30,-22) scale(1,1)"><path fill="none" stroke="#000000" d="M 744 226 L 754 216 L 846.55078125 216 L 836.55078125 226 L 744 226" stroke-miterlimit="10"/></g><g transform="translate(-30,-22) scale(1,1)"><path fill="none" stroke="#000000" d="M 846.55078125 216 L 836.55078125 226 L 836.55078125 259 L 846.55078125 249 L 846.55078125 216" stroke-miterlimit="10"/></g><g transform="translate(-30,-22) scale(1,1)"><g><path fill="none" stroke="none"/><text fill="#000000" stroke="none" font-family="Arial" font-size="13px" font-style="normal" font-weight="bold" text-decoration="none" x="748.5" y="244">database_xyz</text></g></g><g transform="translate(-30,-22) scale(1,1)"><path fill="none" stroke="#000000" d="M 486 317 L 583 323" stroke-miterlimit="10"/></g><g transform="translate(-30,-22) scale(1,1)"><g><path fill="none" stroke="none"/><text fill="#000000" stroke="none" font-family="Arial" font-size="13px" font-style="normal" font-weight="normal" text-decoration="none" x="519.5" y="310">+http</text></g></g><g transform="translate(-30,-22) scale(1,1)"><g><path fill="none" stroke="none"/><text fill="#000000" stroke="none" font-family="Arial" font-size="13px" font-style="normal" font-weight="normal" text-decoration="none" x="568.220458984375" y="339">*</text></g></g><g transform="translate(-30,-22) scale(1,1)"><path fill="none" stroke="#000000" d="M 675 303 L 753 261" stroke-miterlimit="10"/></g><g transform="translate(-30,-22) scale(1,1)"><g><path fill="none" stroke="none"/><text fill="#000000" stroke="none" font-family="Arial" font-size="13px" font-style="normal" font-weight="normal" text-decoration="none" x="702.5" y="298">+tcp_ip</text></g></g><g transform="translate(-30,-22) scale(1,1)"><path fill="#C0C0C0" stroke="none" d="M 567 441 L 697.83349609375 441 L 697.83349609375 477 L 567 477" opacity="0.2"/></g><g transform="translate(-30,-22) scale(1,1)"><path fill="#C0C0C0" stroke="none" d="M 567 441 L 577 431 L 707.83349609375 431 L 697.83349609375 441" opacity="0.2"/></g><g transform="translate(-30,-22) scale(1,1)"><path fill="#C0C0C0" stroke="none" d="M 707.83349609375 431 L 697.83349609375 441 L 697.83349609375 477 L 707.83349609375 467" opacity="0.2"/></g><g transform="translate(-30,-22) scale(1,1)"><path fill="#c082ff" stroke="none" d="M 560 434 L 690.83349609375 434 L 690.83349609375 470 L 560 470"/></g><g transform="translate(-30,-22) scale(1,1)"><path fill="#c082ff" stroke="none" d="M 560 434 L 570 424 L 700.83349609375 424 L 690.83349609375 434"/></g><g transform="translate(-30,-22) scale(1,1)"><path fill="#c082ff" stroke="none" d="M 700.83349609375 424 L 690.83349609375 434 L 690.83349609375 470 L 700.83349609375 460"/></g><g transform="translate(-30,-22) scale(1,1)"><path fill="none" stroke="#000000" d="M 560 434 L 690.83349609375 434 L 690.83349609375 470 L 560 470 L 560 434" stroke-miterlimit="10"/></g><g transform="translate(-30,-22) scale(1,1)"><path fill="none" stroke="#000000" d="M 560 434 L 570 424 L 700.83349609375 424 L 690.83349609375 434 L 560 434" stroke-miterlimit="10"/></g><g transform="translate(-30,-22) scale(1,1)"><path fill="none" stroke="#000000" d="M 700.83349609375 424 L 690.83349609375 434 L 690.83349609375 470 L 700.83349609375 460 L 700.83349609375 424" stroke-miterlimit="10"/></g><g transform="translate(-30,-22) scale(1,1)"><g><path fill="none" stroke="none"/><text fill="#000000" stroke="none" font-family="Arial" font-size="13px" font-style="normal" font-weight="normal" text-decoration="none" x="595.917724609375" y="450">«optional»</text></g></g><g transform="translate(-30,-22) scale(1,1)"><g><path fill="none" stroke="none"/><text fill="#000000" stroke="none" font-family="Arial" font-size="13px" font-style="normal" font-weight="bold" text-decoration="none" x="564.5" y="465">oidc_oauth2_server</text></g></g><g transform="translate(-30,-22) scale(1,1)"><path fill="none" stroke="#000000" d="M 632 349 L 631 423" stroke-miterlimit="10"/></g><g transform="translate(-30,-22) scale(1,1)"><g><path fill="none" stroke="none"/><text fill="#000000" stroke="none" font-family="Arial" font-size="13px" font-style="normal" font-weight="normal" text-decoration="none" x="639.220458984375" y="362">*</text></g></g><g transform="translate(-30,-22) scale(1,1)"><path fill="none" stroke="#000000" d="M 424 333 L 587 423" stroke-miterlimit="10"/></g><g transform="translate(-30,-22) scale(1,1)"><path fill="#ffffff" stroke="none" d="M 728 376 L 786.578125 376 L 796.578125 386 L 796.578125 414 L 728 414 L 728 376"/></g><g transform="translate(-30,-22) scale(1,1)"><path fill="none" stroke="#000000" d="M 728 376 L 786.578125 376 L 796.578125 386 L 796.578125 414 L 728 414 L 728 376 L 728 376" stroke-miterlimit="10"/></g><g transform="translate(-30,-22) scale(1,1)"><path fill="none" stroke="#000000" d="M 786.578125 376 L 786.578125 386 L 796.578125 386 L 786.578125 376" stroke-miterlimit="10"/></g><g transform="translate(-30,-22) scale(1,1)"><g><path fill="none" stroke="none"/><text fill="#000000" stroke="none" font-family="Arial" font-size="13px" font-style="normal" font-weight="normal" text-decoration="none" x="733" y="388">ex:</text><text fill="#000000" stroke="none" font-family="Arial" font-size="13px" font-style="normal" font-weight="normal" text-decoration="none" x="733" y="404">keycloak</text></g></g><g transform="translate(-30,-22) scale(1,1)"><path fill="none" stroke="#000000" d="M 727 409 L 691 423" stroke-miterlimit="10" stroke-dasharray="3"/></g><g transform="translate(-30,-22) scale(1,1)"><path fill="#ffffff" stroke="none" d="M 600 168 L 721.60986328125 168 L 731.60986328125 178 L 731.60986328125 191 L 600 191 L 600 168"/></g><g transform="translate(-30,-22) scale(1,1)"><path fill="none" stroke="#000000" d="M 600 168 L 721.60986328125 168 L 731.60986328125 178 L 731.60986328125 191 L 600 191 L 600 168 L 600 168" stroke-miterlimit="10"/></g><g transform="translate(-30,-22) scale(1,1)"><path fill="none" stroke="#000000" d="M 721.60986328125 168 L 721.60986328125 178 L 731.60986328125 178 L 721.60986328125 168" stroke-miterlimit="10"/></g><g transform="translate(-30,-22) scale(1,1)"><g><path fill="none" stroke="none"/><text fill="#000000" stroke="none" font-family="Arial" font-size="13px" font-style="normal" font-weight="normal" text-decoration="none" x="605" y="183">ex: java/springBoot</text></g></g><g transform="translate(-30,-22) scale(1,1)"><path fill="none" stroke="#000000" d="M 663 193 L 638 303" stroke-miterlimit="10" stroke-dasharray="3"/></g><g transform="translate(-30,-22) scale(1,1)"><g><path fill="none" stroke="none"/><text fill="#000000" stroke="none" font-family="Arial" font-size="18px" font-style="normal" font-weight="normal" text-decoration="none" x="85" y="51">Diag. de déploiement UML (infrastructure logicielle , topologie possible des</text><text fill="#000000" stroke="none" font-family="Arial" font-size="18px" font-style="normal" font-weight="normal" text-decoration="none" x="85" y="68">serveurs en production)</text></g></g><g transform="translate(-30,-22) scale(1,1)"><path fill="#ffffff" stroke="none" d="M 56 416 L 365 416 L 375 426 L 375 452 L 56 452 L 56 416"/></g><g transform="translate(-30,-22) scale(1,1)"><path fill="none" stroke="#000000" d="M 56 416 L 365 416 L 375 426 L 375 452 L 56 452 L 56 416 L 56 416" stroke-miterlimit="10"/></g><g transform="translate(-30,-22) scale(1,1)"><path fill="none" stroke="#000000" d="M 365 416 L 365 426 L 375 426 L 365 416" stroke-miterlimit="10"/></g><g transform="translate(-30,-22) scale(1,1)"><g><path fill="none" stroke="none"/><text fill="#000000" stroke="none" font-family="Arial" font-size="13px" font-style="normal" font-weight="normal" text-decoration="none" x="61" y="431">NB: de plus en plus dans  environnement "docker"</text><text fill="#000000" stroke="none" font-family="Arial" font-size="13px" font-style="normal" font-weight="normal" text-decoration="none" x="61" y="444">avec ou sans Kubernates</text></g></g></g></svg>