<svg version="1.1" xmlns="http://www.w3.org/2000/svg" xmlns:xlink="http://www.w3.org/1999/xlink" width="756" height="740"><defs/><g><text fill="#eeeeee" stroke="none" font-family="Arial" font-size="24px" font-style="normal" font-weight="normal" text-decoration="none" x="0" y="0">UNREGISTERED</text><text fill="#eeeeee" stroke="none" font-family="Arial" font-size="24px" font-style="normal" font-weight="normal" text-decoration="none" x="0" y="30">UNREGISTERED</text><text fill="#eeeeee" stroke="none" font-family="Arial" font-size="24px" font-style="normal" font-weight="normal" text-decoration="none" x="0" y="60">UNREGISTERED</text><text fill="#eeeeee" stroke="none" font-family="Arial" font-size="24px" font-style="normal" font-weight="normal" text-decoration="none" x="0" y="90">UNREGISTERED</text><text fill="#eeeeee" stroke="none" font-family="Arial" font-size="24px" font-style="normal" font-weight="normal" text-decoration="none" x="0" y="120">UNREGISTERED</text><text fill="#eeeeee" stroke="none" font-family="Arial" font-size="24px" font-style="normal" font-weight="normal" text-decoration="none" x="0" y="150">UNREGISTERED</text><text fill="#eeeeee" stroke="none" font-family="Arial" font-size="24px" font-style="normal" font-weight="normal" text-decoration="none" x="0" y="180">UNREGISTERED</text><text fill="#eeeeee" stroke="none" font-family="Arial" font-size="24px" font-style="normal" font-weight="normal" text-decoration="none" x="0" y="210">UNREGISTERED</text><text fill="#eeeeee" stroke="none" font-family="Arial" font-size="24px" font-style="normal" font-weight="normal" text-decoration="none" x="0" y="240">UNREGISTERED</text><text fill="#eeeeee" stroke="none" font-family="Arial" font-size="24px" font-style="normal" font-weight="normal" text-decoration="none" x="0" y="270">UNREGISTERED</text><text fill="#eeeeee" stroke="none" font-family="Arial" font-size="24px" font-style="normal" font-weight="normal" text-decoration="none" x="0" y="300">UNREGISTERED</text><text fill="#eeeeee" stroke="none" font-family="Arial" font-size="24px" font-style="normal" font-weight="normal" text-decoration="none" x="0" y="330">UNREGISTERED</text><text fill="#eeeeee" stroke="none" font-family="Arial" font-size="24px" font-style="normal" font-weight="normal" text-decoration="none" x="0" y="360">UNREGISTERED</text><text fill="#eeeeee" stroke="none" font-family="Arial" font-size="24px" font-style="normal" font-weight="normal" text-decoration="none" x="0" y="390">UNREGISTERED</text><text fill="#eeeeee" stroke="none" font-family="Arial" font-size="24px" font-style="normal" font-weight="normal" text-decoration="none" x="0" y="420">UNREGISTERED</text><text fill="#eeeeee" stroke="none" font-family="Arial" font-size="24px" font-style="normal" font-weight="normal" text-decoration="none" x="0" y="450">UNREGISTERED</text><text fill="#eeeeee" stroke="none" font-family="Arial" font-size="24px" font-style="normal" font-weight="normal" text-decoration="none" x="0" y="480">UNREGISTERED</text><text fill="#eeeeee" stroke="none" font-family="Arial" font-size="24px" font-style="normal" font-weight="normal" text-decoration="none" x="0" y="510">UNREGISTERED</text><text fill="#eeeeee" stroke="none" font-family="Arial" font-size="24px" font-style="normal" font-weight="normal" text-decoration="none" x="0" y="540">UNREGISTERED</text><text fill="#eeeeee" stroke="none" font-family="Arial" font-size="24px" font-style="normal" font-weight="normal" text-decoration="none" x="0" y="570">UNREGISTERED</text><text fill="#eeeeee" stroke="none" font-family="Arial" font-size="24px" font-style="normal" font-weight="normal" text-decoration="none" x="0" y="600">UNREGISTERED</text><text fill="#eeeeee" stroke="none" font-family="Arial" font-size="24px" font-style="normal" font-weight="normal" text-decoration="none" x="0" y="630">UNREGISTERED</text><text fill="#eeeeee" stroke="none" font-family="Arial" font-size="24px" font-style="normal" font-weight="normal" text-decoration="none" x="0" y="660">UNREGISTERED</text><text fill="#eeeeee" stroke="none" font-family="Arial" font-size="24px" font-style="normal" font-weight="normal" text-decoration="none" x="0" y="690">UNREGISTERED</text><text fill="#eeeeee" stroke="none" font-family="Arial" font-size="24px" font-style="normal" font-weight="normal" text-decoration="none" x="0" y="720">UNREGISTERED</text><text fill="#eeeeee" stroke="none" font-family="Arial" font-size="24px" font-style="normal" font-weight="normal" text-decoration="none" x="200" y="0">UNREGISTERED</text><text fill="#eeeeee" stroke="none" font-family="Arial" font-size="24px" font-style="normal" font-weight="normal" text-decoration="none" x="200" y="30">UNREGISTERED</text><text fill="#eeeeee" stroke="none" font-family="Arial" font-size="24px" font-style="normal" font-weight="normal" text-decoration="none" x="200" y="60">UNREGISTERED</text><text fill="#eeeeee" stroke="none" font-family="Arial" font-size="24px" font-style="normal" font-weight="normal" text-decoration="none" x="200" y="90">UNREGISTERED</text><text fill="#eeeeee" stroke="none" font-family="Arial" font-size="24px" font-style="normal" font-weight="normal" text-decoration="none" x="200" y="120">UNREGISTERED</text><text fill="#eeeeee" stroke="none" font-family="Arial" font-size="24px" font-style="normal" font-weight="normal" text-decoration="none" x="200" y="150">UNREGISTERED</text><text fill="#eeeeee" stroke="none" font-family="Arial" font-size="24px" font-style="normal" font-weight="normal" text-decoration="none" x="200" y="180">UNREGISTERED</text><text fill="#eeeeee" stroke="none" font-family="Arial" font-size="24px" font-style="normal" font-weight="normal" text-decoration="none" x="200" y="210">UNREGISTERED</text><text fill="#eeeeee" stroke="none" font-family="Arial" font-size="24px" font-style="normal" font-weight="normal" text-decoration="none" x="200" y="240">UNREGISTERED</text><text fill="#eeeeee" stroke="none" font-family="Arial" font-size="24px" font-style="normal" font-weight="normal" text-decoration="none" x="200" y="270">UNREGISTERED</text><text fill="#eeeeee" stroke="none" font-family="Arial" font-size="24px" font-style="normal" font-weight="normal" text-decoration="none" x="200" y="300">UNREGISTERED</text><text fill="#eeeeee" stroke="none" font-family="Arial" font-size="24px" font-style="normal" font-weight="normal" text-decoration="none" x="200" y="330">UNREGISTERED</text><text fill="#eeeeee" stroke="none" font-family="Arial" font-size="24px" font-style="normal" font-weight="normal" text-decoration="none" x="200" y="360">UNREGISTERED</text><text fill="#eeeeee" stroke="none" font-family="Arial" font-size="24px" font-style="normal" font-weight="normal" text-decoration="none" x="200" y="390">UNREGISTERED</text><text fill="#eeeeee" stroke="none" font-family="Arial" font-size="24px" font-style="normal" font-weight="normal" text-decoration="none" x="200" y="420">UNREGISTERED</text><text fill="#eeeeee" stroke="none" font-family="Arial" font-size="24px" font-style="normal" font-weight="normal" text-decoration="none" x="200" y="450">UNREGISTERED</text><text fill="#eeeeee" stroke="none" font-family="Arial" font-size="24px" font-style="normal" font-weight="normal" text-decoration="none" x="200" y="480">UNREGISTERED</text><text fill="#eeeeee" stroke="none" font-family="Arial" font-size="24px" font-style="normal" font-weight="normal" text-decoration="none" x="200" y="510">UNREGISTERED</text><text fill="#eeeeee" stroke="none" font-family="Arial" font-size="24px" font-style="normal" font-weight="normal" text-decoration="none" x="200" y="540">UNREGISTERED</text><text fill="#eeeeee" stroke="none" font-family="Arial" font-size="24px" font-style="normal" font-weight="normal" text-decoration="none" x="200" y="570">UNREGISTERED</text><text fill="#eeeeee" stroke="none" font-family="Arial" font-size="24px" font-style="normal" font-weight="normal" text-decoration="none" x="200" y="600">UNREGISTERED</text><text fill="#eeeeee" stroke="none" font-family="Arial" font-size="24px" font-style="normal" font-weight="normal" text-decoration="none" x="200" y="630">UNREGISTERED</text><text fill="#eeeeee" stroke="none" font-family="Arial" font-size="24px" font-style="normal" font-weight="normal" text-decoration="none" x="200" y="660">UNREGISTERED</text><text fill="#eeeeee" stroke="none" font-family="Arial" font-size="24px" font-style="normal" font-weight="normal" text-decoration="none" x="200" y="690">UNREGISTERED</text><text fill="#eeeeee" stroke="none" font-family="Arial" font-size="24px" font-style="normal" font-weight="normal" text-decoration="none" x="200" y="720">UNREGISTERED</text><text fill="#eeeeee" stroke="none" font-family="Arial" font-size="24px" font-style="normal" font-weight="normal" text-decoration="none" x="400" y="0">UNREGISTERED</text><text fill="#eeeeee" stroke="none" font-family="Arial" font-size="24px" font-style="normal" font-weight="normal" text-decoration="none" x="400" y="30">UNREGISTERED</text><text fill="#eeeeee" stroke="none" font-family="Arial" font-size="24px" font-style="normal" font-weight="normal" text-decoration="none" x="400" y="60">UNREGISTERED</text><text fill="#eeeeee" stroke="none" font-family="Arial" font-size="24px" font-style="normal" font-weight="normal" text-decoration="none" x="400" y="90">UNREGISTERED</text><text fill="#eeeeee" stroke="none" font-family="Arial" font-size="24px" font-style="normal" font-weight="normal" text-decoration="none" x="400" y="120">UNREGISTERED</text><text fill="#eeeeee" stroke="none" font-family="Arial" font-size="24px" font-style="normal" font-weight="normal" text-decoration="none" x="400" y="150">UNREGISTERED</text><text fill="#eeeeee" stroke="none" font-family="Arial" font-size="24px" font-style="normal" font-weight="normal" text-decoration="none" x="400" y="180">UNREGISTERED</text><text fill="#eeeeee" stroke="none" font-family="Arial" font-size="24px" font-style="normal" font-weight="normal" text-decoration="none" x="400" y="210">UNREGISTERED</text><text fill="#eeeeee" stroke="none" font-family="Arial" font-size="24px" font-style="normal" font-weight="normal" text-decoration="none" x="400" y="240">UNREGISTERED</text><text fill="#eeeeee" stroke="none" font-family="Arial" font-size="24px" font-style="normal" font-weight="normal" text-decoration="none" x="400" y="270">UNREGISTERED</text><text fill="#eeeeee" stroke="none" font-family="Arial" font-size="24px" font-style="normal" font-weight="normal" text-decoration="none" x="400" y="300">UNREGISTERED</text><text fill="#eeeeee" stroke="none" font-family="Arial" font-size="24px" font-style="normal" font-weight="normal" text-decoration="none" x="400" y="330">UNREGISTERED</text><text fill="#eeeeee" stroke="none" font-family="Arial" font-size="24px" font-style="normal" font-weight="normal" text-decoration="none" x="400" y="360">UNREGISTERED</text><text fill="#eeeeee" stroke="none" font-family="Arial" font-size="24px" font-style="normal" font-weight="normal" text-decoration="none" x="400" y="390">UNREGISTERED</text><text fill="#eeeeee" stroke="none" font-family="Arial" font-size="24px" font-style="normal" font-weight="normal" text-decoration="none" x="400" y="420">UNREGISTERED</text><text fill="#eeeeee" stroke="none" font-family="Arial" font-size="24px" font-style="normal" font-weight="normal" text-decoration="none" x="400" y="450">UNREGISTERED</text><text fill="#eeeeee" stroke="none" font-family="Arial" font-size="24px" font-style="normal" font-weight="normal" text-decoration="none" x="400" y="480">UNREGISTERED</text><text fill="#eeeeee" stroke="none" font-family="Arial" font-size="24px" font-style="normal" font-weight="normal" text-decoration="none" x="400" y="510">UNREGISTERED</text><text fill="#eeeeee" stroke="none" font-family="Arial" font-size="24px" font-style="normal" font-weight="normal" text-decoration="none" x="400" y="540">UNREGISTERED</text><text fill="#eeeeee" stroke="none" font-family="Arial" font-size="24px" font-style="normal" font-weight="normal" text-decoration="none" x="400" y="570">UNREGISTERED</text><text fill="#eeeeee" stroke="none" font-family="Arial" font-size="24px" font-style="normal" font-weight="normal" text-decoration="none" x="400" y="600">UNREGISTERED</text><text fill="#eeeeee" stroke="none" font-family="Arial" font-size="24px" font-style="normal" font-weight="normal" text-decoration="none" x="400" y="630">UNREGISTERED</text><text fill="#eeeeee" stroke="none" font-family="Arial" font-size="24px" font-style="normal" font-weight="normal" text-decoration="none" x="400" y="660">UNREGISTERED</text><text fill="#eeeeee" stroke="none" font-family="Arial" font-size="24px" font-style="normal" font-weight="normal" text-decoration="none" x="400" y="690">UNREGISTERED</text><text fill="#eeeeee" stroke="none" font-family="Arial" font-size="24px" font-style="normal" font-weight="normal" text-decoration="none" x="400" y="720">UNREGISTERED</text><text fill="#eeeeee" stroke="none" font-family="Arial" font-size="24px" font-style="normal" font-weight="normal" text-decoration="none" x="600" y="0">UNREGISTERED</text><text fill="#eeeeee" stroke="none" font-family="Arial" font-size="24px" font-style="normal" font-weight="normal" text-decoration="none" x="600" y="30">UNREGISTERED</text><text fill="#eeeeee" stroke="none" font-family="Arial" font-size="24px" font-style="normal" font-weight="normal" text-decoration="none" x="600" y="60">UNREGISTERED</text><text fill="#eeeeee" stroke="none" font-family="Arial" font-size="24px" font-style="normal" font-weight="normal" text-decoration="none" x="600" y="90">UNREGISTERED</text><text fill="#eeeeee" stroke="none" font-family="Arial" font-size="24px" font-style="normal" font-weight="normal" text-decoration="none" x="600" y="120">UNREGISTERED</text><text fill="#eeeeee" stroke="none" font-family="Arial" font-size="24px" font-style="normal" font-weight="normal" text-decoration="none" x="600" y="150">UNREGISTERED</text><text fill="#eeeeee" stroke="none" font-family="Arial" font-size="24px" font-style="normal" font-weight="normal" text-decoration="none" x="600" y="180">UNREGISTERED</text><text fill="#eeeeee" stroke="none" font-family="Arial" font-size="24px" font-style="normal" font-weight="normal" text-decoration="none" x="600" y="210">UNREGISTERED</text><text fill="#eeeeee" stroke="none" font-family="Arial" font-size="24px" font-style="normal" font-weight="normal" text-decoration="none" x="600" y="240">UNREGISTERED</text><text fill="#eeeeee" stroke="none" font-family="Arial" font-size="24px" font-style="normal" font-weight="normal" text-decoration="none" x="600" y="270">UNREGISTERED</text><text fill="#eeeeee" stroke="none" font-family="Arial" font-size="24px" font-style="normal" font-weight="normal" text-decoration="none" x="600" y="300">UNREGISTERED</text><text fill="#eeeeee" stroke="none" font-family="Arial" font-size="24px" font-style="normal" font-weight="normal" text-decoration="none" x="600" y="330">UNREGISTERED</text><text fill="#eeeeee" stroke="none" font-family="Arial" font-size="24px" font-style="normal" font-weight="normal" text-decoration="none" x="600" y="360">UNREGISTERED</text><text fill="#eeeeee" stroke="none" font-family="Arial" font-size="24px" font-style="normal" font-weight="normal" text-decoration="none" x="600" y="390">UNREGISTERED</text><text fill="#eeeeee" stroke="none" font-family="Arial" font-size="24px" font-style="normal" font-weight="normal" text-decoration="none" x="600" y="420">UNREGISTERED</text><text fill="#eeeeee" stroke="none" font-family="Arial" font-size="24px" font-style="normal" font-weight="normal" text-decoration="none" x="600" y="450">UNREGISTERED</text><text fill="#eeeeee" stroke="none" font-family="Arial" font-size="24px" font-style="normal" font-weight="normal" text-decoration="none" x="600" y="480">UNREGISTERED</text><text fill="#eeeeee" stroke="none" font-family="Arial" font-size="24px" font-style="normal" font-weight="normal" text-decoration="none" x="600" y="510">UNREGISTERED</text><text fill="#eeeeee" stroke="none" font-family="Arial" font-size="24px" font-style="normal" font-weight="normal" text-decoration="none" x="600" y="540">UNREGISTERED</text><text fill="#eeeeee" stroke="none" font-family="Arial" font-size="24px" font-style="normal" font-weight="normal" text-decoration="none" x="600" y="570">UNREGISTERED</text><text fill="#eeeeee" stroke="none" font-family="Arial" font-size="24px" font-style="normal" font-weight="normal" text-decoration="none" x="600" y="600">UNREGISTERED</text><text fill="#eeeeee" stroke="none" font-family="Arial" font-size="24px" font-style="normal" font-weight="normal" text-decoration="none" x="600" y="630">UNREGISTERED</text><text fill="#eeeeee" stroke="none" font-family="Arial" font-size="24px" font-style="normal" font-weight="normal" text-decoration="none" x="600" y="660">UNREGISTERED</text><text fill="#eeeeee" stroke="none" font-family="Arial" font-size="24px" font-style="normal" font-weight="normal" text-decoration="none" x="600" y="690">UNREGISTERED</text><text fill="#eeeeee" stroke="none" font-family="Arial" font-size="24px" font-style="normal" font-weight="normal" text-decoration="none" x="600" y="720">UNREGISTERED</text><g transform="translate(-14,-54) scale(1,1)"><rect fill="#C0C0C0" stroke="none" x="47" y="71" width="176" height="15" opacity="0.2"/></g><g transform="translate(-14,-54) scale(1,1)"><rect fill="#C0C0C0" stroke="none" x="47" y="85" width="440" height="154" opacity="0.2"/></g><g transform="translate(-14,-54) scale(1,1)"><rect fill="#ffffff" stroke="none" x="40" y="79" width="440" height="153"/></g><g transform="translate(-14,-54) scale(1,1)"><path fill="none" stroke="#000000" d="M 40 79 L 480 79 L 480 232 L 40 232 L 40 79 Z Z" stroke-miterlimit="10"/></g><g transform="translate(-14,-54) scale(1,1)"><rect fill="#ffffff" stroke="none" x="40" y="64" width="176" height="15"/></g><g transform="translate(-14,-54) scale(1,1)"><path fill="none" stroke="#000000" d="M 40 64 L 216 64 L 216 79 L 40 79 L 40 64 Z Z" stroke-miterlimit="10"/></g><g transform="translate(-14,-54) scale(1,1)"><rect fill="#ffffff" stroke="none" x="40" y="78" width="440" height="154"/></g><g transform="translate(-14,-54) scale(1,1)"><path fill="none" stroke="#000000" d="M 40 78 L 480 78 L 480 232 L 40 232 L 40 78 Z Z" stroke-miterlimit="10"/></g><g transform="translate(-14,-54) scale(1,1)"><g><path fill="none" stroke="none"/><text fill="#000000" stroke="none" font-family="Arial" font-size="13px" font-style="normal" font-weight="bold" text-decoration="none" x="222.069580078125" y="97">commandes</text></g></g><g transform="translate(-14,-54) scale(1,1)"><rect fill="#C0C0C0" stroke="none" x="31" y="295" width="294.4" height="15" opacity="0.2"/></g><g transform="translate(-14,-54) scale(1,1)"><rect fill="#C0C0C0" stroke="none" x="31" y="309" width="736" height="482" opacity="0.2"/></g><g transform="translate(-14,-54) scale(1,1)"><rect fill="#ffffff" stroke="none" x="24" y="303" width="736" height="481"/></g><g transform="translate(-14,-54) scale(1,1)"><path fill="none" stroke="#000000" d="M 24 303 L 760 303 L 760 784 L 24 784 L 24 303 Z Z" stroke-miterlimit="10"/></g><g transform="translate(-14,-54) scale(1,1)"><rect fill="#ffffff" stroke="none" x="24" y="288" width="294.4" height="15"/></g><g transform="translate(-14,-54) scale(1,1)"><path fill="none" stroke="#000000" d="M 24 288 L 318.4 288 L 318.4 303 L 24 303 L 24 288 Z Z" stroke-miterlimit="10"/></g><g transform="translate(-14,-54) scale(1,1)"><rect fill="#ffffff" stroke="none" x="24" y="302" width="736" height="482"/></g><g transform="translate(-14,-54) scale(1,1)"><path fill="none" stroke="#000000" d="M 24 302 L 760 302 L 760 784 L 24 784 L 24 302 Z Z" stroke-miterlimit="10"/></g><g transform="translate(-14,-54) scale(1,1)"><g><path fill="none" stroke="none"/><text fill="#000000" stroke="none" font-family="Arial" font-size="13px" font-style="normal" font-weight="bold" text-decoration="none" x="366.003173828125" y="321">produits</text></g></g><g transform="translate(-14,-54) scale(1,1)"><path fill="none" stroke="#000000" d="M 289 233 L 307 287" stroke-miterlimit="10" stroke-dasharray="3"/></g><g transform="translate(-14,-54) scale(1,1)"><path fill="none" stroke="#000000" d="M 299.7927808450386 278.6900064950472 L 307 287 L 307.77977922099745 276.02767370306094" stroke-miterlimit="10"/></g><g transform="translate(-14,-54) scale(1,1)"><rect fill="#C0C0C0" stroke="none" x="383" y="447" width="107.7314453125" height="87" opacity="0.2"/></g><g transform="translate(-14,-54) scale(1,1)"><rect fill="#fff5d8" stroke="none" x="376" y="440" width="107.7314453125" height="87"/></g><g transform="translate(-14,-54) scale(1,1)"><path fill="none" stroke="#000000" d="M 376 440 L 483.7314453125 440 L 483.7314453125 527 L 376 527 L 376 440 Z Z" stroke-miterlimit="10"/></g><g transform="translate(-14,-54) scale(1,1)"><path fill="none" stroke="#000000" d="M 376 465 L 483.7314453125 465" stroke-miterlimit="10"/></g><g transform="translate(-14,-54) scale(1,1)"><path fill="none" stroke="#000000" d="M 376 518 L 483.7314453125 518" stroke-miterlimit="10"/></g><g transform="translate(-14,-54) scale(1,1)"><g><path fill="none" stroke="none"/><text fill="#000000" stroke="none" font-family="Arial" font-size="13px" font-style="normal" font-weight="bold" text-decoration="none" x="380.5" y="458">RéalisationType</text></g></g><g transform="translate(-14,-54) scale(1,1)"><g><path fill="none" stroke="none"/><text fill="#000000" stroke="none" font-family="Arial" font-size="13px" font-style="normal" font-weight="normal" text-decoration="none" x="381" y="481">+titre</text></g></g><g transform="translate(-14,-54) scale(1,1)"><g><path fill="none" stroke="none"/><text fill="#000000" stroke="none" font-family="Arial" font-size="13px" font-style="normal" font-weight="normal" text-decoration="none" x="381" y="496">+description</text></g></g><g transform="translate(-14,-54) scale(1,1)"><g><path fill="none" stroke="none"/><text fill="#000000" stroke="none" font-family="Arial" font-size="13px" font-style="normal" font-weight="normal" text-decoration="none" x="381" y="511">+image</text></g></g><g transform="translate(-14,-54) scale(1,1)"><rect fill="#C0C0C0" stroke="none" x="487" y="583" width="157.509765625" height="100" opacity="0.2"/></g><g transform="translate(-14,-54) scale(1,1)"><rect fill="#fff5d8" stroke="none" x="480" y="576" width="157.509765625" height="100"/></g><g transform="translate(-14,-54) scale(1,1)"><path fill="none" stroke="#000000" d="M 480 576 L 637.509765625 576 L 637.509765625 676 L 480 676 L 480 576 Z Z" stroke-miterlimit="10"/></g><g transform="translate(-14,-54) scale(1,1)"><path fill="none" stroke="#000000" d="M 480 601 L 637.509765625 601" stroke-miterlimit="10"/></g><g transform="translate(-14,-54) scale(1,1)"><path fill="none" stroke="#000000" d="M 480 654 L 637.509765625 654" stroke-miterlimit="10"/></g><g transform="translate(-14,-54) scale(1,1)"><g><path fill="none" stroke="none"/><text fill="#000000" stroke="none" font-family="Arial" font-size="13px" font-style="normal" font-weight="bold" text-decoration="none" x="533.462646484375" y="594">Variante</text></g></g><g transform="translate(-14,-54) scale(1,1)"><g><path fill="none" stroke="none"/><text fill="#000000" stroke="none" font-family="Arial" font-size="13px" font-style="normal" font-weight="normal" text-decoration="none" x="485" y="616.5">+type</text></g></g><g transform="translate(-14,-54) scale(1,1)"><g><path fill="none" stroke="none"/><text fill="#000000" stroke="none" font-family="Arial" font-size="13px" font-style="normal" font-weight="normal" text-decoration="none" x="485" y="631">+nom</text></g></g><g transform="translate(-14,-54) scale(1,1)"><g><path fill="none" stroke="none"/><text fill="#000000" stroke="none" font-family="Arial" font-size="13px" font-style="normal" font-weight="normal" text-decoration="none" x="485" y="647">+valeur</text></g></g><g transform="translate(-14,-54) scale(1,1)"><g><path fill="none" stroke="none"/><text fill="#000000" stroke="none" font-family="Arial" font-size="13px" font-style="normal" font-weight="normal" text-decoration="none" x="485" y="670">+estPrincipale(): boolean</text></g></g><g transform="translate(-14,-54) scale(1,1)"><rect fill="#C0C0C0" stroke="none" x="79" y="119" width="79.7890625" height="24" opacity="0.2"/></g><g transform="translate(-14,-54) scale(1,1)"><rect fill="#fff5d8" stroke="none" x="72" y="112" width="79.7890625" height="24"/></g><g transform="translate(-14,-54) scale(1,1)"><path fill="none" stroke="#000000" d="M 72 112 L 151.7890625 112 L 151.7890625 136 L 72 136 L 72 112 Z Z" stroke-miterlimit="10"/></g><g transform="translate(-14,-54) scale(1,1)"><g><path fill="none" stroke="none"/><text fill="#000000" stroke="none" font-family="Arial" font-size="13px" font-style="normal" font-weight="bold" text-decoration="none" x="76.5" y="130">Commande</text></g></g><g transform="translate(-14,-54) scale(1,1)"><rect fill="#C0C0C0" stroke="none" x="223" y="159" width="156.37353515625" height="47" opacity="0.2"/></g><g transform="translate(-14,-54) scale(1,1)"><rect fill="#fff5d8" stroke="none" x="216" y="152" width="156.37353515625" height="47"/></g><g transform="translate(-14,-54) scale(1,1)"><path fill="none" stroke="#000000" d="M 216 152 L 372.37353515625 152 L 372.37353515625 199 L 216 199 L 216 152 Z Z" stroke-miterlimit="10"/></g><g transform="translate(-14,-54) scale(1,1)"><path fill="none" stroke="#000000" d="M 216 177 L 372.37353515625 177" stroke-miterlimit="10"/></g><g transform="translate(-14,-54) scale(1,1)"><g><path fill="none" stroke="none"/><text fill="#000000" stroke="none" font-family="Arial" font-size="13px" font-style="normal" font-weight="bold" text-decoration="none" x="241.4599609375" y="170">LigneCommande</text></g></g><g transform="translate(-14,-54) scale(1,1)"><g><path fill="none" stroke="none"/><text fill="#000000" stroke="none" font-family="Arial" font-size="13px" font-style="normal" font-weight="normal" text-decoration="none" x="221" y="193">+quantité</text></g></g><g transform="translate(-14,-54) scale(1,1)"><path fill="none" stroke="#000000" d="M 215 153 L 153 136" stroke-miterlimit="10"/></g><g transform="translate(-14,-54) scale(1,1)"><path fill="#000000" stroke="none" d="M 163.91406078004422 134.62767449579175 L 153 136 L 161.6877870578723 142.74702571783052 L 174.21688721107918 141.81753359013462"/></g><g transform="translate(-14,-54) scale(1,1)"><path fill="none" stroke="#000000" d="M 163.91406078004422 134.62767449579175 L 153 136 L 161.6877870578723 142.74702571783052 L 174.21688721107918 141.81753359013462 L 163.91406078004422 134.62767449579175" stroke-miterlimit="10"/></g><g transform="translate(-14,-54) scale(1,1)"><path fill="none" stroke="#000000" d="M 204.08593921995578 154.37232550420825 L 215 153 L 206.3122129421277 146.25297428216948" stroke-miterlimit="10"/></g><g transform="translate(-14,-54) scale(1,1)"><g><path fill="none" stroke="none"/><text fill="#000000" stroke="none" font-family="Arial" font-size="13px" font-style="normal" font-weight="normal" text-decoration="none" x="194.220458984375" y="140">*</text></g></g><g transform="translate(-14,-54) scale(1,1)"><path fill="none" stroke="#000000" d="M 470 528 L 512 575" stroke-miterlimit="10"/></g><g transform="translate(-14,-54) scale(1,1)"><path fill="none" stroke="#000000" d="M 502.08944227139153 570.2270716003779 L 512 575 L 508.36714746225084 564.6172073872696" stroke-miterlimit="10"/></g><g transform="translate(-14,-54) scale(1,1)"><g><path fill="none" stroke="none"/><text fill="#000000" stroke="none" font-family="Arial" font-size="13px" font-style="normal" font-weight="normal" text-decoration="none" x="403.5" y="568">+v_possibles</text></g></g><g transform="translate(-14,-54) scale(1,1)"><g><path fill="none" stroke="none"/><text fill="#000000" stroke="none" font-family="Arial" font-size="13px" font-style="normal" font-weight="normal" text-decoration="none" x="485.220458984375" y="572">*</text></g></g><g transform="translate(-14,-54) scale(1,1)"><path fill="none" stroke="#000000" d="M 327 200 L 527 352" stroke-miterlimit="10"/></g><g transform="translate(-14,-54) scale(1,1)"><path fill="none" stroke="#000000" d="M 516.3617537286436 349.2021943830975 L 527 352 L 521.455971245745 342.4992765974378" stroke-miterlimit="10"/></g><g transform="translate(-14,-54) scale(1,1)"><rect fill="#C0C0C0" stroke="none" x="535" y="359" width="72.2353515625" height="57" opacity="0.2"/></g><g transform="translate(-14,-54) scale(1,1)"><rect fill="#fff5d8" stroke="none" x="528" y="352" width="72.2353515625" height="57"/></g><g transform="translate(-14,-54) scale(1,1)"><path fill="none" stroke="#000000" d="M 528 352 L 600.2353515625 352 L 600.2353515625 409 L 528 409 L 528 352 Z Z" stroke-miterlimit="10"/></g><g transform="translate(-14,-54) scale(1,1)"><path fill="none" stroke="#000000" d="M 528 377 L 600.2353515625 377" stroke-miterlimit="10"/></g><g transform="translate(-14,-54) scale(1,1)"><path fill="none" stroke="#000000" d="M 528 400 L 600.2353515625 400" stroke-miterlimit="10"/></g><g transform="translate(-14,-54) scale(1,1)"><g><path fill="none" stroke="none"/><text fill="#000000" stroke="none" font-family="Arial" font-size="13px" font-style="normal" font-weight="bold" text-decoration="none" x="541.370849609375" y="370">Produit</text></g></g><g transform="translate(-14,-54) scale(1,1)"><g><path fill="none" stroke="none"/><text fill="#000000" stroke="none" font-family="Arial" font-size="13px" font-style="normal" font-weight="normal" text-decoration="none" x="533" y="393">+prixTotal</text></g></g><g transform="translate(-14,-54) scale(1,1)"><path fill="none" stroke="#000000" d="M 527 408 L 485 440" stroke-miterlimit="10"/></g><g transform="translate(-14,-54) scale(1,1)"><path fill="none" stroke="#000000" d="M 490.532564266569 430.4925959044393 L 485 440 L 495.63486361769304 437.1893638027896" stroke-miterlimit="10"/></g><g transform="translate(-14,-54) scale(1,1)"><path fill="none" stroke="#000000" d="M 563 410 L 559 575" stroke-miterlimit="10"/></g><g transform="translate(-14,-54) scale(1,1)"><path fill="none" stroke="#000000" d="M 555.0380141682144 564.7382911623487 L 559 575 L 563.4545768570446 564.9423290457142" stroke-miterlimit="10"/></g><g transform="translate(-14,-54) scale(1,1)"><g><path fill="none" stroke="none"/><text fill="#000000" stroke="none" font-family="Arial" font-size="13px" font-style="normal" font-weight="normal" text-decoration="none" x="566.5" y="547">+v_selectionnees</text></g></g><g transform="translate(-14,-54) scale(1,1)"><g><path fill="none" stroke="none"/><text fill="#000000" stroke="none" font-family="Arial" font-size="13px" font-style="normal" font-weight="normal" text-decoration="none" x="544.220458984375" y="558">*</text></g></g><g transform="translate(-14,-54) scale(1,1)"><rect fill="#C0C0C0" stroke="none" x="615" y="431" width="125.34619140625" height="75" opacity="0.2"/></g><g transform="translate(-14,-54) scale(1,1)"><rect fill="#fff5d8" stroke="none" x="608" y="424" width="125.34619140625" height="75"/></g><g transform="translate(-14,-54) scale(1,1)"><path fill="none" stroke="#000000" d="M 608 424 L 733.34619140625 424 L 733.34619140625 499 L 608 499 L 608 424 Z Z" stroke-miterlimit="10"/></g><g transform="translate(-14,-54) scale(1,1)"><path fill="none" stroke="#000000" d="M 608 462 L 733.34619140625 462" stroke-miterlimit="10"/></g><g transform="translate(-14,-54) scale(1,1)"><g><path fill="none" stroke="none"/><text fill="#000000" stroke="none" font-family="Arial" font-size="13px" font-style="normal" font-weight="normal" text-decoration="none" x="627.30908203125" y="440">«enumeration»</text></g></g><g transform="translate(-14,-54) scale(1,1)"><g><path fill="none" stroke="none"/><text fill="#000000" stroke="none" font-family="Arial" font-size="13px" font-style="normal" font-weight="bold" text-decoration="none" x="630.6923828125" y="455">TypeVariante</text></g></g><g transform="translate(-14,-54) scale(1,1)"><g><path fill="none" stroke="none"/><text fill="#000000" stroke="none" font-family="Arial" font-size="13px" font-style="normal" font-weight="normal" text-decoration="none" x="613" y="478">TAILLE</text></g></g><g transform="translate(-14,-54) scale(1,1)"><g><path fill="none" stroke="none"/><text fill="#000000" stroke="none" font-family="Arial" font-size="13px" font-style="normal" font-weight="normal" text-decoration="none" x="613" y="493">COULEUR</text></g></g><g transform="translate(-14,-54) scale(1,1)"><path fill="none" stroke="#000000" d="M 347 708 L 479 657" stroke-miterlimit="10"/></g><g transform="translate(-14,-54) scale(1,1)"><path fill="#FFFFFF" stroke="none" d="M 463.0747660345888 672.1785020060253 L 479 657 L 457.0063373743613 656.4719807677894"/></g><g transform="translate(-14,-54) scale(1,1)"><path fill="none" stroke="#000000" d="M 463.0747660345888 672.1785020060253 L 479 657 L 457.0063373743613 656.4719807677894 L 463.0747660345888 672.1785020060253" stroke-miterlimit="10"/></g><g transform="translate(-14,-54) scale(1,1)"><path fill="none" stroke="#000000" d="M 583 711 L 573 677" stroke-miterlimit="10"/></g><g transform="translate(-14,-54) scale(1,1)"><path fill="#FFFFFF" stroke="none" d="M 586.8120614397412 694.1238710221963 L 573 677 L 570.6581969862474 698.875007626165"/></g><g transform="translate(-14,-54) scale(1,1)"><path fill="none" stroke="#000000" d="M 586.8120614397412 694.1238710221963 L 573 677 L 570.6581969862474 698.875007626165 L 586.8120614397412 694.1238710221963" stroke-miterlimit="10"/></g><g transform="translate(-14,-54) scale(1,1)"><rect fill="#C0C0C0" stroke="none" x="231" y="703" width="121.7216796875" height="72" opacity="0.2"/></g><g transform="translate(-14,-54) scale(1,1)"><rect fill="#fff5d8" stroke="none" x="224" y="696" width="121.7216796875" height="72"/></g><g transform="translate(-14,-54) scale(1,1)"><path fill="none" stroke="#000000" d="M 224 696 L 345.7216796875 696 L 345.7216796875 768 L 224 768 L 224 696 Z Z" stroke-miterlimit="10"/></g><g transform="translate(-14,-54) scale(1,1)"><path fill="none" stroke="#000000" d="M 224 721 L 345.7216796875 721" stroke-miterlimit="10"/></g><g transform="translate(-14,-54) scale(1,1)"><path fill="none" stroke="#000000" d="M 224 744 L 345.7216796875 744" stroke-miterlimit="10"/></g><g transform="translate(-14,-54) scale(1,1)"><g><path fill="none" stroke="none"/><text fill="#000000" stroke="none" font-family="Arial" font-size="13px" font-style="normal" font-weight="bold" text-decoration="none" x="228.5" y="714">VariantePrincipale</text></g></g><g transform="translate(-14,-54) scale(1,1)"><g><path fill="none" stroke="none"/><text fill="#000000" stroke="none" font-family="Arial" font-size="13px" font-style="normal" font-weight="normal" text-decoration="none" x="229" y="737">+prix</text></g></g><g transform="translate(-14,-54) scale(1,1)"><rect fill="#C0C0C0" stroke="none" x="487" y="719" width="225.80419921875" height="59" opacity="0.2"/></g><g transform="translate(-14,-54) scale(1,1)"><rect fill="#fff5d8" stroke="none" x="480" y="712" width="225.80419921875" height="59"/></g><g transform="translate(-14,-54) scale(1,1)"><path fill="none" stroke="#000000" d="M 480 712 L 705.80419921875 712 L 705.80419921875 771 L 480 771 L 480 712 Z Z" stroke-miterlimit="10"/></g><g transform="translate(-14,-54) scale(1,1)"><path fill="none" stroke="#000000" d="M 480 737 L 705.80419921875 737" stroke-miterlimit="10"/></g><g transform="translate(-14,-54) scale(1,1)"><path fill="none" stroke="#000000" d="M 480 747 L 705.80419921875 747" stroke-miterlimit="10"/></g><g transform="translate(-14,-54) scale(1,1)"><g><path fill="none" stroke="none"/><text fill="#000000" stroke="none" font-family="Arial" font-size="13px" font-style="normal" font-weight="bold" text-decoration="none" x="516.679443359375" y="730">VarianteComplementaire</text></g></g><g transform="translate(-14,-54) scale(1,1)"><path fill="none" stroke="#000000" d="M 336 427 L 527 388" stroke-miterlimit="10" stroke-dasharray="3"/></g><g transform="translate(-14,-54) scale(1,1)"><path fill="none" stroke="#000000" d="M 517.8849367094983 394.1575661758643 L 527 388 L 516.2006201377831 385.90873373490024" stroke-miterlimit="10"/></g><g transform="translate(-14,-54) scale(1,1)"><path fill="none" stroke="#000000" d="M 262 525 L 328 584 L 479 612" stroke-miterlimit="10" stroke-dasharray="3"/></g><g transform="translate(-14,-54) scale(1,1)"><path fill="none" stroke="#000000" d="M 468.2401743036126 614.2860776415865 L 479 612 L 469.77515328301445 606.008155288384" stroke-miterlimit="10"/></g><g transform="translate(-14,-54) scale(1,1)"><path fill="none" stroke="#000000" d="M 336 473 L 375 477" stroke-miterlimit="10" stroke-dasharray="3"/></g><g transform="translate(-14,-54) scale(1,1)"><path fill="none" stroke="#000000" d="M 364.46086736405385 480.15066394303415 L 375 477 L 365.3198520059387 471.7755636846574" stroke-miterlimit="10"/></g><g transform="translate(-14,-54) scale(1,1)"><rect fill="#C0C0C0" stroke="none" x="47" y="399" width="294.54931640625" height="132" opacity="0.2"/></g><g transform="translate(-14,-54) scale(1,1)"><rect fill="#ffadd6" stroke="none" x="40" y="392" width="294.54931640625" height="132"/></g><g transform="translate(-14,-54) scale(1,1)"><path fill="none" stroke="#000000" d="M 40 392 L 334.54931640625 392 L 334.54931640625 524 L 40 524 L 40 392 Z Z" stroke-miterlimit="10"/></g><g transform="translate(-14,-54) scale(1,1)"><path fill="none" stroke="#000000" d="M 40 417 L 334.54931640625 417" stroke-miterlimit="10"/></g><g transform="translate(-14,-54) scale(1,1)"><path fill="none" stroke="#000000" d="M 40 427 L 334.54931640625 427" stroke-miterlimit="10"/></g><g transform="translate(-14,-54) scale(1,1)"><g><path fill="none" stroke="none"/><text fill="#000000" stroke="none" font-family="Arial" font-size="13px" font-style="normal" font-weight="bold" text-decoration="none" x="141.39697265625" y="410">ServiceProduit</text></g></g><g transform="translate(-14,-54) scale(1,1)"><g><path fill="none" stroke="none"/><text fill="#000000" stroke="none" font-family="Arial" font-size="13px" font-style="normal" font-weight="normal" text-decoration="none" x="45" y="443">+initProduitSelonRealisationType(id): Produit</text></g></g><g transform="translate(-14,-54) scale(1,1)"><g><path fill="none" stroke="none"/><text fill="#000000" stroke="none" font-family="Arial" font-size="13px" font-style="normal" font-weight="normal" text-decoration="none" x="45" y="458">+getVariantesPossiblesPourRealisationType(id)</text></g></g><g transform="translate(-14,-54) scale(1,1)"><g><path fill="none" stroke="none"/><text fill="#000000" stroke="none" font-family="Arial" font-size="13px" font-style="normal" font-weight="normal" text-decoration="none" x="45" y="473">+setVariantePrincipale(idProduit, variante)</text></g></g><g transform="translate(-14,-54) scale(1,1)"><g><path fill="none" stroke="none"/><text fill="#000000" stroke="none" font-family="Arial" font-size="13px" font-style="normal" font-weight="normal" text-decoration="none" x="45" y="488">+addVarianteComplementaire(idProduit, variante)</text></g></g><g transform="translate(-14,-54) scale(1,1)"><g><path fill="none" stroke="none"/><text fill="#000000" stroke="none" font-family="Arial" font-size="13px" font-style="normal" font-weight="normal" text-decoration="none" x="45" y="503">+vérifierConfigurationProduit(idProduit)</text></g></g><g transform="translate(-14,-54) scale(1,1)"><g><path fill="none" stroke="none"/><text fill="#000000" stroke="none" font-family="Arial" font-size="13px" font-style="normal" font-weight="normal" text-decoration="none" x="45" y="518">+getProduitConfiguré(idProd): Produit</text></g></g><g transform="translate(-14,-54) scale(1,1)"><path fill="#ffffff" stroke="none" d="M 656 328 L 721.80810546875 328 L 731.80810546875 338 L 731.80810546875 366 L 656 366 L 656 328"/></g><g transform="translate(-14,-54) scale(1,1)"><path fill="none" stroke="#000000" d="M 656 328 L 721.80810546875 328 L 731.80810546875 338 L 731.80810546875 366 L 656 366 L 656 328 L 656 328" stroke-miterlimit="10"/></g><g transform="translate(-14,-54) scale(1,1)"><path fill="none" stroke="#000000" d="M 721.80810546875 328 L 721.80810546875 338 L 731.80810546875 338 L 721.80810546875 328" stroke-miterlimit="10"/></g><g transform="translate(-14,-54) scale(1,1)"><g><path fill="none" stroke="none"/><text fill="#000000" stroke="none" font-family="Arial" font-size="13px" font-style="normal" font-weight="normal" text-decoration="none" x="661" y="343">à</text><text fill="#000000" stroke="none" font-family="Arial" font-size="13px" font-style="normal" font-weight="normal" text-decoration="none" x="661" y="356">configurer</text></g></g><g transform="translate(-14,-54) scale(1,1)"><path fill="none" stroke="#000000" d="M 655 357 L 601 371" stroke-miterlimit="10" stroke-dasharray="3"/></g><g transform="translate(-14,-54) scale(1,1)"><path fill="#ffffff" stroke="none" d="M 56 576 L 121.0908203125 576 L 131.0908203125 586 L 131.0908203125 703 L 56 703 L 56 576"/></g><g transform="translate(-14,-54) scale(1,1)"><path fill="none" stroke="#000000" d="M 56 576 L 121.0908203125 576 L 131.0908203125 586 L 131.0908203125 703 L 56 703 L 56 576 L 56 576" stroke-miterlimit="10"/></g><g transform="translate(-14,-54) scale(1,1)"><path fill="none" stroke="#000000" d="M 121.0908203125 576 L 121.0908203125 586 L 131.0908203125 586 L 121.0908203125 576" stroke-miterlimit="10"/></g><g transform="translate(-14,-54) scale(1,1)"><g><path fill="none" stroke="none"/><text fill="#000000" stroke="none" font-family="Arial" font-size="13px" font-style="normal" font-weight="normal" text-decoration="none" x="61" y="591">pourrait</text><text fill="#000000" stroke="none" font-family="Arial" font-size="13px" font-style="normal" font-weight="normal" text-decoration="none" x="61" y="604">être</text><text fill="#000000" stroke="none" font-family="Arial" font-size="13px" font-style="normal" font-weight="normal" text-decoration="none" x="61" y="617">transposé</text><text fill="#000000" stroke="none" font-family="Arial" font-size="13px" font-style="normal" font-weight="normal" text-decoration="none" x="61" y="627">comme un</text><text fill="#000000" stroke="none" font-family="Arial" font-size="13px" font-style="normal" font-weight="normal" text-decoration="none" x="61" y="643">Web</text><text fill="#000000" stroke="none" font-family="Arial" font-size="13px" font-style="normal" font-weight="normal" text-decoration="none" x="61" y="656">Service</text><text fill="#000000" stroke="none" font-family="Arial" font-size="13px" font-style="normal" font-weight="normal" text-decoration="none" x="61" y="669">REST au</text><text fill="#000000" stroke="none" font-family="Arial" font-size="13px" font-style="normal" font-weight="normal" text-decoration="none" x="61" y="682">sein d'un</text><text fill="#000000" stroke="none" font-family="Arial" font-size="13px" font-style="normal" font-weight="normal" text-decoration="none" x="61" y="695">backend</text></g></g><g transform="translate(-14,-54) scale(1,1)"><path fill="none" stroke="#000000" d="M 127 575 L 153 525" stroke-miterlimit="10" stroke-dasharray="3"/></g></g></svg>