<svg version="1.1" xmlns="http://www.w3.org/2000/svg" xmlns:xlink="http://www.w3.org/1999/xlink" width="836" height="875"><defs/><g><text fill="#eeeeee" stroke="none" font-family="Arial" font-size="24px" font-style="normal" font-weight="normal" text-decoration="none" x="0" y="0">UNREGISTERED</text><text fill="#eeeeee" stroke="none" font-family="Arial" font-size="24px" font-style="normal" font-weight="normal" text-decoration="none" x="0" y="30">UNREGISTERED</text><text fill="#eeeeee" stroke="none" font-family="Arial" font-size="24px" font-style="normal" font-weight="normal" text-decoration="none" x="0" y="60">UNREGISTERED</text><text fill="#eeeeee" stroke="none" font-family="Arial" font-size="24px" font-style="normal" font-weight="normal" text-decoration="none" x="0" y="90">UNREGISTERED</text><text fill="#eeeeee" stroke="none" font-family="Arial" font-size="24px" font-style="normal" font-weight="normal" text-decoration="none" x="0" y="120">UNREGISTERED</text><text fill="#eeeeee" stroke="none" font-family="Arial" font-size="24px" font-style="normal" font-weight="normal" text-decoration="none" x="0" y="150">UNREGISTERED</text><text fill="#eeeeee" stroke="none" font-family="Arial" font-size="24px" font-style="normal" font-weight="normal" text-decoration="none" x="0" y="180">UNREGISTERED</text><text fill="#eeeeee" stroke="none" font-family="Arial" font-size="24px" font-style="normal" font-weight="normal" text-decoration="none" x="0" y="210">UNREGISTERED</text><text fill="#eeeeee" stroke="none" font-family="Arial" font-size="24px" font-style="normal" font-weight="normal" text-decoration="none" x="0" y="240">UNREGISTERED</text><text fill="#eeeeee" stroke="none" font-family="Arial" font-size="24px" font-style="normal" font-weight="normal" text-decoration="none" x="0" y="270">UNREGISTERED</text><text fill="#eeeeee" stroke="none" font-family="Arial" font-size="24px" font-style="normal" font-weight="normal" text-decoration="none" x="0" y="300">UNREGISTERED</text><text fill="#eeeeee" stroke="none" font-family="Arial" font-size="24px" font-style="normal" font-weight="normal" text-decoration="none" x="0" y="330">UNREGISTERED</text><text fill="#eeeeee" stroke="none" font-family="Arial" font-size="24px" font-style="normal" font-weight="normal" text-decoration="none" x="0" y="360">UNREGISTERED</text><text fill="#eeeeee" stroke="none" font-family="Arial" font-size="24px" font-style="normal" font-weight="normal" text-decoration="none" x="0" y="390">UNREGISTERED</text><text fill="#eeeeee" stroke="none" font-family="Arial" font-size="24px" font-style="normal" font-weight="normal" text-decoration="none" x="0" y="420">UNREGISTERED</text><text fill="#eeeeee" stroke="none" font-family="Arial" font-size="24px" font-style="normal" font-weight="normal" text-decoration="none" x="0" y="450">UNREGISTERED</text><text fill="#eeeeee" stroke="none" font-family="Arial" font-size="24px" font-style="normal" font-weight="normal" text-decoration="none" x="0" y="480">UNREGISTERED</text><text fill="#eeeeee" stroke="none" font-family="Arial" font-size="24px" font-style="normal" font-weight="normal" text-decoration="none" x="0" y="510">UNREGISTERED</text><text fill="#eeeeee" stroke="none" font-family="Arial" font-size="24px" font-style="normal" font-weight="normal" text-decoration="none" x="0" y="540">UNREGISTERED</text><text fill="#eeeeee" stroke="none" font-family="Arial" font-size="24px" font-style="normal" font-weight="normal" text-decoration="none" x="0" y="570">UNREGISTERED</text><text fill="#eeeeee" stroke="none" font-family="Arial" font-size="24px" font-style="normal" font-weight="normal" text-decoration="none" x="0" y="600">UNREGISTERED</text><text fill="#eeeeee" stroke="none" font-family="Arial" font-size="24px" font-style="normal" font-weight="normal" text-decoration="none" x="0" y="630">UNREGISTERED</text><text fill="#eeeeee" stroke="none" font-family="Arial" font-size="24px" font-style="normal" font-weight="normal" text-decoration="none" x="0" y="660">UNREGISTERED</text><text fill="#eeeeee" stroke="none" font-family="Arial" font-size="24px" font-style="normal" font-weight="normal" text-decoration="none" x="0" y="690">UNREGISTERED</text><text fill="#eeeeee" stroke="none" font-family="Arial" font-size="24px" font-style="normal" font-weight="normal" text-decoration="none" x="0" y="720">UNREGISTERED</text><text fill="#eeeeee" stroke="none" font-family="Arial" font-size="24px" font-style="normal" font-weight="normal" text-decoration="none" x="0" y="750">UNREGISTERED</text><text fill="#eeeeee" stroke="none" font-family="Arial" font-size="24px" font-style="normal" font-weight="normal" text-decoration="none" x="0" y="780">UNREGISTERED</text><text fill="#eeeeee" stroke="none" font-family="Arial" font-size="24px" font-style="normal" font-weight="normal" text-decoration="none" x="0" y="810">UNREGISTERED</text><text fill="#eeeeee" stroke="none" font-family="Arial" font-size="24px" font-style="normal" font-weight="normal" text-decoration="none" x="0" y="840">UNREGISTERED</text><text fill="#eeeeee" stroke="none" font-family="Arial" font-size="24px" font-style="normal" font-weight="normal" text-decoration="none" x="0" y="870">UNREGISTERED</text><text fill="#eeeeee" stroke="none" font-family="Arial" font-size="24px" font-style="normal" font-weight="normal" text-decoration="none" x="200" y="0">UNREGISTERED</text><text fill="#eeeeee" stroke="none" font-family="Arial" font-size="24px" font-style="normal" font-weight="normal" text-decoration="none" x="200" y="30">UNREGISTERED</text><text fill="#eeeeee" stroke="none" font-family="Arial" font-size="24px" font-style="normal" font-weight="normal" text-decoration="none" x="200" y="60">UNREGISTERED</text><text fill="#eeeeee" stroke="none" font-family="Arial" font-size="24px" font-style="normal" font-weight="normal" text-decoration="none" x="200" y="90">UNREGISTERED</text><text fill="#eeeeee" stroke="none" font-family="Arial" font-size="24px" font-style="normal" font-weight="normal" text-decoration="none" x="200" y="120">UNREGISTERED</text><text fill="#eeeeee" stroke="none" font-family="Arial" font-size="24px" font-style="normal" font-weight="normal" text-decoration="none" x="200" y="150">UNREGISTERED</text><text fill="#eeeeee" stroke="none" font-family="Arial" font-size="24px" font-style="normal" font-weight="normal" text-decoration="none" x="200" y="180">UNREGISTERED</text><text fill="#eeeeee" stroke="none" font-family="Arial" font-size="24px" font-style="normal" font-weight="normal" text-decoration="none" x="200" y="210">UNREGISTERED</text><text fill="#eeeeee" stroke="none" font-family="Arial" font-size="24px" font-style="normal" font-weight="normal" text-decoration="none" x="200" y="240">UNREGISTERED</text><text fill="#eeeeee" stroke="none" font-family="Arial" font-size="24px" font-style="normal" font-weight="normal" text-decoration="none" x="200" y="270">UNREGISTERED</text><text fill="#eeeeee" stroke="none" font-family="Arial" font-size="24px" font-style="normal" font-weight="normal" text-decoration="none" x="200" y="300">UNREGISTERED</text><text fill="#eeeeee" stroke="none" font-family="Arial" font-size="24px" font-style="normal" font-weight="normal" text-decoration="none" x="200" y="330">UNREGISTERED</text><text fill="#eeeeee" stroke="none" font-family="Arial" font-size="24px" font-style="normal" font-weight="normal" text-decoration="none" x="200" y="360">UNREGISTERED</text><text fill="#eeeeee" stroke="none" font-family="Arial" font-size="24px" font-style="normal" font-weight="normal" text-decoration="none" x="200" y="390">UNREGISTERED</text><text fill="#eeeeee" stroke="none" font-family="Arial" font-size="24px" font-style="normal" font-weight="normal" text-decoration="none" x="200" y="420">UNREGISTERED</text><text fill="#eeeeee" stroke="none" font-family="Arial" font-size="24px" font-style="normal" font-weight="normal" text-decoration="none" x="200" y="450">UNREGISTERED</text><text fill="#eeeeee" stroke="none" font-family="Arial" font-size="24px" font-style="normal" font-weight="normal" text-decoration="none" x="200" y="480">UNREGISTERED</text><text fill="#eeeeee" stroke="none" font-family="Arial" font-size="24px" font-style="normal" font-weight="normal" text-decoration="none" x="200" y="510">UNREGISTERED</text><text fill="#eeeeee" stroke="none" font-family="Arial" font-size="24px" font-style="normal" font-weight="normal" text-decoration="none" x="200" y="540">UNREGISTERED</text><text fill="#eeeeee" stroke="none" font-family="Arial" font-size="24px" font-style="normal" font-weight="normal" text-decoration="none" x="200" y="570">UNREGISTERED</text><text fill="#eeeeee" stroke="none" font-family="Arial" font-size="24px" font-style="normal" font-weight="normal" text-decoration="none" x="200" y="600">UNREGISTERED</text><text fill="#eeeeee" stroke="none" font-family="Arial" font-size="24px" font-style="normal" font-weight="normal" text-decoration="none" x="200" y="630">UNREGISTERED</text><text fill="#eeeeee" stroke="none" font-family="Arial" font-size="24px" font-style="normal" font-weight="normal" text-decoration="none" x="200" y="660">UNREGISTERED</text><text fill="#eeeeee" stroke="none" font-family="Arial" font-size="24px" font-style="normal" font-weight="normal" text-decoration="none" x="200" y="690">UNREGISTERED</text><text fill="#eeeeee" stroke="none" font-family="Arial" font-size="24px" font-style="normal" font-weight="normal" text-decoration="none" x="200" y="720">UNREGISTERED</text><text fill="#eeeeee" stroke="none" font-family="Arial" font-size="24px" font-style="normal" font-weight="normal" text-decoration="none" x="200" y="750">UNREGISTERED</text><text fill="#eeeeee" stroke="none" font-family="Arial" font-size="24px" font-style="normal" font-weight="normal" text-decoration="none" x="200" y="780">UNREGISTERED</text><text fill="#eeeeee" stroke="none" font-family="Arial" font-size="24px" font-style="normal" font-weight="normal" text-decoration="none" x="200" y="810">UNREGISTERED</text><text fill="#eeeeee" stroke="none" font-family="Arial" font-size="24px" font-style="normal" font-weight="normal" text-decoration="none" x="200" y="840">UNREGISTERED</text><text fill="#eeeeee" stroke="none" font-family="Arial" font-size="24px" font-style="normal" font-weight="normal" text-decoration="none" x="200" y="870">UNREGISTERED</text><text fill="#eeeeee" stroke="none" font-family="Arial" font-size="24px" font-style="normal" font-weight="normal" text-decoration="none" x="400" y="0">UNREGISTERED</text><text fill="#eeeeee" stroke="none" font-family="Arial" font-size="24px" font-style="normal" font-weight="normal" text-decoration="none" x="400" y="30">UNREGISTERED</text><text fill="#eeeeee" stroke="none" font-family="Arial" font-size="24px" font-style="normal" font-weight="normal" text-decoration="none" x="400" y="60">UNREGISTERED</text><text fill="#eeeeee" stroke="none" font-family="Arial" font-size="24px" font-style="normal" font-weight="normal" text-decoration="none" x="400" y="90">UNREGISTERED</text><text fill="#eeeeee" stroke="none" font-family="Arial" font-size="24px" font-style="normal" font-weight="normal" text-decoration="none" x="400" y="120">UNREGISTERED</text><text fill="#eeeeee" stroke="none" font-family="Arial" font-size="24px" font-style="normal" font-weight="normal" text-decoration="none" x="400" y="150">UNREGISTERED</text><text fill="#eeeeee" stroke="none" font-family="Arial" font-size="24px" font-style="normal" font-weight="normal" text-decoration="none" x="400" y="180">UNREGISTERED</text><text fill="#eeeeee" stroke="none" font-family="Arial" font-size="24px" font-style="normal" font-weight="normal" text-decoration="none" x="400" y="210">UNREGISTERED</text><text fill="#eeeeee" stroke="none" font-family="Arial" font-size="24px" font-style="normal" font-weight="normal" text-decoration="none" x="400" y="240">UNREGISTERED</text><text fill="#eeeeee" stroke="none" font-family="Arial" font-size="24px" font-style="normal" font-weight="normal" text-decoration="none" x="400" y="270">UNREGISTERED</text><text fill="#eeeeee" stroke="none" font-family="Arial" font-size="24px" font-style="normal" font-weight="normal" text-decoration="none" x="400" y="300">UNREGISTERED</text><text fill="#eeeeee" stroke="none" font-family="Arial" font-size="24px" font-style="normal" font-weight="normal" text-decoration="none" x="400" y="330">UNREGISTERED</text><text fill="#eeeeee" stroke="none" font-family="Arial" font-size="24px" font-style="normal" font-weight="normal" text-decoration="none" x="400" y="360">UNREGISTERED</text><text fill="#eeeeee" stroke="none" font-family="Arial" font-size="24px" font-style="normal" font-weight="normal" text-decoration="none" x="400" y="390">UNREGISTERED</text><text fill="#eeeeee" stroke="none" font-family="Arial" font-size="24px" font-style="normal" font-weight="normal" text-decoration="none" x="400" y="420">UNREGISTERED</text><text fill="#eeeeee" stroke="none" font-family="Arial" font-size="24px" font-style="normal" font-weight="normal" text-decoration="none" x="400" y="450">UNREGISTERED</text><text fill="#eeeeee" stroke="none" font-family="Arial" font-size="24px" font-style="normal" font-weight="normal" text-decoration="none" x="400" y="480">UNREGISTERED</text><text fill="#eeeeee" stroke="none" font-family="Arial" font-size="24px" font-style="normal" font-weight="normal" text-decoration="none" x="400" y="510">UNREGISTERED</text><text fill="#eeeeee" stroke="none" font-family="Arial" font-size="24px" font-style="normal" font-weight="normal" text-decoration="none" x="400" y="540">UNREGISTERED</text><text fill="#eeeeee" stroke="none" font-family="Arial" font-size="24px" font-style="normal" font-weight="normal" text-decoration="none" x="400" y="570">UNREGISTERED</text><text fill="#eeeeee" stroke="none" font-family="Arial" font-size="24px" font-style="normal" font-weight="normal" text-decoration="none" x="400" y="600">UNREGISTERED</text><text fill="#eeeeee" stroke="none" font-family="Arial" font-size="24px" font-style="normal" font-weight="normal" text-decoration="none" x="400" y="630">UNREGISTERED</text><text fill="#eeeeee" stroke="none" font-family="Arial" font-size="24px" font-style="normal" font-weight="normal" text-decoration="none" x="400" y="660">UNREGISTERED</text><text fill="#eeeeee" stroke="none" font-family="Arial" font-size="24px" font-style="normal" font-weight="normal" text-decoration="none" x="400" y="690">UNREGISTERED</text><text fill="#eeeeee" stroke="none" font-family="Arial" font-size="24px" font-style="normal" font-weight="normal" text-decoration="none" x="400" y="720">UNREGISTERED</text><text fill="#eeeeee" stroke="none" font-family="Arial" font-size="24px" font-style="normal" font-weight="normal" text-decoration="none" x="400" y="750">UNREGISTERED</text><text fill="#eeeeee" stroke="none" font-family="Arial" font-size="24px" font-style="normal" font-weight="normal" text-decoration="none" x="400" y="780">UNREGISTERED</text><text fill="#eeeeee" stroke="none" font-family="Arial" font-size="24px" font-style="normal" font-weight="normal" text-decoration="none" x="400" y="810">UNREGISTERED</text><text fill="#eeeeee" stroke="none" font-family="Arial" font-size="24px" font-style="normal" font-weight="normal" text-decoration="none" x="400" y="840">UNREGISTERED</text><text fill="#eeeeee" stroke="none" font-family="Arial" font-size="24px" font-style="normal" font-weight="normal" text-decoration="none" x="400" y="870">UNREGISTERED</text><text fill="#eeeeee" stroke="none" font-family="Arial" font-size="24px" font-style="normal" font-weight="normal" text-decoration="none" x="600" y="0">UNREGISTERED</text><text fill="#eeeeee" stroke="none" font-family="Arial" font-size="24px" font-style="normal" font-weight="normal" text-decoration="none" x="600" y="30">UNREGISTERED</text><text fill="#eeeeee" stroke="none" font-family="Arial" font-size="24px" font-style="normal" font-weight="normal" text-decoration="none" x="600" y="60">UNREGISTERED</text><text fill="#eeeeee" stroke="none" font-family="Arial" font-size="24px" font-style="normal" font-weight="normal" text-decoration="none" x="600" y="90">UNREGISTERED</text><text fill="#eeeeee" stroke="none" font-family="Arial" font-size="24px" font-style="normal" font-weight="normal" text-decoration="none" x="600" y="120">UNREGISTERED</text><text fill="#eeeeee" stroke="none" font-family="Arial" font-size="24px" font-style="normal" font-weight="normal" text-decoration="none" x="600" y="150">UNREGISTERED</text><text fill="#eeeeee" stroke="none" font-family="Arial" font-size="24px" font-style="normal" font-weight="normal" text-decoration="none" x="600" y="180">UNREGISTERED</text><text fill="#eeeeee" stroke="none" font-family="Arial" font-size="24px" font-style="normal" font-weight="normal" text-decoration="none" x="600" y="210">UNREGISTERED</text><text fill="#eeeeee" stroke="none" font-family="Arial" font-size="24px" font-style="normal" font-weight="normal" text-decoration="none" x="600" y="240">UNREGISTERED</text><text fill="#eeeeee" stroke="none" font-family="Arial" font-size="24px" font-style="normal" font-weight="normal" text-decoration="none" x="600" y="270">UNREGISTERED</text><text fill="#eeeeee" stroke="none" font-family="Arial" font-size="24px" font-style="normal" font-weight="normal" text-decoration="none" x="600" y="300">UNREGISTERED</text><text fill="#eeeeee" stroke="none" font-family="Arial" font-size="24px" font-style="normal" font-weight="normal" text-decoration="none" x="600" y="330">UNREGISTERED</text><text fill="#eeeeee" stroke="none" font-family="Arial" font-size="24px" font-style="normal" font-weight="normal" text-decoration="none" x="600" y="360">UNREGISTERED</text><text fill="#eeeeee" stroke="none" font-family="Arial" font-size="24px" font-style="normal" font-weight="normal" text-decoration="none" x="600" y="390">UNREGISTERED</text><text fill="#eeeeee" stroke="none" font-family="Arial" font-size="24px" font-style="normal" font-weight="normal" text-decoration="none" x="600" y="420">UNREGISTERED</text><text fill="#eeeeee" stroke="none" font-family="Arial" font-size="24px" font-style="normal" font-weight="normal" text-decoration="none" x="600" y="450">UNREGISTERED</text><text fill="#eeeeee" stroke="none" font-family="Arial" font-size="24px" font-style="normal" font-weight="normal" text-decoration="none" x="600" y="480">UNREGISTERED</text><text fill="#eeeeee" stroke="none" font-family="Arial" font-size="24px" font-style="normal" font-weight="normal" text-decoration="none" x="600" y="510">UNREGISTERED</text><text fill="#eeeeee" stroke="none" font-family="Arial" font-size="24px" font-style="normal" font-weight="normal" text-decoration="none" x="600" y="540">UNREGISTERED</text><text fill="#eeeeee" stroke="none" font-family="Arial" font-size="24px" font-style="normal" font-weight="normal" text-decoration="none" x="600" y="570">UNREGISTERED</text><text fill="#eeeeee" stroke="none" font-family="Arial" font-size="24px" font-style="normal" font-weight="normal" text-decoration="none" x="600" y="600">UNREGISTERED</text><text fill="#eeeeee" stroke="none" font-family="Arial" font-size="24px" font-style="normal" font-weight="normal" text-decoration="none" x="600" y="630">UNREGISTERED</text><text fill="#eeeeee" stroke="none" font-family="Arial" font-size="24px" font-style="normal" font-weight="normal" text-decoration="none" x="600" y="660">UNREGISTERED</text><text fill="#eeeeee" stroke="none" font-family="Arial" font-size="24px" font-style="normal" font-weight="normal" text-decoration="none" x="600" y="690">UNREGISTERED</text><text fill="#eeeeee" stroke="none" font-family="Arial" font-size="24px" font-style="normal" font-weight="normal" text-decoration="none" x="600" y="720">UNREGISTERED</text><text fill="#eeeeee" stroke="none" font-family="Arial" font-size="24px" font-style="normal" font-weight="normal" text-decoration="none" x="600" y="750">UNREGISTERED</text><text fill="#eeeeee" stroke="none" font-family="Arial" font-size="24px" font-style="normal" font-weight="normal" text-decoration="none" x="600" y="780">UNREGISTERED</text><text fill="#eeeeee" stroke="none" font-family="Arial" font-size="24px" font-style="normal" font-weight="normal" text-decoration="none" x="600" y="810">UNREGISTERED</text><text fill="#eeeeee" stroke="none" font-family="Arial" font-size="24px" font-style="normal" font-weight="normal" text-decoration="none" x="600" y="840">UNREGISTERED</text><text fill="#eeeeee" stroke="none" font-family="Arial" font-size="24px" font-style="normal" font-weight="normal" text-decoration="none" x="600" y="870">UNREGISTERED</text><text fill="#eeeeee" stroke="none" font-family="Arial" font-size="24px" font-style="normal" font-weight="normal" text-decoration="none" x="800" y="0">UNREGISTERED</text><text fill="#eeeeee" stroke="none" font-family="Arial" font-size="24px" font-style="normal" font-weight="normal" text-decoration="none" x="800" y="30">UNREGISTERED</text><text fill="#eeeeee" stroke="none" font-family="Arial" font-size="24px" font-style="normal" font-weight="normal" text-decoration="none" x="800" y="60">UNREGISTERED</text><text fill="#eeeeee" stroke="none" font-family="Arial" font-size="24px" font-style="normal" font-weight="normal" text-decoration="none" x="800" y="90">UNREGISTERED</text><text fill="#eeeeee" stroke="none" font-family="Arial" font-size="24px" font-style="normal" font-weight="normal" text-decoration="none" x="800" y="120">UNREGISTERED</text><text fill="#eeeeee" stroke="none" font-family="Arial" font-size="24px" font-style="normal" font-weight="normal" text-decoration="none" x="800" y="150">UNREGISTERED</text><text fill="#eeeeee" stroke="none" font-family="Arial" font-size="24px" font-style="normal" font-weight="normal" text-decoration="none" x="800" y="180">UNREGISTERED</text><text fill="#eeeeee" stroke="none" font-family="Arial" font-size="24px" font-style="normal" font-weight="normal" text-decoration="none" x="800" y="210">UNREGISTERED</text><text fill="#eeeeee" stroke="none" font-family="Arial" font-size="24px" font-style="normal" font-weight="normal" text-decoration="none" x="800" y="240">UNREGISTERED</text><text fill="#eeeeee" stroke="none" font-family="Arial" font-size="24px" font-style="normal" font-weight="normal" text-decoration="none" x="800" y="270">UNREGISTERED</text><text fill="#eeeeee" stroke="none" font-family="Arial" font-size="24px" font-style="normal" font-weight="normal" text-decoration="none" x="800" y="300">UNREGISTERED</text><text fill="#eeeeee" stroke="none" font-family="Arial" font-size="24px" font-style="normal" font-weight="normal" text-decoration="none" x="800" y="330">UNREGISTERED</text><text fill="#eeeeee" stroke="none" font-family="Arial" font-size="24px" font-style="normal" font-weight="normal" text-decoration="none" x="800" y="360">UNREGISTERED</text><text fill="#eeeeee" stroke="none" font-family="Arial" font-size="24px" font-style="normal" font-weight="normal" text-decoration="none" x="800" y="390">UNREGISTERED</text><text fill="#eeeeee" stroke="none" font-family="Arial" font-size="24px" font-style="normal" font-weight="normal" text-decoration="none" x="800" y="420">UNREGISTERED</text><text fill="#eeeeee" stroke="none" font-family="Arial" font-size="24px" font-style="normal" font-weight="normal" text-decoration="none" x="800" y="450">UNREGISTERED</text><text fill="#eeeeee" stroke="none" font-family="Arial" font-size="24px" font-style="normal" font-weight="normal" text-decoration="none" x="800" y="480">UNREGISTERED</text><text fill="#eeeeee" stroke="none" font-family="Arial" font-size="24px" font-style="normal" font-weight="normal" text-decoration="none" x="800" y="510">UNREGISTERED</text><text fill="#eeeeee" stroke="none" font-family="Arial" font-size="24px" font-style="normal" font-weight="normal" text-decoration="none" x="800" y="540">UNREGISTERED</text><text fill="#eeeeee" stroke="none" font-family="Arial" font-size="24px" font-style="normal" font-weight="normal" text-decoration="none" x="800" y="570">UNREGISTERED</text><text fill="#eeeeee" stroke="none" font-family="Arial" font-size="24px" font-style="normal" font-weight="normal" text-decoration="none" x="800" y="600">UNREGISTERED</text><text fill="#eeeeee" stroke="none" font-family="Arial" font-size="24px" font-style="normal" font-weight="normal" text-decoration="none" x="800" y="630">UNREGISTERED</text><text fill="#eeeeee" stroke="none" font-family="Arial" font-size="24px" font-style="normal" font-weight="normal" text-decoration="none" x="800" y="660">UNREGISTERED</text><text fill="#eeeeee" stroke="none" font-family="Arial" font-size="24px" font-style="normal" font-weight="normal" text-decoration="none" x="800" y="690">UNREGISTERED</text><text fill="#eeeeee" stroke="none" font-family="Arial" font-size="24px" font-style="normal" font-weight="normal" text-decoration="none" x="800" y="720">UNREGISTERED</text><text fill="#eeeeee" stroke="none" font-family="Arial" font-size="24px" font-style="normal" font-weight="normal" text-decoration="none" x="800" y="750">UNREGISTERED</text><text fill="#eeeeee" stroke="none" font-family="Arial" font-size="24px" font-style="normal" font-weight="normal" text-decoration="none" x="800" y="780">UNREGISTERED</text><text fill="#eeeeee" stroke="none" font-family="Arial" font-size="24px" font-style="normal" font-weight="normal" text-decoration="none" x="800" y="810">UNREGISTERED</text><text fill="#eeeeee" stroke="none" font-family="Arial" font-size="24px" font-style="normal" font-weight="normal" text-decoration="none" x="800" y="840">UNREGISTERED</text><text fill="#eeeeee" stroke="none" font-family="Arial" font-size="24px" font-style="normal" font-weight="normal" text-decoration="none" x="800" y="870">UNREGISTERED</text><g transform="translate(-118,-14) scale(1,1)"><rect fill="#C0C0C0" stroke="none" x="735" y="503" width="86.39999999999998" height="15" opacity="0.2"/></g><g transform="translate(-118,-14) scale(1,1)"><rect fill="#C0C0C0" stroke="none" x="735" y="517" width="216" height="354" opacity="0.2"/></g><g transform="translate(-118,-14) scale(1,1)"><rect fill="#ffffff" stroke="none" x="728" y="511" width="216" height="353"/></g><g transform="translate(-118,-14) scale(1,1)"><path fill="none" stroke="#000000" d="M 728 511 L 944 511 L 944 864 L 728 864 L 728 511 Z Z" stroke-miterlimit="10"/></g><g transform="translate(-118,-14) scale(1,1)"><rect fill="#ffffff" stroke="none" x="728" y="496" width="86.39999999999998" height="15"/></g><g transform="translate(-118,-14) scale(1,1)"><path fill="none" stroke="#000000" d="M 728 496 L 814.4 496 L 814.4 511 L 728 511 L 728 496 Z Z" stroke-miterlimit="10"/></g><g transform="translate(-118,-14) scale(1,1)"><rect fill="#ffffff" stroke="none" x="728" y="510" width="216" height="354"/></g><g transform="translate(-118,-14) scale(1,1)"><path fill="none" stroke="#000000" d="M 728 510 L 944 510 L 944 864 L 728 864 L 728 510 Z Z" stroke-miterlimit="10"/></g><g transform="translate(-118,-14) scale(1,1)"><g><path fill="none" stroke="none"/><text fill="#000000" stroke="none" font-family="Arial" font-size="13px" font-style="normal" font-weight="bold" text-decoration="none" x="768.06103515625" y="530.5">app_Y_internal_entities</text></g></g><g transform="translate(-118,-14) scale(1,1)"><rect fill="#C0C0C0" stroke="none" x="167" y="495" width="204.8" height="15" opacity="0.2"/></g><g transform="translate(-118,-14) scale(1,1)"><rect fill="#C0C0C0" stroke="none" x="167" y="509" width="512" height="377" opacity="0.2"/></g><g transform="translate(-118,-14) scale(1,1)"><rect fill="#ffffff" stroke="none" x="160" y="503" width="512" height="376"/></g><g transform="translate(-118,-14) scale(1,1)"><path fill="none" stroke="#000000" d="M 160 503 L 672 503 L 672 879 L 160 879 L 160 503 Z Z" stroke-miterlimit="10"/></g><g transform="translate(-118,-14) scale(1,1)"><rect fill="#ffffff" stroke="none" x="160" y="488" width="204.8" height="15"/></g><g transform="translate(-118,-14) scale(1,1)"><path fill="none" stroke="#000000" d="M 160 488 L 364.8 488 L 364.8 503 L 160 503 L 160 488 Z Z" stroke-miterlimit="10"/></g><g transform="translate(-118,-14) scale(1,1)"><rect fill="#ffffff" stroke="none" x="160" y="502" width="512" height="377"/></g><g transform="translate(-118,-14) scale(1,1)"><path fill="none" stroke="#000000" d="M 160 502 L 672 502 L 672 879 L 160 879 L 160 502 Z Z" stroke-miterlimit="10"/></g><g transform="translate(-118,-14) scale(1,1)"><g><path fill="none" stroke="none"/><text fill="#000000" stroke="none" font-family="Arial" font-size="13px" font-style="normal" font-weight="bold" text-decoration="none" x="344.8046875" y="522.5">app_Y_exposed_entities</text></g></g><g transform="translate(-118,-14) scale(1,1)"><rect fill="#C0C0C0" stroke="none" x="135" y="31" width="313.6" height="15" opacity="0.2"/></g><g transform="translate(-118,-14) scale(1,1)"><rect fill="#C0C0C0" stroke="none" x="135" y="45" width="784" height="409" opacity="0.2"/></g><g transform="translate(-118,-14) scale(1,1)"><rect fill="#ffffff" stroke="none" x="128" y="39" width="784" height="408"/></g><g transform="translate(-118,-14) scale(1,1)"><path fill="none" stroke="#000000" d="M 128 39 L 912 39 L 912 447 L 128 447 L 128 39 Z Z" stroke-miterlimit="10"/></g><g transform="translate(-118,-14) scale(1,1)"><rect fill="#ffffff" stroke="none" x="128" y="24" width="313.6" height="15"/></g><g transform="translate(-118,-14) scale(1,1)"><path fill="none" stroke="#000000" d="M 128 24 L 441.6 24 L 441.6 39 L 128 39 L 128 24 Z Z" stroke-miterlimit="10"/></g><g transform="translate(-118,-14) scale(1,1)"><rect fill="#ffffff" stroke="none" x="128" y="38" width="784" height="409"/></g><g transform="translate(-118,-14) scale(1,1)"><path fill="none" stroke="#000000" d="M 128 38 L 912 38 L 912 447 L 128 447 L 128 38 Z Z" stroke-miterlimit="10"/></g><g transform="translate(-118,-14) scale(1,1)"><g><path fill="none" stroke="none"/><text fill="#000000" stroke="none" font-family="Arial" font-size="13px" font-style="normal" font-weight="bold" text-decoration="none" x="480.974609375" y="58.5">app_Y_ws_itf</text></g></g><g transform="translate(-118,-14) scale(1,1)"><rect fill="#C0C0C0" stroke="none" x="215" y="87" width="294.76513671875" height="88" opacity="0.2"/></g><g transform="translate(-118,-14) scale(1,1)"><rect fill="#a3ffa3" stroke="none" x="208" y="80" width="294.76513671875" height="88"/></g><g transform="translate(-118,-14) scale(1,1)"><path fill="none" stroke="#000000" d="M 208 80 L 502.76513671875 80 L 502.76513671875 168 L 208 168 L 208 80 Z Z" stroke-miterlimit="10"/></g><g transform="translate(-118,-14) scale(1,1)"><path fill="none" stroke="#000000" d="M 208 118 L 502.76513671875 118" stroke-miterlimit="10"/></g><g transform="translate(-118,-14) scale(1,1)"><path fill="none" stroke="#000000" d="M 208 128 L 502.76513671875 128" stroke-miterlimit="10"/></g><g transform="translate(-118,-14) scale(1,1)"><g><path fill="none" stroke="none"/><text fill="#000000" stroke="none" font-family="Arial" font-size="13px" font-style="normal" font-weight="normal" text-decoration="none" x="323.22216796875" y="97.5">«interface»</text></g></g><g transform="translate(-118,-14) scale(1,1)"><g><path fill="none" stroke="none"/><text fill="#000000" stroke="none" font-family="Arial" font-size="13px" font-style="normal" font-weight="bold" text-decoration="none" x="310.59033203125" y="112.5">ServiceDevises</text></g></g><g transform="translate(-118,-14) scale(1,1)"><g><path fill="none" stroke="none"/><text fill="#000000" stroke="none" font-family="Arial" font-size="13px" font-style="normal" font-weight="normal" text-decoration="none" x="213" y="145.5">+getDeviseByCode(): DeviseEntity_or_DeviseDto</text></g></g><g transform="translate(-118,-14) scale(1,1)"><g><path fill="none" stroke="none"/><text fill="#000000" stroke="none" font-family="Arial" font-size="13px" font-style="normal" font-weight="normal" text-decoration="none" x="213" y="160.5">+convertir(montant, deviseSource, deviseCible)</text></g></g><g transform="translate(-118,-14) scale(1,1)"><path fill="none" stroke="#000000" d="M 392 596 L 543 603" stroke-miterlimit="10"/></g><g transform="translate(-118,-14) scale(1,1)"><path fill="none" stroke="#000000" d="M 402.346706347825 592.2656101232091 L 392 596 L 401.9568386269662 600.6756138160197" stroke-miterlimit="10"/></g><g transform="translate(-118,-14) scale(1,1)"><g><path fill="none" stroke="none"/><text fill="#000000" stroke="none" font-family="Arial" font-size="13px" font-style="normal" font-weight="normal" text-decoration="none" x="517.5" y="620.5">*</text></g></g><g transform="translate(-118,-14) scale(1,1)"><rect fill="#C0C0C0" stroke="none" x="191" y="255" width="276.71240234375" height="85" opacity="0.2"/></g><g transform="translate(-118,-14) scale(1,1)"><rect fill="#a3ffa3" stroke="none" x="184" y="248" width="276.71240234375" height="85"/></g><g transform="translate(-118,-14) scale(1,1)"><path fill="none" stroke="#000000" d="M 184 248 L 460.71240234375 248 L 460.71240234375 333 L 184 333 L 184 248 Z Z" stroke-miterlimit="10"/></g><g transform="translate(-118,-14) scale(1,1)"><path fill="none" stroke="#000000" d="M 184 286 L 460.71240234375 286" stroke-miterlimit="10"/></g><g transform="translate(-118,-14) scale(1,1)"><path fill="none" stroke="#000000" d="M 184 296 L 460.71240234375 296" stroke-miterlimit="10"/></g><g transform="translate(-118,-14) scale(1,1)"><g><path fill="none" stroke="none"/><text fill="#000000" stroke="none" font-family="Arial" font-size="13px" font-style="normal" font-weight="normal" text-decoration="none" x="290.19580078125" y="265.5">«interface»</text></g></g><g transform="translate(-118,-14) scale(1,1)"><g><path fill="none" stroke="none"/><text fill="#000000" stroke="none" font-family="Arial" font-size="13px" font-style="normal" font-weight="bold" text-decoration="none" x="274.672607421875" y="280.5">ServiceComptes</text></g></g><g transform="translate(-118,-14) scale(1,1)"><g><path fill="none" stroke="none"/><text fill="#000000" stroke="none" font-family="Arial" font-size="13px" font-style="normal" font-weight="normal" text-decoration="none" x="189" y="313.5">+postVirement(ordreVirement): StatutVirement</text></g></g><g transform="translate(-118,-14) scale(1,1)"><g><path fill="none" stroke="none"/><text fill="#000000" stroke="none" font-family="Arial" font-size="13px" font-style="normal" font-weight="normal" text-decoration="none" x="189" y="328.5">+getCompteByNum(numCpt): Compte</text></g></g><g transform="translate(-118,-14) scale(1,1)"><rect fill="#C0C0C0" stroke="none" x="551" y="303" width="137.2607421875" height="100" opacity="0.2"/></g><g transform="translate(-118,-14) scale(1,1)"><rect fill="#a3ffa3" stroke="none" x="544" y="296" width="137.2607421875" height="100"/></g><g transform="translate(-118,-14) scale(1,1)"><path fill="none" stroke="#000000" d="M 544 296 L 681.2607421875 296 L 681.2607421875 396 L 544 396 L 544 296 Z Z" stroke-miterlimit="10"/></g><g transform="translate(-118,-14) scale(1,1)"><path fill="none" stroke="#000000" d="M 544 334 L 681.2607421875 334" stroke-miterlimit="10"/></g><g transform="translate(-118,-14) scale(1,1)"><path fill="none" stroke="#000000" d="M 544 387 L 681.2607421875 387" stroke-miterlimit="10"/></g><g transform="translate(-118,-14) scale(1,1)"><g><path fill="none" stroke="none"/><text fill="#000000" stroke="none" font-family="Arial" font-size="13px" font-style="normal" font-weight="normal" text-decoration="none" x="596.364501953125" y="313.5">«dto»</text></g></g><g transform="translate(-118,-14) scale(1,1)"><g><path fill="none" stroke="none"/><text fill="#000000" stroke="none" font-family="Arial" font-size="13px" font-style="normal" font-weight="bold" text-decoration="none" x="570.123291015625" y="328.5">OrdreVirement</text></g></g><g transform="translate(-118,-14) scale(1,1)"><g><path fill="none" stroke="none"/><text fill="#000000" stroke="none" font-family="Arial" font-size="13px" font-style="normal" font-weight="normal" text-decoration="none" x="549" y="351.5">+montant: double</text></g></g><g transform="translate(-118,-14) scale(1,1)"><g><path fill="none" stroke="none"/><text fill="#000000" stroke="none" font-family="Arial" font-size="13px" font-style="normal" font-weight="normal" text-decoration="none" x="549" y="366.5">+numCptDeb: integer</text></g></g><g transform="translate(-118,-14) scale(1,1)"><g><path fill="none" stroke="none"/><text fill="#000000" stroke="none" font-family="Arial" font-size="13px" font-style="normal" font-weight="normal" text-decoration="none" x="549" y="381.5">+numCptCred: integer</text></g></g><g transform="translate(-118,-14) scale(1,1)"><path fill="none" stroke="#000000" d="M 767 733 L 361 745" stroke-miterlimit="10"/></g><g transform="translate(-118,-14) scale(1,1)"><path fill="none" stroke="#000000" d="M 371.0338737965108 740.4920762389218 L 361 745 L 371.2826036636132 748.9074367425524" stroke-miterlimit="10"/></g><g transform="translate(-118,-14) scale(1,1)"><g><path fill="none" stroke="none"/><text fill="#000000" stroke="none" font-family="Arial" font-size="13px" font-style="normal" font-weight="normal" text-decoration="none" x="379.5" y="737.5">*</text></g></g><g transform="translate(-118,-14) scale(1,1)"><rect fill="#C0C0C0" stroke="none" x="295" y="703" width="72.2353515625" height="100" opacity="0.2"/></g><g transform="translate(-118,-14) scale(1,1)"><rect fill="#ff5656" stroke="none" x="288" y="696" width="72.2353515625" height="100"/></g><g transform="translate(-118,-14) scale(1,1)"><path fill="none" stroke="#000000" d="M 288 696 L 360.2353515625 696 L 360.2353515625 796 L 288 796 L 288 696 Z Z" stroke-miterlimit="10"/></g><g transform="translate(-118,-14) scale(1,1)"><path fill="none" stroke="#000000" d="M 288 734 L 360.2353515625 734" stroke-miterlimit="10"/></g><g transform="translate(-118,-14) scale(1,1)"><path fill="none" stroke="#000000" d="M 288 787 L 360.2353515625 787" stroke-miterlimit="10"/></g><g transform="translate(-118,-14) scale(1,1)"><g><path fill="none" stroke="none"/><text fill="#000000" stroke="none" font-family="Arial" font-size="13px" font-style="normal" font-weight="normal" text-decoration="none" x="301.351806640625" y="713.5">«entity»</text></g></g><g transform="translate(-118,-14) scale(1,1)"><g><path fill="none" stroke="none"/><text fill="#000000" stroke="none" font-family="Arial" font-size="13px" font-style="normal" font-weight="bold" text-decoration="none" x="301.358154296875" y="728.5">Compte</text></g></g><g transform="translate(-118,-14) scale(1,1)"><g><path fill="none" stroke="none"/><text fill="#000000" stroke="none" font-family="Arial" font-size="13px" font-style="normal" font-weight="normal" text-decoration="none" x="293" y="751.5">+numero</text></g></g><g transform="translate(-118,-14) scale(1,1)"><g><path fill="none" stroke="none"/><text fill="#000000" stroke="none" font-family="Arial" font-size="13px" font-style="normal" font-weight="normal" text-decoration="none" x="293" y="766.5">+label</text></g></g><g transform="translate(-118,-14) scale(1,1)"><g><path fill="none" stroke="none"/><text fill="#000000" stroke="none" font-family="Arial" font-size="13px" font-style="normal" font-weight="normal" text-decoration="none" x="293" y="781.5">+solde</text></g></g><g transform="translate(-118,-14) scale(1,1)"><path fill="none" stroke="#000000" d="M 471 448 L 462 487" stroke-miterlimit="10" stroke-dasharray="3"/></g><g transform="translate(-118,-14) scale(1,1)"><path fill="none" stroke="#000000" d="M 460.1834570156431 476.15102900796654 L 462 487 L 468.38689109480737 478.04412918008137" stroke-miterlimit="10"/></g><g transform="translate(-118,-14) scale(1,1)"><rect fill="#C0C0C0" stroke="none" x="311" y="551" width="86.70166015625" height="100" opacity="0.2"/></g><g transform="translate(-118,-14) scale(1,1)"><rect fill="#ffc082" stroke="none" x="304" y="544" width="86.70166015625" height="100"/></g><g transform="translate(-118,-14) scale(1,1)"><path fill="none" stroke="#000000" d="M 304 544 L 390.70166015625 544 L 390.70166015625 644 L 304 644 L 304 544 Z Z" stroke-miterlimit="10"/></g><g transform="translate(-118,-14) scale(1,1)"><path fill="none" stroke="#000000" d="M 304 582 L 390.70166015625 582" stroke-miterlimit="10"/></g><g transform="translate(-118,-14) scale(1,1)"><path fill="none" stroke="#000000" d="M 304 635 L 390.70166015625 635" stroke-miterlimit="10"/></g><g transform="translate(-118,-14) scale(1,1)"><g><path fill="none" stroke="none"/><text fill="#000000" stroke="none" font-family="Arial" font-size="13px" font-style="normal" font-weight="normal" text-decoration="none" x="324.5849609375" y="561.5">«entity»</text></g></g><g transform="translate(-118,-14) scale(1,1)"><g><path fill="none" stroke="none"/><text fill="#000000" stroke="none" font-family="Arial" font-size="13px" font-style="normal" font-weight="bold" text-decoration="none" x="327.482666015625" y="576.5">Devise</text></g></g><g transform="translate(-118,-14) scale(1,1)"><g><path fill="none" stroke="none"/><text fill="#000000" stroke="none" font-family="Arial" font-size="13px" font-style="normal" font-weight="normal" text-decoration="none" x="309" y="599.5">+code</text></g></g><g transform="translate(-118,-14) scale(1,1)"><g><path fill="none" stroke="none"/><text fill="#000000" stroke="none" font-family="Arial" font-size="13px" font-style="normal" font-weight="normal" text-decoration="none" x="309" y="614.5">+name</text></g></g><g transform="translate(-118,-14) scale(1,1)"><g><path fill="none" stroke="none"/><text fill="#000000" stroke="none" font-family="Arial" font-size="13px" font-style="normal" font-weight="normal" text-decoration="none" x="309" y="629.5">+tauxChange</text></g></g><g transform="translate(-118,-14) scale(1,1)"><rect fill="#C0C0C0" stroke="none" x="775" y="711" width="54.53173828125" height="57" opacity="0.2"/></g><g transform="translate(-118,-14) scale(1,1)"><rect fill="#ff5656" stroke="none" x="768" y="704" width="54.53173828125" height="57"/></g><g transform="translate(-118,-14) scale(1,1)"><path fill="none" stroke="#000000" d="M 768 704 L 822.53173828125 704 L 822.53173828125 761 L 768 761 L 768 704 Z Z" stroke-miterlimit="10"/></g><g transform="translate(-118,-14) scale(1,1)"><path fill="none" stroke="#000000" d="M 768 742 L 822.53173828125 742" stroke-miterlimit="10"/></g><g transform="translate(-118,-14) scale(1,1)"><path fill="none" stroke="#000000" d="M 768 752 L 822.53173828125 752" stroke-miterlimit="10"/></g><g transform="translate(-118,-14) scale(1,1)"><g><path fill="none" stroke="none"/><text fill="#000000" stroke="none" font-family="Arial" font-size="13px" font-style="normal" font-weight="normal" text-decoration="none" x="772.5" y="721.5">«entity»</text></g></g><g transform="translate(-118,-14) scale(1,1)"><g><path fill="none" stroke="none"/><text fill="#000000" stroke="none" font-family="Arial" font-size="13px" font-style="normal" font-weight="bold" text-decoration="none" x="778.647705078125" y="736.5">Client</text></g></g><g transform="translate(-118,-14) scale(1,1)"><rect fill="#C0C0C0" stroke="none" x="551" y="583" width="54.53173828125" height="57" opacity="0.2"/></g><g transform="translate(-118,-14) scale(1,1)"><rect fill="#ffc082" stroke="none" x="544" y="576" width="54.53173828125" height="57"/></g><g transform="translate(-118,-14) scale(1,1)"><path fill="none" stroke="#000000" d="M 544 576 L 598.53173828125 576 L 598.53173828125 633 L 544 633 L 544 576 Z Z" stroke-miterlimit="10"/></g><g transform="translate(-118,-14) scale(1,1)"><path fill="none" stroke="#000000" d="M 544 614 L 598.53173828125 614" stroke-miterlimit="10"/></g><g transform="translate(-118,-14) scale(1,1)"><path fill="none" stroke="#000000" d="M 544 624 L 598.53173828125 624" stroke-miterlimit="10"/></g><g transform="translate(-118,-14) scale(1,1)"><g><path fill="none" stroke="none"/><text fill="#000000" stroke="none" font-family="Arial" font-size="13px" font-style="normal" font-weight="normal" text-decoration="none" x="548.5" y="593.5">«entity»</text></g></g><g transform="translate(-118,-14) scale(1,1)"><g><path fill="none" stroke="none"/><text fill="#000000" stroke="none" font-family="Arial" font-size="13px" font-style="normal" font-weight="bold" text-decoration="none" x="556.8154296875" y="608.5">Pays</text></g></g><g transform="translate(-118,-14) scale(1,1)"><rect fill="#C0C0C0" stroke="none" x="607" y="95" width="130.77978515625" height="100" opacity="0.2"/></g><g transform="translate(-118,-14) scale(1,1)"><rect fill="#ffffff" stroke="none" x="600" y="88" width="130.77978515625" height="100"/></g><g transform="translate(-118,-14) scale(1,1)"><path fill="none" stroke="#000000" d="M 600 88 L 730.77978515625 88 L 730.77978515625 188 L 600 188 L 600 88 Z Z" stroke-miterlimit="10"/></g><g transform="translate(-118,-14) scale(1,1)"><path fill="none" stroke="#000000" d="M 600 126 L 730.77978515625 126" stroke-miterlimit="10"/></g><g transform="translate(-118,-14) scale(1,1)"><path fill="none" stroke="#000000" d="M 600 179 L 730.77978515625 179" stroke-miterlimit="10"/></g><g transform="translate(-118,-14) scale(1,1)"><g><path fill="none" stroke="none"/><text fill="#000000" stroke="none" font-family="Arial" font-size="13px" font-style="normal" font-weight="normal" text-decoration="none" x="649.1240234375" y="105.5">«dto»</text></g></g><g transform="translate(-118,-14) scale(1,1)"><g><path fill="none" stroke="none"/><text fill="#000000" stroke="none" font-family="Arial" font-size="13px" font-style="normal" font-weight="bold" text-decoration="none" x="635.40673828125" y="120.5">DeviseDto</text></g></g><g transform="translate(-118,-14) scale(1,1)"><g><path fill="none" stroke="none"/><text fill="#000000" stroke="none" font-family="Arial" font-size="13px" font-style="normal" font-weight="normal" text-decoration="none" x="605" y="143.5">+codeDevise</text></g></g><g transform="translate(-118,-14) scale(1,1)"><g><path fill="none" stroke="none"/><text fill="#000000" stroke="none" font-family="Arial" font-size="13px" font-style="normal" font-weight="normal" text-decoration="none" x="605" y="158.5">+nomDevise</text></g></g><g transform="translate(-118,-14) scale(1,1)"><g><path fill="none" stroke="none"/><text fill="#000000" stroke="none" font-family="Arial" font-size="13px" font-style="normal" font-weight="normal" text-decoration="none" x="605" y="173.5">+changePourUnEuro</text></g></g><g transform="translate(-118,-14) scale(1,1)"><rect fill="#C0C0C0" stroke="none" x="727" y="295" width="101.22509765625" height="70" opacity="0.2"/></g><g transform="translate(-118,-14) scale(1,1)"><rect fill="#a3ffa3" stroke="none" x="720" y="288" width="101.22509765625" height="70"/></g><g transform="translate(-118,-14) scale(1,1)"><path fill="none" stroke="#000000" d="M 720 288 L 821.22509765625 288 L 821.22509765625 358 L 720 358 L 720 288 Z Z" stroke-miterlimit="10"/></g><g transform="translate(-118,-14) scale(1,1)"><path fill="none" stroke="#000000" d="M 720 326 L 821.22509765625 326" stroke-miterlimit="10"/></g><g transform="translate(-118,-14) scale(1,1)"><path fill="none" stroke="#000000" d="M 720 349 L 821.22509765625 349" stroke-miterlimit="10"/></g><g transform="translate(-118,-14) scale(1,1)"><g><path fill="none" stroke="none"/><text fill="#000000" stroke="none" font-family="Arial" font-size="13px" font-style="normal" font-weight="normal" text-decoration="none" x="754.3466796875" y="305.5">«dto»</text></g></g><g transform="translate(-118,-14) scale(1,1)"><g><path fill="none" stroke="none"/><text fill="#000000" stroke="none" font-family="Arial" font-size="13px" font-style="normal" font-weight="bold" text-decoration="none" x="727.7373046875" y="320.5">StatutVirement</text></g></g><g transform="translate(-118,-14) scale(1,1)"><g><path fill="none" stroke="none"/><text fill="#000000" stroke="none" font-family="Arial" font-size="13px" font-style="normal" font-weight="normal" text-decoration="none" x="725" y="343.5">+ok: boolean</text></g></g><g transform="translate(-118,-14) scale(1,1)"><path fill="none" stroke="#000000" d="M 727 681 L 673 681" stroke-miterlimit="10" stroke-dasharray="3"/></g><g transform="translate(-118,-14) scale(1,1)"><path fill="none" stroke="#000000" d="M 683.1626748576241 676.790482243984 L 673 681 L 683.1626748576241 685.209517756016" stroke-miterlimit="10"/></g></g></svg>