<svg version="1.1" xmlns="http://www.w3.org/2000/svg" xmlns:xlink="http://www.w3.org/1999/xlink" width="417" height="396"><defs/><g><text fill="#eeeeee" stroke="none" font-family="Arial" font-size="24px" font-style="normal" font-weight="normal" text-decoration="none" x="0" y="0">UNREGISTERED</text><text fill="#eeeeee" stroke="none" font-family="Arial" font-size="24px" font-style="normal" font-weight="normal" text-decoration="none" x="0" y="30">UNREGISTERED</text><text fill="#eeeeee" stroke="none" font-family="Arial" font-size="24px" font-style="normal" font-weight="normal" text-decoration="none" x="0" y="60">UNREGISTERED</text><text fill="#eeeeee" stroke="none" font-family="Arial" font-size="24px" font-style="normal" font-weight="normal" text-decoration="none" x="0" y="90">UNREGISTERED</text><text fill="#eeeeee" stroke="none" font-family="Arial" font-size="24px" font-style="normal" font-weight="normal" text-decoration="none" x="0" y="120">UNREGISTERED</text><text fill="#eeeeee" stroke="none" font-family="Arial" font-size="24px" font-style="normal" font-weight="normal" text-decoration="none" x="0" y="150">UNREGISTERED</text><text fill="#eeeeee" stroke="none" font-family="Arial" font-size="24px" font-style="normal" font-weight="normal" text-decoration="none" x="0" y="180">UNREGISTERED</text><text fill="#eeeeee" stroke="none" font-family="Arial" font-size="24px" font-style="normal" font-weight="normal" text-decoration="none" x="0" y="210">UNREGISTERED</text><text fill="#eeeeee" stroke="none" font-family="Arial" font-size="24px" font-style="normal" font-weight="normal" text-decoration="none" x="0" y="240">UNREGISTERED</text><text fill="#eeeeee" stroke="none" font-family="Arial" font-size="24px" font-style="normal" font-weight="normal" text-decoration="none" x="0" y="270">UNREGISTERED</text><text fill="#eeeeee" stroke="none" font-family="Arial" font-size="24px" font-style="normal" font-weight="normal" text-decoration="none" x="0" y="300">UNREGISTERED</text><text fill="#eeeeee" stroke="none" font-family="Arial" font-size="24px" font-style="normal" font-weight="normal" text-decoration="none" x="0" y="330">UNREGISTERED</text><text fill="#eeeeee" stroke="none" font-family="Arial" font-size="24px" font-style="normal" font-weight="normal" text-decoration="none" x="0" y="360">UNREGISTERED</text><text fill="#eeeeee" stroke="none" font-family="Arial" font-size="24px" font-style="normal" font-weight="normal" text-decoration="none" x="0" y="390">UNREGISTERED</text><text fill="#eeeeee" stroke="none" font-family="Arial" font-size="24px" font-style="normal" font-weight="normal" text-decoration="none" x="200" y="0">UNREGISTERED</text><text fill="#eeeeee" stroke="none" font-family="Arial" font-size="24px" font-style="normal" font-weight="normal" text-decoration="none" x="200" y="30">UNREGISTERED</text><text fill="#eeeeee" stroke="none" font-family="Arial" font-size="24px" font-style="normal" font-weight="normal" text-decoration="none" x="200" y="60">UNREGISTERED</text><text fill="#eeeeee" stroke="none" font-family="Arial" font-size="24px" font-style="normal" font-weight="normal" text-decoration="none" x="200" y="90">UNREGISTERED</text><text fill="#eeeeee" stroke="none" font-family="Arial" font-size="24px" font-style="normal" font-weight="normal" text-decoration="none" x="200" y="120">UNREGISTERED</text><text fill="#eeeeee" stroke="none" font-family="Arial" font-size="24px" font-style="normal" font-weight="normal" text-decoration="none" x="200" y="150">UNREGISTERED</text><text fill="#eeeeee" stroke="none" font-family="Arial" font-size="24px" font-style="normal" font-weight="normal" text-decoration="none" x="200" y="180">UNREGISTERED</text><text fill="#eeeeee" stroke="none" font-family="Arial" font-size="24px" font-style="normal" font-weight="normal" text-decoration="none" x="200" y="210">UNREGISTERED</text><text fill="#eeeeee" stroke="none" font-family="Arial" font-size="24px" font-style="normal" font-weight="normal" text-decoration="none" x="200" y="240">UNREGISTERED</text><text fill="#eeeeee" stroke="none" font-family="Arial" font-size="24px" font-style="normal" font-weight="normal" text-decoration="none" x="200" y="270">UNREGISTERED</text><text fill="#eeeeee" stroke="none" font-family="Arial" font-size="24px" font-style="normal" font-weight="normal" text-decoration="none" x="200" y="300">UNREGISTERED</text><text fill="#eeeeee" stroke="none" font-family="Arial" font-size="24px" font-style="normal" font-weight="normal" text-decoration="none" x="200" y="330">UNREGISTERED</text><text fill="#eeeeee" stroke="none" font-family="Arial" font-size="24px" font-style="normal" font-weight="normal" text-decoration="none" x="200" y="360">UNREGISTERED</text><text fill="#eeeeee" stroke="none" font-family="Arial" font-size="24px" font-style="normal" font-weight="normal" text-decoration="none" x="200" y="390">UNREGISTERED</text><text fill="#eeeeee" stroke="none" font-family="Arial" font-size="24px" font-style="normal" font-weight="normal" text-decoration="none" x="400" y="0">UNREGISTERED</text><text fill="#eeeeee" stroke="none" font-family="Arial" font-size="24px" font-style="normal" font-weight="normal" text-decoration="none" x="400" y="30">UNREGISTERED</text><text fill="#eeeeee" stroke="none" font-family="Arial" font-size="24px" font-style="normal" font-weight="normal" text-decoration="none" x="400" y="60">UNREGISTERED</text><text fill="#eeeeee" stroke="none" font-family="Arial" font-size="24px" font-style="normal" font-weight="normal" text-decoration="none" x="400" y="90">UNREGISTERED</text><text fill="#eeeeee" stroke="none" font-family="Arial" font-size="24px" font-style="normal" font-weight="normal" text-decoration="none" x="400" y="120">UNREGISTERED</text><text fill="#eeeeee" stroke="none" font-family="Arial" font-size="24px" font-style="normal" font-weight="normal" text-decoration="none" x="400" y="150">UNREGISTERED</text><text fill="#eeeeee" stroke="none" font-family="Arial" font-size="24px" font-style="normal" font-weight="normal" text-decoration="none" x="400" y="180">UNREGISTERED</text><text fill="#eeeeee" stroke="none" font-family="Arial" font-size="24px" font-style="normal" font-weight="normal" text-decoration="none" x="400" y="210">UNREGISTERED</text><text fill="#eeeeee" stroke="none" font-family="Arial" font-size="24px" font-style="normal" font-weight="normal" text-decoration="none" x="400" y="240">UNREGISTERED</text><text fill="#eeeeee" stroke="none" font-family="Arial" font-size="24px" font-style="normal" font-weight="normal" text-decoration="none" x="400" y="270">UNREGISTERED</text><text fill="#eeeeee" stroke="none" font-family="Arial" font-size="24px" font-style="normal" font-weight="normal" text-decoration="none" x="400" y="300">UNREGISTERED</text><text fill="#eeeeee" stroke="none" font-family="Arial" font-size="24px" font-style="normal" font-weight="normal" text-decoration="none" x="400" y="330">UNREGISTERED</text><text fill="#eeeeee" stroke="none" font-family="Arial" font-size="24px" font-style="normal" font-weight="normal" text-decoration="none" x="400" y="360">UNREGISTERED</text><text fill="#eeeeee" stroke="none" font-family="Arial" font-size="24px" font-style="normal" font-weight="normal" text-decoration="none" x="400" y="390">UNREGISTERED</text><g transform="translate(-46,-78) scale(1,1)"><path fill="#ffffff" stroke="none" d="M 74.15080539772727 370.68 C 74.15080539772727 365.886167936 78.03664772267273 362 82.830078125 362 C 87.62350852732727 362 91.50935085227273 365.886167936 91.50935085227273 370.68 C 91.50935085227273 375.473832064 87.62350852732727 379.36 82.830078125 379.36 C 78.03664772267273 379.36 74.15080539772727 375.473832064 74.15080539772727 370.68 Z"/></g><g transform="translate(-46,-78) scale(1,1)"><path fill="none" stroke="#000000" d="M 74.15080539772727 370.68 C 74.15080539772727 365.886167936 78.03664772267273 362 82.830078125 362 C 87.62350852732727 362 91.50935085227273 365.886167936 91.50935085227273 370.68 C 91.50935085227273 375.473832064 87.62350852732727 379.36 82.830078125 379.36 C 78.03664772267273 379.36 74.15080539772727 375.473832064 74.15080539772727 370.68 Z" stroke-miterlimit="10"/></g><g transform="translate(-46,-78) scale(1,1)"><path fill="none" stroke="#000000" d="M 82.830078125 379.36 L 82.830078125 396.64" stroke-miterlimit="10"/></g><g transform="translate(-46,-78) scale(1,1)"><path fill="none" stroke="#000000" d="M 73.64025994318182 385.84 L 92.01989630681818 385.84" stroke-miterlimit="10"/></g><g transform="translate(-46,-78) scale(1,1)"><path fill="none" stroke="#000000" d="M 82.830078125 396.64 L 70.06644176136363 414" stroke-miterlimit="10"/></g><g transform="translate(-46,-78) scale(1,1)"><path fill="none" stroke="#000000" d="M 82.830078125 396.64 L 95.59371448863637 414" stroke-miterlimit="10"/></g><g transform="translate(-46,-78) scale(1,1)"><g><path fill="none" stroke="none"/><text fill="#000000" stroke="none" font-family="Arial" font-size="12px" font-style="normal" font-weight="bold" text-decoration="none" x="62.1435546875" y="433.5">Abonné</text></g></g><g transform="translate(-46,-78) scale(1,1)"><path fill="#ffffff" stroke="none" d="M 125.83049289772728 121.68 C 125.83049289772728 116.886167936 129.71633522267274 113 134.509765625 113 C 139.30319602732726 113 143.18903835227272 116.886167936 143.18903835227272 121.68 C 143.18903835227272 126.473832064 139.30319602732726 130.36 134.509765625 130.36 C 129.71633522267274 130.36 125.83049289772728 126.473832064 125.83049289772728 121.68 Z"/></g><g transform="translate(-46,-78) scale(1,1)"><path fill="none" stroke="#000000" d="M 125.83049289772728 121.68 C 125.83049289772728 116.886167936 129.71633522267274 113 134.509765625 113 C 139.30319602732726 113 143.18903835227272 116.886167936 143.18903835227272 121.68 C 143.18903835227272 126.473832064 139.30319602732726 130.36 134.509765625 130.36 C 129.71633522267274 130.36 125.83049289772728 126.473832064 125.83049289772728 121.68 Z" stroke-miterlimit="10"/></g><g transform="translate(-46,-78) scale(1,1)"><path fill="none" stroke="#000000" d="M 134.509765625 130.36 L 134.509765625 147.64" stroke-miterlimit="10"/></g><g transform="translate(-46,-78) scale(1,1)"><path fill="none" stroke="#000000" d="M 125.31994744318183 136.84 L 143.69958380681817 136.84" stroke-miterlimit="10"/></g><g transform="translate(-46,-78) scale(1,1)"><path fill="none" stroke="#000000" d="M 134.509765625 147.64 L 121.74612926136365 165" stroke-miterlimit="10"/></g><g transform="translate(-46,-78) scale(1,1)"><path fill="none" stroke="#000000" d="M 134.509765625 147.64 L 147.27340198863635 165" stroke-miterlimit="10"/></g><g transform="translate(-46,-78) scale(1,1)"><g><path fill="none" stroke="none"/><text fill="#000000" stroke="none" font-family="Arial" font-size="12px" font-style="normal" font-weight="bold" text-decoration="none" x="65.4599609375" y="184.5">ResponsableAbonnement</text></g></g><g transform="translate(-46,-78) scale(1,1)"><path fill="#C0C0C0" stroke="none" d="M 295 111 C 295 102.1634432 326.1162064 95 364.5 95 C 402.8837936 95 434 102.1634432 434 111 C 434 119.8365568 402.8837936 127 364.5 127 C 326.1162064 127 295 119.8365568 295 111 Z" opacity="0.2"/></g><g transform="translate(-46,-78) scale(1,1)"><path fill="#a3ffa3" stroke="none" d="M 288 104 C 288 95.1634432 319.1162064 88 357.5 88 C 395.8837936 88 427 95.1634432 427 104 C 427 112.8365568 395.8837936 120 357.5 120 C 319.1162064 120 288 112.8365568 288 104 Z"/></g><g transform="translate(-46,-78) scale(1,1)"><path fill="none" stroke="#000000" d="M 288 104 C 288 95.1634432 319.1162064 88 357.5 88 C 395.8837936 88 427 95.1634432 427 104 C 427 112.8365568 395.8837936 120 357.5 120 C 319.1162064 120 288 112.8365568 288 104 Z" stroke-miterlimit="10"/></g><g transform="translate(-46,-78) scale(1,1)"><g><path fill="none" stroke="none"/><text fill="#000000" stroke="none" font-family="Arial" font-size="12px" font-style="normal" font-weight="bold" text-decoration="none" x="316.4755859375" y="110.5">inscrire abonné</text></g></g><g transform="translate(-46,-78) scale(1,1)"><path fill="#C0C0C0" stroke="none" d="M 271 215 C 271 206.1634432 305.697928 199 348.5 199 C 391.302072 199 426 206.1634432 426 215 C 426 223.8365568 391.302072 231 348.5 231 C 305.697928 231 271 223.8365568 271 215 Z" opacity="0.2"/></g><g transform="translate(-46,-78) scale(1,1)"><path fill="#ffffff" stroke="none" d="M 264 208 C 264 199.1634432 298.697928 192 341.5 192 C 384.302072 192 419 199.1634432 419 208 C 419 216.8365568 384.302072 224 341.5 224 C 298.697928 224 264 216.8365568 264 208 Z"/></g><g transform="translate(-46,-78) scale(1,1)"><path fill="none" stroke="#000000" d="M 264 208 C 264 199.1634432 298.697928 192 341.5 192 C 384.302072 192 419 199.1634432 419 208 C 419 216.8365568 384.302072 224 341.5 224 C 298.697928 224 264 216.8365568 264 208 Z" stroke-miterlimit="10"/></g><g transform="translate(-46,-78) scale(1,1)"><g><path fill="none" stroke="none"/><text fill="#000000" stroke="none" font-family="Arial" font-size="12px" font-style="normal" font-weight="bold" text-decoration="none" x="295.1376953125" y="214.5">gérer contentieux</text></g></g><g transform="translate(-46,-78) scale(1,1)"><path fill="#C0C0C0" stroke="none" d="M 167 359 C 167 350.1634432 218.7111056 343 282.5 343 C 346.2888944 343 398 350.1634432 398 359 C 398 367.8365568 346.2888944 375 282.5 375 C 218.7111056 375 167 367.8365568 167 359 Z" opacity="0.2"/></g><g transform="translate(-46,-78) scale(1,1)"><path fill="#ffffff" stroke="none" d="M 160 352 C 160 343.1634432 211.7111056 336 275.5 336 C 339.2888944 336 391 343.1634432 391 352 C 391 360.8365568 339.2888944 368 275.5 368 C 211.7111056 368 160 360.8365568 160 352 Z"/></g><g transform="translate(-46,-78) scale(1,1)"><path fill="none" stroke="#000000" d="M 160 352 C 160 343.1634432 211.7111056 336 275.5 336 C 339.2888944 336 391 343.1634432 391 352 C 391 360.8365568 339.2888944 368 275.5 368 C 211.7111056 368 160 360.8365568 160 352 Z" stroke-miterlimit="10"/></g><g transform="translate(-46,-78) scale(1,1)"><g><path fill="none" stroke="none"/><text fill="#000000" stroke="none" font-family="Arial" font-size="12px" font-style="normal" font-weight="bold" text-decoration="none" x="204.8037109375" y="358.5">consulter liste exemplaires</text></g></g><g transform="translate(-46,-78) scale(1,1)"><path fill="#C0C0C0" stroke="none" d="M 279 455 C 279 446.1634432 319.5182256 439 369.5 439 C 419.4817744 439 460 446.1634432 460 455 C 460 463.8365568 419.4817744 471 369.5 471 C 319.5182256 471 279 463.8365568 279 455 Z" opacity="0.2"/></g><g transform="translate(-46,-78) scale(1,1)"><path fill="#ffffff" stroke="none" d="M 272 448 C 272 439.1634432 312.5182256 432 362.5 432 C 412.4817744 432 453 439.1634432 453 448 C 453 456.8365568 412.4817744 464 362.5 464 C 312.5182256 464 272 456.8365568 272 448 Z"/></g><g transform="translate(-46,-78) scale(1,1)"><path fill="none" stroke="#000000" d="M 272 448 C 272 439.1634432 312.5182256 432 362.5 432 C 412.4817744 432 453 439.1634432 453 448 C 453 456.8365568 412.4817744 464 362.5 464 C 312.5182256 464 272 456.8365568 272 448 Z" stroke-miterlimit="10"/></g><g transform="translate(-46,-78) scale(1,1)"><g><path fill="none" stroke="none"/><text fill="#000000" stroke="none" font-family="Arial" font-size="12px" font-style="normal" font-weight="bold" text-decoration="none" x="307.9140625" y="454.5">effectuer réservation</text></g></g><g transform="translate(-46,-78) scale(1,1)"><path fill="none" stroke="#000000" d="M 111 393 L 207 369" stroke-miterlimit="10"/></g><g transform="translate(-46,-78) scale(1,1)"><path fill="none" stroke="#000000" d="M 347 431 L 290 369" stroke-miterlimit="10" stroke-dasharray="3"/></g><g transform="translate(-46,-78) scale(1,1)"><path fill="none" stroke="#000000" d="M 299.9770014878258 373.6324336273628 L 290 369 L 293.7791801766451 379.3304306392547" stroke-miterlimit="10"/></g><g transform="translate(-46,-78) scale(1,1)"><g><path fill="none" stroke="none"/><text fill="#000000" stroke="none" font-family="Arial" font-size="12px" font-style="normal" font-weight="normal" text-decoration="none" x="270.5" y="425.5">«extend»</text></g></g><g transform="translate(-46,-78) scale(1,1)"><path fill="none" stroke="#000000" d="M 214 134 L 287 119" stroke-miterlimit="10"/></g><g transform="translate(-46,-78) scale(1,1)"><path fill="none" stroke="#000000" d="M 214 173 L 279 191" stroke-miterlimit="10"/></g></g></svg>