<svg version="1.1" xmlns="http://www.w3.org/2000/svg" xmlns:xlink="http://www.w3.org/1999/xlink" width="519.380859375" height="483"><defs/><g><text fill="#eeeeee" stroke="none" font-family="Arial" font-size="24px" font-style="normal" font-weight="normal" text-decoration="none" x="0" y="0">UNREGISTERED</text><text fill="#eeeeee" stroke="none" font-family="Arial" font-size="24px" font-style="normal" font-weight="normal" text-decoration="none" x="0" y="30">UNREGISTERED</text><text fill="#eeeeee" stroke="none" font-family="Arial" font-size="24px" font-style="normal" font-weight="normal" text-decoration="none" x="0" y="60">UNREGISTERED</text><text fill="#eeeeee" stroke="none" font-family="Arial" font-size="24px" font-style="normal" font-weight="normal" text-decoration="none" x="0" y="90">UNREGISTERED</text><text fill="#eeeeee" stroke="none" font-family="Arial" font-size="24px" font-style="normal" font-weight="normal" text-decoration="none" x="0" y="120">UNREGISTERED</text><text fill="#eeeeee" stroke="none" font-family="Arial" font-size="24px" font-style="normal" font-weight="normal" text-decoration="none" x="0" y="150">UNREGISTERED</text><text fill="#eeeeee" stroke="none" font-family="Arial" font-size="24px" font-style="normal" font-weight="normal" text-decoration="none" x="0" y="180">UNREGISTERED</text><text fill="#eeeeee" stroke="none" font-family="Arial" font-size="24px" font-style="normal" font-weight="normal" text-decoration="none" x="0" y="210">UNREGISTERED</text><text fill="#eeeeee" stroke="none" font-family="Arial" font-size="24px" font-style="normal" font-weight="normal" text-decoration="none" x="0" y="240">UNREGISTERED</text><text fill="#eeeeee" stroke="none" font-family="Arial" font-size="24px" font-style="normal" font-weight="normal" text-decoration="none" x="0" y="270">UNREGISTERED</text><text fill="#eeeeee" stroke="none" font-family="Arial" font-size="24px" font-style="normal" font-weight="normal" text-decoration="none" x="0" y="300">UNREGISTERED</text><text fill="#eeeeee" stroke="none" font-family="Arial" font-size="24px" font-style="normal" font-weight="normal" text-decoration="none" x="0" y="330">UNREGISTERED</text><text fill="#eeeeee" stroke="none" font-family="Arial" font-size="24px" font-style="normal" font-weight="normal" text-decoration="none" x="0" y="360">UNREGISTERED</text><text fill="#eeeeee" stroke="none" font-family="Arial" font-size="24px" font-style="normal" font-weight="normal" text-decoration="none" x="0" y="390">UNREGISTERED</text><text fill="#eeeeee" stroke="none" font-family="Arial" font-size="24px" font-style="normal" font-weight="normal" text-decoration="none" x="0" y="420">UNREGISTERED</text><text fill="#eeeeee" stroke="none" font-family="Arial" font-size="24px" font-style="normal" font-weight="normal" text-decoration="none" x="0" y="450">UNREGISTERED</text><text fill="#eeeeee" stroke="none" font-family="Arial" font-size="24px" font-style="normal" font-weight="normal" text-decoration="none" x="0" y="480">UNREGISTERED</text><text fill="#eeeeee" stroke="none" font-family="Arial" font-size="24px" font-style="normal" font-weight="normal" text-decoration="none" x="200" y="0">UNREGISTERED</text><text fill="#eeeeee" stroke="none" font-family="Arial" font-size="24px" font-style="normal" font-weight="normal" text-decoration="none" x="200" y="30">UNREGISTERED</text><text fill="#eeeeee" stroke="none" font-family="Arial" font-size="24px" font-style="normal" font-weight="normal" text-decoration="none" x="200" y="60">UNREGISTERED</text><text fill="#eeeeee" stroke="none" font-family="Arial" font-size="24px" font-style="normal" font-weight="normal" text-decoration="none" x="200" y="90">UNREGISTERED</text><text fill="#eeeeee" stroke="none" font-family="Arial" font-size="24px" font-style="normal" font-weight="normal" text-decoration="none" x="200" y="120">UNREGISTERED</text><text fill="#eeeeee" stroke="none" font-family="Arial" font-size="24px" font-style="normal" font-weight="normal" text-decoration="none" x="200" y="150">UNREGISTERED</text><text fill="#eeeeee" stroke="none" font-family="Arial" font-size="24px" font-style="normal" font-weight="normal" text-decoration="none" x="200" y="180">UNREGISTERED</text><text fill="#eeeeee" stroke="none" font-family="Arial" font-size="24px" font-style="normal" font-weight="normal" text-decoration="none" x="200" y="210">UNREGISTERED</text><text fill="#eeeeee" stroke="none" font-family="Arial" font-size="24px" font-style="normal" font-weight="normal" text-decoration="none" x="200" y="240">UNREGISTERED</text><text fill="#eeeeee" stroke="none" font-family="Arial" font-size="24px" font-style="normal" font-weight="normal" text-decoration="none" x="200" y="270">UNREGISTERED</text><text fill="#eeeeee" stroke="none" font-family="Arial" font-size="24px" font-style="normal" font-weight="normal" text-decoration="none" x="200" y="300">UNREGISTERED</text><text fill="#eeeeee" stroke="none" font-family="Arial" font-size="24px" font-style="normal" font-weight="normal" text-decoration="none" x="200" y="330">UNREGISTERED</text><text fill="#eeeeee" stroke="none" font-family="Arial" font-size="24px" font-style="normal" font-weight="normal" text-decoration="none" x="200" y="360">UNREGISTERED</text><text fill="#eeeeee" stroke="none" font-family="Arial" font-size="24px" font-style="normal" font-weight="normal" text-decoration="none" x="200" y="390">UNREGISTERED</text><text fill="#eeeeee" stroke="none" font-family="Arial" font-size="24px" font-style="normal" font-weight="normal" text-decoration="none" x="200" y="420">UNREGISTERED</text><text fill="#eeeeee" stroke="none" font-family="Arial" font-size="24px" font-style="normal" font-weight="normal" text-decoration="none" x="200" y="450">UNREGISTERED</text><text fill="#eeeeee" stroke="none" font-family="Arial" font-size="24px" font-style="normal" font-weight="normal" text-decoration="none" x="200" y="480">UNREGISTERED</text><text fill="#eeeeee" stroke="none" font-family="Arial" font-size="24px" font-style="normal" font-weight="normal" text-decoration="none" x="400" y="0">UNREGISTERED</text><text fill="#eeeeee" stroke="none" font-family="Arial" font-size="24px" font-style="normal" font-weight="normal" text-decoration="none" x="400" y="30">UNREGISTERED</text><text fill="#eeeeee" stroke="none" font-family="Arial" font-size="24px" font-style="normal" font-weight="normal" text-decoration="none" x="400" y="60">UNREGISTERED</text><text fill="#eeeeee" stroke="none" font-family="Arial" font-size="24px" font-style="normal" font-weight="normal" text-decoration="none" x="400" y="90">UNREGISTERED</text><text fill="#eeeeee" stroke="none" font-family="Arial" font-size="24px" font-style="normal" font-weight="normal" text-decoration="none" x="400" y="120">UNREGISTERED</text><text fill="#eeeeee" stroke="none" font-family="Arial" font-size="24px" font-style="normal" font-weight="normal" text-decoration="none" x="400" y="150">UNREGISTERED</text><text fill="#eeeeee" stroke="none" font-family="Arial" font-size="24px" font-style="normal" font-weight="normal" text-decoration="none" x="400" y="180">UNREGISTERED</text><text fill="#eeeeee" stroke="none" font-family="Arial" font-size="24px" font-style="normal" font-weight="normal" text-decoration="none" x="400" y="210">UNREGISTERED</text><text fill="#eeeeee" stroke="none" font-family="Arial" font-size="24px" font-style="normal" font-weight="normal" text-decoration="none" x="400" y="240">UNREGISTERED</text><text fill="#eeeeee" stroke="none" font-family="Arial" font-size="24px" font-style="normal" font-weight="normal" text-decoration="none" x="400" y="270">UNREGISTERED</text><text fill="#eeeeee" stroke="none" font-family="Arial" font-size="24px" font-style="normal" font-weight="normal" text-decoration="none" x="400" y="300">UNREGISTERED</text><text fill="#eeeeee" stroke="none" font-family="Arial" font-size="24px" font-style="normal" font-weight="normal" text-decoration="none" x="400" y="330">UNREGISTERED</text><text fill="#eeeeee" stroke="none" font-family="Arial" font-size="24px" font-style="normal" font-weight="normal" text-decoration="none" x="400" y="360">UNREGISTERED</text><text fill="#eeeeee" stroke="none" font-family="Arial" font-size="24px" font-style="normal" font-weight="normal" text-decoration="none" x="400" y="390">UNREGISTERED</text><text fill="#eeeeee" stroke="none" font-family="Arial" font-size="24px" font-style="normal" font-weight="normal" text-decoration="none" x="400" y="420">UNREGISTERED</text><text fill="#eeeeee" stroke="none" font-family="Arial" font-size="24px" font-style="normal" font-weight="normal" text-decoration="none" x="400" y="450">UNREGISTERED</text><text fill="#eeeeee" stroke="none" font-family="Arial" font-size="24px" font-style="normal" font-weight="normal" text-decoration="none" x="400" y="480">UNREGISTERED</text><g transform="translate(-46,-78) scale(1,1)"><rect fill="#C0C0C0" stroke="none" x="199" y="103" width="118.06640625" height="137" opacity="0.2"/></g><g transform="translate(-46,-78) scale(1,1)"><rect fill="#ffffff" stroke="none" x="192" y="96" width="118.06640625" height="137"/></g><g transform="translate(-46,-78) scale(1,1)"><path fill="none" stroke="#000000" d="M 192 96 L 310.06640625 96 L 310.06640625 233 L 192 233 L 192 96 Z Z" stroke-miterlimit="10"/></g><g transform="translate(-46,-78) scale(1,1)"><path fill="none" stroke="#000000" d="M 192 120 L 310.06640625 120" stroke-miterlimit="10"/></g><g transform="translate(-46,-78) scale(1,1)"><path fill="none" stroke="#000000" d="M 192 212 L 310.06640625 212" stroke-miterlimit="10"/></g><g transform="translate(-46,-78) scale(1,1)"><g><path fill="none" stroke="none"/><text fill="#000000" stroke="none" font-family="Arial" font-size="12px" font-style="italic" font-weight="bold" text-decoration="none" x="225.3486328125" y="114.5">Personne</text></g></g><g transform="translate(-46,-78) scale(1,1)"><g><path fill="none" stroke="none"/><text fill="#000000" stroke="none" font-family="Arial" font-size="12px" font-style="normal" font-weight="normal" text-decoration="none" x="197" y="136.5">+id {id}</text></g></g><g transform="translate(-46,-78) scale(1,1)"><g><path fill="none" stroke="none"/><text fill="#000000" stroke="none" font-family="Arial" font-size="12px" font-style="normal" font-weight="normal" text-decoration="none" x="197" y="150.5">+nom</text></g></g><g transform="translate(-46,-78) scale(1,1)"><g><path fill="none" stroke="none"/><text fill="#000000" stroke="none" font-family="Arial" font-size="12px" font-style="normal" font-weight="normal" text-decoration="none" x="197" y="164.5">+prenom</text></g></g><g transform="translate(-46,-78) scale(1,1)"><g><path fill="none" stroke="none"/><text fill="#000000" stroke="none" font-family="Arial" font-size="12px" font-style="normal" font-weight="normal" text-decoration="none" x="197" y="178.5">+email</text></g></g><g transform="translate(-46,-78) scale(1,1)"><g><path fill="none" stroke="none"/><text fill="#000000" stroke="none" font-family="Arial" font-size="12px" font-style="normal" font-weight="normal" text-decoration="none" x="197" y="192.5">+password</text></g></g><g transform="translate(-46,-78) scale(1,1)"><g><path fill="none" stroke="none"/><text fill="#000000" stroke="none" font-family="Arial" font-size="12px" font-style="normal" font-weight="normal" text-decoration="none" x="197" y="206.5">+dateNaissance</text></g></g><g transform="translate(-46,-78) scale(1,1)"><g><path fill="none" stroke="none"/><text fill="#000000" stroke="none" font-family="Arial" font-size="12px" font-style="italic" font-weight="normal" text-decoration="none" x="197" y="228.5">+getTypePersonne()</text></g></g><g transform="translate(-46,-78) scale(1,1)"><rect fill="#C0C0C0" stroke="none" x="79" y="295" width="114.052734375" height="55" opacity="0.2"/></g><g transform="translate(-46,-78) scale(1,1)"><rect fill="#ffffff" stroke="none" x="72" y="288" width="114.052734375" height="55"/></g><g transform="translate(-46,-78) scale(1,1)"><path fill="none" stroke="#000000" d="M 72 288 L 186.052734375 288 L 186.052734375 343 L 72 343 L 72 288 Z Z" stroke-miterlimit="10"/></g><g transform="translate(-46,-78) scale(1,1)"><path fill="none" stroke="#000000" d="M 72 312 L 186.052734375 312" stroke-miterlimit="10"/></g><g transform="translate(-46,-78) scale(1,1)"><path fill="none" stroke="#000000" d="M 72 334 L 186.052734375 334" stroke-miterlimit="10"/></g><g transform="translate(-46,-78) scale(1,1)"><g><path fill="none" stroke="none"/><text fill="#000000" stroke="none" font-family="Arial" font-size="12px" font-style="normal" font-weight="bold" text-decoration="none" x="105.6826171875" y="306.5">Employe</text></g></g><g transform="translate(-46,-78) scale(1,1)"><g><path fill="none" stroke="none"/><text fill="#000000" stroke="none" font-family="Arial" font-size="12px" font-style="normal" font-weight="normal" text-decoration="none" x="77" y="328.5">+role: RoleEmploye</text></g></g><g transform="translate(-46,-78) scale(1,1)"><rect fill="#C0C0C0" stroke="none" x="271" y="303" width="162.0703125" height="96" opacity="0.2"/></g><g transform="translate(-46,-78) scale(1,1)"><rect fill="#ffffff" stroke="none" x="264" y="296" width="162.0703125" height="96"/></g><g transform="translate(-46,-78) scale(1,1)"><path fill="none" stroke="#000000" d="M 264 296 L 426.0703125 296 L 426.0703125 392 L 264 392 L 264 296 Z Z" stroke-miterlimit="10"/></g><g transform="translate(-46,-78) scale(1,1)"><path fill="none" stroke="#000000" d="M 264 332 L 426.0703125 332" stroke-miterlimit="10"/></g><g transform="translate(-46,-78) scale(1,1)"><path fill="none" stroke="#000000" d="M 264 368 L 426.0703125 368" stroke-miterlimit="10"/></g><g transform="translate(-46,-78) scale(1,1)"><g><path fill="none" stroke="none"/><text fill="#000000" stroke="none" font-family="Arial" font-size="12px" font-style="normal" font-weight="normal" text-decoration="none" x="324.0205078125" y="312.5">«entity»</text></g></g><g transform="translate(-46,-78) scale(1,1)"><g><path fill="none" stroke="none"/><text fill="#000000" stroke="none" font-family="Arial" font-size="12px" font-style="normal" font-weight="bold" text-decoration="none" x="324.3486328125" y="326.5">Abonne</text></g></g><g transform="translate(-46,-78) scale(1,1)"><g><path fill="none" stroke="none"/><text fill="#000000" stroke="none" font-family="Arial" font-size="12px" font-style="normal" font-weight="normal" text-decoration="none" x="269" y="348.5">+dateDebutAbonnement</text></g></g><g transform="translate(-46,-78) scale(1,1)"><g><path fill="none" stroke="none"/><text fill="#000000" stroke="none" font-family="Arial" font-size="12px" font-style="normal" font-weight="normal" text-decoration="none" x="269" y="362.5">+dateFinAbonnement</text></g></g><g transform="translate(-46,-78) scale(1,1)"><g><path fill="none" stroke="none"/><text fill="#000000" stroke="none" font-family="Arial" font-size="12px" font-style="normal" font-weight="normal" text-decoration="none" x="269" y="384.5">+changePassword()</text></g></g><g transform="translate(-46,-78) scale(1,1)"><path fill="none" stroke="#000000" d="M 152 287 L 194 234" stroke-miterlimit="10"/></g><g transform="translate(-46,-78) scale(1,1)"><path fill="#FFFFFF" stroke="none" d="M 187.9746828728802 255.15881739411816 L 194 234 L 174.77791413934534 244.70100066188297"/></g><g transform="translate(-46,-78) scale(1,1)"><path fill="none" stroke="#000000" d="M 187.9746828728802 255.15881739411816 L 194 234 L 174.77791413934534 244.70100066188297 L 187.9746828728802 255.15881739411816" stroke-miterlimit="10"/></g><g transform="translate(-46,-78) scale(1,1)"><path fill="none" stroke="#000000" d="M 319 295 L 288 234" stroke-miterlimit="10"/></g><g transform="translate(-46,-78) scale(1,1)"><path fill="#FFFFFF" stroke="none" d="M 304.713842032745 248.30550539143746 L 288 234 L 289.7029511704486 255.9339909116209"/></g><g transform="translate(-46,-78) scale(1,1)"><path fill="none" stroke="#000000" d="M 304.713842032745 248.30550539143746 L 288 234 L 289.7029511704486 255.9339909116209 L 304.713842032745 248.30550539143746" stroke-miterlimit="10"/></g><g transform="translate(-46,-78) scale(1,1)"><rect fill="#C0C0C0" stroke="none" x="487" y="119" width="75.380859375" height="111" opacity="0.2"/></g><g transform="translate(-46,-78) scale(1,1)"><rect fill="#ffffff" stroke="none" x="480" y="112" width="75.380859375" height="111"/></g><g transform="translate(-46,-78) scale(1,1)"><path fill="none" stroke="#000000" d="M 480 112 L 555.380859375 112 L 555.380859375 223 L 480 223 L 480 112 Z Z" stroke-miterlimit="10"/></g><g transform="translate(-46,-78) scale(1,1)"><path fill="none" stroke="#000000" d="M 480 136 L 555.380859375 136" stroke-miterlimit="10"/></g><g transform="translate(-46,-78) scale(1,1)"><path fill="none" stroke="#000000" d="M 480 214 L 555.380859375 214" stroke-miterlimit="10"/></g><g transform="translate(-46,-78) scale(1,1)"><g><path fill="none" stroke="none"/><text fill="#000000" stroke="none" font-family="Arial" font-size="12px" font-style="normal" font-weight="bold" text-decoration="none" x="495.6796875" y="130.5">Adresse</text></g></g><g transform="translate(-46,-78) scale(1,1)"><g><path fill="none" stroke="none"/><text fill="#000000" stroke="none" font-family="Arial" font-size="12px" font-style="normal" font-weight="normal" text-decoration="none" x="485" y="152.5">+num</text></g></g><g transform="translate(-46,-78) scale(1,1)"><g><path fill="none" stroke="none"/><text fill="#000000" stroke="none" font-family="Arial" font-size="12px" font-style="normal" font-weight="normal" text-decoration="none" x="485" y="166.5">+rue</text></g></g><g transform="translate(-46,-78) scale(1,1)"><g><path fill="none" stroke="none"/><text fill="#000000" stroke="none" font-family="Arial" font-size="12px" font-style="normal" font-weight="normal" text-decoration="none" x="485" y="180.5">+codePostal</text></g></g><g transform="translate(-46,-78) scale(1,1)"><g><path fill="none" stroke="none"/><text fill="#000000" stroke="none" font-family="Arial" font-size="12px" font-style="normal" font-weight="normal" text-decoration="none" x="485" y="194.5">+ville</text></g></g><g transform="translate(-46,-78) scale(1,1)"><g><path fill="none" stroke="none"/><text fill="#000000" stroke="none" font-family="Arial" font-size="12px" font-style="normal" font-weight="normal" text-decoration="none" x="485" y="208.5">+pays</text></g></g><g transform="translate(-46,-78) scale(1,1)"><path fill="none" stroke="#000000" d="M 479 167 L 311 165" stroke-miterlimit="10"/></g><g transform="translate(-46,-78) scale(1,1)"><path fill="#000000" stroke="none" d="M 321.21206454585126 160.91175615803468 L 311 165 L 321.11184503408396 169.33019514648834 L 332.9984412087698 165.2618862048663"/></g><g transform="translate(-46,-78) scale(1,1)"><path fill="none" stroke="#000000" d="M 321.21206454585126 160.91175615803468 L 311 165 L 321.11184503408396 169.33019514648834 L 332.9984412087698 165.2618862048663 L 321.21206454585126 160.91175615803468" stroke-miterlimit="10"/></g><g transform="translate(-46,-78) scale(1,1)"><path fill="none" stroke="#000000" d="M 468.78793545414874 171.08824384196532 L 479 167 L 468.88815496591604 162.66980485351166" stroke-miterlimit="10"/></g><g transform="translate(-46,-78) scale(1,1)"><g><path fill="none" stroke="none"/><text fill="#000000" stroke="none" font-family="Arial" font-size="12px" font-style="normal" font-weight="normal" text-decoration="none" x="366.5" y="151.5">+adressePrincipale</text></g></g><g transform="translate(-46,-78) scale(1,1)"><g><path fill="none" stroke="none"/><text fill="#000000" stroke="none" font-family="Arial" font-size="12px" font-style="normal" font-weight="normal" text-decoration="none" x="453.5" y="185.5">1</text></g></g><g transform="translate(-46,-78) scale(1,1)"><rect fill="#C0C0C0" stroke="none" x="79" y="383" width="116.396484375" height="71" opacity="0.2"/></g><g transform="translate(-46,-78) scale(1,1)"><rect fill="#ffffff" stroke="none" x="72" y="376" width="116.396484375" height="71"/></g><g transform="translate(-46,-78) scale(1,1)"><path fill="none" stroke="#000000" d="M 72 376 L 188.396484375 376 L 188.396484375 447 L 72 447 L 72 376 Z Z" stroke-miterlimit="10"/></g><g transform="translate(-46,-78) scale(1,1)"><path fill="none" stroke="#000000" d="M 72 412 L 188.396484375 412" stroke-miterlimit="10"/></g><g transform="translate(-46,-78) scale(1,1)"><g><path fill="none" stroke="none"/><text fill="#000000" stroke="none" font-family="Arial" font-size="12px" font-style="normal" font-weight="normal" text-decoration="none" x="90.169921875" y="392.5">«enumeration»</text></g></g><g transform="translate(-46,-78) scale(1,1)"><g><path fill="none" stroke="none"/><text fill="#000000" stroke="none" font-family="Arial" font-size="12px" font-style="normal" font-weight="bold" text-decoration="none" x="94.5146484375" y="406.5">RoleEmploye</text></g></g><g transform="translate(-46,-78) scale(1,1)"><g><path fill="none" stroke="none"/><text fill="#000000" stroke="none" font-family="Arial" font-size="12px" font-style="normal" font-weight="normal" text-decoration="none" x="77" y="428.5">BIBLIOTHECAIRE</text></g></g><g transform="translate(-46,-78) scale(1,1)"><g><path fill="none" stroke="none"/><text fill="#000000" stroke="none" font-family="Arial" font-size="12px" font-style="normal" font-weight="normal" text-decoration="none" x="77" y="442.5">RESPONSABLE</text></g></g><g transform="translate(-46,-78) scale(1,1)"><path fill="#ffffff" stroke="none" d="M 56 88 L 125 88 L 135 98 L 135 170 L 56 170 L 56 88"/></g><g transform="translate(-46,-78) scale(1,1)"><path fill="none" stroke="#000000" d="M 56 88 L 125 88 L 135 98 L 135 170 L 56 170 L 56 88 L 56 88" stroke-miterlimit="10"/></g><g transform="translate(-46,-78) scale(1,1)"><path fill="none" stroke="#000000" d="M 125 88 L 125 98 L 135 98 L 125 88" stroke-miterlimit="10"/></g><g transform="translate(-46,-78) scale(1,1)"><g><path fill="none" stroke="none"/><text fill="#000000" stroke="none" font-family="Arial" font-size="12px" font-style="normal" font-weight="normal" text-decoration="none" x="61" y="105">{ password</text><text fill="#000000" stroke="none" font-family="Arial" font-size="12px" font-style="normal" font-weight="normal" text-decoration="none" x="61" y="117">avec au</text><text fill="#000000" stroke="none" font-family="Arial" font-size="12px" font-style="normal" font-weight="normal" text-decoration="none" x="61" y="129">moins 6</text><text fill="#000000" stroke="none" font-family="Arial" font-size="12px" font-style="normal" font-weight="normal" text-decoration="none" x="61" y="141">caractères }</text></g></g><g transform="translate(-46,-78) scale(1,1)"><path fill="none" stroke="#000000" d="M 137 138 L 191 150" stroke-miterlimit="10" stroke-dasharray="3"/></g><g transform="translate(-46,-78) scale(1,1)"><rect fill="#C0C0C0" stroke="none" x="223" y="463" width="159.849609375" height="95" opacity="0.2"/></g><g transform="translate(-46,-78) scale(1,1)"><rect fill="#ffffff" stroke="none" x="216" y="456" width="159.849609375" height="95"/></g><g transform="translate(-46,-78) scale(1,1)"><path fill="none" stroke="#000000" d="M 216 456 L 375.849609375 456 L 375.849609375 551 L 216 551 L 216 456 Z Z" stroke-miterlimit="10"/></g><g transform="translate(-46,-78) scale(1,1)"><path fill="none" stroke="#000000" d="M 216 492 L 375.849609375 492" stroke-miterlimit="10"/></g><g transform="translate(-46,-78) scale(1,1)"><path fill="none" stroke="#000000" d="M 216 502 L 375.849609375 502" stroke-miterlimit="10"/></g><g transform="translate(-46,-78) scale(1,1)"><g><path fill="none" stroke="none"/><text fill="#000000" stroke="none" font-family="Arial" font-size="12px" font-style="normal" font-weight="normal" text-decoration="none" x="270.24609375" y="472.5">«service»</text></g></g><g transform="translate(-46,-78) scale(1,1)"><g><path fill="none" stroke="none"/><text fill="#000000" stroke="none" font-family="Arial" font-size="12px" font-style="normal" font-weight="bold" text-decoration="none" x="255.2314453125" y="486.5">ServiceAbonné</text></g></g><g transform="translate(-46,-78) scale(1,1)"><g><path fill="none" stroke="none"/><text fill="#000000" stroke="none" font-family="Arial" font-size="12px" font-style="normal" font-weight="normal" text-decoration="none" x="221" y="518.5">+rechercherAbonné()</text></g></g><g transform="translate(-46,-78) scale(1,1)"><g><path fill="none" stroke="none"/><text fill="#000000" stroke="none" font-family="Arial" font-size="12px" font-style="normal" font-weight="normal" text-decoration="none" x="221" y="532.5">+sauvegarderAbonné()</text></g></g><g transform="translate(-46,-78) scale(1,1)"><g><path fill="none" stroke="none"/><text fill="#000000" stroke="none" font-family="Arial" font-size="12px" font-style="normal" font-weight="normal" text-decoration="none" x="221" y="546.5">+verifierValiditeAbonement()</text></g></g><g transform="translate(-46,-78) scale(1,1)"><path fill="none" stroke="#000000" d="M 310 455 L 330 393" stroke-miterlimit="10" stroke-dasharray="3"/></g><g transform="translate(-46,-78) scale(1,1)"><path fill="none" stroke="#000000" d="M 330.8862648922747 403.9642388947305 L 330 393 L 322.8737962422418 401.3795715882683" stroke-miterlimit="10"/></g></g></svg>