<svg version="1.1" xmlns="http://www.w3.org/2000/svg" xmlns:xlink="http://www.w3.org/1999/xlink" width="466" height="525"><defs/><g><text fill="#eeeeee" stroke="none" font-family="Arial" font-size="24px" font-style="normal" font-weight="normal" text-decoration="none" x="0" y="0">UNREGISTERED</text><text fill="#eeeeee" stroke="none" font-family="Arial" font-size="24px" font-style="normal" font-weight="normal" text-decoration="none" x="0" y="30">UNREGISTERED</text><text fill="#eeeeee" stroke="none" font-family="Arial" font-size="24px" font-style="normal" font-weight="normal" text-decoration="none" x="0" y="60">UNREGISTERED</text><text fill="#eeeeee" stroke="none" font-family="Arial" font-size="24px" font-style="normal" font-weight="normal" text-decoration="none" x="0" y="90">UNREGISTERED</text><text fill="#eeeeee" stroke="none" font-family="Arial" font-size="24px" font-style="normal" font-weight="normal" text-decoration="none" x="0" y="120">UNREGISTERED</text><text fill="#eeeeee" stroke="none" font-family="Arial" font-size="24px" font-style="normal" font-weight="normal" text-decoration="none" x="0" y="150">UNREGISTERED</text><text fill="#eeeeee" stroke="none" font-family="Arial" font-size="24px" font-style="normal" font-weight="normal" text-decoration="none" x="0" y="180">UNREGISTERED</text><text fill="#eeeeee" stroke="none" font-family="Arial" font-size="24px" font-style="normal" font-weight="normal" text-decoration="none" x="0" y="210">UNREGISTERED</text><text fill="#eeeeee" stroke="none" font-family="Arial" font-size="24px" font-style="normal" font-weight="normal" text-decoration="none" x="0" y="240">UNREGISTERED</text><text fill="#eeeeee" stroke="none" font-family="Arial" font-size="24px" font-style="normal" font-weight="normal" text-decoration="none" x="0" y="270">UNREGISTERED</text><text fill="#eeeeee" stroke="none" font-family="Arial" font-size="24px" font-style="normal" font-weight="normal" text-decoration="none" x="0" y="300">UNREGISTERED</text><text fill="#eeeeee" stroke="none" font-family="Arial" font-size="24px" font-style="normal" font-weight="normal" text-decoration="none" x="0" y="330">UNREGISTERED</text><text fill="#eeeeee" stroke="none" font-family="Arial" font-size="24px" font-style="normal" font-weight="normal" text-decoration="none" x="0" y="360">UNREGISTERED</text><text fill="#eeeeee" stroke="none" font-family="Arial" font-size="24px" font-style="normal" font-weight="normal" text-decoration="none" x="0" y="390">UNREGISTERED</text><text fill="#eeeeee" stroke="none" font-family="Arial" font-size="24px" font-style="normal" font-weight="normal" text-decoration="none" x="0" y="420">UNREGISTERED</text><text fill="#eeeeee" stroke="none" font-family="Arial" font-size="24px" font-style="normal" font-weight="normal" text-decoration="none" x="0" y="450">UNREGISTERED</text><text fill="#eeeeee" stroke="none" font-family="Arial" font-size="24px" font-style="normal" font-weight="normal" text-decoration="none" x="0" y="480">UNREGISTERED</text><text fill="#eeeeee" stroke="none" font-family="Arial" font-size="24px" font-style="normal" font-weight="normal" text-decoration="none" x="0" y="510">UNREGISTERED</text><text fill="#eeeeee" stroke="none" font-family="Arial" font-size="24px" font-style="normal" font-weight="normal" text-decoration="none" x="200" y="0">UNREGISTERED</text><text fill="#eeeeee" stroke="none" font-family="Arial" font-size="24px" font-style="normal" font-weight="normal" text-decoration="none" x="200" y="30">UNREGISTERED</text><text fill="#eeeeee" stroke="none" font-family="Arial" font-size="24px" font-style="normal" font-weight="normal" text-decoration="none" x="200" y="60">UNREGISTERED</text><text fill="#eeeeee" stroke="none" font-family="Arial" font-size="24px" font-style="normal" font-weight="normal" text-decoration="none" x="200" y="90">UNREGISTERED</text><text fill="#eeeeee" stroke="none" font-family="Arial" font-size="24px" font-style="normal" font-weight="normal" text-decoration="none" x="200" y="120">UNREGISTERED</text><text fill="#eeeeee" stroke="none" font-family="Arial" font-size="24px" font-style="normal" font-weight="normal" text-decoration="none" x="200" y="150">UNREGISTERED</text><text fill="#eeeeee" stroke="none" font-family="Arial" font-size="24px" font-style="normal" font-weight="normal" text-decoration="none" x="200" y="180">UNREGISTERED</text><text fill="#eeeeee" stroke="none" font-family="Arial" font-size="24px" font-style="normal" font-weight="normal" text-decoration="none" x="200" y="210">UNREGISTERED</text><text fill="#eeeeee" stroke="none" font-family="Arial" font-size="24px" font-style="normal" font-weight="normal" text-decoration="none" x="200" y="240">UNREGISTERED</text><text fill="#eeeeee" stroke="none" font-family="Arial" font-size="24px" font-style="normal" font-weight="normal" text-decoration="none" x="200" y="270">UNREGISTERED</text><text fill="#eeeeee" stroke="none" font-family="Arial" font-size="24px" font-style="normal" font-weight="normal" text-decoration="none" x="200" y="300">UNREGISTERED</text><text fill="#eeeeee" stroke="none" font-family="Arial" font-size="24px" font-style="normal" font-weight="normal" text-decoration="none" x="200" y="330">UNREGISTERED</text><text fill="#eeeeee" stroke="none" font-family="Arial" font-size="24px" font-style="normal" font-weight="normal" text-decoration="none" x="200" y="360">UNREGISTERED</text><text fill="#eeeeee" stroke="none" font-family="Arial" font-size="24px" font-style="normal" font-weight="normal" text-decoration="none" x="200" y="390">UNREGISTERED</text><text fill="#eeeeee" stroke="none" font-family="Arial" font-size="24px" font-style="normal" font-weight="normal" text-decoration="none" x="200" y="420">UNREGISTERED</text><text fill="#eeeeee" stroke="none" font-family="Arial" font-size="24px" font-style="normal" font-weight="normal" text-decoration="none" x="200" y="450">UNREGISTERED</text><text fill="#eeeeee" stroke="none" font-family="Arial" font-size="24px" font-style="normal" font-weight="normal" text-decoration="none" x="200" y="480">UNREGISTERED</text><text fill="#eeeeee" stroke="none" font-family="Arial" font-size="24px" font-style="normal" font-weight="normal" text-decoration="none" x="200" y="510">UNREGISTERED</text><text fill="#eeeeee" stroke="none" font-family="Arial" font-size="24px" font-style="normal" font-weight="normal" text-decoration="none" x="400" y="0">UNREGISTERED</text><text fill="#eeeeee" stroke="none" font-family="Arial" font-size="24px" font-style="normal" font-weight="normal" text-decoration="none" x="400" y="30">UNREGISTERED</text><text fill="#eeeeee" stroke="none" font-family="Arial" font-size="24px" font-style="normal" font-weight="normal" text-decoration="none" x="400" y="60">UNREGISTERED</text><text fill="#eeeeee" stroke="none" font-family="Arial" font-size="24px" font-style="normal" font-weight="normal" text-decoration="none" x="400" y="90">UNREGISTERED</text><text fill="#eeeeee" stroke="none" font-family="Arial" font-size="24px" font-style="normal" font-weight="normal" text-decoration="none" x="400" y="120">UNREGISTERED</text><text fill="#eeeeee" stroke="none" font-family="Arial" font-size="24px" font-style="normal" font-weight="normal" text-decoration="none" x="400" y="150">UNREGISTERED</text><text fill="#eeeeee" stroke="none" font-family="Arial" font-size="24px" font-style="normal" font-weight="normal" text-decoration="none" x="400" y="180">UNREGISTERED</text><text fill="#eeeeee" stroke="none" font-family="Arial" font-size="24px" font-style="normal" font-weight="normal" text-decoration="none" x="400" y="210">UNREGISTERED</text><text fill="#eeeeee" stroke="none" font-family="Arial" font-size="24px" font-style="normal" font-weight="normal" text-decoration="none" x="400" y="240">UNREGISTERED</text><text fill="#eeeeee" stroke="none" font-family="Arial" font-size="24px" font-style="normal" font-weight="normal" text-decoration="none" x="400" y="270">UNREGISTERED</text><text fill="#eeeeee" stroke="none" font-family="Arial" font-size="24px" font-style="normal" font-weight="normal" text-decoration="none" x="400" y="300">UNREGISTERED</text><text fill="#eeeeee" stroke="none" font-family="Arial" font-size="24px" font-style="normal" font-weight="normal" text-decoration="none" x="400" y="330">UNREGISTERED</text><text fill="#eeeeee" stroke="none" font-family="Arial" font-size="24px" font-style="normal" font-weight="normal" text-decoration="none" x="400" y="360">UNREGISTERED</text><text fill="#eeeeee" stroke="none" font-family="Arial" font-size="24px" font-style="normal" font-weight="normal" text-decoration="none" x="400" y="390">UNREGISTERED</text><text fill="#eeeeee" stroke="none" font-family="Arial" font-size="24px" font-style="normal" font-weight="normal" text-decoration="none" x="400" y="420">UNREGISTERED</text><text fill="#eeeeee" stroke="none" font-family="Arial" font-size="24px" font-style="normal" font-weight="normal" text-decoration="none" x="400" y="450">UNREGISTERED</text><text fill="#eeeeee" stroke="none" font-family="Arial" font-size="24px" font-style="normal" font-weight="normal" text-decoration="none" x="400" y="480">UNREGISTERED</text><text fill="#eeeeee" stroke="none" font-family="Arial" font-size="24px" font-style="normal" font-weight="normal" text-decoration="none" x="400" y="510">UNREGISTERED</text><g transform="translate(-29,2) scale(1,1)"><path fill="#C0C0C0" stroke="none" d="M 215 104.5 C 215 99.2532944 219.2532944 95 224.5 95 C 229.7467056 95 234 99.2532944 234 104.5 C 234 109.7467056 229.7467056 114 224.5 114 C 219.2532944 114 215 109.7467056 215 104.5 Z" opacity="0.2"/></g><g transform="translate(-29,2) scale(1,1)"><path fill="#000000" stroke="none" d="M 208 97.5 C 208 92.2532944 212.2532944 88 217.5 88 C 222.7467056 88 227 92.2532944 227 97.5 C 227 102.7467056 222.7467056 107 217.5 107 C 212.2532944 107 208 102.7467056 208 97.5 Z"/></g><g transform="translate(-29,2) scale(1,1)"><path fill="#C0C0C0" stroke="none" d="M 199 507.5 C 199 500.59644 204.59644 495 211.5 495 C 218.40356 495 224 500.59644 224 507.5 C 224 514.40356 218.40356 520 211.5 520 C 204.59644 520 199 514.40356 199 507.5 Z" opacity="0.2"/></g><g transform="translate(-29,2) scale(1,1)"><path fill="none" stroke="#000000" d="M 192 500.5 C 192 493.59644 197.59644 488 204.5 488 C 211.40356 488 217 493.59644 217 500.5 C 217 507.40356 211.40356 513 204.5 513 C 197.59644 513 192 507.40356 192 500.5 Z" stroke-miterlimit="10"/></g><g transform="translate(-29,2) scale(1,1)"><path fill="#000000" stroke="none" d="M 197 500.5 C 197 496.357864 200.357864 493 204.5 493 C 208.642136 493 212 496.357864 212 500.5 C 212 504.642136 208.642136 508 204.5 508 C 200.357864 508 197 504.642136 197 500.5 Z"/></g><g transform="translate(-29,2) scale(1,1)"><path fill="#C0C0C0" stroke="none" d="M 193 167 L 242 167 Q 252 167 252 177 L 252 196 Q 252 206 242 206 L 193 206 Q 183 206 183 196 L 183 177 Q 183 167 193 167 Z" opacity="0.2"/></g><g transform="translate(-29,2) scale(1,1)"><path fill="#ffffff" stroke="none" d="M 186 160 L 235 160 Q 245 160 245 170 L 245 189 Q 245 199 235 199 L 186 199 Q 176 199 176 189 L 176 170 Q 176 160 186 160 Z"/></g><g transform="translate(-29,2) scale(1,1)"><path fill="none" stroke="#000000" d="M 186 160 L 235 160 Q 245 160 245 170 L 245 189 Q 245 199 235 199 L 186 199 Q 176 199 176 189 L 176 170 Q 176 160 186 160 Z" stroke-miterlimit="10"/></g><g transform="translate(-29,2) scale(1,1)"><g><path fill="none" stroke="none"/><text fill="#000000" stroke="none" font-family="Arial" font-size="12px" font-style="normal" font-weight="bold" text-decoration="none" x="183.4794921875" y="178.5">disponible</text></g></g><g transform="translate(-29,2) scale(1,1)"><path fill="#C0C0C0" stroke="none" d="M 329 263 L 372.673828125 263 Q 382.673828125 263 382.673828125 273 L 382.673828125 292 Q 382.673828125 302 372.673828125 302 L 329 302 Q 319 302 319 292 L 319 273 Q 319 263 329 263 Z" opacity="0.2"/></g><g transform="translate(-29,2) scale(1,1)"><path fill="#ffffff" stroke="none" d="M 322 256 L 365.673828125 256 Q 375.673828125 256 375.673828125 266 L 375.673828125 285 Q 375.673828125 295 365.673828125 295 L 322 295 Q 312 295 312 285 L 312 266 Q 312 256 322 256 Z"/></g><g transform="translate(-29,2) scale(1,1)"><path fill="none" stroke="#000000" d="M 322 256 L 365.673828125 256 Q 375.673828125 256 375.673828125 266 L 375.673828125 285 Q 375.673828125 295 365.673828125 295 L 322 295 Q 312 295 312 285 L 312 266 Q 312 256 322 256 Z" stroke-miterlimit="10"/></g><g transform="translate(-29,2) scale(1,1)"><g><path fill="none" stroke="none"/><text fill="#000000" stroke="none" font-family="Arial" font-size="12px" font-style="normal" font-weight="bold" text-decoration="none" x="318.4892578125" y="274.5">emprunté</text></g></g><g transform="translate(-29,2) scale(1,1)"><path fill="#C0C0C0" stroke="none" d="M 177 287 L 216 287 Q 226 287 226 297 L 226 316 Q 226 326 216 326 L 177 326 Q 167 326 167 316 L 167 297 Q 167 287 177 287 Z" opacity="0.2"/></g><g transform="translate(-29,2) scale(1,1)"><path fill="#ffffff" stroke="none" d="M 170 280 L 209 280 Q 219 280 219 290 L 219 309 Q 219 319 209 319 L 170 319 Q 160 319 160 309 L 160 290 Q 160 280 170 280 Z"/></g><g transform="translate(-29,2) scale(1,1)"><path fill="none" stroke="#000000" d="M 170 280 L 209 280 Q 219 280 219 290 L 219 309 Q 219 319 209 319 L 170 319 Q 160 319 160 309 L 160 290 Q 160 280 170 280 Z" stroke-miterlimit="10"/></g><g transform="translate(-29,2) scale(1,1)"><g><path fill="none" stroke="none"/><text fill="#000000" stroke="none" font-family="Arial" font-size="12px" font-style="normal" font-weight="bold" text-decoration="none" x="174.154296875" y="298.5">rendu</text></g></g><g transform="translate(-29,2) scale(1,1)"><path fill="none" stroke="#000000" d="M 216 108 L 212 159" stroke-miterlimit="10"/></g><g transform="translate(-29,2) scale(1,1)"><path fill="none" stroke="#000000" d="M 208.59800239983028 148.53929197767 L 212 159 L 216.99126200594168 149.19758684873756" stroke-miterlimit="10"/></g><g transform="translate(-29,2) scale(1,1)"><g><path fill="none" stroke="none"/><text fill="#000000" stroke="none" font-family="Arial" font-size="12px" font-style="normal" font-weight="normal" text-decoration="none" x="221.5" y="138.5">rangé</text></g></g><g transform="translate(-29,2) scale(1,1)"><path fill="none" stroke="#000000" d="M 239 200 L 315 255" stroke-miterlimit="10"/></g><g transform="translate(-29,2) scale(1,1)"><path fill="none" stroke="#000000" d="M 304.2991391061872 252.45214283538724 L 315 255 L 309.2349557760435 245.63174161885865" stroke-miterlimit="10"/></g><g transform="translate(-29,2) scale(1,1)"><g><path fill="none" stroke="none"/><text fill="#000000" stroke="none" font-family="Arial" font-size="12px" font-style="normal" font-weight="normal" text-decoration="none" x="246.5" y="226.5">emprunté par abonné</text></g></g><g transform="translate(-29,2) scale(1,1)"><g><path fill="none" stroke="none"/><text fill="#000000" stroke="none" font-family="Arial" font-size="12px" font-style="normal" font-weight="normal" text-decoration="none" x="245" y="81">acheté</text><text fill="#000000" stroke="none" font-family="Arial" font-size="12px" font-style="normal" font-weight="normal" text-decoration="none" x="245" y="93">et</text><text fill="#000000" stroke="none" font-family="Arial" font-size="12px" font-style="normal" font-weight="normal" text-decoration="none" x="245" y="105">intégré</text></g></g><g transform="translate(-29,2) scale(1,1)"><path fill="none" stroke="#000000" d="M 311 280 L 220 294" stroke-miterlimit="10"/></g><g transform="translate(-29,2) scale(1,1)"><path fill="none" stroke="#000000" d="M 229.40441278465448 288.29412406585743 L 220 294 L 230.684587618748 296.61526048746526" stroke-miterlimit="10"/></g><g transform="translate(-29,2) scale(1,1)"><g><path fill="none" stroke="none"/><text fill="#000000" stroke="none" font-family="Arial" font-size="12px" font-style="normal" font-weight="normal" text-decoration="none" x="251.5" y="306.5">rendu</text></g></g><g transform="translate(-29,2) scale(1,1)"><path fill="none" stroke="#000000" d="M 193 279 L 206 200" stroke-miterlimit="10"/></g><g transform="translate(-29,2) scale(1,1)"><path fill="none" stroke="#000000" d="M 208.5035090166966 210.71132310236783 L 206 200 L 200.1961990013034 209.34429740363225" stroke-miterlimit="10"/></g><g transform="translate(-29,2) scale(1,1)"><g><path fill="none" stroke="none"/><text fill="#000000" stroke="none" font-family="Arial" font-size="12px" font-style="normal" font-weight="normal" text-decoration="none" x="94.5" y="240.5">rangé [en bon état]</text></g></g><g transform="translate(-29,2) scale(1,1)"><g><path fill="none" stroke="none"/><text fill="#000000" stroke="none" font-family="Arial" font-size="12px" font-style="normal" font-weight="normal" text-decoration="none" x="69" y="25">Diagramme d'états pour exemplaire (cycle de vie)</text></g></g><g transform="translate(-29,2) scale(1,1)"><g><path fill="none" stroke="none"/><text fill="#000000" stroke="none" font-family="Arial" font-size="12px" font-style="normal" font-weight="normal" text-decoration="none" x="221" y="505">supprimé</text></g></g><g transform="translate(-29,2) scale(1,1)"><path fill="#C0C0C0" stroke="none" d="M 329 359 L 372.69140625 359 Q 382.69140625 359 382.69140625 369 L 382.69140625 388 Q 382.69140625 398 372.69140625 398 L 329 398 Q 319 398 319 388 L 319 369 Q 319 359 329 359 Z" opacity="0.2"/></g><g transform="translate(-29,2) scale(1,1)"><path fill="#ffffff" stroke="none" d="M 322 352 L 365.69140625 352 Q 375.69140625 352 375.69140625 362 L 375.69140625 381 Q 375.69140625 391 365.69140625 391 L 322 391 Q 312 391 312 381 L 312 362 Q 312 352 322 352 Z"/></g><g transform="translate(-29,2) scale(1,1)"><path fill="none" stroke="#000000" d="M 322 352 L 365.69140625 352 Q 375.69140625 352 375.69140625 362 L 375.69140625 381 Q 375.69140625 391 365.69140625 391 L 322 391 Q 312 391 312 381 L 312 362 Q 312 352 322 352 Z" stroke-miterlimit="10"/></g><g transform="translate(-29,2) scale(1,1)"><g><path fill="none" stroke="none"/><text fill="#000000" stroke="none" font-family="Arial" font-size="12px" font-style="normal" font-weight="bold" text-decoration="none" x="318.1611328125" y="370.5">en_retard</text></g></g><g transform="translate(-29,2) scale(1,1)"><path fill="#C0C0C0" stroke="none" d="M 185 407 L 252.01171875 407 Q 262.01171875 407 262.01171875 417 L 262.01171875 436 Q 262.01171875 446 252.01171875 446 L 185 446 Q 175 446 175 436 L 175 417 Q 175 407 185 407 Z" opacity="0.2"/></g><g transform="translate(-29,2) scale(1,1)"><path fill="#ffffff" stroke="none" d="M 178 400 L 245.01171875 400 Q 255.01171875 400 255.01171875 410 L 255.01171875 429 Q 255.01171875 439 245.01171875 439 L 178 439 Q 168 439 168 429 L 168 410 Q 168 400 178 400 Z"/></g><g transform="translate(-29,2) scale(1,1)"><path fill="none" stroke="#000000" d="M 178 400 L 245.01171875 400 Q 255.01171875 400 255.01171875 410 L 255.01171875 429 Q 255.01171875 439 245.01171875 439 L 178 439 Q 168 439 168 429 L 168 410 Q 168 400 178 400 Z" stroke-miterlimit="10"/></g><g transform="translate(-29,2) scale(1,1)"><g><path fill="none" stroke="none"/><text fill="#000000" stroke="none" font-family="Arial" font-size="12px" font-style="normal" font-weight="bold" text-decoration="none" x="174.4775390625" y="418.5">perdu_ou_HS</text></g></g><g transform="translate(-29,2) scale(1,1)"><path fill="none" stroke="#000000" d="M 311 383 L 256 403" stroke-miterlimit="10"/></g><g transform="translate(-29,2) scale(1,1)"><path fill="none" stroke="#000000" d="M 264.1122415041877 395.57089926183966 L 256 403 L 266.9893884883052 403.4830534681629" stroke-miterlimit="10"/></g><g transform="translate(-29,2) scale(1,1)"><g><path fill="none" stroke="none"/><text fill="#000000" stroke="none" font-family="Arial" font-size="12px" font-style="normal" font-weight="normal" text-decoration="none" x="260.5" y="415.5">after 90 jours</text></g></g><g transform="translate(-29,2) scale(1,1)"><path fill="#ffffff" stroke="none" d="M 416 376 L 474 376 L 484 386 L 484 434 L 416 434 L 416 376"/></g><g transform="translate(-29,2) scale(1,1)"><path fill="none" stroke="#000000" d="M 416 376 L 474 376 L 484 386 L 484 434 L 416 434 L 416 376 L 416 376" stroke-miterlimit="10"/></g><g transform="translate(-29,2) scale(1,1)"><path fill="none" stroke="#000000" d="M 474 376 L 474 386 L 484 386 L 474 376" stroke-miterlimit="10"/></g><g transform="translate(-29,2) scale(1,1)"><g><path fill="none" stroke="none"/><text fill="#000000" stroke="none" font-family="Arial" font-size="12px" font-style="normal" font-weight="normal" text-decoration="none" x="421" y="393">relancer le</text><text fill="#000000" stroke="none" font-family="Arial" font-size="12px" font-style="normal" font-weight="normal" text-decoration="none" x="421" y="405">client par</text><text fill="#000000" stroke="none" font-family="Arial" font-size="12px" font-style="normal" font-weight="normal" text-decoration="none" x="421" y="417">email si</text><text fill="#000000" stroke="none" font-family="Arial" font-size="12px" font-style="normal" font-weight="normal" text-decoration="none" x="421" y="429">retard</text></g></g><g transform="translate(-29,2) scale(1,1)"><path fill="none" stroke="#000000" d="M 343 296 L 343 351" stroke-miterlimit="10"/></g><g transform="translate(-29,2) scale(1,1)"><path fill="none" stroke="#000000" d="M 338.790482243984 340.83732514237585 L 343 351 L 347.209517756016 340.83732514237585" stroke-miterlimit="10"/></g><g transform="translate(-29,2) scale(1,1)"><g><path fill="none" stroke="none"/><text fill="#000000" stroke="none" font-family="Arial" font-size="12px" font-style="normal" font-weight="normal" text-decoration="none" x="352.5" y="317.5">after 30 jours</text></g></g><g transform="translate(-29,2) scale(1,1)"><path fill="none" stroke="#000000" d="M 415 394 L 377 382" stroke-miterlimit="10" stroke-dasharray="3"/></g><g transform="translate(-29,2) scale(1,1)"><path fill="#C0C0C0" stroke="none" d="M 57 351 L 125.359375 351 Q 135.359375 351 135.359375 361 L 135.359375 380 Q 135.359375 390 125.359375 390 L 57 390 Q 47 390 47 380 L 47 361 Q 47 351 57 351 Z" opacity="0.2"/></g><g transform="translate(-29,2) scale(1,1)"><path fill="#ffffff" stroke="none" d="M 50 344 L 118.359375 344 Q 128.359375 344 128.359375 354 L 128.359375 373 Q 128.359375 383 118.359375 383 L 50 383 Q 40 383 40 373 L 40 354 Q 40 344 50 344 Z"/></g><g transform="translate(-29,2) scale(1,1)"><path fill="none" stroke="#000000" d="M 50 344 L 118.359375 344 Q 128.359375 344 128.359375 354 L 128.359375 373 Q 128.359375 383 118.359375 383 L 50 383 Q 40 383 40 373 L 40 354 Q 40 344 50 344 Z" stroke-miterlimit="10"/></g><g transform="translate(-29,2) scale(1,1)"><g><path fill="none" stroke="none"/><text fill="#000000" stroke="none" font-family="Arial" font-size="12px" font-style="normal" font-weight="bold" text-decoration="none" x="47.1513671875" y="362.5">en_reparation</text></g></g><g transform="translate(-29,2) scale(1,1)"><path fill="none" stroke="#000000" d="M 311 356 L 220 313" stroke-miterlimit="10"/></g><g transform="translate(-29,2) scale(1,1)"><path fill="none" stroke="#000000" d="M 230.98694223366348 313.53581746345327 L 220 313 L 227.39006119604235 321.14782151981433" stroke-miterlimit="10"/></g><g transform="translate(-29,2) scale(1,1)"><g><path fill="none" stroke="none"/><text fill="#000000" stroke="none" font-family="Arial" font-size="12px" font-style="normal" font-weight="normal" text-decoration="none" x="185.5" y="352.5">rendu en retard</text></g></g><g transform="translate(-29,2) scale(1,1)"><path fill="none" stroke="#000000" d="M 159 317 L 117 343" stroke-miterlimit="10"/></g><g transform="translate(-29,2) scale(1,1)"><path fill="none" stroke="#000000" d="M 123.4252691323706 334.07162295954043 L 117 343 L 127.8566673247471 341.23003542414864" stroke-miterlimit="10"/></g><g transform="translate(-29,2) scale(1,1)"><g><path fill="none" stroke="none"/><text fill="#000000" stroke="none" font-family="Arial" font-size="12px" font-style="normal" font-weight="normal" text-decoration="none" x="126.5" y="345.5"> [abimé]</text></g></g><g transform="translate(-29,2) scale(1,1)"><path fill="none" stroke="#000000" d="M 129 383 L 167 400" stroke-miterlimit="10"/></g><g transform="translate(-29,2) scale(1,1)"><path fill="none" stroke="#000000" d="M 156.00430072111754 399.6924331481061 L 167 400 L 159.44234908265656 392.0073838693718" stroke-miterlimit="10"/></g><g transform="translate(-29,2) scale(1,1)"><g><path fill="none" stroke="none"/><text fill="#000000" stroke="none" font-family="Arial" font-size="12px" font-style="normal" font-weight="normal" text-decoration="none" x="136.5" y="374.5"> [pas réparable]</text></g></g><g transform="translate(-29,2) scale(1,1)"><path fill="none" stroke="#000000" d="M 70 343 L 48 312 L 48 184 L 175 180" stroke-miterlimit="10"/></g><g transform="translate(-29,2) scale(1,1)"><path fill="none" stroke="#000000" d="M 164.9748796158776 184.52735698657102 L 175 180 L 164.7098445681189 176.11249422023224" stroke-miterlimit="10"/></g><g transform="translate(-29,2) scale(1,1)"><g><path fill="none" stroke="none"/><text fill="#000000" stroke="none" font-family="Arial" font-size="12px" font-style="normal" font-weight="normal" text-decoration="none" x="38.5" y="169.5">rangé [réparé]</text></g></g><g transform="translate(-29,2) scale(1,1)"><path fill="none" stroke="#000000" d="M 209 440 L 205 487" stroke-miterlimit="10"/></g><g transform="translate(-29,2) scale(1,1)"><path fill="none" stroke="#000000" d="M 201.66743800094952 476.5169646322029 L 205 487 L 210.05614820773457 477.2308974157591" stroke-miterlimit="10"/></g><g transform="translate(-29,2) scale(1,1)"><path fill="#ffffff" stroke="none" d="M 48 440 L 136.0390625 440 L 146.0390625 450 L 146.0390625 510 L 48 510 L 48 440"/></g><g transform="translate(-29,2) scale(1,1)"><path fill="none" stroke="#000000" d="M 48 440 L 136.0390625 440 L 146.0390625 450 L 146.0390625 510 L 48 510 L 48 440 L 48 440" stroke-miterlimit="10"/></g><g transform="translate(-29,2) scale(1,1)"><path fill="none" stroke="#000000" d="M 136.0390625 440 L 136.0390625 450 L 146.0390625 450 L 136.0390625 440" stroke-miterlimit="10"/></g><g transform="translate(-29,2) scale(1,1)"><g><path fill="none" stroke="none"/><text fill="#000000" stroke="none" font-family="Arial" font-size="12px" font-style="normal" font-weight="normal" text-decoration="none" x="53" y="457">enregistrement</text><text fill="#000000" stroke="none" font-family="Arial" font-size="12px" font-style="normal" font-weight="normal" text-decoration="none" x="53" y="469">d'un contentieux</text><text fill="#000000" stroke="none" font-family="Arial" font-size="12px" font-style="normal" font-weight="normal" text-decoration="none" x="53" y="481">à régler par la</text><text fill="#000000" stroke="none" font-family="Arial" font-size="12px" font-style="normal" font-weight="normal" text-decoration="none" x="53" y="493">suite</text></g></g><g transform="translate(-29,2) scale(1,1)"><path fill="none" stroke="#000000" d="M 148 450 L 168 440" stroke-miterlimit="10" stroke-dasharray="3"/></g><g transform="translate(-29,2) scale(1,1)"><path fill="#C0C0C0" stroke="none" d="M 425 175 L 464 175 Q 474 175 474 185 L 474 204 Q 474 214 464 214 L 425 214 Q 415 214 415 204 L 415 185 Q 415 175 425 175 Z" opacity="0.2"/></g><g transform="translate(-29,2) scale(1,1)"><path fill="#ffffff" stroke="none" d="M 418 168 L 457 168 Q 467 168 467 178 L 467 197 Q 467 207 457 207 L 418 207 Q 408 207 408 197 L 408 178 Q 408 168 418 168 Z"/></g><g transform="translate(-29,2) scale(1,1)"><path fill="none" stroke="#000000" d="M 418 168 L 457 168 Q 467 168 467 178 L 467 197 Q 467 207 457 207 L 418 207 Q 408 207 408 197 L 408 178 Q 408 168 418 168 Z" stroke-miterlimit="10"/></g><g transform="translate(-29,2) scale(1,1)"><g><path fill="none" stroke="none"/><text fill="#000000" stroke="none" font-family="Arial" font-size="12px" font-style="normal" font-weight="bold" text-decoration="none" x="417.4931640625" y="186.5">réservé</text></g></g><g transform="translate(-29,2) scale(1,1)"><path fill="none" stroke="#000000" d="M 246 183 L 316 192 L 407 188" stroke-miterlimit="10"/></g><g transform="translate(-29,2) scale(1,1)"><path fill="none" stroke="#000000" d="M 397.03198401318497 192.65173701821155 L 407 188 L 396.66227351087326 184.24082309062106" stroke-miterlimit="10"/></g><g transform="translate(-29,2) scale(1,1)"><path fill="none" stroke="#000000" d="M 415 208 L 364 255" stroke-miterlimit="10"/></g><g transform="translate(-29,2) scale(1,1)"><path fill="none" stroke="#000000" d="M 368.62047362206823 245.01745405681638 L 364 255 L 374.3258941603894 251.2084423005266" stroke-miterlimit="10"/></g><g transform="translate(-29,2) scale(1,1)"><path fill="none" stroke="#000000" d="M 407 178 L 320 152 L 246 170" stroke-miterlimit="10"/></g><g transform="translate(-29,2) scale(1,1)"><path fill="none" stroke="#000000" d="M 254.87981575153802 163.5077837205822 L 246 170 L 256.86966808970567 171.68828777749366" stroke-miterlimit="10"/></g></g></svg>