<svg version="1.1" xmlns="http://www.w3.org/2000/svg" xmlns:xlink="http://www.w3.org/1999/xlink" width="529.4296875" height="273"><defs/><g><text fill="#eeeeee" stroke="none" font-family="Arial" font-size="24px" font-style="normal" font-weight="normal" text-decoration="none" x="0" y="0">UNREGISTERED</text><text fill="#eeeeee" stroke="none" font-family="Arial" font-size="24px" font-style="normal" font-weight="normal" text-decoration="none" x="0" y="30">UNREGISTERED</text><text fill="#eeeeee" stroke="none" font-family="Arial" font-size="24px" font-style="normal" font-weight="normal" text-decoration="none" x="0" y="60">UNREGISTERED</text><text fill="#eeeeee" stroke="none" font-family="Arial" font-size="24px" font-style="normal" font-weight="normal" text-decoration="none" x="0" y="90">UNREGISTERED</text><text fill="#eeeeee" stroke="none" font-family="Arial" font-size="24px" font-style="normal" font-weight="normal" text-decoration="none" x="0" y="120">UNREGISTERED</text><text fill="#eeeeee" stroke="none" font-family="Arial" font-size="24px" font-style="normal" font-weight="normal" text-decoration="none" x="0" y="150">UNREGISTERED</text><text fill="#eeeeee" stroke="none" font-family="Arial" font-size="24px" font-style="normal" font-weight="normal" text-decoration="none" x="0" y="180">UNREGISTERED</text><text fill="#eeeeee" stroke="none" font-family="Arial" font-size="24px" font-style="normal" font-weight="normal" text-decoration="none" x="0" y="210">UNREGISTERED</text><text fill="#eeeeee" stroke="none" font-family="Arial" font-size="24px" font-style="normal" font-weight="normal" text-decoration="none" x="0" y="240">UNREGISTERED</text><text fill="#eeeeee" stroke="none" font-family="Arial" font-size="24px" font-style="normal" font-weight="normal" text-decoration="none" x="0" y="270">UNREGISTERED</text><text fill="#eeeeee" stroke="none" font-family="Arial" font-size="24px" font-style="normal" font-weight="normal" text-decoration="none" x="200" y="0">UNREGISTERED</text><text fill="#eeeeee" stroke="none" font-family="Arial" font-size="24px" font-style="normal" font-weight="normal" text-decoration="none" x="200" y="30">UNREGISTERED</text><text fill="#eeeeee" stroke="none" font-family="Arial" font-size="24px" font-style="normal" font-weight="normal" text-decoration="none" x="200" y="60">UNREGISTERED</text><text fill="#eeeeee" stroke="none" font-family="Arial" font-size="24px" font-style="normal" font-weight="normal" text-decoration="none" x="200" y="90">UNREGISTERED</text><text fill="#eeeeee" stroke="none" font-family="Arial" font-size="24px" font-style="normal" font-weight="normal" text-decoration="none" x="200" y="120">UNREGISTERED</text><text fill="#eeeeee" stroke="none" font-family="Arial" font-size="24px" font-style="normal" font-weight="normal" text-decoration="none" x="200" y="150">UNREGISTERED</text><text fill="#eeeeee" stroke="none" font-family="Arial" font-size="24px" font-style="normal" font-weight="normal" text-decoration="none" x="200" y="180">UNREGISTERED</text><text fill="#eeeeee" stroke="none" font-family="Arial" font-size="24px" font-style="normal" font-weight="normal" text-decoration="none" x="200" y="210">UNREGISTERED</text><text fill="#eeeeee" stroke="none" font-family="Arial" font-size="24px" font-style="normal" font-weight="normal" text-decoration="none" x="200" y="240">UNREGISTERED</text><text fill="#eeeeee" stroke="none" font-family="Arial" font-size="24px" font-style="normal" font-weight="normal" text-decoration="none" x="200" y="270">UNREGISTERED</text><text fill="#eeeeee" stroke="none" font-family="Arial" font-size="24px" font-style="normal" font-weight="normal" text-decoration="none" x="400" y="0">UNREGISTERED</text><text fill="#eeeeee" stroke="none" font-family="Arial" font-size="24px" font-style="normal" font-weight="normal" text-decoration="none" x="400" y="30">UNREGISTERED</text><text fill="#eeeeee" stroke="none" font-family="Arial" font-size="24px" font-style="normal" font-weight="normal" text-decoration="none" x="400" y="60">UNREGISTERED</text><text fill="#eeeeee" stroke="none" font-family="Arial" font-size="24px" font-style="normal" font-weight="normal" text-decoration="none" x="400" y="90">UNREGISTERED</text><text fill="#eeeeee" stroke="none" font-family="Arial" font-size="24px" font-style="normal" font-weight="normal" text-decoration="none" x="400" y="120">UNREGISTERED</text><text fill="#eeeeee" stroke="none" font-family="Arial" font-size="24px" font-style="normal" font-weight="normal" text-decoration="none" x="400" y="150">UNREGISTERED</text><text fill="#eeeeee" stroke="none" font-family="Arial" font-size="24px" font-style="normal" font-weight="normal" text-decoration="none" x="400" y="180">UNREGISTERED</text><text fill="#eeeeee" stroke="none" font-family="Arial" font-size="24px" font-style="normal" font-weight="normal" text-decoration="none" x="400" y="210">UNREGISTERED</text><text fill="#eeeeee" stroke="none" font-family="Arial" font-size="24px" font-style="normal" font-weight="normal" text-decoration="none" x="400" y="240">UNREGISTERED</text><text fill="#eeeeee" stroke="none" font-family="Arial" font-size="24px" font-style="normal" font-weight="normal" text-decoration="none" x="400" y="270">UNREGISTERED</text><g transform="translate(-46,-62) scale(1,1)"><rect fill="#C0C0C0" stroke="none" x="63" y="79" width="86.044921875" height="97" opacity="0.2"/></g><g transform="translate(-46,-62) scale(1,1)"><rect fill="#ffffff" stroke="none" x="56" y="72" width="86.044921875" height="97"/></g><g transform="translate(-46,-62) scale(1,1)"><path fill="none" stroke="#000000" d="M 56 72 L 142.044921875 72 L 142.044921875 169 L 56 169 L 56 72 Z Z" stroke-miterlimit="10"/></g><g transform="translate(-46,-62) scale(1,1)"><path fill="none" stroke="#000000" d="M 56 96 L 142.044921875 96" stroke-miterlimit="10"/></g><g transform="translate(-46,-62) scale(1,1)"><path fill="none" stroke="#000000" d="M 56 160 L 142.044921875 160" stroke-miterlimit="10"/></g><g transform="translate(-46,-62) scale(1,1)"><g><path fill="none" stroke="none"/><text fill="#000000" stroke="none" font-family="Arial" font-size="12px" font-style="normal" font-weight="bold" text-decoration="none" x="79.3466796875" y="90.5">Oeuvre</text></g></g><g transform="translate(-46,-62) scale(1,1)"><g><path fill="none" stroke="none"/><text fill="#000000" stroke="none" font-family="Arial" font-size="12px" font-style="normal" font-weight="normal" text-decoration="none" x="61" y="112.5">+titre</text></g></g><g transform="translate(-46,-62) scale(1,1)"><g><path fill="none" stroke="none"/><text fill="#000000" stroke="none" font-family="Arial" font-size="12px" font-style="normal" font-weight="normal" text-decoration="none" x="61" y="126.5">+auteur</text></g></g><g transform="translate(-46,-62) scale(1,1)"><g><path fill="none" stroke="none"/><text fill="#000000" stroke="none" font-family="Arial" font-size="12px" font-style="normal" font-weight="normal" text-decoration="none" x="61" y="140.5">+editeur</text></g></g><g transform="translate(-46,-62) scale(1,1)"><g><path fill="none" stroke="none"/><text fill="#000000" stroke="none" font-family="Arial" font-size="12px" font-style="normal" font-weight="normal" text-decoration="none" x="61" y="154.5">+idPublication</text></g></g><g transform="translate(-46,-62) scale(1,1)"><rect fill="#C0C0C0" stroke="none" x="391" y="87" width="181.4296875" height="83" opacity="0.2"/></g><g transform="translate(-46,-62) scale(1,1)"><rect fill="#ffffff" stroke="none" x="384" y="80" width="181.4296875" height="83"/></g><g transform="translate(-46,-62) scale(1,1)"><path fill="none" stroke="#000000" d="M 384 80 L 565.4296875 80 L 565.4296875 163 L 384 163 L 384 80 Z Z" stroke-miterlimit="10"/></g><g transform="translate(-46,-62) scale(1,1)"><path fill="none" stroke="#000000" d="M 384 104 L 565.4296875 104" stroke-miterlimit="10"/></g><g transform="translate(-46,-62) scale(1,1)"><path fill="none" stroke="#000000" d="M 384 154 L 565.4296875 154" stroke-miterlimit="10"/></g><g transform="translate(-46,-62) scale(1,1)"><g><path fill="none" stroke="none"/><text fill="#000000" stroke="none" font-family="Arial" font-size="12px" font-style="normal" font-weight="bold" text-decoration="none" x="444.703125" y="98.5">Exemplaire</text></g></g><g transform="translate(-46,-62) scale(1,1)"><g><path fill="none" stroke="none"/><text fill="#000000" stroke="none" font-family="Arial" font-size="12px" font-style="normal" font-weight="normal" text-decoration="none" x="389" y="120.5">+numero {id}</text></g></g><g transform="translate(-46,-62) scale(1,1)"><g><path fill="none" stroke="none"/><text fill="#000000" stroke="none" font-family="Arial" font-size="12px" font-style="normal" font-weight="normal" text-decoration="none" x="389" y="134.5">+etatPhysique: EtatExemplaire</text></g></g><g transform="translate(-46,-62) scale(1,1)"><g><path fill="none" stroke="none"/><text fill="#000000" stroke="none" font-family="Arial" font-size="12px" font-style="normal" font-weight="normal" text-decoration="none" x="389" y="148.5">+usage: UsageExemplaire</text></g></g><g transform="translate(-46,-62) scale(1,1)"><path fill="none" stroke="#000000" d="M 143 120 L 383 121" stroke-miterlimit="10"/></g><g transform="translate(-46,-62) scale(1,1)"><g><path fill="none" stroke="none"/><text fill="#000000" stroke="none" font-family="Arial" font-size="12px" font-style="normal" font-weight="normal" text-decoration="none" x="147.5" y="110.5">+oeuvre</text></g></g><g transform="translate(-46,-62) scale(1,1)"><g><path fill="none" stroke="none"/><text fill="#000000" stroke="none" font-family="Arial" font-size="12px" font-style="normal" font-weight="normal" text-decoration="none" x="160.5" y="137.5">1</text></g></g><g transform="translate(-46,-62) scale(1,1)"><g><path fill="none" stroke="none"/><text fill="#000000" stroke="none" font-family="Arial" font-size="12px" font-style="normal" font-weight="normal" text-decoration="none" x="358.1650390625" y="138.5">*</text></g></g><g transform="translate(-46,-62) scale(1,1)"><rect fill="#C0C0C0" stroke="none" x="391" y="207" width="116.396484375" height="85" opacity="0.2"/></g><g transform="translate(-46,-62) scale(1,1)"><rect fill="#ffffff" stroke="none" x="384" y="200" width="116.396484375" height="85"/></g><g transform="translate(-46,-62) scale(1,1)"><path fill="none" stroke="#000000" d="M 384 200 L 500.396484375 200 L 500.396484375 285 L 384 285 L 384 200 Z Z" stroke-miterlimit="10"/></g><g transform="translate(-46,-62) scale(1,1)"><path fill="none" stroke="#000000" d="M 384 236 L 500.396484375 236" stroke-miterlimit="10"/></g><g transform="translate(-46,-62) scale(1,1)"><g><path fill="none" stroke="none"/><text fill="#000000" stroke="none" font-family="Arial" font-size="12px" font-style="normal" font-weight="normal" text-decoration="none" x="402.169921875" y="216.5">«enumeration»</text></g></g><g transform="translate(-46,-62) scale(1,1)"><g><path fill="none" stroke="none"/><text fill="#000000" stroke="none" font-family="Arial" font-size="12px" font-style="normal" font-weight="bold" text-decoration="none" x="401.513671875" y="230.5">EtatExemplaire</text></g></g><g transform="translate(-46,-62) scale(1,1)"><g><path fill="none" stroke="none"/><text fill="#000000" stroke="none" font-family="Arial" font-size="12px" font-style="normal" font-weight="normal" text-decoration="none" x="389" y="252.5">BON_ETAT</text></g></g><g transform="translate(-46,-62) scale(1,1)"><g><path fill="none" stroke="none"/><text fill="#000000" stroke="none" font-family="Arial" font-size="12px" font-style="normal" font-weight="normal" text-decoration="none" x="389" y="266.5">ABIME</text></g></g><g transform="translate(-46,-62) scale(1,1)"><g><path fill="none" stroke="none"/><text fill="#000000" stroke="none" font-family="Arial" font-size="12px" font-style="normal" font-weight="normal" text-decoration="none" x="389" y="280.5">HS</text></g></g><g transform="translate(-46,-62) scale(1,1)"><rect fill="#C0C0C0" stroke="none" x="199" y="191" width="116.396484375" height="141" opacity="0.2"/></g><g transform="translate(-46,-62) scale(1,1)"><rect fill="#ffffff" stroke="none" x="192" y="184" width="116.396484375" height="141"/></g><g transform="translate(-46,-62) scale(1,1)"><path fill="none" stroke="#000000" d="M 192 184 L 308.396484375 184 L 308.396484375 325 L 192 325 L 192 184 Z Z" stroke-miterlimit="10"/></g><g transform="translate(-46,-62) scale(1,1)"><path fill="none" stroke="#000000" d="M 192 220 L 308.396484375 220" stroke-miterlimit="10"/></g><g transform="translate(-46,-62) scale(1,1)"><g><path fill="none" stroke="none"/><text fill="#000000" stroke="none" font-family="Arial" font-size="12px" font-style="normal" font-weight="normal" text-decoration="none" x="210.169921875" y="200.5">«enumeration»</text></g></g><g transform="translate(-46,-62) scale(1,1)"><g><path fill="none" stroke="none"/><text fill="#000000" stroke="none" font-family="Arial" font-size="12px" font-style="normal" font-weight="bold" text-decoration="none" x="202.8427734375" y="214.5">UsageExemplaire</text></g></g><g transform="translate(-46,-62) scale(1,1)"><g><path fill="none" stroke="none"/><text fill="#000000" stroke="none" font-family="Arial" font-size="12px" font-style="normal" font-weight="normal" text-decoration="none" x="197" y="236.5">DISPONIBLE</text></g></g><g transform="translate(-46,-62) scale(1,1)"><g><path fill="none" stroke="none"/><text fill="#000000" stroke="none" font-family="Arial" font-size="12px" font-style="normal" font-weight="normal" text-decoration="none" x="197" y="250.5">EMPRUNTE</text></g></g><g transform="translate(-46,-62) scale(1,1)"><g><path fill="none" stroke="none"/><text fill="#000000" stroke="none" font-family="Arial" font-size="12px" font-style="normal" font-weight="normal" text-decoration="none" x="197" y="264.5">REPARATION</text></g></g><g transform="translate(-46,-62) scale(1,1)"><g><path fill="none" stroke="none"/><text fill="#000000" stroke="none" font-family="Arial" font-size="12px" font-style="normal" font-weight="normal" text-decoration="none" x="197" y="278.5">RESERVE</text></g></g><g transform="translate(-46,-62) scale(1,1)"><g><path fill="none" stroke="none"/><text fill="#000000" stroke="none" font-family="Arial" font-size="12px" font-style="normal" font-weight="normal" text-decoration="none" x="197" y="292.5">EN_RETARD</text></g></g><g transform="translate(-46,-62) scale(1,1)"><g><path fill="none" stroke="none"/><text fill="#000000" stroke="none" font-family="Arial" font-size="12px" font-style="normal" font-weight="normal" text-decoration="none" x="197" y="306.5">RENDU</text></g></g><g transform="translate(-46,-62) scale(1,1)"><g><path fill="none" stroke="none"/><text fill="#000000" stroke="none" font-family="Arial" font-size="12px" font-style="normal" font-weight="normal" text-decoration="none" x="197" y="320.5">PERDU_OU_HS</text></g></g></g></svg>