<svg version="1.1" xmlns="http://www.w3.org/2000/svg" xmlns:xlink="http://www.w3.org/1999/xlink" width="820" height="700"><defs/><g><text fill="#eeeeee" stroke="none" font-family="Arial" font-size="24px" font-style="normal" font-weight="normal" text-decoration="none" x="0" y="0">UNREGISTERED</text><text fill="#eeeeee" stroke="none" font-family="Arial" font-size="24px" font-style="normal" font-weight="normal" text-decoration="none" x="0" y="30">UNREGISTERED</text><text fill="#eeeeee" stroke="none" font-family="Arial" font-size="24px" font-style="normal" font-weight="normal" text-decoration="none" x="0" y="60">UNREGISTERED</text><text fill="#eeeeee" stroke="none" font-family="Arial" font-size="24px" font-style="normal" font-weight="normal" text-decoration="none" x="0" y="90">UNREGISTERED</text><text fill="#eeeeee" stroke="none" font-family="Arial" font-size="24px" font-style="normal" font-weight="normal" text-decoration="none" x="0" y="120">UNREGISTERED</text><text fill="#eeeeee" stroke="none" font-family="Arial" font-size="24px" font-style="normal" font-weight="normal" text-decoration="none" x="0" y="150">UNREGISTERED</text><text fill="#eeeeee" stroke="none" font-family="Arial" font-size="24px" font-style="normal" font-weight="normal" text-decoration="none" x="0" y="180">UNREGISTERED</text><text fill="#eeeeee" stroke="none" font-family="Arial" font-size="24px" font-style="normal" font-weight="normal" text-decoration="none" x="0" y="210">UNREGISTERED</text><text fill="#eeeeee" stroke="none" font-family="Arial" font-size="24px" font-style="normal" font-weight="normal" text-decoration="none" x="0" y="240">UNREGISTERED</text><text fill="#eeeeee" stroke="none" font-family="Arial" font-size="24px" font-style="normal" font-weight="normal" text-decoration="none" x="0" y="270">UNREGISTERED</text><text fill="#eeeeee" stroke="none" font-family="Arial" font-size="24px" font-style="normal" font-weight="normal" text-decoration="none" x="0" y="300">UNREGISTERED</text><text fill="#eeeeee" stroke="none" font-family="Arial" font-size="24px" font-style="normal" font-weight="normal" text-decoration="none" x="0" y="330">UNREGISTERED</text><text fill="#eeeeee" stroke="none" font-family="Arial" font-size="24px" font-style="normal" font-weight="normal" text-decoration="none" x="0" y="360">UNREGISTERED</text><text fill="#eeeeee" stroke="none" font-family="Arial" font-size="24px" font-style="normal" font-weight="normal" text-decoration="none" x="0" y="390">UNREGISTERED</text><text fill="#eeeeee" stroke="none" font-family="Arial" font-size="24px" font-style="normal" font-weight="normal" text-decoration="none" x="0" y="420">UNREGISTERED</text><text fill="#eeeeee" stroke="none" font-family="Arial" font-size="24px" font-style="normal" font-weight="normal" text-decoration="none" x="0" y="450">UNREGISTERED</text><text fill="#eeeeee" stroke="none" font-family="Arial" font-size="24px" font-style="normal" font-weight="normal" text-decoration="none" x="0" y="480">UNREGISTERED</text><text fill="#eeeeee" stroke="none" font-family="Arial" font-size="24px" font-style="normal" font-weight="normal" text-decoration="none" x="0" y="510">UNREGISTERED</text><text fill="#eeeeee" stroke="none" font-family="Arial" font-size="24px" font-style="normal" font-weight="normal" text-decoration="none" x="0" y="540">UNREGISTERED</text><text fill="#eeeeee" stroke="none" font-family="Arial" font-size="24px" font-style="normal" font-weight="normal" text-decoration="none" x="0" y="570">UNREGISTERED</text><text fill="#eeeeee" stroke="none" font-family="Arial" font-size="24px" font-style="normal" font-weight="normal" text-decoration="none" x="0" y="600">UNREGISTERED</text><text fill="#eeeeee" stroke="none" font-family="Arial" font-size="24px" font-style="normal" font-weight="normal" text-decoration="none" x="0" y="630">UNREGISTERED</text><text fill="#eeeeee" stroke="none" font-family="Arial" font-size="24px" font-style="normal" font-weight="normal" text-decoration="none" x="0" y="660">UNREGISTERED</text><text fill="#eeeeee" stroke="none" font-family="Arial" font-size="24px" font-style="normal" font-weight="normal" text-decoration="none" x="0" y="690">UNREGISTERED</text><text fill="#eeeeee" stroke="none" font-family="Arial" font-size="24px" font-style="normal" font-weight="normal" text-decoration="none" x="200" y="0">UNREGISTERED</text><text fill="#eeeeee" stroke="none" font-family="Arial" font-size="24px" font-style="normal" font-weight="normal" text-decoration="none" x="200" y="30">UNREGISTERED</text><text fill="#eeeeee" stroke="none" font-family="Arial" font-size="24px" font-style="normal" font-weight="normal" text-decoration="none" x="200" y="60">UNREGISTERED</text><text fill="#eeeeee" stroke="none" font-family="Arial" font-size="24px" font-style="normal" font-weight="normal" text-decoration="none" x="200" y="90">UNREGISTERED</text><text fill="#eeeeee" stroke="none" font-family="Arial" font-size="24px" font-style="normal" font-weight="normal" text-decoration="none" x="200" y="120">UNREGISTERED</text><text fill="#eeeeee" stroke="none" font-family="Arial" font-size="24px" font-style="normal" font-weight="normal" text-decoration="none" x="200" y="150">UNREGISTERED</text><text fill="#eeeeee" stroke="none" font-family="Arial" font-size="24px" font-style="normal" font-weight="normal" text-decoration="none" x="200" y="180">UNREGISTERED</text><text fill="#eeeeee" stroke="none" font-family="Arial" font-size="24px" font-style="normal" font-weight="normal" text-decoration="none" x="200" y="210">UNREGISTERED</text><text fill="#eeeeee" stroke="none" font-family="Arial" font-size="24px" font-style="normal" font-weight="normal" text-decoration="none" x="200" y="240">UNREGISTERED</text><text fill="#eeeeee" stroke="none" font-family="Arial" font-size="24px" font-style="normal" font-weight="normal" text-decoration="none" x="200" y="270">UNREGISTERED</text><text fill="#eeeeee" stroke="none" font-family="Arial" font-size="24px" font-style="normal" font-weight="normal" text-decoration="none" x="200" y="300">UNREGISTERED</text><text fill="#eeeeee" stroke="none" font-family="Arial" font-size="24px" font-style="normal" font-weight="normal" text-decoration="none" x="200" y="330">UNREGISTERED</text><text fill="#eeeeee" stroke="none" font-family="Arial" font-size="24px" font-style="normal" font-weight="normal" text-decoration="none" x="200" y="360">UNREGISTERED</text><text fill="#eeeeee" stroke="none" font-family="Arial" font-size="24px" font-style="normal" font-weight="normal" text-decoration="none" x="200" y="390">UNREGISTERED</text><text fill="#eeeeee" stroke="none" font-family="Arial" font-size="24px" font-style="normal" font-weight="normal" text-decoration="none" x="200" y="420">UNREGISTERED</text><text fill="#eeeeee" stroke="none" font-family="Arial" font-size="24px" font-style="normal" font-weight="normal" text-decoration="none" x="200" y="450">UNREGISTERED</text><text fill="#eeeeee" stroke="none" font-family="Arial" font-size="24px" font-style="normal" font-weight="normal" text-decoration="none" x="200" y="480">UNREGISTERED</text><text fill="#eeeeee" stroke="none" font-family="Arial" font-size="24px" font-style="normal" font-weight="normal" text-decoration="none" x="200" y="510">UNREGISTERED</text><text fill="#eeeeee" stroke="none" font-family="Arial" font-size="24px" font-style="normal" font-weight="normal" text-decoration="none" x="200" y="540">UNREGISTERED</text><text fill="#eeeeee" stroke="none" font-family="Arial" font-size="24px" font-style="normal" font-weight="normal" text-decoration="none" x="200" y="570">UNREGISTERED</text><text fill="#eeeeee" stroke="none" font-family="Arial" font-size="24px" font-style="normal" font-weight="normal" text-decoration="none" x="200" y="600">UNREGISTERED</text><text fill="#eeeeee" stroke="none" font-family="Arial" font-size="24px" font-style="normal" font-weight="normal" text-decoration="none" x="200" y="630">UNREGISTERED</text><text fill="#eeeeee" stroke="none" font-family="Arial" font-size="24px" font-style="normal" font-weight="normal" text-decoration="none" x="200" y="660">UNREGISTERED</text><text fill="#eeeeee" stroke="none" font-family="Arial" font-size="24px" font-style="normal" font-weight="normal" text-decoration="none" x="200" y="690">UNREGISTERED</text><text fill="#eeeeee" stroke="none" font-family="Arial" font-size="24px" font-style="normal" font-weight="normal" text-decoration="none" x="400" y="0">UNREGISTERED</text><text fill="#eeeeee" stroke="none" font-family="Arial" font-size="24px" font-style="normal" font-weight="normal" text-decoration="none" x="400" y="30">UNREGISTERED</text><text fill="#eeeeee" stroke="none" font-family="Arial" font-size="24px" font-style="normal" font-weight="normal" text-decoration="none" x="400" y="60">UNREGISTERED</text><text fill="#eeeeee" stroke="none" font-family="Arial" font-size="24px" font-style="normal" font-weight="normal" text-decoration="none" x="400" y="90">UNREGISTERED</text><text fill="#eeeeee" stroke="none" font-family="Arial" font-size="24px" font-style="normal" font-weight="normal" text-decoration="none" x="400" y="120">UNREGISTERED</text><text fill="#eeeeee" stroke="none" font-family="Arial" font-size="24px" font-style="normal" font-weight="normal" text-decoration="none" x="400" y="150">UNREGISTERED</text><text fill="#eeeeee" stroke="none" font-family="Arial" font-size="24px" font-style="normal" font-weight="normal" text-decoration="none" x="400" y="180">UNREGISTERED</text><text fill="#eeeeee" stroke="none" font-family="Arial" font-size="24px" font-style="normal" font-weight="normal" text-decoration="none" x="400" y="210">UNREGISTERED</text><text fill="#eeeeee" stroke="none" font-family="Arial" font-size="24px" font-style="normal" font-weight="normal" text-decoration="none" x="400" y="240">UNREGISTERED</text><text fill="#eeeeee" stroke="none" font-family="Arial" font-size="24px" font-style="normal" font-weight="normal" text-decoration="none" x="400" y="270">UNREGISTERED</text><text fill="#eeeeee" stroke="none" font-family="Arial" font-size="24px" font-style="normal" font-weight="normal" text-decoration="none" x="400" y="300">UNREGISTERED</text><text fill="#eeeeee" stroke="none" font-family="Arial" font-size="24px" font-style="normal" font-weight="normal" text-decoration="none" x="400" y="330">UNREGISTERED</text><text fill="#eeeeee" stroke="none" font-family="Arial" font-size="24px" font-style="normal" font-weight="normal" text-decoration="none" x="400" y="360">UNREGISTERED</text><text fill="#eeeeee" stroke="none" font-family="Arial" font-size="24px" font-style="normal" font-weight="normal" text-decoration="none" x="400" y="390">UNREGISTERED</text><text fill="#eeeeee" stroke="none" font-family="Arial" font-size="24px" font-style="normal" font-weight="normal" text-decoration="none" x="400" y="420">UNREGISTERED</text><text fill="#eeeeee" stroke="none" font-family="Arial" font-size="24px" font-style="normal" font-weight="normal" text-decoration="none" x="400" y="450">UNREGISTERED</text><text fill="#eeeeee" stroke="none" font-family="Arial" font-size="24px" font-style="normal" font-weight="normal" text-decoration="none" x="400" y="480">UNREGISTERED</text><text fill="#eeeeee" stroke="none" font-family="Arial" font-size="24px" font-style="normal" font-weight="normal" text-decoration="none" x="400" y="510">UNREGISTERED</text><text fill="#eeeeee" stroke="none" font-family="Arial" font-size="24px" font-style="normal" font-weight="normal" text-decoration="none" x="400" y="540">UNREGISTERED</text><text fill="#eeeeee" stroke="none" font-family="Arial" font-size="24px" font-style="normal" font-weight="normal" text-decoration="none" x="400" y="570">UNREGISTERED</text><text fill="#eeeeee" stroke="none" font-family="Arial" font-size="24px" font-style="normal" font-weight="normal" text-decoration="none" x="400" y="600">UNREGISTERED</text><text fill="#eeeeee" stroke="none" font-family="Arial" font-size="24px" font-style="normal" font-weight="normal" text-decoration="none" x="400" y="630">UNREGISTERED</text><text fill="#eeeeee" stroke="none" font-family="Arial" font-size="24px" font-style="normal" font-weight="normal" text-decoration="none" x="400" y="660">UNREGISTERED</text><text fill="#eeeeee" stroke="none" font-family="Arial" font-size="24px" font-style="normal" font-weight="normal" text-decoration="none" x="400" y="690">UNREGISTERED</text><text fill="#eeeeee" stroke="none" font-family="Arial" font-size="24px" font-style="normal" font-weight="normal" text-decoration="none" x="600" y="0">UNREGISTERED</text><text fill="#eeeeee" stroke="none" font-family="Arial" font-size="24px" font-style="normal" font-weight="normal" text-decoration="none" x="600" y="30">UNREGISTERED</text><text fill="#eeeeee" stroke="none" font-family="Arial" font-size="24px" font-style="normal" font-weight="normal" text-decoration="none" x="600" y="60">UNREGISTERED</text><text fill="#eeeeee" stroke="none" font-family="Arial" font-size="24px" font-style="normal" font-weight="normal" text-decoration="none" x="600" y="90">UNREGISTERED</text><text fill="#eeeeee" stroke="none" font-family="Arial" font-size="24px" font-style="normal" font-weight="normal" text-decoration="none" x="600" y="120">UNREGISTERED</text><text fill="#eeeeee" stroke="none" font-family="Arial" font-size="24px" font-style="normal" font-weight="normal" text-decoration="none" x="600" y="150">UNREGISTERED</text><text fill="#eeeeee" stroke="none" font-family="Arial" font-size="24px" font-style="normal" font-weight="normal" text-decoration="none" x="600" y="180">UNREGISTERED</text><text fill="#eeeeee" stroke="none" font-family="Arial" font-size="24px" font-style="normal" font-weight="normal" text-decoration="none" x="600" y="210">UNREGISTERED</text><text fill="#eeeeee" stroke="none" font-family="Arial" font-size="24px" font-style="normal" font-weight="normal" text-decoration="none" x="600" y="240">UNREGISTERED</text><text fill="#eeeeee" stroke="none" font-family="Arial" font-size="24px" font-style="normal" font-weight="normal" text-decoration="none" x="600" y="270">UNREGISTERED</text><text fill="#eeeeee" stroke="none" font-family="Arial" font-size="24px" font-style="normal" font-weight="normal" text-decoration="none" x="600" y="300">UNREGISTERED</text><text fill="#eeeeee" stroke="none" font-family="Arial" font-size="24px" font-style="normal" font-weight="normal" text-decoration="none" x="600" y="330">UNREGISTERED</text><text fill="#eeeeee" stroke="none" font-family="Arial" font-size="24px" font-style="normal" font-weight="normal" text-decoration="none" x="600" y="360">UNREGISTERED</text><text fill="#eeeeee" stroke="none" font-family="Arial" font-size="24px" font-style="normal" font-weight="normal" text-decoration="none" x="600" y="390">UNREGISTERED</text><text fill="#eeeeee" stroke="none" font-family="Arial" font-size="24px" font-style="normal" font-weight="normal" text-decoration="none" x="600" y="420">UNREGISTERED</text><text fill="#eeeeee" stroke="none" font-family="Arial" font-size="24px" font-style="normal" font-weight="normal" text-decoration="none" x="600" y="450">UNREGISTERED</text><text fill="#eeeeee" stroke="none" font-family="Arial" font-size="24px" font-style="normal" font-weight="normal" text-decoration="none" x="600" y="480">UNREGISTERED</text><text fill="#eeeeee" stroke="none" font-family="Arial" font-size="24px" font-style="normal" font-weight="normal" text-decoration="none" x="600" y="510">UNREGISTERED</text><text fill="#eeeeee" stroke="none" font-family="Arial" font-size="24px" font-style="normal" font-weight="normal" text-decoration="none" x="600" y="540">UNREGISTERED</text><text fill="#eeeeee" stroke="none" font-family="Arial" font-size="24px" font-style="normal" font-weight="normal" text-decoration="none" x="600" y="570">UNREGISTERED</text><text fill="#eeeeee" stroke="none" font-family="Arial" font-size="24px" font-style="normal" font-weight="normal" text-decoration="none" x="600" y="600">UNREGISTERED</text><text fill="#eeeeee" stroke="none" font-family="Arial" font-size="24px" font-style="normal" font-weight="normal" text-decoration="none" x="600" y="630">UNREGISTERED</text><text fill="#eeeeee" stroke="none" font-family="Arial" font-size="24px" font-style="normal" font-weight="normal" text-decoration="none" x="600" y="660">UNREGISTERED</text><text fill="#eeeeee" stroke="none" font-family="Arial" font-size="24px" font-style="normal" font-weight="normal" text-decoration="none" x="600" y="690">UNREGISTERED</text><text fill="#eeeeee" stroke="none" font-family="Arial" font-size="24px" font-style="normal" font-weight="normal" text-decoration="none" x="800" y="0">UNREGISTERED</text><text fill="#eeeeee" stroke="none" font-family="Arial" font-size="24px" font-style="normal" font-weight="normal" text-decoration="none" x="800" y="30">UNREGISTERED</text><text fill="#eeeeee" stroke="none" font-family="Arial" font-size="24px" font-style="normal" font-weight="normal" text-decoration="none" x="800" y="60">UNREGISTERED</text><text fill="#eeeeee" stroke="none" font-family="Arial" font-size="24px" font-style="normal" font-weight="normal" text-decoration="none" x="800" y="90">UNREGISTERED</text><text fill="#eeeeee" stroke="none" font-family="Arial" font-size="24px" font-style="normal" font-weight="normal" text-decoration="none" x="800" y="120">UNREGISTERED</text><text fill="#eeeeee" stroke="none" font-family="Arial" font-size="24px" font-style="normal" font-weight="normal" text-decoration="none" x="800" y="150">UNREGISTERED</text><text fill="#eeeeee" stroke="none" font-family="Arial" font-size="24px" font-style="normal" font-weight="normal" text-decoration="none" x="800" y="180">UNREGISTERED</text><text fill="#eeeeee" stroke="none" font-family="Arial" font-size="24px" font-style="normal" font-weight="normal" text-decoration="none" x="800" y="210">UNREGISTERED</text><text fill="#eeeeee" stroke="none" font-family="Arial" font-size="24px" font-style="normal" font-weight="normal" text-decoration="none" x="800" y="240">UNREGISTERED</text><text fill="#eeeeee" stroke="none" font-family="Arial" font-size="24px" font-style="normal" font-weight="normal" text-decoration="none" x="800" y="270">UNREGISTERED</text><text fill="#eeeeee" stroke="none" font-family="Arial" font-size="24px" font-style="normal" font-weight="normal" text-decoration="none" x="800" y="300">UNREGISTERED</text><text fill="#eeeeee" stroke="none" font-family="Arial" font-size="24px" font-style="normal" font-weight="normal" text-decoration="none" x="800" y="330">UNREGISTERED</text><text fill="#eeeeee" stroke="none" font-family="Arial" font-size="24px" font-style="normal" font-weight="normal" text-decoration="none" x="800" y="360">UNREGISTERED</text><text fill="#eeeeee" stroke="none" font-family="Arial" font-size="24px" font-style="normal" font-weight="normal" text-decoration="none" x="800" y="390">UNREGISTERED</text><text fill="#eeeeee" stroke="none" font-family="Arial" font-size="24px" font-style="normal" font-weight="normal" text-decoration="none" x="800" y="420">UNREGISTERED</text><text fill="#eeeeee" stroke="none" font-family="Arial" font-size="24px" font-style="normal" font-weight="normal" text-decoration="none" x="800" y="450">UNREGISTERED</text><text fill="#eeeeee" stroke="none" font-family="Arial" font-size="24px" font-style="normal" font-weight="normal" text-decoration="none" x="800" y="480">UNREGISTERED</text><text fill="#eeeeee" stroke="none" font-family="Arial" font-size="24px" font-style="normal" font-weight="normal" text-decoration="none" x="800" y="510">UNREGISTERED</text><text fill="#eeeeee" stroke="none" font-family="Arial" font-size="24px" font-style="normal" font-weight="normal" text-decoration="none" x="800" y="540">UNREGISTERED</text><text fill="#eeeeee" stroke="none" font-family="Arial" font-size="24px" font-style="normal" font-weight="normal" text-decoration="none" x="800" y="570">UNREGISTERED</text><text fill="#eeeeee" stroke="none" font-family="Arial" font-size="24px" font-style="normal" font-weight="normal" text-decoration="none" x="800" y="600">UNREGISTERED</text><text fill="#eeeeee" stroke="none" font-family="Arial" font-size="24px" font-style="normal" font-weight="normal" text-decoration="none" x="800" y="630">UNREGISTERED</text><text fill="#eeeeee" stroke="none" font-family="Arial" font-size="24px" font-style="normal" font-weight="normal" text-decoration="none" x="800" y="660">UNREGISTERED</text><text fill="#eeeeee" stroke="none" font-family="Arial" font-size="24px" font-style="normal" font-weight="normal" text-decoration="none" x="800" y="690">UNREGISTERED</text><g transform="translate(-38,-14) scale(1,1)"><path fill="#C0C0C0" stroke="none" d="M 55 113 L 175.69921875 113 L 175.69921875 174 L 55 174" opacity="0.2"/></g><g transform="translate(-38,-14) scale(1,1)"><path fill="#C0C0C0" stroke="none" d="M 55 113 L 65 103 L 185.69921875 103 L 175.69921875 113" opacity="0.2"/></g><g transform="translate(-38,-14) scale(1,1)"><path fill="#C0C0C0" stroke="none" d="M 185.69921875 103 L 175.69921875 113 L 175.69921875 174 L 185.69921875 164" opacity="0.2"/></g><g transform="translate(-38,-14) scale(1,1)"><path fill="#ffffff" stroke="none" d="M 48 106 L 168.69921875 106 L 168.69921875 167 L 48 167"/></g><g transform="translate(-38,-14) scale(1,1)"><path fill="#ffffff" stroke="none" d="M 48 106 L 58 96 L 178.69921875 96 L 168.69921875 106"/></g><g transform="translate(-38,-14) scale(1,1)"><path fill="#ffffff" stroke="none" d="M 178.69921875 96 L 168.69921875 106 L 168.69921875 167 L 178.69921875 157"/></g><g transform="translate(-38,-14) scale(1,1)"><path fill="none" stroke="#000000" d="M 48 106 L 168.69921875 106 L 168.69921875 167 L 48 167 L 48 106" stroke-miterlimit="10"/></g><g transform="translate(-38,-14) scale(1,1)"><path fill="none" stroke="#000000" d="M 48 106 L 58 96 L 178.69921875 96 L 168.69921875 106 L 48 106" stroke-miterlimit="10"/></g><g transform="translate(-38,-14) scale(1,1)"><path fill="none" stroke="#000000" d="M 178.69921875 96 L 168.69921875 106 L 168.69921875 167 L 178.69921875 157 L 178.69921875 96" stroke-miterlimit="10"/></g><g transform="translate(-38,-14) scale(1,1)"><g><path fill="none" stroke="none"/><text fill="#000000" stroke="none" font-family="Arial" font-size="12px" font-style="normal" font-weight="bold" text-decoration="none" x="56.484375" y="124.5">Navigateur_internet</text></g></g><g transform="translate(-38,-14) scale(1,1)"><path fill="#C0C0C0" stroke="none" d="M 479 121 L 593.048828125 121 L 593.048828125 154 L 479 154" opacity="0.2"/></g><g transform="translate(-38,-14) scale(1,1)"><path fill="#C0C0C0" stroke="none" d="M 479 121 L 489 111 L 603.048828125 111 L 593.048828125 121" opacity="0.2"/></g><g transform="translate(-38,-14) scale(1,1)"><path fill="#C0C0C0" stroke="none" d="M 603.048828125 111 L 593.048828125 121 L 593.048828125 154 L 603.048828125 144" opacity="0.2"/></g><g transform="translate(-38,-14) scale(1,1)"><path fill="#ffffff" stroke="none" d="M 472 114 L 586.048828125 114 L 586.048828125 147 L 472 147"/></g><g transform="translate(-38,-14) scale(1,1)"><path fill="#ffffff" stroke="none" d="M 472 114 L 482 104 L 596.048828125 104 L 586.048828125 114"/></g><g transform="translate(-38,-14) scale(1,1)"><path fill="#ffffff" stroke="none" d="M 596.048828125 104 L 586.048828125 114 L 586.048828125 147 L 596.048828125 137"/></g><g transform="translate(-38,-14) scale(1,1)"><path fill="none" stroke="#000000" d="M 472 114 L 586.048828125 114 L 586.048828125 147 L 472 147 L 472 114" stroke-miterlimit="10"/></g><g transform="translate(-38,-14) scale(1,1)"><path fill="none" stroke="#000000" d="M 472 114 L 482 104 L 596.048828125 104 L 586.048828125 114 L 472 114" stroke-miterlimit="10"/></g><g transform="translate(-38,-14) scale(1,1)"><path fill="none" stroke="#000000" d="M 596.048828125 104 L 586.048828125 114 L 586.048828125 147 L 596.048828125 137 L 596.048828125 104" stroke-miterlimit="10"/></g><g transform="translate(-38,-14) scale(1,1)"><g><path fill="none" stroke="none"/><text fill="#000000" stroke="none" font-family="Arial" font-size="12px" font-style="normal" font-weight="bold" text-decoration="none" x="480.162109375" y="132.5">EnvExecutionJava</text></g></g><g transform="translate(-38,-14) scale(1,1)"><path fill="#C0C0C0" stroke="none" d="M 487 281 L 633.7265625 281 L 633.7265625 314 L 487 314" opacity="0.2"/></g><g transform="translate(-38,-14) scale(1,1)"><path fill="#C0C0C0" stroke="none" d="M 487 281 L 497 271 L 643.7265625 271 L 633.7265625 281" opacity="0.2"/></g><g transform="translate(-38,-14) scale(1,1)"><path fill="#C0C0C0" stroke="none" d="M 643.7265625 271 L 633.7265625 281 L 633.7265625 314 L 643.7265625 304" opacity="0.2"/></g><g transform="translate(-38,-14) scale(1,1)"><path fill="#ffffff" stroke="none" d="M 480 274 L 626.7265625 274 L 626.7265625 307 L 480 307"/></g><g transform="translate(-38,-14) scale(1,1)"><path fill="#ffffff" stroke="none" d="M 480 274 L 490 264 L 636.7265625 264 L 626.7265625 274"/></g><g transform="translate(-38,-14) scale(1,1)"><path fill="#ffffff" stroke="none" d="M 636.7265625 264 L 626.7265625 274 L 626.7265625 307 L 636.7265625 297"/></g><g transform="translate(-38,-14) scale(1,1)"><path fill="none" stroke="#000000" d="M 480 274 L 626.7265625 274 L 626.7265625 307 L 480 307 L 480 274" stroke-miterlimit="10"/></g><g transform="translate(-38,-14) scale(1,1)"><path fill="none" stroke="#000000" d="M 480 274 L 490 264 L 636.7265625 264 L 626.7265625 274 L 480 274" stroke-miterlimit="10"/></g><g transform="translate(-38,-14) scale(1,1)"><path fill="none" stroke="#000000" d="M 636.7265625 264 L 626.7265625 274 L 626.7265625 307 L 636.7265625 297 L 636.7265625 264" stroke-miterlimit="10"/></g><g transform="translate(-38,-14) scale(1,1)"><g><path fill="none" stroke="none"/><text fill="#000000" stroke="none" font-family="Arial" font-size="12px" font-style="normal" font-weight="bold" text-decoration="none" x="490.166015625" y="292.5">EnvExecutionJavascript</text></g></g><g transform="translate(-38,-14) scale(1,1)"><path fill="#ffffff" stroke="none" d="M 632 24 L 690 24 L 700 34 L 700 70 L 632 70 L 632 24"/></g><g transform="translate(-38,-14) scale(1,1)"><path fill="none" stroke="#000000" d="M 632 24 L 690 24 L 700 34 L 700 70 L 632 70 L 632 24 L 632 24" stroke-miterlimit="10"/></g><g transform="translate(-38,-14) scale(1,1)"><path fill="none" stroke="#000000" d="M 690 24 L 690 34 L 700 34 L 690 24" stroke-miterlimit="10"/></g><g transform="translate(-38,-14) scale(1,1)"><g><path fill="none" stroke="none"/><text fill="#000000" stroke="none" font-family="Arial" font-size="12px" font-style="normal" font-weight="normal" text-decoration="none" x="637" y="41">machine</text><text fill="#000000" stroke="none" font-family="Arial" font-size="12px" font-style="normal" font-weight="normal" text-decoration="none" x="637" y="53">virtuelle</text><text fill="#000000" stroke="none" font-family="Arial" font-size="12px" font-style="normal" font-weight="normal" text-decoration="none" x="637" y="65">java</text></g></g><g transform="translate(-38,-14) scale(1,1)"><path fill="none" stroke="#000000" d="M 631 68 L 572 103" stroke-miterlimit="10" stroke-dasharray="3"/></g><g transform="translate(-38,-14) scale(1,1)"><path fill="#ffffff" stroke="none" d="M 728 304 L 786 304 L 796 314 L 796 342 L 728 342 L 728 304"/></g><g transform="translate(-38,-14) scale(1,1)"><path fill="none" stroke="#000000" d="M 728 304 L 786 304 L 796 314 L 796 342 L 728 342 L 728 304 L 728 304" stroke-miterlimit="10"/></g><g transform="translate(-38,-14) scale(1,1)"><path fill="none" stroke="#000000" d="M 786 304 L 786 314 L 796 314 L 786 304" stroke-miterlimit="10"/></g><g transform="translate(-38,-14) scale(1,1)"><g><path fill="none" stroke="none"/><text fill="#000000" stroke="none" font-family="Arial" font-size="12px" font-style="normal" font-weight="normal" text-decoration="none" x="733" y="321">nodeJs</text></g></g><g transform="translate(-38,-14) scale(1,1)"><path fill="none" stroke="#000000" d="M 727 317 L 639 301" stroke-miterlimit="10" stroke-dasharray="3"/></g><g transform="translate(-38,-14) scale(1,1)"><path fill="#C0C0C0" stroke="none" d="M 479 401 L 627 401 L 627 434 L 479 434" opacity="0.2"/></g><g transform="translate(-38,-14) scale(1,1)"><path fill="#C0C0C0" stroke="none" d="M 479 401 L 489 391 L 637 391 L 627 401" opacity="0.2"/></g><g transform="translate(-38,-14) scale(1,1)"><path fill="#C0C0C0" stroke="none" d="M 637 391 L 627 401 L 627 434 L 637 424" opacity="0.2"/></g><g transform="translate(-38,-14) scale(1,1)"><path fill="#ffffff" stroke="none" d="M 472 394 L 620 394 L 620 427 L 472 427"/></g><g transform="translate(-38,-14) scale(1,1)"><path fill="#ffffff" stroke="none" d="M 472 394 L 482 384 L 630 384 L 620 394"/></g><g transform="translate(-38,-14) scale(1,1)"><path fill="#ffffff" stroke="none" d="M 630 384 L 620 394 L 620 427 L 630 417"/></g><g transform="translate(-38,-14) scale(1,1)"><path fill="none" stroke="#000000" d="M 472 394 L 620 394 L 620 427 L 472 427 L 472 394" stroke-miterlimit="10"/></g><g transform="translate(-38,-14) scale(1,1)"><path fill="none" stroke="#000000" d="M 472 394 L 482 384 L 630 384 L 620 394 L 472 394" stroke-miterlimit="10"/></g><g transform="translate(-38,-14) scale(1,1)"><path fill="none" stroke="#000000" d="M 630 384 L 620 394 L 620 427 L 630 417 L 630 384" stroke-miterlimit="10"/></g><g transform="translate(-38,-14) scale(1,1)"><g><path fill="none" stroke="none"/><text fill="#000000" stroke="none" font-family="Arial" font-size="12px" font-style="normal" font-weight="bold" text-decoration="none" x="491.1318359375" y="412.5">EnvExecutionPython</text></g></g><g transform="translate(-38,-14) scale(1,1)"><path fill="#ffffff" stroke="none" d="M 664 456 L 722 456 L 732 466 L 732 494 L 664 494 L 664 456"/></g><g transform="translate(-38,-14) scale(1,1)"><path fill="none" stroke="#000000" d="M 664 456 L 722 456 L 732 466 L 732 494 L 664 494 L 664 456 L 664 456" stroke-miterlimit="10"/></g><g transform="translate(-38,-14) scale(1,1)"><path fill="none" stroke="#000000" d="M 722 456 L 722 466 L 732 466 L 722 456" stroke-miterlimit="10"/></g><g transform="translate(-38,-14) scale(1,1)"><g><path fill="none" stroke="none"/><text fill="#000000" stroke="none" font-family="Arial" font-size="12px" font-style="normal" font-weight="normal" text-decoration="none" x="669" y="473">pyEnv</text></g></g><g transform="translate(-38,-14) scale(1,1)"><path fill="none" stroke="#000000" d="M 663 459 L 600 429" stroke-miterlimit="10" stroke-dasharray="3"/></g><g transform="translate(-38,-14) scale(1,1)"><path fill="#C0C0C0" stroke="none" d="M 614.23984375 167 L 641.67984375 167 L 653.43984375 178.76000000000002 L 653.43984375 216 L 614.23984375 216" opacity="0.2"/></g><g transform="translate(-38,-14) scale(1,1)"><path fill="#ffffff" stroke="none" d="M 607.23984375 160 L 634.67984375 160 L 646.43984375 171.76000000000002 L 646.43984375 209 L 607.23984375 209"/></g><g transform="translate(-38,-14) scale(1,1)"><path fill="none" stroke="#000000" d="M 607.23984375 160 L 634.67984375 160 L 646.43984375 171.76000000000002 L 646.43984375 209 L 607.23984375 209 L 607.23984375 160" stroke-miterlimit="10"/></g><g transform="translate(-38,-14) scale(1,1)"><path fill="none" stroke="#000000" d="M 634.67984375 160 L 634.67984375 171.76000000000002 L 646.43984375 171.76000000000002 L 634.67984375 160" stroke-miterlimit="10"/></g><g transform="translate(-38,-14) scale(1,1)"><g><path fill="none" stroke="none"/><text fill="#000000" stroke="none" font-family="Arial" font-size="12px" font-style="normal" font-weight="bold" text-decoration="none" x="599.1572265625" y="227.5">gestion.jar</text></g></g><g transform="translate(-38,-14) scale(1,1)"><path fill="none" stroke="#000000" d="M 591 169 L 564 149" stroke-miterlimit="10" stroke-dasharray="3"/></g><g transform="translate(-38,-14) scale(1,1)"><path fill="none" stroke="#000000" d="M 574.6719114286966 151.66651578995032 L 564 149 L 569.6606695422387 158.43169233666848" stroke-miterlimit="10"/></g><g transform="translate(-38,-14) scale(1,1)"><g><path fill="none" stroke="none"/><text fill="#000000" stroke="none" font-family="Arial" font-size="12px" font-style="normal" font-weight="normal" text-decoration="none" x="533.5" y="187.5">«deploy»</text></g></g><g transform="translate(-38,-14) scale(1,1)"><path fill="#ffffff" stroke="none" d="M 744 160 L 811.373046875 160 L 821.373046875 170 L 821.373046875 208 L 744 208 L 744 160"/></g><g transform="translate(-38,-14) scale(1,1)"><path fill="none" stroke="#000000" d="M 744 160 L 811.373046875 160 L 821.373046875 170 L 821.373046875 208 L 744 208 L 744 160 L 744 160" stroke-miterlimit="10"/></g><g transform="translate(-38,-14) scale(1,1)"><path fill="none" stroke="#000000" d="M 811.373046875 160 L 811.373046875 170 L 821.373046875 170 L 811.373046875 160" stroke-miterlimit="10"/></g><g transform="translate(-38,-14) scale(1,1)"><g><path fill="none" stroke="none"/><text fill="#000000" stroke="none" font-family="Arial" font-size="12px" font-style="normal" font-weight="normal" text-decoration="none" x="749" y="177">codé avec </text></g></g><g transform="translate(-38,-14) scale(1,1)"><g><path fill="none" stroke="none"/><text fill="#000000" stroke="none" font-family="Arial" font-size="12px" font-style="normal" font-weight="normal" text-decoration="none" x="749" y="191">SpringBoot</text></g></g><g transform="translate(-38,-14) scale(1,1)"><path fill="none" stroke="#000000" d="M 743 187 L 663 193" stroke-miterlimit="10" stroke-dasharray="3"/></g><g transform="translate(-38,-14) scale(1,1)"><path fill="#C0C0C0" stroke="none" d="M 100.894140625 231 L 128.33414062500003 231 L 140.09414062500002 242.76 L 140.09414062500002 280 L 100.894140625 280" opacity="0.2"/></g><g transform="translate(-38,-14) scale(1,1)"><path fill="#ffffff" stroke="none" d="M 93.89414062499999 224 L 121.33414062500002 224 L 133.09414062500002 235.76000000000002 L 133.09414062500002 273 L 93.89414062499999 273"/></g><g transform="translate(-38,-14) scale(1,1)"><path fill="none" stroke="#000000" d="M 93.89414062499999 224 L 121.33414062500002 224 L 133.09414062500002 235.76000000000002 L 133.09414062500002 273 L 93.89414062499999 273 L 93.89414062499999 224" stroke-miterlimit="10"/></g><g transform="translate(-38,-14) scale(1,1)"><path fill="none" stroke="#000000" d="M 121.33414062500002 224 L 121.33414062500002 235.76000000000002 L 133.09414062500002 235.76000000000002 L 121.33414062500002 224" stroke-miterlimit="10"/></g><g transform="translate(-38,-14) scale(1,1)"><g><path fill="none" stroke="none"/><text fill="#000000" stroke="none" font-family="Arial" font-size="12px" font-style="normal" font-weight="bold" text-decoration="none" x="72.80078125" y="291.5">frontEnd_Biblio</text></g></g><g transform="translate(-38,-14) scale(1,1)"><path fill="none" stroke="#000000" d="M 113 223 L 113 169" stroke-miterlimit="10" stroke-dasharray="3"/></g><g transform="translate(-38,-14) scale(1,1)"><path fill="none" stroke="#000000" d="M 117.20951775601598 179.16267485762415 L 113 169 L 108.79048224398402 179.16267485762415" stroke-miterlimit="10"/></g><g transform="translate(-38,-14) scale(1,1)"><g><path fill="none" stroke="none"/><text fill="#000000" stroke="none" font-family="Arial" font-size="12px" font-style="normal" font-weight="normal" text-decoration="none" x="58.5" y="200.5">«deploy»</text></g></g><g transform="translate(-38,-14) scale(1,1)"><path fill="#ffffff" stroke="none" d="M 56 328 L 181 328 L 191 338 L 191 440 L 56 440 L 56 328"/></g><g transform="translate(-38,-14) scale(1,1)"><path fill="none" stroke="#000000" d="M 56 328 L 181 328 L 191 338 L 191 440 L 56 440 L 56 328 L 56 328" stroke-miterlimit="10"/></g><g transform="translate(-38,-14) scale(1,1)"><path fill="none" stroke="#000000" d="M 181 328 L 181 338 L 191 338 L 181 328" stroke-miterlimit="10"/></g><g transform="translate(-38,-14) scale(1,1)"><g><path fill="none" stroke="none"/><text fill="#000000" stroke="none" font-family="Arial" font-size="12px" font-style="normal" font-weight="normal" text-decoration="none" x="61" y="345">ex: appli angular</text></g></g><g transform="translate(-38,-14) scale(1,1)"><g><path fill="none" stroke="none"/><text fill="#000000" stroke="none" font-family="Arial" font-size="12px" font-style="normal" font-weight="normal" text-decoration="none" x="61" y="359">----------</text></g></g><g transform="translate(-38,-14) scale(1,1)"><g><path fill="none" stroke="none"/><text fill="#000000" stroke="none" font-family="Arial" font-size="12px" font-style="normal" font-weight="normal" text-decoration="none" x="61" y="373">NB : ça fonctionne coté</text><text fill="#000000" stroke="none" font-family="Arial" font-size="12px" font-style="normal" font-weight="normal" text-decoration="none" x="61" y="385">navigateur une fois</text><text fill="#000000" stroke="none" font-family="Arial" font-size="12px" font-style="normal" font-weight="normal" text-decoration="none" x="61" y="397">téléchargé depuis un</text></g></g><g transform="translate(-38,-14) scale(1,1)"><g><path fill="none" stroke="none"/><text fill="#000000" stroke="none" font-family="Arial" font-size="12px" font-style="normal" font-weight="normal" text-decoration="none" x="61" y="411">serveur HTTP (ou un</text><text fill="#000000" stroke="none" font-family="Arial" font-size="12px" font-style="normal" font-weight="normal" text-decoration="none" x="61" y="423">reverse proxy ou ...)</text></g></g><g transform="translate(-38,-14) scale(1,1)"><path fill="none" stroke="#000000" d="M 119 327 L 116 298" stroke-miterlimit="10" stroke-dasharray="3"/></g><g transform="translate(-38,-14) scale(1,1)"><path fill="#C0C0C0" stroke="none" d="M 239 217 L 423.07421875 217 L 423.07421875 250 L 239 250" opacity="0.2"/></g><g transform="translate(-38,-14) scale(1,1)"><path fill="#C0C0C0" stroke="none" d="M 239 217 L 249 207 L 433.07421875 207 L 423.07421875 217" opacity="0.2"/></g><g transform="translate(-38,-14) scale(1,1)"><path fill="#C0C0C0" stroke="none" d="M 433.07421875 207 L 423.07421875 217 L 423.07421875 250 L 433.07421875 240" opacity="0.2"/></g><g transform="translate(-38,-14) scale(1,1)"><path fill="#ffffff" stroke="none" d="M 232 210 L 416.07421875 210 L 416.07421875 243 L 232 243"/></g><g transform="translate(-38,-14) scale(1,1)"><path fill="#ffffff" stroke="none" d="M 232 210 L 242 200 L 426.07421875 200 L 416.07421875 210"/></g><g transform="translate(-38,-14) scale(1,1)"><path fill="#ffffff" stroke="none" d="M 426.07421875 200 L 416.07421875 210 L 416.07421875 243 L 426.07421875 233"/></g><g transform="translate(-38,-14) scale(1,1)"><path fill="none" stroke="#000000" d="M 232 210 L 416.07421875 210 L 416.07421875 243 L 232 243 L 232 210" stroke-miterlimit="10"/></g><g transform="translate(-38,-14) scale(1,1)"><path fill="none" stroke="#000000" d="M 232 210 L 242 200 L 426.07421875 200 L 416.07421875 210 L 232 210" stroke-miterlimit="10"/></g><g transform="translate(-38,-14) scale(1,1)"><path fill="none" stroke="#000000" d="M 426.07421875 200 L 416.07421875 210 L 416.07421875 243 L 426.07421875 233 L 426.07421875 200" stroke-miterlimit="10"/></g><g transform="translate(-38,-14) scale(1,1)"><g><path fill="none" stroke="none"/><text fill="#000000" stroke="none" font-family="Arial" font-size="12px" font-style="normal" font-weight="bold" text-decoration="none" x="241.826171875" y="228.5">Reverse_proxy ou api-gateway</text></g></g><g transform="translate(-38,-14) scale(1,1)"><path fill="none" stroke="#000000" d="M 181 160 L 274 199" stroke-miterlimit="10"/></g><g transform="translate(-38,-14) scale(1,1)"><g><path fill="none" stroke="none"/><text fill="#000000" stroke="none" font-family="Arial" font-size="12px" font-style="normal" font-weight="normal" text-decoration="none" x="215.5" y="170.5">+https</text></g></g><g transform="translate(-38,-14) scale(1,1)"><path fill="none" stroke="#000000" d="M 378 199 L 485 149" stroke-miterlimit="10"/></g><g transform="translate(-38,-14) scale(1,1)"><g><path fill="none" stroke="none"/><text fill="#000000" stroke="none" font-family="Arial" font-size="12px" font-style="normal" font-weight="normal" text-decoration="none" x="410.5" y="165.5">+http</text></g></g><g transform="translate(-38,-14) scale(1,1)"><path fill="none" stroke="#000000" d="M 411 245 L 479 264" stroke-miterlimit="10"/></g><g transform="translate(-38,-14) scale(1,1)"><g><path fill="none" stroke="none"/><text fill="#000000" stroke="none" font-family="Arial" font-size="12px" font-style="normal" font-weight="normal" text-decoration="none" x="435.5" y="244.5">+http</text></g></g><g transform="translate(-38,-14) scale(1,1)"><path fill="none" stroke="#000000" d="M 357 245 L 523 383" stroke-miterlimit="10"/></g><g transform="translate(-38,-14) scale(1,1)"><g><path fill="none" stroke="none"/><text fill="#000000" stroke="none" font-family="Arial" font-size="12px" font-style="normal" font-weight="normal" text-decoration="none" x="435.5" y="307.5">+http</text></g></g><g transform="translate(-38,-14) scale(1,1)"><path fill="#C0C0C0" stroke="none" d="M 479 537 L 563.025390625 537 L 563.025390625 581 L 479 581" opacity="0.2"/></g><g transform="translate(-38,-14) scale(1,1)"><path fill="#C0C0C0" stroke="none" d="M 479 537 L 489 527 L 573.025390625 527 L 563.025390625 537" opacity="0.2"/></g><g transform="translate(-38,-14) scale(1,1)"><path fill="#C0C0C0" stroke="none" d="M 573.025390625 527 L 563.025390625 537 L 563.025390625 581 L 573.025390625 571" opacity="0.2"/></g><g transform="translate(-38,-14) scale(1,1)"><path fill="#ffffff" stroke="none" d="M 472 530 L 556.025390625 530 L 556.025390625 574 L 472 574"/></g><g transform="translate(-38,-14) scale(1,1)"><path fill="#ffffff" stroke="none" d="M 472 530 L 482 520 L 566.025390625 520 L 556.025390625 530"/></g><g transform="translate(-38,-14) scale(1,1)"><path fill="#ffffff" stroke="none" d="M 566.025390625 520 L 556.025390625 530 L 556.025390625 574 L 566.025390625 564"/></g><g transform="translate(-38,-14) scale(1,1)"><path fill="none" stroke="#000000" d="M 472 530 L 556.025390625 530 L 556.025390625 574 L 472 574 L 472 530" stroke-miterlimit="10"/></g><g transform="translate(-38,-14) scale(1,1)"><path fill="none" stroke="#000000" d="M 472 530 L 482 520 L 566.025390625 520 L 556.025390625 530 L 472 530" stroke-miterlimit="10"/></g><g transform="translate(-38,-14) scale(1,1)"><path fill="none" stroke="#000000" d="M 566.025390625 520 L 556.025390625 530 L 556.025390625 574 L 566.025390625 564 L 566.025390625 520" stroke-miterlimit="10"/></g><g transform="translate(-38,-14) scale(1,1)"><g><path fill="none" stroke="none"/><text fill="#000000" stroke="none" font-family="Arial" font-size="12px" font-style="normal" font-weight="bold" text-decoration="none" x="478.4921875" y="548.5">Serv_OAuth2</text></g></g><g transform="translate(-38,-14) scale(1,1)"><path fill="none" stroke="#000000" d="M 342 245 L 503 519" stroke-miterlimit="10"/></g><g transform="translate(-38,-14) scale(1,1)"><g><path fill="none" stroke="none"/><text fill="#000000" stroke="none" font-family="Arial" font-size="12px" font-style="normal" font-weight="normal" text-decoration="none" x="389.5" y="394.5">+https</text></g></g><g transform="translate(-38,-14) scale(1,1)"><path fill="#ffffff" stroke="none" d="M 632 552 L 837 552 L 847 562 L 847 615 L 632 615 L 632 552"/></g><g transform="translate(-38,-14) scale(1,1)"><path fill="none" stroke="#000000" d="M 632 552 L 837 552 L 847 562 L 847 615 L 632 615 L 632 552 L 632 552" stroke-miterlimit="10"/></g><g transform="translate(-38,-14) scale(1,1)"><path fill="none" stroke="#000000" d="M 837 552 L 837 562 L 847 562 L 837 552" stroke-miterlimit="10"/></g><g transform="translate(-38,-14) scale(1,1)"><g><path fill="none" stroke="none"/><text fill="#000000" stroke="none" font-family="Arial" font-size="12px" font-style="normal" font-weight="normal" text-decoration="none" x="637" y="569">ex: minDefConnect,</text></g></g><g transform="translate(-38,-14) scale(1,1)"><g><path fill="none" stroke="none"/><text fill="#000000" stroke="none" font-family="Arial" font-size="12px" font-style="normal" font-weight="normal" text-decoration="none" x="637" y="583">     ou KeyCloak ou ....</text></g></g><g transform="translate(-38,-14) scale(1,1)"><path fill="none" stroke="#000000" d="M 631 566 L 568 555" stroke-miterlimit="10" stroke-dasharray="3"/></g><g transform="translate(-38,-14) scale(1,1)"><path fill="#ffffff" stroke="none" d="M 464 616 L 580.052734375 616 L 590.052734375 626 L 590.052734375 703 L 464 703 L 464 616"/></g><g transform="translate(-38,-14) scale(1,1)"><path fill="none" stroke="#000000" d="M 464 616 L 580.052734375 616 L 590.052734375 626 L 590.052734375 703 L 464 703 L 464 616 L 464 616" stroke-miterlimit="10"/></g><g transform="translate(-38,-14) scale(1,1)"><path fill="none" stroke="#000000" d="M 580.052734375 616 L 580.052734375 626 L 590.052734375 626 L 580.052734375 616" stroke-miterlimit="10"/></g><g transform="translate(-38,-14) scale(1,1)"><g><path fill="none" stroke="none"/><text fill="#000000" stroke="none" font-family="Arial" font-size="12px" font-style="normal" font-weight="normal" text-decoration="none" x="469" y="633">serveur</text><text fill="#000000" stroke="none" font-family="Arial" font-size="12px" font-style="normal" font-weight="normal" text-decoration="none" x="469" y="645">d'authentification qui</text><text fill="#000000" stroke="none" font-family="Arial" font-size="12px" font-style="normal" font-weight="normal" text-decoration="none" x="469" y="657">verifie</text><text fill="#000000" stroke="none" font-family="Arial" font-size="12px" font-style="normal" font-weight="normal" text-decoration="none" x="469" y="669">username/password</text><text fill="#000000" stroke="none" font-family="Arial" font-size="12px" font-style="normal" font-weight="normal" text-decoration="none" x="469" y="681">et qui retourne des</text><text fill="#000000" stroke="none" font-family="Arial" font-size="12px" font-style="normal" font-weight="normal" text-decoration="none" x="469" y="693">jetons </text></g></g><g transform="translate(-38,-14) scale(1,1)"><path fill="none" stroke="#000000" d="M 524 615 L 521 576" stroke-miterlimit="10" stroke-dasharray="3"/></g></g></svg>