<svg version="1.1" xmlns="http://www.w3.org/2000/svg" xmlns:xlink="http://www.w3.org/1999/xlink" width="508" height="460"><defs/><g><text fill="#eeeeee" stroke="none" font-family="Arial" font-size="24px" font-style="normal" font-weight="normal" text-decoration="none" x="0" y="0">UNREGISTERED</text><text fill="#eeeeee" stroke="none" font-family="Arial" font-size="24px" font-style="normal" font-weight="normal" text-decoration="none" x="0" y="30">UNREGISTERED</text><text fill="#eeeeee" stroke="none" font-family="Arial" font-size="24px" font-style="normal" font-weight="normal" text-decoration="none" x="0" y="60">UNREGISTERED</text><text fill="#eeeeee" stroke="none" font-family="Arial" font-size="24px" font-style="normal" font-weight="normal" text-decoration="none" x="0" y="90">UNREGISTERED</text><text fill="#eeeeee" stroke="none" font-family="Arial" font-size="24px" font-style="normal" font-weight="normal" text-decoration="none" x="0" y="120">UNREGISTERED</text><text fill="#eeeeee" stroke="none" font-family="Arial" font-size="24px" font-style="normal" font-weight="normal" text-decoration="none" x="0" y="150">UNREGISTERED</text><text fill="#eeeeee" stroke="none" font-family="Arial" font-size="24px" font-style="normal" font-weight="normal" text-decoration="none" x="0" y="180">UNREGISTERED</text><text fill="#eeeeee" stroke="none" font-family="Arial" font-size="24px" font-style="normal" font-weight="normal" text-decoration="none" x="0" y="210">UNREGISTERED</text><text fill="#eeeeee" stroke="none" font-family="Arial" font-size="24px" font-style="normal" font-weight="normal" text-decoration="none" x="0" y="240">UNREGISTERED</text><text fill="#eeeeee" stroke="none" font-family="Arial" font-size="24px" font-style="normal" font-weight="normal" text-decoration="none" x="0" y="270">UNREGISTERED</text><text fill="#eeeeee" stroke="none" font-family="Arial" font-size="24px" font-style="normal" font-weight="normal" text-decoration="none" x="0" y="300">UNREGISTERED</text><text fill="#eeeeee" stroke="none" font-family="Arial" font-size="24px" font-style="normal" font-weight="normal" text-decoration="none" x="0" y="330">UNREGISTERED</text><text fill="#eeeeee" stroke="none" font-family="Arial" font-size="24px" font-style="normal" font-weight="normal" text-decoration="none" x="0" y="360">UNREGISTERED</text><text fill="#eeeeee" stroke="none" font-family="Arial" font-size="24px" font-style="normal" font-weight="normal" text-decoration="none" x="0" y="390">UNREGISTERED</text><text fill="#eeeeee" stroke="none" font-family="Arial" font-size="24px" font-style="normal" font-weight="normal" text-decoration="none" x="0" y="420">UNREGISTERED</text><text fill="#eeeeee" stroke="none" font-family="Arial" font-size="24px" font-style="normal" font-weight="normal" text-decoration="none" x="0" y="450">UNREGISTERED</text><text fill="#eeeeee" stroke="none" font-family="Arial" font-size="24px" font-style="normal" font-weight="normal" text-decoration="none" x="200" y="0">UNREGISTERED</text><text fill="#eeeeee" stroke="none" font-family="Arial" font-size="24px" font-style="normal" font-weight="normal" text-decoration="none" x="200" y="30">UNREGISTERED</text><text fill="#eeeeee" stroke="none" font-family="Arial" font-size="24px" font-style="normal" font-weight="normal" text-decoration="none" x="200" y="60">UNREGISTERED</text><text fill="#eeeeee" stroke="none" font-family="Arial" font-size="24px" font-style="normal" font-weight="normal" text-decoration="none" x="200" y="90">UNREGISTERED</text><text fill="#eeeeee" stroke="none" font-family="Arial" font-size="24px" font-style="normal" font-weight="normal" text-decoration="none" x="200" y="120">UNREGISTERED</text><text fill="#eeeeee" stroke="none" font-family="Arial" font-size="24px" font-style="normal" font-weight="normal" text-decoration="none" x="200" y="150">UNREGISTERED</text><text fill="#eeeeee" stroke="none" font-family="Arial" font-size="24px" font-style="normal" font-weight="normal" text-decoration="none" x="200" y="180">UNREGISTERED</text><text fill="#eeeeee" stroke="none" font-family="Arial" font-size="24px" font-style="normal" font-weight="normal" text-decoration="none" x="200" y="210">UNREGISTERED</text><text fill="#eeeeee" stroke="none" font-family="Arial" font-size="24px" font-style="normal" font-weight="normal" text-decoration="none" x="200" y="240">UNREGISTERED</text><text fill="#eeeeee" stroke="none" font-family="Arial" font-size="24px" font-style="normal" font-weight="normal" text-decoration="none" x="200" y="270">UNREGISTERED</text><text fill="#eeeeee" stroke="none" font-family="Arial" font-size="24px" font-style="normal" font-weight="normal" text-decoration="none" x="200" y="300">UNREGISTERED</text><text fill="#eeeeee" stroke="none" font-family="Arial" font-size="24px" font-style="normal" font-weight="normal" text-decoration="none" x="200" y="330">UNREGISTERED</text><text fill="#eeeeee" stroke="none" font-family="Arial" font-size="24px" font-style="normal" font-weight="normal" text-decoration="none" x="200" y="360">UNREGISTERED</text><text fill="#eeeeee" stroke="none" font-family="Arial" font-size="24px" font-style="normal" font-weight="normal" text-decoration="none" x="200" y="390">UNREGISTERED</text><text fill="#eeeeee" stroke="none" font-family="Arial" font-size="24px" font-style="normal" font-weight="normal" text-decoration="none" x="200" y="420">UNREGISTERED</text><text fill="#eeeeee" stroke="none" font-family="Arial" font-size="24px" font-style="normal" font-weight="normal" text-decoration="none" x="200" y="450">UNREGISTERED</text><text fill="#eeeeee" stroke="none" font-family="Arial" font-size="24px" font-style="normal" font-weight="normal" text-decoration="none" x="400" y="0">UNREGISTERED</text><text fill="#eeeeee" stroke="none" font-family="Arial" font-size="24px" font-style="normal" font-weight="normal" text-decoration="none" x="400" y="30">UNREGISTERED</text><text fill="#eeeeee" stroke="none" font-family="Arial" font-size="24px" font-style="normal" font-weight="normal" text-decoration="none" x="400" y="60">UNREGISTERED</text><text fill="#eeeeee" stroke="none" font-family="Arial" font-size="24px" font-style="normal" font-weight="normal" text-decoration="none" x="400" y="90">UNREGISTERED</text><text fill="#eeeeee" stroke="none" font-family="Arial" font-size="24px" font-style="normal" font-weight="normal" text-decoration="none" x="400" y="120">UNREGISTERED</text><text fill="#eeeeee" stroke="none" font-family="Arial" font-size="24px" font-style="normal" font-weight="normal" text-decoration="none" x="400" y="150">UNREGISTERED</text><text fill="#eeeeee" stroke="none" font-family="Arial" font-size="24px" font-style="normal" font-weight="normal" text-decoration="none" x="400" y="180">UNREGISTERED</text><text fill="#eeeeee" stroke="none" font-family="Arial" font-size="24px" font-style="normal" font-weight="normal" text-decoration="none" x="400" y="210">UNREGISTERED</text><text fill="#eeeeee" stroke="none" font-family="Arial" font-size="24px" font-style="normal" font-weight="normal" text-decoration="none" x="400" y="240">UNREGISTERED</text><text fill="#eeeeee" stroke="none" font-family="Arial" font-size="24px" font-style="normal" font-weight="normal" text-decoration="none" x="400" y="270">UNREGISTERED</text><text fill="#eeeeee" stroke="none" font-family="Arial" font-size="24px" font-style="normal" font-weight="normal" text-decoration="none" x="400" y="300">UNREGISTERED</text><text fill="#eeeeee" stroke="none" font-family="Arial" font-size="24px" font-style="normal" font-weight="normal" text-decoration="none" x="400" y="330">UNREGISTERED</text><text fill="#eeeeee" stroke="none" font-family="Arial" font-size="24px" font-style="normal" font-weight="normal" text-decoration="none" x="400" y="360">UNREGISTERED</text><text fill="#eeeeee" stroke="none" font-family="Arial" font-size="24px" font-style="normal" font-weight="normal" text-decoration="none" x="400" y="390">UNREGISTERED</text><text fill="#eeeeee" stroke="none" font-family="Arial" font-size="24px" font-style="normal" font-weight="normal" text-decoration="none" x="400" y="420">UNREGISTERED</text><text fill="#eeeeee" stroke="none" font-family="Arial" font-size="24px" font-style="normal" font-weight="normal" text-decoration="none" x="400" y="450">UNREGISTERED</text><g transform="translate(-14,-86) scale(1,1)"><rect fill="#C0C0C0" stroke="none" x="167" y="103" width="108.80000000000001" height="15" opacity="0.2"/></g><g transform="translate(-14,-86) scale(1,1)"><rect fill="#C0C0C0" stroke="none" x="167" y="117" width="272" height="138" opacity="0.2"/></g><g transform="translate(-14,-86) scale(1,1)"><rect fill="#ffffff" stroke="none" x="160" y="111" width="272" height="137"/></g><g transform="translate(-14,-86) scale(1,1)"><path fill="none" stroke="#000000" d="M 160 111 L 432 111 L 432 248 L 160 248 L 160 111 Z Z" stroke-miterlimit="10"/></g><g transform="translate(-14,-86) scale(1,1)"><rect fill="#ffffff" stroke="none" x="160" y="96" width="108.80000000000001" height="15"/></g><g transform="translate(-14,-86) scale(1,1)"><path fill="none" stroke="#000000" d="M 160 96 L 268.8 96 L 268.8 111 L 160 111 L 160 96 Z Z" stroke-miterlimit="10"/></g><g transform="translate(-14,-86) scale(1,1)"><rect fill="#ffffff" stroke="none" x="160" y="110" width="272" height="138"/></g><g transform="translate(-14,-86) scale(1,1)"><path fill="none" stroke="#000000" d="M 160 110 L 432 110 L 432 248 L 160 248 L 160 110 Z Z" stroke-miterlimit="10"/></g><g transform="translate(-14,-86) scale(1,1)"><g><path fill="none" stroke="none"/><text fill="#000000" stroke="none" font-family="Arial" font-size="12px" font-style="normal" font-weight="bold" text-decoration="none" x="272.6533203125" y="129.5">individus</text></g></g><g transform="translate(-14,-86) scale(1,1)"><rect fill="#C0C0C0" stroke="none" x="367" y="335" width="60.80000000000001" height="15" opacity="0.2"/></g><g transform="translate(-14,-86) scale(1,1)"><rect fill="#C0C0C0" stroke="none" x="367" y="349" width="152" height="194" opacity="0.2"/></g><g transform="translate(-14,-86) scale(1,1)"><rect fill="#ffffff" stroke="none" x="360" y="343" width="152" height="193"/></g><g transform="translate(-14,-86) scale(1,1)"><path fill="none" stroke="#000000" d="M 360 343 L 512 343 L 512 536 L 360 536 L 360 343 Z Z" stroke-miterlimit="10"/></g><g transform="translate(-14,-86) scale(1,1)"><rect fill="#ffffff" stroke="none" x="360" y="328" width="60.80000000000001" height="15"/></g><g transform="translate(-14,-86) scale(1,1)"><path fill="none" stroke="#000000" d="M 360 328 L 420.8 328 L 420.8 343 L 360 343 L 360 328 Z Z" stroke-miterlimit="10"/></g><g transform="translate(-14,-86) scale(1,1)"><rect fill="#ffffff" stroke="none" x="360" y="342" width="152" height="194"/></g><g transform="translate(-14,-86) scale(1,1)"><path fill="none" stroke="#000000" d="M 360 342 L 512 342 L 512 536 L 360 536 L 360 342 Z Z" stroke-miterlimit="10"/></g><g transform="translate(-14,-86) scale(1,1)"><g><path fill="none" stroke="none"/><text fill="#000000" stroke="none" font-family="Arial" font-size="12px" font-style="normal" font-weight="bold" text-decoration="none" x="416.658203125" y="361.5">medias</text></g></g><g transform="translate(-14,-86) scale(1,1)"><rect fill="#C0C0C0" stroke="none" x="31" y="303" width="99.19999999999999" height="15" opacity="0.2"/></g><g transform="translate(-14,-86) scale(1,1)"><rect fill="#C0C0C0" stroke="none" x="31" y="317" width="248" height="202" opacity="0.2"/></g><g transform="translate(-14,-86) scale(1,1)"><rect fill="#ffffff" stroke="none" x="24" y="311" width="248" height="201"/></g><g transform="translate(-14,-86) scale(1,1)"><path fill="none" stroke="#000000" d="M 24 311 L 272 311 L 272 512 L 24 512 L 24 311 Z Z" stroke-miterlimit="10"/></g><g transform="translate(-14,-86) scale(1,1)"><rect fill="#ffffff" stroke="none" x="24" y="296" width="99.2" height="15"/></g><g transform="translate(-14,-86) scale(1,1)"><path fill="none" stroke="#000000" d="M 24 296 L 123.2 296 L 123.2 311 L 24 311 L 24 296 Z Z" stroke-miterlimit="10"/></g><g transform="translate(-14,-86) scale(1,1)"><rect fill="#ffffff" stroke="none" x="24" y="310" width="248" height="202"/></g><g transform="translate(-14,-86) scale(1,1)"><path fill="none" stroke="#000000" d="M 24 310 L 272 310 L 272 512 L 24 512 L 24 310 Z Z" stroke-miterlimit="10"/></g><g transform="translate(-14,-86) scale(1,1)"><g><path fill="none" stroke="none"/><text fill="#000000" stroke="none" font-family="Arial" font-size="12px" font-style="normal" font-weight="bold" text-decoration="none" x="128.65234375" y="329.5">gestion</text></g></g><g transform="translate(-14,-86) scale(1,1)"><path fill="none" stroke="#000000" d="M 273 416 L 359 425" stroke-miterlimit="10" stroke-dasharray="3"/></g><g transform="translate(-14,-86) scale(1,1)"><path fill="none" stroke="#000000" d="M 348.45438405046866 428.12889505176986 L 359 425 L 349.33066054156984 419.75558635902485" stroke-miterlimit="10"/></g><g transform="translate(-14,-86) scale(1,1)"><path fill="none" stroke="#000000" d="M 218 295 L 247 249" stroke-miterlimit="10" stroke-dasharray="3"/></g><g transform="translate(-14,-86) scale(1,1)"><path fill="none" stroke="#000000" d="M 245.14117495885878 259.8418065591684 L 247 249 L 238.01929727006893 255.35192714667042" stroke-miterlimit="10"/></g><g transform="translate(-14,-86) scale(1,1)"><rect fill="#C0C0C0" stroke="none" x="239" y="151" width="139.435546875" height="49" opacity="0.2"/></g><g transform="translate(-14,-86) scale(1,1)"><rect fill="#ffffff" stroke="none" x="232" y="144" width="139.435546875" height="49"/></g><g transform="translate(-14,-86) scale(1,1)"><path fill="none" stroke="#000000" d="M 232 144 L 371.435546875 144 L 371.435546875 193 L 232 193 L 232 144 Z Z" stroke-miterlimit="10"/></g><g transform="translate(-14,-86) scale(1,1)"><g><path fill="none" stroke="none"/><text fill="#000000" stroke="none" font-family="Arial" font-size="12px" font-style="normal" font-weight="normal" text-decoration="none" x="280.703125" y="160.5">«entity»</text></g></g><g transform="translate(-14,-86) scale(1,1)"><g><path fill="none" stroke="none"/><text fill="#000000" stroke="none" font-family="Arial" font-size="12px" font-style="normal" font-weight="bold" text-decoration="none" x="281.03125" y="174.5">Abonne</text></g></g><g transform="translate(-14,-86) scale(1,1)"><g><path fill="none" stroke="none"/><text fill="#000000" stroke="none" font-family="Arial" font-size="12px" font-style="normal" font-weight="normal" text-decoration="none" x="260.7080078125" y="188.5">(from individus)</text></g></g><g transform="translate(-14,-86) scale(1,1)"><rect fill="#C0C0C0" stroke="none" x="421" y="413" width="83.009765625" height="37" opacity="0.2"/></g><g transform="translate(-14,-86) scale(1,1)"><rect fill="#ffffff" stroke="none" x="414" y="406" width="83.009765625" height="37"/></g><g transform="translate(-14,-86) scale(1,1)"><path fill="none" stroke="#000000" d="M 414 406 L 497.009765625 406 L 497.009765625 443 L 414 443 L 414 406 Z Z" stroke-miterlimit="10"/></g><g transform="translate(-14,-86) scale(1,1)"><g><path fill="none" stroke="none"/><text fill="#000000" stroke="none" font-family="Arial" font-size="12px" font-style="normal" font-weight="bold" text-decoration="none" x="425.4931640625" y="424.5">Exemplaire</text></g></g><g transform="translate(-14,-86) scale(1,1)"><g><path fill="none" stroke="none"/><text fill="#000000" stroke="none" font-family="Arial" font-size="12px" font-style="normal" font-weight="normal" text-decoration="none" x="418.5" y="438.5">(from medias)</text></g></g><g transform="translate(-14,-86) scale(1,1)"><rect fill="#C0C0C0" stroke="none" x="159" y="375" width="83.021484375" height="49" opacity="0.2"/></g><g transform="translate(-14,-86) scale(1,1)"><rect fill="#ffffff" stroke="none" x="152" y="368" width="83.021484375" height="49"/></g><g transform="translate(-14,-86) scale(1,1)"><path fill="none" stroke="#000000" d="M 152 368 L 235.021484375 368 L 235.021484375 417 L 152 417 L 152 368 Z Z" stroke-miterlimit="10"/></g><g transform="translate(-14,-86) scale(1,1)"><g><path fill="none" stroke="none"/><text fill="#000000" stroke="none" font-family="Arial" font-size="12px" font-style="normal" font-weight="normal" text-decoration="none" x="172.49609375" y="384.5">«entity»</text></g></g><g transform="translate(-14,-86) scale(1,1)"><g><path fill="none" stroke="none"/><text fill="#000000" stroke="none" font-family="Arial" font-size="12px" font-style="normal" font-weight="bold" text-decoration="none" x="170.8349609375" y="398.5">Emprunt</text></g></g><g transform="translate(-14,-86) scale(1,1)"><g><path fill="none" stroke="none"/><text fill="#000000" stroke="none" font-family="Arial" font-size="12px" font-style="normal" font-weight="normal" text-decoration="none" x="156.5" y="412.5">(from gestion)</text></g></g><g transform="translate(-14,-86) scale(1,1)"><path fill="none" stroke="#000000" d="M 205 367 L 288 194" stroke-miterlimit="10"/></g><g transform="translate(-14,-86) scale(1,1)"><path fill="none" stroke="#000000" d="M 287.39933636275515 204.98358790172372 L 288 194 L 279.80869718182464 201.34183615595936" stroke-miterlimit="10"/></g><g transform="translate(-14,-86) scale(1,1)"><g><path fill="none" stroke="none"/><text fill="#000000" stroke="none" font-family="Arial" font-size="12px" font-style="normal" font-weight="normal" text-decoration="none" x="222.1650390625" y="357.5">*</text></g></g><g transform="translate(-14,-86) scale(1,1)"><g><path fill="none" stroke="none"/><text fill="#000000" stroke="none" font-family="Arial" font-size="12px" font-style="normal" font-weight="normal" text-decoration="none" x="195.5" y="214.5">+emprunteur</text></g></g><g transform="translate(-14,-86) scale(1,1)"><g><path fill="none" stroke="none"/><text fill="#000000" stroke="none" font-family="Arial" font-size="12px" font-style="normal" font-weight="normal" text-decoration="none" x="285.5" y="223.5">1</text></g></g><g transform="translate(-14,-86) scale(1,1)"><path fill="none" stroke="#000000" d="M 236 397 L 413 419" stroke-miterlimit="10"/></g><g transform="translate(-14,-86) scale(1,1)"><path fill="none" stroke="#000000" d="M 402.3957068718647 421.92386170202747 L 413 419 L 403.4341499826504 413.56911485616087" stroke-miterlimit="10"/></g><g transform="translate(-14,-86) scale(1,1)"><g><path fill="none" stroke="none"/><text fill="#000000" stroke="none" font-family="Arial" font-size="12px" font-style="normal" font-weight="normal" text-decoration="none" x="252.1650390625" y="417.5">*</text></g></g><g transform="translate(-14,-86) scale(1,1)"><g><path fill="none" stroke="none"/><text fill="#000000" stroke="none" font-family="Arial" font-size="12px" font-style="normal" font-weight="normal" text-decoration="none" x="385.5" y="433.5">1</text></g></g></g></svg>