<svg version="1.1" xmlns="http://www.w3.org/2000/svg" xmlns:xlink="http://www.w3.org/1999/xlink" width="706.501953125" height="565"><defs/><g><text fill="#eeeeee" stroke="none" font-family="Arial" font-size="24px" font-style="normal" font-weight="normal" text-decoration="none" x="0" y="0">UNREGISTERED</text><text fill="#eeeeee" stroke="none" font-family="Arial" font-size="24px" font-style="normal" font-weight="normal" text-decoration="none" x="0" y="30">UNREGISTERED</text><text fill="#eeeeee" stroke="none" font-family="Arial" font-size="24px" font-style="normal" font-weight="normal" text-decoration="none" x="0" y="60">UNREGISTERED</text><text fill="#eeeeee" stroke="none" font-family="Arial" font-size="24px" font-style="normal" font-weight="normal" text-decoration="none" x="0" y="90">UNREGISTERED</text><text fill="#eeeeee" stroke="none" font-family="Arial" font-size="24px" font-style="normal" font-weight="normal" text-decoration="none" x="0" y="120">UNREGISTERED</text><text fill="#eeeeee" stroke="none" font-family="Arial" font-size="24px" font-style="normal" font-weight="normal" text-decoration="none" x="0" y="150">UNREGISTERED</text><text fill="#eeeeee" stroke="none" font-family="Arial" font-size="24px" font-style="normal" font-weight="normal" text-decoration="none" x="0" y="180">UNREGISTERED</text><text fill="#eeeeee" stroke="none" font-family="Arial" font-size="24px" font-style="normal" font-weight="normal" text-decoration="none" x="0" y="210">UNREGISTERED</text><text fill="#eeeeee" stroke="none" font-family="Arial" font-size="24px" font-style="normal" font-weight="normal" text-decoration="none" x="0" y="240">UNREGISTERED</text><text fill="#eeeeee" stroke="none" font-family="Arial" font-size="24px" font-style="normal" font-weight="normal" text-decoration="none" x="0" y="270">UNREGISTERED</text><text fill="#eeeeee" stroke="none" font-family="Arial" font-size="24px" font-style="normal" font-weight="normal" text-decoration="none" x="0" y="300">UNREGISTERED</text><text fill="#eeeeee" stroke="none" font-family="Arial" font-size="24px" font-style="normal" font-weight="normal" text-decoration="none" x="0" y="330">UNREGISTERED</text><text fill="#eeeeee" stroke="none" font-family="Arial" font-size="24px" font-style="normal" font-weight="normal" text-decoration="none" x="0" y="360">UNREGISTERED</text><text fill="#eeeeee" stroke="none" font-family="Arial" font-size="24px" font-style="normal" font-weight="normal" text-decoration="none" x="0" y="390">UNREGISTERED</text><text fill="#eeeeee" stroke="none" font-family="Arial" font-size="24px" font-style="normal" font-weight="normal" text-decoration="none" x="0" y="420">UNREGISTERED</text><text fill="#eeeeee" stroke="none" font-family="Arial" font-size="24px" font-style="normal" font-weight="normal" text-decoration="none" x="0" y="450">UNREGISTERED</text><text fill="#eeeeee" stroke="none" font-family="Arial" font-size="24px" font-style="normal" font-weight="normal" text-decoration="none" x="0" y="480">UNREGISTERED</text><text fill="#eeeeee" stroke="none" font-family="Arial" font-size="24px" font-style="normal" font-weight="normal" text-decoration="none" x="0" y="510">UNREGISTERED</text><text fill="#eeeeee" stroke="none" font-family="Arial" font-size="24px" font-style="normal" font-weight="normal" text-decoration="none" x="0" y="540">UNREGISTERED</text><text fill="#eeeeee" stroke="none" font-family="Arial" font-size="24px" font-style="normal" font-weight="normal" text-decoration="none" x="200" y="0">UNREGISTERED</text><text fill="#eeeeee" stroke="none" font-family="Arial" font-size="24px" font-style="normal" font-weight="normal" text-decoration="none" x="200" y="30">UNREGISTERED</text><text fill="#eeeeee" stroke="none" font-family="Arial" font-size="24px" font-style="normal" font-weight="normal" text-decoration="none" x="200" y="60">UNREGISTERED</text><text fill="#eeeeee" stroke="none" font-family="Arial" font-size="24px" font-style="normal" font-weight="normal" text-decoration="none" x="200" y="90">UNREGISTERED</text><text fill="#eeeeee" stroke="none" font-family="Arial" font-size="24px" font-style="normal" font-weight="normal" text-decoration="none" x="200" y="120">UNREGISTERED</text><text fill="#eeeeee" stroke="none" font-family="Arial" font-size="24px" font-style="normal" font-weight="normal" text-decoration="none" x="200" y="150">UNREGISTERED</text><text fill="#eeeeee" stroke="none" font-family="Arial" font-size="24px" font-style="normal" font-weight="normal" text-decoration="none" x="200" y="180">UNREGISTERED</text><text fill="#eeeeee" stroke="none" font-family="Arial" font-size="24px" font-style="normal" font-weight="normal" text-decoration="none" x="200" y="210">UNREGISTERED</text><text fill="#eeeeee" stroke="none" font-family="Arial" font-size="24px" font-style="normal" font-weight="normal" text-decoration="none" x="200" y="240">UNREGISTERED</text><text fill="#eeeeee" stroke="none" font-family="Arial" font-size="24px" font-style="normal" font-weight="normal" text-decoration="none" x="200" y="270">UNREGISTERED</text><text fill="#eeeeee" stroke="none" font-family="Arial" font-size="24px" font-style="normal" font-weight="normal" text-decoration="none" x="200" y="300">UNREGISTERED</text><text fill="#eeeeee" stroke="none" font-family="Arial" font-size="24px" font-style="normal" font-weight="normal" text-decoration="none" x="200" y="330">UNREGISTERED</text><text fill="#eeeeee" stroke="none" font-family="Arial" font-size="24px" font-style="normal" font-weight="normal" text-decoration="none" x="200" y="360">UNREGISTERED</text><text fill="#eeeeee" stroke="none" font-family="Arial" font-size="24px" font-style="normal" font-weight="normal" text-decoration="none" x="200" y="390">UNREGISTERED</text><text fill="#eeeeee" stroke="none" font-family="Arial" font-size="24px" font-style="normal" font-weight="normal" text-decoration="none" x="200" y="420">UNREGISTERED</text><text fill="#eeeeee" stroke="none" font-family="Arial" font-size="24px" font-style="normal" font-weight="normal" text-decoration="none" x="200" y="450">UNREGISTERED</text><text fill="#eeeeee" stroke="none" font-family="Arial" font-size="24px" font-style="normal" font-weight="normal" text-decoration="none" x="200" y="480">UNREGISTERED</text><text fill="#eeeeee" stroke="none" font-family="Arial" font-size="24px" font-style="normal" font-weight="normal" text-decoration="none" x="200" y="510">UNREGISTERED</text><text fill="#eeeeee" stroke="none" font-family="Arial" font-size="24px" font-style="normal" font-weight="normal" text-decoration="none" x="200" y="540">UNREGISTERED</text><text fill="#eeeeee" stroke="none" font-family="Arial" font-size="24px" font-style="normal" font-weight="normal" text-decoration="none" x="400" y="0">UNREGISTERED</text><text fill="#eeeeee" stroke="none" font-family="Arial" font-size="24px" font-style="normal" font-weight="normal" text-decoration="none" x="400" y="30">UNREGISTERED</text><text fill="#eeeeee" stroke="none" font-family="Arial" font-size="24px" font-style="normal" font-weight="normal" text-decoration="none" x="400" y="60">UNREGISTERED</text><text fill="#eeeeee" stroke="none" font-family="Arial" font-size="24px" font-style="normal" font-weight="normal" text-decoration="none" x="400" y="90">UNREGISTERED</text><text fill="#eeeeee" stroke="none" font-family="Arial" font-size="24px" font-style="normal" font-weight="normal" text-decoration="none" x="400" y="120">UNREGISTERED</text><text fill="#eeeeee" stroke="none" font-family="Arial" font-size="24px" font-style="normal" font-weight="normal" text-decoration="none" x="400" y="150">UNREGISTERED</text><text fill="#eeeeee" stroke="none" font-family="Arial" font-size="24px" font-style="normal" font-weight="normal" text-decoration="none" x="400" y="180">UNREGISTERED</text><text fill="#eeeeee" stroke="none" font-family="Arial" font-size="24px" font-style="normal" font-weight="normal" text-decoration="none" x="400" y="210">UNREGISTERED</text><text fill="#eeeeee" stroke="none" font-family="Arial" font-size="24px" font-style="normal" font-weight="normal" text-decoration="none" x="400" y="240">UNREGISTERED</text><text fill="#eeeeee" stroke="none" font-family="Arial" font-size="24px" font-style="normal" font-weight="normal" text-decoration="none" x="400" y="270">UNREGISTERED</text><text fill="#eeeeee" stroke="none" font-family="Arial" font-size="24px" font-style="normal" font-weight="normal" text-decoration="none" x="400" y="300">UNREGISTERED</text><text fill="#eeeeee" stroke="none" font-family="Arial" font-size="24px" font-style="normal" font-weight="normal" text-decoration="none" x="400" y="330">UNREGISTERED</text><text fill="#eeeeee" stroke="none" font-family="Arial" font-size="24px" font-style="normal" font-weight="normal" text-decoration="none" x="400" y="360">UNREGISTERED</text><text fill="#eeeeee" stroke="none" font-family="Arial" font-size="24px" font-style="normal" font-weight="normal" text-decoration="none" x="400" y="390">UNREGISTERED</text><text fill="#eeeeee" stroke="none" font-family="Arial" font-size="24px" font-style="normal" font-weight="normal" text-decoration="none" x="400" y="420">UNREGISTERED</text><text fill="#eeeeee" stroke="none" font-family="Arial" font-size="24px" font-style="normal" font-weight="normal" text-decoration="none" x="400" y="450">UNREGISTERED</text><text fill="#eeeeee" stroke="none" font-family="Arial" font-size="24px" font-style="normal" font-weight="normal" text-decoration="none" x="400" y="480">UNREGISTERED</text><text fill="#eeeeee" stroke="none" font-family="Arial" font-size="24px" font-style="normal" font-weight="normal" text-decoration="none" x="400" y="510">UNREGISTERED</text><text fill="#eeeeee" stroke="none" font-family="Arial" font-size="24px" font-style="normal" font-weight="normal" text-decoration="none" x="400" y="540">UNREGISTERED</text><text fill="#eeeeee" stroke="none" font-family="Arial" font-size="24px" font-style="normal" font-weight="normal" text-decoration="none" x="600" y="0">UNREGISTERED</text><text fill="#eeeeee" stroke="none" font-family="Arial" font-size="24px" font-style="normal" font-weight="normal" text-decoration="none" x="600" y="30">UNREGISTERED</text><text fill="#eeeeee" stroke="none" font-family="Arial" font-size="24px" font-style="normal" font-weight="normal" text-decoration="none" x="600" y="60">UNREGISTERED</text><text fill="#eeeeee" stroke="none" font-family="Arial" font-size="24px" font-style="normal" font-weight="normal" text-decoration="none" x="600" y="90">UNREGISTERED</text><text fill="#eeeeee" stroke="none" font-family="Arial" font-size="24px" font-style="normal" font-weight="normal" text-decoration="none" x="600" y="120">UNREGISTERED</text><text fill="#eeeeee" stroke="none" font-family="Arial" font-size="24px" font-style="normal" font-weight="normal" text-decoration="none" x="600" y="150">UNREGISTERED</text><text fill="#eeeeee" stroke="none" font-family="Arial" font-size="24px" font-style="normal" font-weight="normal" text-decoration="none" x="600" y="180">UNREGISTERED</text><text fill="#eeeeee" stroke="none" font-family="Arial" font-size="24px" font-style="normal" font-weight="normal" text-decoration="none" x="600" y="210">UNREGISTERED</text><text fill="#eeeeee" stroke="none" font-family="Arial" font-size="24px" font-style="normal" font-weight="normal" text-decoration="none" x="600" y="240">UNREGISTERED</text><text fill="#eeeeee" stroke="none" font-family="Arial" font-size="24px" font-style="normal" font-weight="normal" text-decoration="none" x="600" y="270">UNREGISTERED</text><text fill="#eeeeee" stroke="none" font-family="Arial" font-size="24px" font-style="normal" font-weight="normal" text-decoration="none" x="600" y="300">UNREGISTERED</text><text fill="#eeeeee" stroke="none" font-family="Arial" font-size="24px" font-style="normal" font-weight="normal" text-decoration="none" x="600" y="330">UNREGISTERED</text><text fill="#eeeeee" stroke="none" font-family="Arial" font-size="24px" font-style="normal" font-weight="normal" text-decoration="none" x="600" y="360">UNREGISTERED</text><text fill="#eeeeee" stroke="none" font-family="Arial" font-size="24px" font-style="normal" font-weight="normal" text-decoration="none" x="600" y="390">UNREGISTERED</text><text fill="#eeeeee" stroke="none" font-family="Arial" font-size="24px" font-style="normal" font-weight="normal" text-decoration="none" x="600" y="420">UNREGISTERED</text><text fill="#eeeeee" stroke="none" font-family="Arial" font-size="24px" font-style="normal" font-weight="normal" text-decoration="none" x="600" y="450">UNREGISTERED</text><text fill="#eeeeee" stroke="none" font-family="Arial" font-size="24px" font-style="normal" font-weight="normal" text-decoration="none" x="600" y="480">UNREGISTERED</text><text fill="#eeeeee" stroke="none" font-family="Arial" font-size="24px" font-style="normal" font-weight="normal" text-decoration="none" x="600" y="510">UNREGISTERED</text><text fill="#eeeeee" stroke="none" font-family="Arial" font-size="24px" font-style="normal" font-weight="normal" text-decoration="none" x="600" y="540">UNREGISTERED</text><g transform="translate(-6,-38) scale(1,1)"><rect fill="#C0C0C0" stroke="none" x="247" y="319" width="71.384765625" height="95" opacity="0.2"/></g><g transform="translate(-6,-38) scale(1,1)"><rect fill="#ffd6ad" stroke="none" x="240" y="312" width="71.384765625" height="95"/></g><g transform="translate(-6,-38) scale(1,1)"><path fill="none" stroke="#000000" d="M 240 312 L 311.384765625 312 L 311.384765625 407 L 240 407 L 240 312 Z Z" stroke-miterlimit="10"/></g><g transform="translate(-6,-38) scale(1,1)"><path fill="none" stroke="#000000" d="M 240 348 L 311.384765625 348" stroke-miterlimit="10"/></g><g transform="translate(-6,-38) scale(1,1)"><path fill="none" stroke="#000000" d="M 240 398 L 311.384765625 398" stroke-miterlimit="10"/></g><g transform="translate(-6,-38) scale(1,1)"><g><path fill="none" stroke="none"/><text fill="#000000" stroke="none" font-family="Arial" font-size="12px" font-style="normal" font-weight="normal" text-decoration="none" x="254.677734375" y="328.5">«entity»</text></g></g><g transform="translate(-6,-38) scale(1,1)"><g><path fill="none" stroke="none"/><text fill="#000000" stroke="none" font-family="Arial" font-size="12px" font-style="normal" font-weight="bold" text-decoration="none" x="253.0166015625" y="342.5">Emprunt</text></g></g><g transform="translate(-6,-38) scale(1,1)"><g><path fill="none" stroke="none"/><text fill="#000000" stroke="none" font-family="Arial" font-size="12px" font-style="normal" font-weight="normal" text-decoration="none" x="245" y="364.5">+dateDebut</text></g></g><g transform="translate(-6,-38) scale(1,1)"><g><path fill="none" stroke="none"/><text fill="#000000" stroke="none" font-family="Arial" font-size="12px" font-style="normal" font-weight="normal" text-decoration="none" x="245" y="378.5">+dateFin</text></g></g><g transform="translate(-6,-38) scale(1,1)"><g><path fill="none" stroke="none"/><text fill="#000000" stroke="none" font-family="Arial" font-size="12px" font-style="normal" font-weight="normal" text-decoration="none" x="245" y="392.5">+id</text></g></g><g transform="translate(-6,-38) scale(1,1)"><rect fill="#C0C0C0" stroke="none" x="479" y="55" width="92.068359375" height="109" opacity="0.2"/></g><g transform="translate(-6,-38) scale(1,1)"><rect fill="#ffd6ad" stroke="none" x="472" y="48" width="92.068359375" height="109"/></g><g transform="translate(-6,-38) scale(1,1)"><path fill="none" stroke="#000000" d="M 472 48 L 564.068359375 48 L 564.068359375 157 L 472 157 L 472 48 Z Z" stroke-miterlimit="10"/></g><g transform="translate(-6,-38) scale(1,1)"><path fill="none" stroke="#000000" d="M 472 84 L 564.068359375 84" stroke-miterlimit="10"/></g><g transform="translate(-6,-38) scale(1,1)"><path fill="none" stroke="#000000" d="M 472 148 L 564.068359375 148" stroke-miterlimit="10"/></g><g transform="translate(-6,-38) scale(1,1)"><g><path fill="none" stroke="none"/><text fill="#000000" stroke="none" font-family="Arial" font-size="12px" font-style="normal" font-weight="normal" text-decoration="none" x="497.01953125" y="64.5">«entity»</text></g></g><g transform="translate(-6,-38) scale(1,1)"><g><path fill="none" stroke="none"/><text fill="#000000" stroke="none" font-family="Arial" font-size="12px" font-style="normal" font-weight="bold" text-decoration="none" x="486.0126953125" y="78.5">Contentieux</text></g></g><g transform="translate(-6,-38) scale(1,1)"><g><path fill="none" stroke="none"/><text fill="#000000" stroke="none" font-family="Arial" font-size="12px" font-style="normal" font-weight="normal" text-decoration="none" x="477" y="100.5">+id</text></g></g><g transform="translate(-6,-38) scale(1,1)"><g><path fill="none" stroke="none"/><text fill="#000000" stroke="none" font-family="Arial" font-size="12px" font-style="normal" font-weight="normal" text-decoration="none" x="477" y="114.5">+date</text></g></g><g transform="translate(-6,-38) scale(1,1)"><g><path fill="none" stroke="none"/><text fill="#000000" stroke="none" font-family="Arial" font-size="12px" font-style="normal" font-weight="normal" text-decoration="none" x="477" y="128.5">+motif</text></g></g><g transform="translate(-6,-38) scale(1,1)"><g><path fill="none" stroke="none"/><text fill="#000000" stroke="none" font-family="Arial" font-size="12px" font-style="normal" font-weight="normal" text-decoration="none" x="477" y="142.5">+regle: boolean</text></g></g><g transform="translate(-6,-38) scale(1,1)"><rect fill="#C0C0C0" stroke="none" x="599" y="231" width="110.501953125" height="97" opacity="0.2"/></g><g transform="translate(-6,-38) scale(1,1)"><rect fill="#ffd6ad" stroke="none" x="592" y="224" width="110.501953125" height="97"/></g><g transform="translate(-6,-38) scale(1,1)"><path fill="none" stroke="#000000" d="M 592 224 L 702.501953125 224 L 702.501953125 321 L 592 321 L 592 224 Z Z" stroke-miterlimit="10"/></g><g transform="translate(-6,-38) scale(1,1)"><path fill="none" stroke="#000000" d="M 592 248 L 702.501953125 248" stroke-miterlimit="10"/></g><g transform="translate(-6,-38) scale(1,1)"><path fill="none" stroke="#000000" d="M 592 312 L 702.501953125 312" stroke-miterlimit="10"/></g><g transform="translate(-6,-38) scale(1,1)"><g><path fill="none" stroke="none"/><text fill="#000000" stroke="none" font-family="Arial" font-size="12px" font-style="normal" font-weight="bold" text-decoration="none" x="615.2353515625" y="242.5">Reservation</text></g></g><g transform="translate(-6,-38) scale(1,1)"><g><path fill="none" stroke="none"/><text fill="#000000" stroke="none" font-family="Arial" font-size="12px" font-style="normal" font-weight="normal" text-decoration="none" x="597" y="264.5">+dateResa</text></g></g><g transform="translate(-6,-38) scale(1,1)"><g><path fill="none" stroke="none"/><text fill="#000000" stroke="none" font-family="Arial" font-size="12px" font-style="normal" font-weight="normal" text-decoration="none" x="597" y="278.5">+id</text></g></g><g transform="translate(-6,-38) scale(1,1)"><g><path fill="none" stroke="none"/><text fill="#000000" stroke="none" font-family="Arial" font-size="12px" font-style="normal" font-weight="normal" text-decoration="none" x="597" y="292.5">+statut</text></g></g><g transform="translate(-6,-38) scale(1,1)"><g><path fill="none" stroke="none"/><text fill="#000000" stroke="none" font-family="Arial" font-size="12px" font-style="normal" font-weight="normal" text-decoration="none" x="597" y="306.5">+dureeMaxiValidité</text><path fill="none" stroke="#000000" d="M 597 306.5 L 698.501953125 306.5" stroke-miterlimit="10"/></g></g><g transform="translate(-6,-38) scale(1,1)"><path fill="none" stroke="#000000" d="M 312 319 L 471 152" stroke-miterlimit="10"/></g><g transform="translate(-6,-38) scale(1,1)"><g><path fill="none" stroke="none"/><text fill="#000000" stroke="none" font-family="Arial" font-size="12px" font-style="normal" font-weight="normal" text-decoration="none" x="331.5" y="316.5">1</text></g></g><g transform="translate(-6,-38) scale(1,1)"><g><path fill="none" stroke="none"/><text fill="#000000" stroke="none" font-family="Arial" font-size="12px" font-style="normal" font-weight="normal" text-decoration="none" x="454.5" y="181.5">0..1</text></g></g><g transform="translate(-6,-38) scale(1,1)"><rect fill="#C0C0C0" stroke="none" x="231" y="503" width="173.42578125" height="97" opacity="0.2"/></g><g transform="translate(-6,-38) scale(1,1)"><rect fill="#ffffff" stroke="none" x="224" y="496" width="173.42578125" height="97"/></g><g transform="translate(-6,-38) scale(1,1)"><path fill="none" stroke="#000000" d="M 224 496 L 397.42578125 496 L 397.42578125 593 L 224 593 L 224 496 Z Z" stroke-miterlimit="10"/></g><g transform="translate(-6,-38) scale(1,1)"><path fill="none" stroke="#000000" d="M 224 534 L 397.42578125 534" stroke-miterlimit="10"/></g><g transform="translate(-6,-38) scale(1,1)"><path fill="none" stroke="#000000" d="M 224 584 L 397.42578125 584" stroke-miterlimit="10"/></g><g transform="translate(-6,-38) scale(1,1)"><g><path fill="none" stroke="none"/><text fill="#000000" stroke="none" font-family="Arial" font-size="12px" font-style="normal" font-weight="bold" text-decoration="none" x="280.701171875" y="514.5">Exemplaire</text></g></g><g transform="translate(-6,-38) scale(1,1)"><g><path fill="none" stroke="none"/><text fill="#000000" stroke="none" font-family="Arial" font-size="12px" font-style="normal" font-weight="normal" text-decoration="none" x="273.7080078125" y="528.5">(from medias)</text></g></g><g transform="translate(-6,-38) scale(1,1)"><g><path fill="none" stroke="none"/><text fill="#000000" stroke="none" font-family="Arial" font-size="12px" font-style="normal" font-weight="normal" text-decoration="none" x="229" y="550.5">+numero {id}</text></g></g><g transform="translate(-6,-38) scale(1,1)"><g><path fill="none" stroke="none"/><text fill="#000000" stroke="none" font-family="Arial" font-size="12px" font-style="normal" font-weight="normal" text-decoration="none" x="229" y="564.5">+etatPhysique: EtatExemplaire</text></g></g><g transform="translate(-6,-38) scale(1,1)"><g><path fill="none" stroke="none"/><text fill="#000000" stroke="none" font-family="Arial" font-size="12px" font-style="normal" font-weight="normal" text-decoration="none" x="229" y="578.5">+usage: UsageExemplaire</text></g></g><g transform="translate(-6,-38) scale(1,1)"><path fill="none" stroke="#000000" d="M 284 408 L 301 495" stroke-miterlimit="10"/></g><g transform="translate(-6,-38) scale(1,1)"><path fill="none" stroke="#000000" d="M 294.9196646931944 485.83323816406175 L 301 495 L 303.18243312838376 484.21867421695583" stroke-miterlimit="10"/></g><g transform="translate(-6,-38) scale(1,1)"><g><path fill="none" stroke="none"/><text fill="#000000" stroke="none" font-family="Arial" font-size="12px" font-style="normal" font-weight="normal" text-decoration="none" x="272.1650390625" y="436.5">*</text></g></g><g transform="translate(-6,-38) scale(1,1)"><g><path fill="none" stroke="none"/><text fill="#000000" stroke="none" font-family="Arial" font-size="12px" font-style="normal" font-weight="normal" text-decoration="none" x="280.5" y="481.5">1</text></g></g><g transform="translate(-6,-38) scale(1,1)"><rect fill="#C0C0C0" stroke="none" x="423" y="295" width="139.435546875" height="107" opacity="0.2"/></g><g transform="translate(-6,-38) scale(1,1)"><rect fill="#ffffff" stroke="none" x="416" y="288" width="139.435546875" height="107"/></g><g transform="translate(-6,-38) scale(1,1)"><path fill="none" stroke="#000000" d="M 416 288 L 555.435546875 288 L 555.435546875 395 L 416 395 L 416 288 Z Z" stroke-miterlimit="10"/></g><g transform="translate(-6,-38) scale(1,1)"><path fill="none" stroke="#000000" d="M 416 338 L 555.435546875 338" stroke-miterlimit="10"/></g><g transform="translate(-6,-38) scale(1,1)"><path fill="none" stroke="#000000" d="M 416 374 L 555.435546875 374" stroke-miterlimit="10"/></g><g transform="translate(-6,-38) scale(1,1)"><g><path fill="none" stroke="none"/><text fill="#000000" stroke="none" font-family="Arial" font-size="12px" font-style="normal" font-weight="normal" text-decoration="none" x="464.703125" y="304.5">«entity»</text></g></g><g transform="translate(-6,-38) scale(1,1)"><g><path fill="none" stroke="none"/><text fill="#000000" stroke="none" font-family="Arial" font-size="12px" font-style="normal" font-weight="bold" text-decoration="none" x="465.03125" y="318.5">Abonne</text></g></g><g transform="translate(-6,-38) scale(1,1)"><g><path fill="none" stroke="none"/><text fill="#000000" stroke="none" font-family="Arial" font-size="12px" font-style="normal" font-weight="normal" text-decoration="none" x="444.7080078125" y="332.5">(from individus)</text></g></g><g transform="translate(-6,-38) scale(1,1)"><g><path fill="none" stroke="none"/><text fill="#000000" stroke="none" font-family="Arial" font-size="12px" font-style="normal" font-weight="normal" text-decoration="none" x="421" y="354.5">+dateDebutAbonnement</text></g></g><g transform="translate(-6,-38) scale(1,1)"><g><path fill="none" stroke="none"/><text fill="#000000" stroke="none" font-family="Arial" font-size="12px" font-style="normal" font-weight="normal" text-decoration="none" x="421" y="368.5">+dateFinAbonnement</text></g></g><g transform="translate(-6,-38) scale(1,1)"><g><path fill="none" stroke="none"/><text fill="#000000" stroke="none" font-family="Arial" font-size="12px" font-style="normal" font-weight="normal" text-decoration="none" x="421" y="390.5">+changePassword()</text></g></g><g transform="translate(-6,-38) scale(1,1)"><path fill="none" stroke="#000000" d="M 312 356 L 415 347" stroke-miterlimit="10"/></g><g transform="translate(-6,-38) scale(1,1)"><path fill="none" stroke="#000000" d="M 405.24232630148884 352.0781693545394 L 415 347 L 404.5094747725686 343.6910907457857" stroke-miterlimit="10"/></g><g transform="translate(-6,-38) scale(1,1)"><g><path fill="none" stroke="none"/><text fill="#000000" stroke="none" font-family="Arial" font-size="12px" font-style="normal" font-weight="normal" text-decoration="none" x="331.1650390625" y="371.5">*</text></g></g><g transform="translate(-6,-38) scale(1,1)"><g><path fill="none" stroke="none"/><text fill="#000000" stroke="none" font-family="Arial" font-size="12px" font-style="normal" font-weight="normal" text-decoration="none" x="358.5" y="329.5">+emprunteur</text></g></g><g transform="translate(-6,-38) scale(1,1)"><g><path fill="none" stroke="none"/><text fill="#000000" stroke="none" font-family="Arial" font-size="12px" font-style="normal" font-weight="normal" text-decoration="none" x="390.5" y="366.5">1</text></g></g><g transform="translate(-6,-38) scale(1,1)"><rect fill="#C0C0C0" stroke="none" x="543" y="463" width="84.052734375" height="111" opacity="0.2"/></g><g transform="translate(-6,-38) scale(1,1)"><rect fill="#ffffff" stroke="none" x="536" y="456" width="84.052734375" height="111"/></g><g transform="translate(-6,-38) scale(1,1)"><path fill="none" stroke="#000000" d="M 536 456 L 620.052734375 456 L 620.052734375 567 L 536 567 L 536 456 Z Z" stroke-miterlimit="10"/></g><g transform="translate(-6,-38) scale(1,1)"><path fill="none" stroke="#000000" d="M 536 494 L 620.052734375 494" stroke-miterlimit="10"/></g><g transform="translate(-6,-38) scale(1,1)"><path fill="none" stroke="#000000" d="M 536 558 L 620.052734375 558" stroke-miterlimit="10"/></g><g transform="translate(-6,-38) scale(1,1)"><g><path fill="none" stroke="none"/><text fill="#000000" stroke="none" font-family="Arial" font-size="12px" font-style="normal" font-weight="bold" text-decoration="none" x="558.3505859375" y="474.5">Oeuvre</text></g></g><g transform="translate(-6,-38) scale(1,1)"><g><path fill="none" stroke="none"/><text fill="#000000" stroke="none" font-family="Arial" font-size="12px" font-style="normal" font-weight="normal" text-decoration="none" x="541.021484375" y="488.5">(from medias)</text></g></g><g transform="translate(-6,-38) scale(1,1)"><g><path fill="none" stroke="none"/><text fill="#000000" stroke="none" font-family="Arial" font-size="12px" font-style="normal" font-weight="normal" text-decoration="none" x="541" y="510.5">+titre</text></g></g><g transform="translate(-6,-38) scale(1,1)"><g><path fill="none" stroke="none"/><text fill="#000000" stroke="none" font-family="Arial" font-size="12px" font-style="normal" font-weight="normal" text-decoration="none" x="541" y="524.5">+auteur</text></g></g><g transform="translate(-6,-38) scale(1,1)"><g><path fill="none" stroke="none"/><text fill="#000000" stroke="none" font-family="Arial" font-size="12px" font-style="normal" font-weight="normal" text-decoration="none" x="541" y="538.5">+editeur</text></g></g><g transform="translate(-6,-38) scale(1,1)"><g><path fill="none" stroke="none"/><text fill="#000000" stroke="none" font-family="Arial" font-size="12px" font-style="normal" font-weight="normal" text-decoration="none" x="541" y="552.5">+idPublication</text></g></g><g transform="translate(-6,-38) scale(1,1)"><path fill="none" stroke="#000000" d="M 535 516 L 398 533" stroke-miterlimit="10"/></g><g transform="translate(-6,-38) scale(1,1)"><g><path fill="none" stroke="none"/><text fill="#000000" stroke="none" font-family="Arial" font-size="12px" font-style="normal" font-weight="normal" text-decoration="none" x="489.5" y="539.5">+oeuvre</text></g></g><g transform="translate(-6,-38) scale(1,1)"><g><path fill="none" stroke="none"/><text fill="#000000" stroke="none" font-family="Arial" font-size="12px" font-style="normal" font-weight="normal" text-decoration="none" x="507.5" y="511.5">1</text></g></g><g transform="translate(-6,-38) scale(1,1)"><g><path fill="none" stroke="none"/><text fill="#000000" stroke="none" font-family="Arial" font-size="12px" font-style="normal" font-weight="normal" text-decoration="none" x="414.1650390625" y="522.5">*</text></g></g><g transform="translate(-6,-38) scale(1,1)"><path fill="none" stroke="#000000" d="M 633 322 L 594 455" stroke-miterlimit="10"/></g><g transform="translate(-6,-38) scale(1,1)"><path fill="none" stroke="#000000" d="M 592.820192122248 444.0634533159871 L 594 455 L 600.899056172173 446.43244352611543" stroke-miterlimit="10"/></g><g transform="translate(-6,-38) scale(1,1)"><g><path fill="none" stroke="none"/><text fill="#000000" stroke="none" font-family="Arial" font-size="12px" font-style="normal" font-weight="normal" text-decoration="none" x="584.5" y="435.5">1</text></g></g><g transform="translate(-6,-38) scale(1,1)"><path fill="none" stroke="#000000" d="M 591 296 L 556 311" stroke-miterlimit="10"/></g><g transform="translate(-6,-38) scale(1,1)"><path fill="none" stroke="#000000" d="M 563.6827618052683 303.1275689241817 L 556 311 L 566.9991823688811 310.86588357261144" stroke-miterlimit="10"/></g><g transform="translate(-6,-38) scale(1,1)"><g><path fill="none" stroke="none"/><text fill="#000000" stroke="none" font-family="Arial" font-size="12px" font-style="normal" font-weight="normal" text-decoration="none" x="566.1650390625" y="294.5">*</text></g></g><g transform="translate(-6,-38) scale(1,1)"><g><path fill="none" stroke="none"/><text fill="#000000" stroke="none" font-family="Arial" font-size="12px" font-style="normal" font-weight="normal" text-decoration="none" x="566.5" y="295.5">1</text></g></g><g transform="translate(-6,-38) scale(1,1)"><rect fill="#C0C0C0" stroke="none" x="55" y="63" width="237.46875" height="67" opacity="0.2"/></g><g transform="translate(-6,-38) scale(1,1)"><rect fill="#ffffff" stroke="none" x="48" y="56" width="237.46875" height="67"/></g><g transform="translate(-6,-38) scale(1,1)"><path fill="none" stroke="#000000" d="M 48 56 L 285.46875 56 L 285.46875 123 L 48 123 L 48 56 Z Z" stroke-miterlimit="10"/></g><g transform="translate(-6,-38) scale(1,1)"><path fill="none" stroke="#000000" d="M 48 92 L 285.46875 92" stroke-miterlimit="10"/></g><g transform="translate(-6,-38) scale(1,1)"><path fill="none" stroke="#000000" d="M 48 102 L 285.46875 102" stroke-miterlimit="10"/></g><g transform="translate(-6,-38) scale(1,1)"><g><path fill="none" stroke="none"/><text fill="#000000" stroke="none" font-family="Arial" font-size="12px" font-style="normal" font-weight="normal" text-decoration="none" x="141.0556640625" y="72.5">«service»</text></g></g><g transform="translate(-6,-38) scale(1,1)"><g><path fill="none" stroke="none"/><text fill="#000000" stroke="none" font-family="Arial" font-size="12px" font-style="normal" font-weight="bold" text-decoration="none" x="114.7060546875" y="86.5">ServiceContentieux</text></g></g><g transform="translate(-6,-38) scale(1,1)"><g><path fill="none" stroke="none"/><text fill="#000000" stroke="none" font-family="Arial" font-size="12px" font-style="normal" font-weight="normal" text-decoration="none" x="53" y="118.5">+verifierAbsenceContentieuxPourAbonné()</text></g></g><g transform="translate(-6,-38) scale(1,1)"><rect fill="#C0C0C0" stroke="none" x="39" y="191" width="234.755859375" height="81" opacity="0.2"/></g><g transform="translate(-6,-38) scale(1,1)"><rect fill="#ffffff" stroke="none" x="32" y="184" width="234.755859375" height="81"/></g><g transform="translate(-6,-38) scale(1,1)"><path fill="none" stroke="#000000" d="M 32 184 L 266.755859375 184 L 266.755859375 265 L 32 265 L 32 184 Z Z" stroke-miterlimit="10"/></g><g transform="translate(-6,-38) scale(1,1)"><path fill="none" stroke="#000000" d="M 32 220 L 266.755859375 220" stroke-miterlimit="10"/></g><g transform="translate(-6,-38) scale(1,1)"><path fill="none" stroke="#000000" d="M 32 230 L 266.755859375 230" stroke-miterlimit="10"/></g><g transform="translate(-6,-38) scale(1,1)"><g><path fill="none" stroke="none"/><text fill="#000000" stroke="none" font-family="Arial" font-size="12px" font-style="normal" font-weight="normal" text-decoration="none" x="123.69921875" y="200.5">«service»</text></g></g><g transform="translate(-6,-38) scale(1,1)"><g><path fill="none" stroke="none"/><text fill="#000000" stroke="none" font-family="Arial" font-size="12px" font-style="normal" font-weight="bold" text-decoration="none" x="106.6953125" y="214.5">ServiceEmprunt</text></g></g><g transform="translate(-6,-38) scale(1,1)"><g><path fill="none" stroke="none"/><text fill="#000000" stroke="none" font-family="Arial" font-size="12px" font-style="normal" font-weight="normal" text-decoration="none" x="37" y="246.5">+calculerNbExemplairesAutorisés(numAb)</text></g></g><g transform="translate(-6,-38) scale(1,1)"><g><path fill="none" stroke="none"/><text fill="#000000" stroke="none" font-family="Arial" font-size="12px" font-style="normal" font-weight="normal" text-decoration="none" x="37" y="260.5">+getListeEmpruntEnCours(numAb)</text></g></g><g transform="translate(-6,-38) scale(1,1)"><path fill="none" stroke="#000000" d="M 286 93 L 471 100" stroke-miterlimit="10" stroke-dasharray="3"/></g><g transform="translate(-6,-38) scale(1,1)"><path fill="none" stroke="#000000" d="M 460.6854271483722 103.82224893072949 L 471 100 L 461.0037574532695 95.40923372987316" stroke-miterlimit="10"/></g><g transform="translate(-6,-38) scale(1,1)"><path fill="none" stroke="#000000" d="M 188 266 L 239 320" stroke-miterlimit="10" stroke-dasharray="3"/></g><g transform="translate(-6,-38) scale(1,1)"><path fill="none" stroke="#000000" d="M 228.96169351038094 315.5019556671291 L 239 320 L 235.08244305941218 309.7212477597107" stroke-miterlimit="10"/></g><g transform="translate(-6,-38) scale(1,1)"><path fill="#ffffff" stroke="none" d="M 16 384 L 197 384 L 207 394 L 207 439 L 16 439 L 16 384"/></g><g transform="translate(-6,-38) scale(1,1)"><path fill="none" stroke="#000000" d="M 16 384 L 197 384 L 207 394 L 207 439 L 16 439 L 16 384 L 16 384" stroke-miterlimit="10"/></g><g transform="translate(-6,-38) scale(1,1)"><path fill="none" stroke="#000000" d="M 197 384 L 197 394 L 207 394 L 197 384" stroke-miterlimit="10"/></g><g transform="translate(-6,-38) scale(1,1)"><g><path fill="none" stroke="none"/><text fill="#000000" stroke="none" font-family="Arial" font-size="12px" font-style="normal" font-weight="normal" text-decoration="none" x="21" y="401">calculNbExemplaireAutorisés =</text></g></g><g transform="translate(-6,-38) scale(1,1)"><g><path fill="none" stroke="none"/><text fill="#000000" stroke="none" font-family="Arial" font-size="12px" font-style="normal" font-weight="normal" text-decoration="none" x="21" y="415">NB_EMPRUNT_MAXI -</text><text fill="#000000" stroke="none" font-family="Arial" font-size="12px" font-style="normal" font-weight="normal" text-decoration="none" x="21" y="427">nbEmpruntEnCours </text></g></g><g transform="translate(-6,-38) scale(1,1)"><path fill="none" stroke="#000000" d="M 118 383 L 141 266" stroke-miterlimit="10" stroke-dasharray="3"/></g></g></svg>