<svg version="1.1" xmlns="http://www.w3.org/2000/svg" xmlns:xlink="http://www.w3.org/1999/xlink" width="732" height="514"><defs/><g><text fill="#eeeeee" stroke="none" font-family="Arial" font-size="24px" font-style="normal" font-weight="normal" text-decoration="none" x="0" y="0">UNREGISTERED</text><text fill="#eeeeee" stroke="none" font-family="Arial" font-size="24px" font-style="normal" font-weight="normal" text-decoration="none" x="0" y="30">UNREGISTERED</text><text fill="#eeeeee" stroke="none" font-family="Arial" font-size="24px" font-style="normal" font-weight="normal" text-decoration="none" x="0" y="60">UNREGISTERED</text><text fill="#eeeeee" stroke="none" font-family="Arial" font-size="24px" font-style="normal" font-weight="normal" text-decoration="none" x="0" y="90">UNREGISTERED</text><text fill="#eeeeee" stroke="none" font-family="Arial" font-size="24px" font-style="normal" font-weight="normal" text-decoration="none" x="0" y="120">UNREGISTERED</text><text fill="#eeeeee" stroke="none" font-family="Arial" font-size="24px" font-style="normal" font-weight="normal" text-decoration="none" x="0" y="150">UNREGISTERED</text><text fill="#eeeeee" stroke="none" font-family="Arial" font-size="24px" font-style="normal" font-weight="normal" text-decoration="none" x="0" y="180">UNREGISTERED</text><text fill="#eeeeee" stroke="none" font-family="Arial" font-size="24px" font-style="normal" font-weight="normal" text-decoration="none" x="0" y="210">UNREGISTERED</text><text fill="#eeeeee" stroke="none" font-family="Arial" font-size="24px" font-style="normal" font-weight="normal" text-decoration="none" x="0" y="240">UNREGISTERED</text><text fill="#eeeeee" stroke="none" font-family="Arial" font-size="24px" font-style="normal" font-weight="normal" text-decoration="none" x="0" y="270">UNREGISTERED</text><text fill="#eeeeee" stroke="none" font-family="Arial" font-size="24px" font-style="normal" font-weight="normal" text-decoration="none" x="0" y="300">UNREGISTERED</text><text fill="#eeeeee" stroke="none" font-family="Arial" font-size="24px" font-style="normal" font-weight="normal" text-decoration="none" x="0" y="330">UNREGISTERED</text><text fill="#eeeeee" stroke="none" font-family="Arial" font-size="24px" font-style="normal" font-weight="normal" text-decoration="none" x="0" y="360">UNREGISTERED</text><text fill="#eeeeee" stroke="none" font-family="Arial" font-size="24px" font-style="normal" font-weight="normal" text-decoration="none" x="0" y="390">UNREGISTERED</text><text fill="#eeeeee" stroke="none" font-family="Arial" font-size="24px" font-style="normal" font-weight="normal" text-decoration="none" x="0" y="420">UNREGISTERED</text><text fill="#eeeeee" stroke="none" font-family="Arial" font-size="24px" font-style="normal" font-weight="normal" text-decoration="none" x="0" y="450">UNREGISTERED</text><text fill="#eeeeee" stroke="none" font-family="Arial" font-size="24px" font-style="normal" font-weight="normal" text-decoration="none" x="0" y="480">UNREGISTERED</text><text fill="#eeeeee" stroke="none" font-family="Arial" font-size="24px" font-style="normal" font-weight="normal" text-decoration="none" x="0" y="510">UNREGISTERED</text><text fill="#eeeeee" stroke="none" font-family="Arial" font-size="24px" font-style="normal" font-weight="normal" text-decoration="none" x="200" y="0">UNREGISTERED</text><text fill="#eeeeee" stroke="none" font-family="Arial" font-size="24px" font-style="normal" font-weight="normal" text-decoration="none" x="200" y="30">UNREGISTERED</text><text fill="#eeeeee" stroke="none" font-family="Arial" font-size="24px" font-style="normal" font-weight="normal" text-decoration="none" x="200" y="60">UNREGISTERED</text><text fill="#eeeeee" stroke="none" font-family="Arial" font-size="24px" font-style="normal" font-weight="normal" text-decoration="none" x="200" y="90">UNREGISTERED</text><text fill="#eeeeee" stroke="none" font-family="Arial" font-size="24px" font-style="normal" font-weight="normal" text-decoration="none" x="200" y="120">UNREGISTERED</text><text fill="#eeeeee" stroke="none" font-family="Arial" font-size="24px" font-style="normal" font-weight="normal" text-decoration="none" x="200" y="150">UNREGISTERED</text><text fill="#eeeeee" stroke="none" font-family="Arial" font-size="24px" font-style="normal" font-weight="normal" text-decoration="none" x="200" y="180">UNREGISTERED</text><text fill="#eeeeee" stroke="none" font-family="Arial" font-size="24px" font-style="normal" font-weight="normal" text-decoration="none" x="200" y="210">UNREGISTERED</text><text fill="#eeeeee" stroke="none" font-family="Arial" font-size="24px" font-style="normal" font-weight="normal" text-decoration="none" x="200" y="240">UNREGISTERED</text><text fill="#eeeeee" stroke="none" font-family="Arial" font-size="24px" font-style="normal" font-weight="normal" text-decoration="none" x="200" y="270">UNREGISTERED</text><text fill="#eeeeee" stroke="none" font-family="Arial" font-size="24px" font-style="normal" font-weight="normal" text-decoration="none" x="200" y="300">UNREGISTERED</text><text fill="#eeeeee" stroke="none" font-family="Arial" font-size="24px" font-style="normal" font-weight="normal" text-decoration="none" x="200" y="330">UNREGISTERED</text><text fill="#eeeeee" stroke="none" font-family="Arial" font-size="24px" font-style="normal" font-weight="normal" text-decoration="none" x="200" y="360">UNREGISTERED</text><text fill="#eeeeee" stroke="none" font-family="Arial" font-size="24px" font-style="normal" font-weight="normal" text-decoration="none" x="200" y="390">UNREGISTERED</text><text fill="#eeeeee" stroke="none" font-family="Arial" font-size="24px" font-style="normal" font-weight="normal" text-decoration="none" x="200" y="420">UNREGISTERED</text><text fill="#eeeeee" stroke="none" font-family="Arial" font-size="24px" font-style="normal" font-weight="normal" text-decoration="none" x="200" y="450">UNREGISTERED</text><text fill="#eeeeee" stroke="none" font-family="Arial" font-size="24px" font-style="normal" font-weight="normal" text-decoration="none" x="200" y="480">UNREGISTERED</text><text fill="#eeeeee" stroke="none" font-family="Arial" font-size="24px" font-style="normal" font-weight="normal" text-decoration="none" x="200" y="510">UNREGISTERED</text><text fill="#eeeeee" stroke="none" font-family="Arial" font-size="24px" font-style="normal" font-weight="normal" text-decoration="none" x="400" y="0">UNREGISTERED</text><text fill="#eeeeee" stroke="none" font-family="Arial" font-size="24px" font-style="normal" font-weight="normal" text-decoration="none" x="400" y="30">UNREGISTERED</text><text fill="#eeeeee" stroke="none" font-family="Arial" font-size="24px" font-style="normal" font-weight="normal" text-decoration="none" x="400" y="60">UNREGISTERED</text><text fill="#eeeeee" stroke="none" font-family="Arial" font-size="24px" font-style="normal" font-weight="normal" text-decoration="none" x="400" y="90">UNREGISTERED</text><text fill="#eeeeee" stroke="none" font-family="Arial" font-size="24px" font-style="normal" font-weight="normal" text-decoration="none" x="400" y="120">UNREGISTERED</text><text fill="#eeeeee" stroke="none" font-family="Arial" font-size="24px" font-style="normal" font-weight="normal" text-decoration="none" x="400" y="150">UNREGISTERED</text><text fill="#eeeeee" stroke="none" font-family="Arial" font-size="24px" font-style="normal" font-weight="normal" text-decoration="none" x="400" y="180">UNREGISTERED</text><text fill="#eeeeee" stroke="none" font-family="Arial" font-size="24px" font-style="normal" font-weight="normal" text-decoration="none" x="400" y="210">UNREGISTERED</text><text fill="#eeeeee" stroke="none" font-family="Arial" font-size="24px" font-style="normal" font-weight="normal" text-decoration="none" x="400" y="240">UNREGISTERED</text><text fill="#eeeeee" stroke="none" font-family="Arial" font-size="24px" font-style="normal" font-weight="normal" text-decoration="none" x="400" y="270">UNREGISTERED</text><text fill="#eeeeee" stroke="none" font-family="Arial" font-size="24px" font-style="normal" font-weight="normal" text-decoration="none" x="400" y="300">UNREGISTERED</text><text fill="#eeeeee" stroke="none" font-family="Arial" font-size="24px" font-style="normal" font-weight="normal" text-decoration="none" x="400" y="330">UNREGISTERED</text><text fill="#eeeeee" stroke="none" font-family="Arial" font-size="24px" font-style="normal" font-weight="normal" text-decoration="none" x="400" y="360">UNREGISTERED</text><text fill="#eeeeee" stroke="none" font-family="Arial" font-size="24px" font-style="normal" font-weight="normal" text-decoration="none" x="400" y="390">UNREGISTERED</text><text fill="#eeeeee" stroke="none" font-family="Arial" font-size="24px" font-style="normal" font-weight="normal" text-decoration="none" x="400" y="420">UNREGISTERED</text><text fill="#eeeeee" stroke="none" font-family="Arial" font-size="24px" font-style="normal" font-weight="normal" text-decoration="none" x="400" y="450">UNREGISTERED</text><text fill="#eeeeee" stroke="none" font-family="Arial" font-size="24px" font-style="normal" font-weight="normal" text-decoration="none" x="400" y="480">UNREGISTERED</text><text fill="#eeeeee" stroke="none" font-family="Arial" font-size="24px" font-style="normal" font-weight="normal" text-decoration="none" x="400" y="510">UNREGISTERED</text><text fill="#eeeeee" stroke="none" font-family="Arial" font-size="24px" font-style="normal" font-weight="normal" text-decoration="none" x="600" y="0">UNREGISTERED</text><text fill="#eeeeee" stroke="none" font-family="Arial" font-size="24px" font-style="normal" font-weight="normal" text-decoration="none" x="600" y="30">UNREGISTERED</text><text fill="#eeeeee" stroke="none" font-family="Arial" font-size="24px" font-style="normal" font-weight="normal" text-decoration="none" x="600" y="60">UNREGISTERED</text><text fill="#eeeeee" stroke="none" font-family="Arial" font-size="24px" font-style="normal" font-weight="normal" text-decoration="none" x="600" y="90">UNREGISTERED</text><text fill="#eeeeee" stroke="none" font-family="Arial" font-size="24px" font-style="normal" font-weight="normal" text-decoration="none" x="600" y="120">UNREGISTERED</text><text fill="#eeeeee" stroke="none" font-family="Arial" font-size="24px" font-style="normal" font-weight="normal" text-decoration="none" x="600" y="150">UNREGISTERED</text><text fill="#eeeeee" stroke="none" font-family="Arial" font-size="24px" font-style="normal" font-weight="normal" text-decoration="none" x="600" y="180">UNREGISTERED</text><text fill="#eeeeee" stroke="none" font-family="Arial" font-size="24px" font-style="normal" font-weight="normal" text-decoration="none" x="600" y="210">UNREGISTERED</text><text fill="#eeeeee" stroke="none" font-family="Arial" font-size="24px" font-style="normal" font-weight="normal" text-decoration="none" x="600" y="240">UNREGISTERED</text><text fill="#eeeeee" stroke="none" font-family="Arial" font-size="24px" font-style="normal" font-weight="normal" text-decoration="none" x="600" y="270">UNREGISTERED</text><text fill="#eeeeee" stroke="none" font-family="Arial" font-size="24px" font-style="normal" font-weight="normal" text-decoration="none" x="600" y="300">UNREGISTERED</text><text fill="#eeeeee" stroke="none" font-family="Arial" font-size="24px" font-style="normal" font-weight="normal" text-decoration="none" x="600" y="330">UNREGISTERED</text><text fill="#eeeeee" stroke="none" font-family="Arial" font-size="24px" font-style="normal" font-weight="normal" text-decoration="none" x="600" y="360">UNREGISTERED</text><text fill="#eeeeee" stroke="none" font-family="Arial" font-size="24px" font-style="normal" font-weight="normal" text-decoration="none" x="600" y="390">UNREGISTERED</text><text fill="#eeeeee" stroke="none" font-family="Arial" font-size="24px" font-style="normal" font-weight="normal" text-decoration="none" x="600" y="420">UNREGISTERED</text><text fill="#eeeeee" stroke="none" font-family="Arial" font-size="24px" font-style="normal" font-weight="normal" text-decoration="none" x="600" y="450">UNREGISTERED</text><text fill="#eeeeee" stroke="none" font-family="Arial" font-size="24px" font-style="normal" font-weight="normal" text-decoration="none" x="600" y="480">UNREGISTERED</text><text fill="#eeeeee" stroke="none" font-family="Arial" font-size="24px" font-style="normal" font-weight="normal" text-decoration="none" x="600" y="510">UNREGISTERED</text><g transform="translate(-14,-24) scale(1,1)"><path fill="#ffffff" stroke="none" d="M 59.49748508522727 153.68 C 59.49748508522727 148.886167936 63.383327410172726 145 68.1767578125 145 C 72.97018821482727 145 76.85603053977273 148.886167936 76.85603053977273 153.68 C 76.85603053977273 158.47383206400002 72.97018821482727 162.36 68.1767578125 162.36 C 63.383327410172726 162.36 59.49748508522727 158.47383206400002 59.49748508522727 153.68 Z"/></g><g transform="translate(-14,-24) scale(1,1)"><path fill="none" stroke="#000000" d="M 59.49748508522727 153.68 C 59.49748508522727 148.886167936 63.383327410172726 145 68.1767578125 145 C 72.97018821482727 145 76.85603053977273 148.886167936 76.85603053977273 153.68 C 76.85603053977273 158.47383206400002 72.97018821482727 162.36 68.1767578125 162.36 C 63.383327410172726 162.36 59.49748508522727 158.47383206400002 59.49748508522727 153.68 Z" stroke-miterlimit="10"/></g><g transform="translate(-14,-24) scale(1,1)"><path fill="none" stroke="#000000" d="M 68.1767578125 162.36 L 68.1767578125 179.64" stroke-miterlimit="10"/></g><g transform="translate(-14,-24) scale(1,1)"><path fill="none" stroke="#000000" d="M 58.98693963068182 168.84 L 77.36657599431818 168.84" stroke-miterlimit="10"/></g><g transform="translate(-14,-24) scale(1,1)"><path fill="none" stroke="#000000" d="M 68.1767578125 179.64 L 55.413121448863635 197" stroke-miterlimit="10"/></g><g transform="translate(-14,-24) scale(1,1)"><path fill="none" stroke="#000000" d="M 68.1767578125 179.64 L 80.94039417613637 197" stroke-miterlimit="10"/></g><g transform="translate(-14,-24) scale(1,1)"><g><path fill="none" stroke="none"/><text fill="#000000" stroke="none" font-family="Arial" font-size="12px" font-style="normal" font-weight="bold" text-decoration="none" x="32.15625" y="216.5">Bibliothecaire</text></g></g><g transform="translate(-14,-24) scale(1,1)"><path fill="#C0C0C0" stroke="none" d="M 383 255 C 383 246.1634432 434.487248 239 498 239 C 561.512752 239 613 246.1634432 613 255 C 613 263.8365568 561.512752 271 498 271 C 434.487248 271 383 263.8365568 383 255 Z" opacity="0.2"/></g><g transform="translate(-14,-24) scale(1,1)"><path fill="#a3ffa3" stroke="none" d="M 376 248 C 376 239.1634432 427.487248 232 491 232 C 554.512752 232 606 239.1634432 606 248 C 606 256.8365568 554.512752 264 491 264 C 427.487248 264 376 256.8365568 376 248 Z"/></g><g transform="translate(-14,-24) scale(1,1)"><path fill="none" stroke="#000000" d="M 376 248 C 376 239.1634432 427.487248 232 491 232 C 554.512752 232 606 239.1634432 606 248 C 606 256.8365568 554.512752 264 491 264 C 427.487248 264 376 256.8365568 376 248 Z" stroke-miterlimit="10"/></g><g transform="translate(-14,-24) scale(1,1)"><g><path fill="none" stroke="none"/><text fill="#000000" stroke="none" font-family="Arial" font-size="12px" font-style="normal" font-weight="bold" text-decoration="none" x="421.9619140625" y="254.5">enregistrer début emprunt</text></g></g><g transform="translate(-14,-24) scale(1,1)"><path fill="#C0C0C0" stroke="none" d="M 87 383 C 87 374.1634432 131.3238048 367 186 367 C 240.6761952 367 285 374.1634432 285 383 C 285 391.8365568 240.6761952 399 186 399 C 131.3238048 399 87 391.8365568 87 383 Z" opacity="0.2"/></g><g transform="translate(-14,-24) scale(1,1)"><path fill="#ffffff" stroke="none" d="M 80 376 C 80 367.1634432 124.3238048 360 179 360 C 233.6761952 360 278 367.1634432 278 376 C 278 384.8365568 233.6761952 392 179 392 C 124.3238048 392 80 384.8365568 80 376 Z"/></g><g transform="translate(-14,-24) scale(1,1)"><path fill="none" stroke="#000000" d="M 80 376 C 80 367.1634432 124.3238048 360 179 360 C 233.6761952 360 278 367.1634432 278 376 C 278 384.8365568 233.6761952 392 179 392 C 124.3238048 392 80 384.8365568 80 376 Z" stroke-miterlimit="10"/></g><g transform="translate(-14,-24) scale(1,1)"><g><path fill="none" stroke="none"/><text fill="#000000" stroke="none" font-family="Arial" font-size="12px" font-style="normal" font-weight="bold" text-decoration="none" x="118.30859375" y="382.5">vérifier état exemplaire</text></g></g><g transform="translate(-14,-24) scale(1,1)"><path fill="#C0C0C0" stroke="none" d="M 383 471 C 383 462.1634432 419.936504 455 465.5 455 C 511.063496 455 548 462.1634432 548 471 C 548 479.8365568 511.063496 487 465.5 487 C 419.936504 487 383 479.8365568 383 471 Z" opacity="0.2"/></g><g transform="translate(-14,-24) scale(1,1)"><path fill="#ffffff" stroke="none" d="M 376 464 C 376 455.1634432 412.936504 448 458.5 448 C 504.063496 448 541 455.1634432 541 464 C 541 472.8365568 504.063496 480 458.5 480 C 412.936504 480 376 472.8365568 376 464 Z"/></g><g transform="translate(-14,-24) scale(1,1)"><path fill="none" stroke="#000000" d="M 376 464 C 376 455.1634432 412.936504 448 458.5 448 C 504.063496 448 541 455.1634432 541 464 C 541 472.8365568 504.063496 480 458.5 480 C 412.936504 480 376 472.8365568 376 464 Z" stroke-miterlimit="10"/></g><g transform="translate(-14,-24) scale(1,1)"><g><path fill="none" stroke="none"/><text fill="#000000" stroke="none" font-family="Arial" font-size="12px" font-style="normal" font-weight="bold" text-decoration="none" x="408.806640625" y="470.5">lancer restauration</text></g></g><g transform="translate(-14,-24) scale(1,1)"><path fill="#ffffff" stroke="none" d="M 632.8373288352273 73.68 C 632.8373288352273 68.886167936 636.7231711601727 65 641.5166015625 65 C 646.3100319648273 65 650.1958742897727 68.886167936 650.1958742897727 73.68 C 650.1958742897727 78.473832064 646.3100319648273 82.36 641.5166015625 82.36 C 636.7231711601727 82.36 632.8373288352273 78.473832064 632.8373288352273 73.68 Z"/></g><g transform="translate(-14,-24) scale(1,1)"><path fill="none" stroke="#000000" d="M 632.8373288352273 73.68 C 632.8373288352273 68.886167936 636.7231711601727 65 641.5166015625 65 C 646.3100319648273 65 650.1958742897727 68.886167936 650.1958742897727 73.68 C 650.1958742897727 78.473832064 646.3100319648273 82.36 641.5166015625 82.36 C 636.7231711601727 82.36 632.8373288352273 78.473832064 632.8373288352273 73.68 Z" stroke-miterlimit="10"/></g><g transform="translate(-14,-24) scale(1,1)"><path fill="none" stroke="#000000" d="M 641.5166015625 82.36 L 641.5166015625 99.64" stroke-miterlimit="10"/></g><g transform="translate(-14,-24) scale(1,1)"><path fill="none" stroke="#000000" d="M 632.3267833806818 88.84 L 650.7064197443182 88.84" stroke-miterlimit="10"/></g><g transform="translate(-14,-24) scale(1,1)"><path fill="none" stroke="#000000" d="M 641.5166015625 99.64 L 628.7529651988636 117" stroke-miterlimit="10"/></g><g transform="translate(-14,-24) scale(1,1)"><path fill="none" stroke="#000000" d="M 641.5166015625 99.64 L 654.2802379261364 117" stroke-miterlimit="10"/></g><g transform="translate(-14,-24) scale(1,1)"><g><path fill="none" stroke="none"/><text fill="#000000" stroke="none" font-family="Arial" font-size="12px" font-style="normal" font-weight="normal" text-decoration="none" x="593.150390625" y="134.5">«logiciel_externe»</text></g></g><g transform="translate(-14,-24) scale(1,1)"><g><path fill="none" stroke="none"/><text fill="#000000" stroke="none" font-family="Arial" font-size="12px" font-style="normal" font-weight="bold" text-decoration="none" x="584.8271484375" y="148.5">SystèmeComptabilité</text></g></g><g transform="translate(-14,-24) scale(1,1)"><path fill="#C0C0C0" stroke="none" d="M 127 87 C 127 78.1634432 167.5182256 71 217.5 71 C 267.4817744 71 308 78.1634432 308 87 C 308 95.8365568 267.4817744 103 217.5 103 C 167.5182256 103 127 95.8365568 127 87 Z" opacity="0.2"/></g><g transform="translate(-14,-24) scale(1,1)"><path fill="#ffffff" stroke="none" d="M 120 80 C 120 71.1634432 160.5182256 64 210.5 64 C 260.4817744 64 301 71.1634432 301 80 C 301 88.8365568 260.4817744 96 210.5 96 C 160.5182256 96 120 88.8365568 120 80 Z"/></g><g transform="translate(-14,-24) scale(1,1)"><path fill="none" stroke="#000000" d="M 120 80 C 120 71.1634432 160.5182256 64 210.5 64 C 260.4817744 64 301 71.1634432 301 80 C 301 88.8365568 260.4817744 96 210.5 96 C 160.5182256 96 120 88.8365568 120 80 Z" stroke-miterlimit="10"/></g><g transform="translate(-14,-24) scale(1,1)"><g><path fill="none" stroke="none"/><text fill="#000000" stroke="none" font-family="Arial" font-size="12px" font-style="normal" font-weight="bold" text-decoration="none" x="155.80859375" y="86.5">enregistrer livre neuf</text></g></g><g transform="translate(-14,-24) scale(1,1)"><path fill="#C0C0C0" stroke="none" d="M 383 63 C 383 54.1634432 409.6390544 47 442.5 47 C 475.3609456 47 502 54.1634432 502 63 C 502 71.8365568 475.3609456 79 442.5 79 C 409.6390544 79 383 71.8365568 383 63 Z" opacity="0.2"/></g><g transform="translate(-14,-24) scale(1,1)"><path fill="#ffffff" stroke="none" d="M 376 56 C 376 47.1634432 402.6390544 40 435.5 40 C 468.3609456 40 495 47.1634432 495 56 C 495 64.8365568 468.3609456 72 435.5 72 C 402.6390544 72 376 64.8365568 376 56 Z"/></g><g transform="translate(-14,-24) scale(1,1)"><path fill="none" stroke="#000000" d="M 376 56 C 376 47.1634432 402.6390544 40 435.5 40 C 468.3609456 40 495 47.1634432 495 56 C 495 64.8365568 468.3609456 72 435.5 72 C 402.6390544 72 376 64.8365568 376 56 Z" stroke-miterlimit="10"/></g><g transform="translate(-14,-24) scale(1,1)"><g><path fill="none" stroke="none"/><text fill="#000000" stroke="none" font-family="Arial" font-size="12px" font-style="normal" font-weight="bold" text-decoration="none" x="401.146484375" y="62.5">notifier achat</text></g></g><g transform="translate(-14,-24) scale(1,1)"><path fill="none" stroke="#000000" d="M 113 150 L 187 97" stroke-miterlimit="10"/></g><g transform="translate(-14,-24) scale(1,1)"><path fill="none" stroke="#000000" d="M 181.18894727066237 106.33978940752188 L 187 97 L 176.28673678433978 99.49519363416577" stroke-miterlimit="10"/></g><g transform="translate(-14,-24) scale(1,1)"><path fill="none" stroke="#000000" d="M 302 70 L 375 62" stroke-miterlimit="10" stroke-dasharray="3"/></g><g transform="translate(-14,-24) scale(1,1)"><path fill="none" stroke="#000000" d="M 365.35637810764183 67.29155523426054 L 375 62 L 364.4392349755457 58.92262415388329" stroke-miterlimit="10"/></g><g transform="translate(-14,-24) scale(1,1)"><g><path fill="none" stroke="none"/><text fill="#000000" stroke="none" font-family="Arial" font-size="12px" font-style="normal" font-weight="normal" text-decoration="none" x="306.5" y="45.5">«include»</text></g></g><g transform="translate(-14,-24) scale(1,1)"><path fill="none" stroke="#000000" d="M 496 72 L 575 92" stroke-miterlimit="10"/></g><g transform="translate(-14,-24) scale(1,1)"><path fill="none" stroke="#000000" d="M 564.1150288772376 93.58663280459831 L 575 92 L 566.1812442906904 85.42508192145941" stroke-miterlimit="10"/></g><g transform="translate(-14,-24) scale(1,1)"><path fill="none" stroke="#000000" d="M 219 447 L 188 393" stroke-miterlimit="10" stroke-dasharray="3"/></g><g transform="translate(-14,-24) scale(1,1)"><path fill="none" stroke="#000000" d="M 196.71038302331547 399.717829082906 L 188 393 L 189.40894840314354 403.90939340189357" stroke-miterlimit="10"/></g><g transform="translate(-14,-24) scale(1,1)"><g><path fill="none" stroke="none"/><text fill="#000000" stroke="none" font-family="Arial" font-size="12px" font-style="normal" font-weight="normal" text-decoration="none" x="151.5" y="439.5">«extend»</text></g></g><g transform="translate(-14,-24) scale(1,1)"><path fill="#ffffff" stroke="none" d="M 320 392 L 396 392 L 406 402 L 406 430 L 320 430 L 320 392"/></g><g transform="translate(-14,-24) scale(1,1)"><path fill="none" stroke="#000000" d="M 320 392 L 396 392 L 406 402 L 406 430 L 320 430 L 320 392 L 320 392" stroke-miterlimit="10"/></g><g transform="translate(-14,-24) scale(1,1)"><path fill="none" stroke="#000000" d="M 396 392 L 396 402 L 406 402 L 396 392" stroke-miterlimit="10"/></g><g transform="translate(-14,-24) scale(1,1)"><g><path fill="none" stroke="none"/><text fill="#000000" stroke="none" font-family="Arial" font-size="12px" font-style="normal" font-weight="normal" text-decoration="none" x="325" y="409">si abîmé</text></g></g><g transform="translate(-14,-24) scale(1,1)"><path fill="none" stroke="#000000" d="M 319 413 L 203 420" stroke-miterlimit="10" stroke-dasharray="3"/></g><g transform="translate(-14,-24) scale(1,1)"><path fill="#C0C0C0" stroke="none" d="M 127 295 C 127 286.1634432 171.5476624 279 226.5 279 C 281.4523376 279 326 286.1634432 326 295 C 326 303.8365568 281.4523376 311 226.5 311 C 171.5476624 311 127 303.8365568 127 295 Z" opacity="0.2"/></g><g transform="translate(-14,-24) scale(1,1)"><path fill="#ffffff" stroke="none" d="M 120 288 C 120 279.1634432 164.5476624 272 219.5 272 C 274.4523376 272 319 279.1634432 319 288 C 319 296.8365568 274.4523376 304 219.5 304 C 164.5476624 304 120 296.8365568 120 288 Z"/></g><g transform="translate(-14,-24) scale(1,1)"><path fill="none" stroke="#000000" d="M 120 288 C 120 279.1634432 164.5476624 272 219.5 272 C 274.4523376 272 319 279.1634432 319 288 C 319 296.8365568 274.4523376 304 219.5 304 C 164.5476624 304 120 296.8365568 120 288 Z" stroke-miterlimit="10"/></g><g transform="translate(-14,-24) scale(1,1)"><g><path fill="none" stroke="none"/><text fill="#000000" stroke="none" font-family="Arial" font-size="12px" font-style="normal" font-weight="bold" text-decoration="none" x="159.1396484375" y="294.5">enregistrer fin emprunt</text></g></g><g transform="translate(-14,-24) scale(1,1)"><path fill="#C0C0C0" stroke="none" d="M 223 207 C 223 198.1634432 251.6537728 191 287 191 C 322.3462272 191 351 198.1634432 351 207 C 351 215.8365568 322.3462272 223 287 223 C 251.6537728 223 223 215.8365568 223 207 Z" opacity="0.2"/></g><g transform="translate(-14,-24) scale(1,1)"><path fill="#ffffff" stroke="none" d="M 216 200 C 216 191.1634432 244.6537728 184 280 184 C 315.3462272 184 344 191.1634432 344 200 C 344 208.8365568 315.3462272 216 280 216 C 244.6537728 216 216 208.8365568 216 200 Z"/></g><g transform="translate(-14,-24) scale(1,1)"><path fill="none" stroke="#000000" d="M 216 200 C 216 191.1634432 244.6537728 184 280 184 C 315.3462272 184 344 191.1634432 344 200 C 344 208.8365568 315.3462272 216 280 216 C 244.6537728 216 216 208.8365568 216 200 Z" stroke-miterlimit="10"/></g><g transform="translate(-14,-24) scale(1,1)"><g><path fill="none" stroke="none"/><text fill="#000000" stroke="none" font-family="Arial" font-size="12px" font-style="normal" font-weight="bold" text-decoration="none" x="242.3154296875" y="206.5">gérer emprunt</text></g></g><g transform="translate(-14,-24) scale(1,1)"><path fill="none" stroke="#000000" d="M 113 187 L 215 195" stroke-miterlimit="10"/></g><g transform="translate(-14,-24) scale(1,1)"><path fill="none" stroke="#000000" d="M 231 271 L 268 217" stroke-miterlimit="10"/></g><g transform="translate(-14,-24) scale(1,1)"><path fill="#FFFFFF" stroke="none" d="M 263.4566082435659 238.52574252720603 L 268 217 L 249.56633836837534 229.0083353905014"/></g><g transform="translate(-14,-24) scale(1,1)"><path fill="none" stroke="#000000" d="M 263.4566082435659 238.52574252720603 L 268 217 L 249.56633836837534 229.0083353905014 L 263.4566082435659 238.52574252720603" stroke-miterlimit="10"/></g><g transform="translate(-14,-24) scale(1,1)"><path fill="none" stroke="#000000" d="M 416 231 L 345 215" stroke-miterlimit="10"/></g><g transform="translate(-14,-24) scale(1,1)"><path fill="#FFFFFF" stroke="none" d="M 366.6789466100702 211.25523380199465 L 345 215 L 362.9772797295295 227.68138058439405"/></g><g transform="translate(-14,-24) scale(1,1)"><path fill="none" stroke="#000000" d="M 366.6789466100702 211.25523380199465 L 345 215 L 362.9772797295295 227.68138058439405 L 366.6789466100702 211.25523380199465" stroke-miterlimit="10"/></g><g transform="translate(-14,-24) scale(1,1)"><path fill="none" stroke="#000000" d="M 211 305 L 187 359" stroke-miterlimit="10" stroke-dasharray="3"/></g><g transform="translate(-14,-24) scale(1,1)"><path fill="none" stroke="#000000" d="M 187.28074723810596 348.0035832659772 L 187 359 L 194.97415911724485 351.4228774344834" stroke-miterlimit="10"/></g><g transform="translate(-14,-24) scale(1,1)"><g><path fill="none" stroke="none"/><text fill="#000000" stroke="none" font-family="Arial" font-size="12px" font-style="normal" font-weight="normal" text-decoration="none" x="200.5" y="349.5">«include»</text></g></g><g transform="translate(-14,-24) scale(1,1)"><path fill="#C0C0C0" stroke="none" d="M 351 351 C 351 342.1634432 384.3547824 335 425.5 335 C 466.6452176 335 500 342.1634432 500 351 C 500 359.8365568 466.6452176 367 425.5 367 C 384.3547824 367 351 359.8365568 351 351 Z" opacity="0.2"/></g><g transform="translate(-14,-24) scale(1,1)"><path fill="#ffffff" stroke="none" d="M 344 344 C 344 335.1634432 377.3547824 328 418.5 328 C 459.6452176 328 493 335.1634432 493 344 C 493 352.8365568 459.6452176 360 418.5 360 C 377.3547824 360 344 352.8365568 344 344 Z"/></g><g transform="translate(-14,-24) scale(1,1)"><path fill="none" stroke="#000000" d="M 344 344 C 344 335.1634432 377.3547824 328 418.5 328 C 459.6452176 328 493 335.1634432 493 344 C 493 352.8365568 459.6452176 360 418.5 360 C 377.3547824 360 344 352.8365568 344 344 Z" stroke-miterlimit="10"/></g><g transform="translate(-14,-24) scale(1,1)"><g><path fill="none" stroke="none"/><text fill="#000000" stroke="none" font-family="Arial" font-size="12px" font-style="normal" font-weight="bold" text-decoration="none" x="374.1328125" y="350.5">identifier abonné</text></g></g><g transform="translate(-14,-24) scale(1,1)"><path fill="#C0C0C0" stroke="none" d="M 519 351 C 519 342.1634432 569.1441024 335 631 335 C 692.8558976 335 743 342.1634432 743 351 C 743 359.8365568 692.8558976 367 631 367 C 569.1441024 367 519 359.8365568 519 351 Z" opacity="0.2"/></g><g transform="translate(-14,-24) scale(1,1)"><path fill="#a3ffa3" stroke="none" d="M 512 344 C 512 335.1634432 562.1441024 328 624 328 C 685.8558976 328 736 335.1634432 736 344 C 736 352.8365568 685.8558976 360 624 360 C 562.1441024 360 512 352.8365568 512 344 Z"/></g><g transform="translate(-14,-24) scale(1,1)"><path fill="none" stroke="#000000" d="M 512 344 C 512 335.1634432 562.1441024 328 624 328 C 685.8558976 328 736 335.1634432 736 344 C 736 352.8365568 685.8558976 360 624 360 C 562.1441024 360 512 352.8365568 512 344 Z" stroke-miterlimit="10"/></g><g transform="translate(-14,-24) scale(1,1)"><g><path fill="none" stroke="none"/><text fill="#000000" stroke="none" font-family="Arial" font-size="12px" font-style="normal" font-weight="bold" text-decoration="none" x="555.6416015625" y="350.5">vérifier droits à emprunter</text></g></g><g transform="translate(-14,-24) scale(1,1)"><path fill="none" stroke="#000000" d="M 478 265 L 431 327" stroke-miterlimit="10" stroke-dasharray="3"/></g><g transform="translate(-14,-24) scale(1,1)"><path fill="none" stroke="#000000" d="M 433.7847397682345 316.35832605163955 L 431 327 L 440.49390818602035 321.4443085618966" stroke-miterlimit="10"/></g><g transform="translate(-14,-24) scale(1,1)"><g><path fill="none" stroke="none"/><text fill="#000000" stroke="none" font-family="Arial" font-size="12px" font-style="normal" font-weight="normal" text-decoration="none" x="453.5" y="327.5">«include»</text></g></g><g transform="translate(-14,-24) scale(1,1)"><path fill="none" stroke="#000000" d="M 515 265 L 600 327" stroke-miterlimit="10" stroke-dasharray="3"/></g><g transform="translate(-14,-24) scale(1,1)"><path fill="none" stroke="#000000" d="M 589.3087654654973 324.4120463434874 L 600 327 L 594.2701151413139 317.6101959814808" stroke-miterlimit="10"/></g><g transform="translate(-14,-24) scale(1,1)"><g><path fill="none" stroke="none"/><text fill="#000000" stroke="none" font-family="Arial" font-size="12px" font-style="normal" font-weight="normal" text-decoration="none" x="547.5" y="296.5">«include»</text></g></g><g transform="translate(-14,-24) scale(1,1)"><path fill="#C0C0C0" stroke="none" d="M 239 143 C 239 134.1634432 293.1735392 127 360 127 C 426.8264608 127 481 134.1634432 481 143 C 481 151.8365568 426.8264608 159 360 159 C 293.1735392 159 239 151.8365568 239 143 Z" opacity="0.2"/></g><g transform="translate(-14,-24) scale(1,1)"><path fill="#ffffff" stroke="none" d="M 232 136 C 232 127.1634432 286.1735392 120 353 120 C 419.8264608 120 474 127.1634432 474 136 C 474 144.8365568 419.8264608 152 353 152 C 286.1735392 152 232 144.8365568 232 136 Z"/></g><g transform="translate(-14,-24) scale(1,1)"><path fill="none" stroke="#000000" d="M 232 136 C 232 127.1634432 286.1735392 120 353 120 C 419.8264608 120 474 127.1634432 474 136 C 474 144.8365568 419.8264608 152 353 152 C 286.1735392 152 232 144.8365568 232 136 Z" stroke-miterlimit="10"/></g><g transform="translate(-14,-24) scale(1,1)"><g><path fill="none" stroke="none"/><text fill="#000000" stroke="none" font-family="Arial" font-size="12px" font-style="normal" font-weight="bold" text-decoration="none" x="277.296875" y="142.5">réintégrer exemplaire réparé</text></g></g><g transform="translate(-14,-24) scale(1,1)"><path fill="none" stroke="#000000" d="M 113 176 L 250 153" stroke-miterlimit="10"/></g><g transform="translate(-14,-24) scale(1,1)"><path fill="#C0C0C0" stroke="none" d="M 359 519 C 359 510.1634432 403.9953776 503 459.5 503 C 515.0046224 503 560 510.1634432 560 519 C 560 527.8365568 515.0046224 535 459.5 535 C 403.9953776 535 359 527.8365568 359 519 Z" opacity="0.2"/></g><g transform="translate(-14,-24) scale(1,1)"><path fill="#ffffff" stroke="none" d="M 352 512 C 352 503.1634432 396.9953776 496 452.5 496 C 508.0046224 496 553 503.1634432 553 512 C 553 520.8365568 508.0046224 528 452.5 528 C 396.9953776 528 352 520.8365568 352 512 Z"/></g><g transform="translate(-14,-24) scale(1,1)"><path fill="none" stroke="#000000" d="M 352 512 C 352 503.1634432 396.9953776 496 452.5 496 C 508.0046224 496 553 503.1634432 553 512 C 553 520.8365568 508.0046224 528 452.5 528 C 396.9953776 528 352 520.8365568 352 512 Z" stroke-miterlimit="10"/></g><g transform="translate(-14,-24) scale(1,1)"><g><path fill="none" stroke="none"/><text fill="#000000" stroke="none" font-family="Arial" font-size="12px" font-style="normal" font-weight="bold" text-decoration="none" x="391.4658203125" y="518.5">enregistrer contentieux</text></g></g><g transform="translate(-14,-24) scale(1,1)"><path fill="#C0C0C0" stroke="none" d="M 167 471 C 167 462.1634432 197.6684912 455 235.5 455 C 273.3315088 455 304 462.1634432 304 471 C 304 479.8365568 273.3315088 487 235.5 487 C 197.6684912 487 167 479.8365568 167 471 Z" opacity="0.2"/></g><g transform="translate(-14,-24) scale(1,1)"><path fill="#ffffff" stroke="none" d="M 160 464 C 160 455.1634432 190.6684912 448 228.5 448 C 266.3315088 448 297 455.1634432 297 464 C 297 472.8365568 266.3315088 480 228.5 480 C 190.6684912 480 160 472.8365568 160 464 Z"/></g><g transform="translate(-14,-24) scale(1,1)"><path fill="none" stroke="#000000" d="M 160 464 C 160 455.1634432 190.6684912 448 228.5 448 C 266.3315088 448 297 455.1634432 297 464 C 297 472.8365568 266.3315088 480 228.5 480 C 190.6684912 480 160 472.8365568 160 464 Z" stroke-miterlimit="10"/></g><g transform="translate(-14,-24) scale(1,1)"><g><path fill="none" stroke="none"/><text fill="#000000" stroke="none" font-family="Arial" font-size="12px" font-style="normal" font-weight="bold" text-decoration="none" x="186.8134765625" y="470.5">gérer ex. abimé</text></g></g><g transform="translate(-14,-24) scale(1,1)"><path fill="none" stroke="#000000" d="M 298 464 L 375 464" stroke-miterlimit="10" stroke-dasharray="3"/></g><g transform="translate(-14,-24) scale(1,1)"><path fill="none" stroke="#000000" d="M 364.83732514237585 468.209517756016 L 375 464 L 364.83732514237585 459.790482243984" stroke-miterlimit="10"/></g><g transform="translate(-14,-24) scale(1,1)"><g><path fill="none" stroke="none"/><text fill="#000000" stroke="none" font-family="Arial" font-size="12px" font-style="normal" font-weight="normal" text-decoration="none" x="311.5" y="454.5">«include»</text></g></g><g transform="translate(-14,-24) scale(1,1)"><path fill="none" stroke="#000000" d="M 298 479 L 373 495" stroke-miterlimit="10" stroke-dasharray="3"/></g><g transform="translate(-14,-24) scale(1,1)"><path fill="none" stroke="#000000" d="M 362.1827094388281 496.99655325878916 L 373 495 L 363.9392441418402 488.76279683842006" stroke-miterlimit="10"/></g><g transform="translate(-14,-24) scale(1,1)"><g><path fill="none" stroke="none"/><text fill="#000000" stroke="none" font-family="Arial" font-size="12px" font-style="normal" font-weight="normal" text-decoration="none" x="298.5" y="497.5">«include»</text></g></g></g></svg>