<svg version="1.1" xmlns="http://www.w3.org/2000/svg" xmlns:xlink="http://www.w3.org/1999/xlink" width="516" height="559"><defs/><g><text fill="#eeeeee" stroke="none" font-family="Arial" font-size="24px" font-style="normal" font-weight="normal" text-decoration="none" x="0" y="0">UNREGISTERED</text><text fill="#eeeeee" stroke="none" font-family="Arial" font-size="24px" font-style="normal" font-weight="normal" text-decoration="none" x="0" y="30">UNREGISTERED</text><text fill="#eeeeee" stroke="none" font-family="Arial" font-size="24px" font-style="normal" font-weight="normal" text-decoration="none" x="0" y="60">UNREGISTERED</text><text fill="#eeeeee" stroke="none" font-family="Arial" font-size="24px" font-style="normal" font-weight="normal" text-decoration="none" x="0" y="90">UNREGISTERED</text><text fill="#eeeeee" stroke="none" font-family="Arial" font-size="24px" font-style="normal" font-weight="normal" text-decoration="none" x="0" y="120">UNREGISTERED</text><text fill="#eeeeee" stroke="none" font-family="Arial" font-size="24px" font-style="normal" font-weight="normal" text-decoration="none" x="0" y="150">UNREGISTERED</text><text fill="#eeeeee" stroke="none" font-family="Arial" font-size="24px" font-style="normal" font-weight="normal" text-decoration="none" x="0" y="180">UNREGISTERED</text><text fill="#eeeeee" stroke="none" font-family="Arial" font-size="24px" font-style="normal" font-weight="normal" text-decoration="none" x="0" y="210">UNREGISTERED</text><text fill="#eeeeee" stroke="none" font-family="Arial" font-size="24px" font-style="normal" font-weight="normal" text-decoration="none" x="0" y="240">UNREGISTERED</text><text fill="#eeeeee" stroke="none" font-family="Arial" font-size="24px" font-style="normal" font-weight="normal" text-decoration="none" x="0" y="270">UNREGISTERED</text><text fill="#eeeeee" stroke="none" font-family="Arial" font-size="24px" font-style="normal" font-weight="normal" text-decoration="none" x="0" y="300">UNREGISTERED</text><text fill="#eeeeee" stroke="none" font-family="Arial" font-size="24px" font-style="normal" font-weight="normal" text-decoration="none" x="0" y="330">UNREGISTERED</text><text fill="#eeeeee" stroke="none" font-family="Arial" font-size="24px" font-style="normal" font-weight="normal" text-decoration="none" x="0" y="360">UNREGISTERED</text><text fill="#eeeeee" stroke="none" font-family="Arial" font-size="24px" font-style="normal" font-weight="normal" text-decoration="none" x="0" y="390">UNREGISTERED</text><text fill="#eeeeee" stroke="none" font-family="Arial" font-size="24px" font-style="normal" font-weight="normal" text-decoration="none" x="0" y="420">UNREGISTERED</text><text fill="#eeeeee" stroke="none" font-family="Arial" font-size="24px" font-style="normal" font-weight="normal" text-decoration="none" x="0" y="450">UNREGISTERED</text><text fill="#eeeeee" stroke="none" font-family="Arial" font-size="24px" font-style="normal" font-weight="normal" text-decoration="none" x="0" y="480">UNREGISTERED</text><text fill="#eeeeee" stroke="none" font-family="Arial" font-size="24px" font-style="normal" font-weight="normal" text-decoration="none" x="0" y="510">UNREGISTERED</text><text fill="#eeeeee" stroke="none" font-family="Arial" font-size="24px" font-style="normal" font-weight="normal" text-decoration="none" x="0" y="540">UNREGISTERED</text><text fill="#eeeeee" stroke="none" font-family="Arial" font-size="24px" font-style="normal" font-weight="normal" text-decoration="none" x="200" y="0">UNREGISTERED</text><text fill="#eeeeee" stroke="none" font-family="Arial" font-size="24px" font-style="normal" font-weight="normal" text-decoration="none" x="200" y="30">UNREGISTERED</text><text fill="#eeeeee" stroke="none" font-family="Arial" font-size="24px" font-style="normal" font-weight="normal" text-decoration="none" x="200" y="60">UNREGISTERED</text><text fill="#eeeeee" stroke="none" font-family="Arial" font-size="24px" font-style="normal" font-weight="normal" text-decoration="none" x="200" y="90">UNREGISTERED</text><text fill="#eeeeee" stroke="none" font-family="Arial" font-size="24px" font-style="normal" font-weight="normal" text-decoration="none" x="200" y="120">UNREGISTERED</text><text fill="#eeeeee" stroke="none" font-family="Arial" font-size="24px" font-style="normal" font-weight="normal" text-decoration="none" x="200" y="150">UNREGISTERED</text><text fill="#eeeeee" stroke="none" font-family="Arial" font-size="24px" font-style="normal" font-weight="normal" text-decoration="none" x="200" y="180">UNREGISTERED</text><text fill="#eeeeee" stroke="none" font-family="Arial" font-size="24px" font-style="normal" font-weight="normal" text-decoration="none" x="200" y="210">UNREGISTERED</text><text fill="#eeeeee" stroke="none" font-family="Arial" font-size="24px" font-style="normal" font-weight="normal" text-decoration="none" x="200" y="240">UNREGISTERED</text><text fill="#eeeeee" stroke="none" font-family="Arial" font-size="24px" font-style="normal" font-weight="normal" text-decoration="none" x="200" y="270">UNREGISTERED</text><text fill="#eeeeee" stroke="none" font-family="Arial" font-size="24px" font-style="normal" font-weight="normal" text-decoration="none" x="200" y="300">UNREGISTERED</text><text fill="#eeeeee" stroke="none" font-family="Arial" font-size="24px" font-style="normal" font-weight="normal" text-decoration="none" x="200" y="330">UNREGISTERED</text><text fill="#eeeeee" stroke="none" font-family="Arial" font-size="24px" font-style="normal" font-weight="normal" text-decoration="none" x="200" y="360">UNREGISTERED</text><text fill="#eeeeee" stroke="none" font-family="Arial" font-size="24px" font-style="normal" font-weight="normal" text-decoration="none" x="200" y="390">UNREGISTERED</text><text fill="#eeeeee" stroke="none" font-family="Arial" font-size="24px" font-style="normal" font-weight="normal" text-decoration="none" x="200" y="420">UNREGISTERED</text><text fill="#eeeeee" stroke="none" font-family="Arial" font-size="24px" font-style="normal" font-weight="normal" text-decoration="none" x="200" y="450">UNREGISTERED</text><text fill="#eeeeee" stroke="none" font-family="Arial" font-size="24px" font-style="normal" font-weight="normal" text-decoration="none" x="200" y="480">UNREGISTERED</text><text fill="#eeeeee" stroke="none" font-family="Arial" font-size="24px" font-style="normal" font-weight="normal" text-decoration="none" x="200" y="510">UNREGISTERED</text><text fill="#eeeeee" stroke="none" font-family="Arial" font-size="24px" font-style="normal" font-weight="normal" text-decoration="none" x="200" y="540">UNREGISTERED</text><text fill="#eeeeee" stroke="none" font-family="Arial" font-size="24px" font-style="normal" font-weight="normal" text-decoration="none" x="400" y="0">UNREGISTERED</text><text fill="#eeeeee" stroke="none" font-family="Arial" font-size="24px" font-style="normal" font-weight="normal" text-decoration="none" x="400" y="30">UNREGISTERED</text><text fill="#eeeeee" stroke="none" font-family="Arial" font-size="24px" font-style="normal" font-weight="normal" text-decoration="none" x="400" y="60">UNREGISTERED</text><text fill="#eeeeee" stroke="none" font-family="Arial" font-size="24px" font-style="normal" font-weight="normal" text-decoration="none" x="400" y="90">UNREGISTERED</text><text fill="#eeeeee" stroke="none" font-family="Arial" font-size="24px" font-style="normal" font-weight="normal" text-decoration="none" x="400" y="120">UNREGISTERED</text><text fill="#eeeeee" stroke="none" font-family="Arial" font-size="24px" font-style="normal" font-weight="normal" text-decoration="none" x="400" y="150">UNREGISTERED</text><text fill="#eeeeee" stroke="none" font-family="Arial" font-size="24px" font-style="normal" font-weight="normal" text-decoration="none" x="400" y="180">UNREGISTERED</text><text fill="#eeeeee" stroke="none" font-family="Arial" font-size="24px" font-style="normal" font-weight="normal" text-decoration="none" x="400" y="210">UNREGISTERED</text><text fill="#eeeeee" stroke="none" font-family="Arial" font-size="24px" font-style="normal" font-weight="normal" text-decoration="none" x="400" y="240">UNREGISTERED</text><text fill="#eeeeee" stroke="none" font-family="Arial" font-size="24px" font-style="normal" font-weight="normal" text-decoration="none" x="400" y="270">UNREGISTERED</text><text fill="#eeeeee" stroke="none" font-family="Arial" font-size="24px" font-style="normal" font-weight="normal" text-decoration="none" x="400" y="300">UNREGISTERED</text><text fill="#eeeeee" stroke="none" font-family="Arial" font-size="24px" font-style="normal" font-weight="normal" text-decoration="none" x="400" y="330">UNREGISTERED</text><text fill="#eeeeee" stroke="none" font-family="Arial" font-size="24px" font-style="normal" font-weight="normal" text-decoration="none" x="400" y="360">UNREGISTERED</text><text fill="#eeeeee" stroke="none" font-family="Arial" font-size="24px" font-style="normal" font-weight="normal" text-decoration="none" x="400" y="390">UNREGISTERED</text><text fill="#eeeeee" stroke="none" font-family="Arial" font-size="24px" font-style="normal" font-weight="normal" text-decoration="none" x="400" y="420">UNREGISTERED</text><text fill="#eeeeee" stroke="none" font-family="Arial" font-size="24px" font-style="normal" font-weight="normal" text-decoration="none" x="400" y="450">UNREGISTERED</text><text fill="#eeeeee" stroke="none" font-family="Arial" font-size="24px" font-style="normal" font-weight="normal" text-decoration="none" x="400" y="480">UNREGISTERED</text><text fill="#eeeeee" stroke="none" font-family="Arial" font-size="24px" font-style="normal" font-weight="normal" text-decoration="none" x="400" y="510">UNREGISTERED</text><text fill="#eeeeee" stroke="none" font-family="Arial" font-size="24px" font-style="normal" font-weight="normal" text-decoration="none" x="400" y="540">UNREGISTERED</text><g transform="translate(-238,2) scale(1,1)"><path fill="#C0C0C0" stroke="none" d="M 335 56.5 C 335 51.2532944 339.2532944 47 344.5 47 C 349.7467056 47 354 51.2532944 354 56.5 C 354 61.7467056 349.7467056 66 344.5 66 C 339.2532944 66 335 61.7467056 335 56.5 Z" opacity="0.2"/></g><g transform="translate(-238,2) scale(1,1)"><path fill="#000000" stroke="none" d="M 328 49.5 C 328 44.2532944 332.2532944 40 337.5 40 C 342.7467056 40 347 44.2532944 347 49.5 C 347 54.7467056 342.7467056 59 337.5 59 C 332.2532944 59 328 54.7467056 328 49.5 Z"/></g><g transform="translate(-238,2) scale(1,1)"><path fill="#C0C0C0" stroke="none" d="M 287 475.5 C 287 468.59644 292.59644 463 299.5 463 C 306.40356 463 312 468.59644 312 475.5 C 312 482.40356 306.40356 488 299.5 488 C 292.59644 488 287 482.40356 287 475.5 Z" opacity="0.2"/></g><g transform="translate(-238,2) scale(1,1)"><path fill="none" stroke="#000000" d="M 280 468.5 C 280 461.59644 285.59644 456 292.5 456 C 299.40356 456 305 461.59644 305 468.5 C 305 475.40356 299.40356 481 292.5 481 C 285.59644 481 280 475.40356 280 468.5 Z" stroke-miterlimit="10"/></g><g transform="translate(-238,2) scale(1,1)"><path fill="#000000" stroke="none" d="M 285 468.5 C 285 464.357864 288.357864 461 292.5 461 C 296.642136 461 300 464.357864 300 468.5 C 300 472.642136 296.642136 476 292.5 476 C 288.357864 476 285 472.642136 285 468.5 Z"/></g><g transform="translate(-238,2) scale(1,1)"><path fill="#C0C0C0" stroke="none" d="M 279 163.5 C 279 156.59644 284.59644 151 291.5 151 C 298.40356 151 304 156.59644 304 163.5 C 304 170.40356 298.40356 176 291.5 176 C 284.59644 176 279 170.40356 279 163.5 Z" opacity="0.2"/></g><g transform="translate(-238,2) scale(1,1)"><path fill="none" stroke="#000000" d="M 272 156.5 C 272 149.59644 277.59644 144 284.5 144 C 291.40356 144 297 149.59644 297 156.5 C 297 163.40356 291.40356 169 284.5 169 C 277.59644 169 272 163.40356 272 156.5 Z" stroke-miterlimit="10"/></g><g transform="translate(-238,2) scale(1,1)"><path fill="#000000" stroke="none" d="M 277 156.5 C 277 152.357864 280.357864 149 284.5 149 C 288.642136 149 292 152.357864 292 156.5 C 292 160.642136 288.642136 164 284.5 164 C 280.357864 164 277 160.642136 277 156.5 Z"/></g><g transform="translate(-238,2) scale(1,1)"><g><path fill="none" stroke="none"/><text fill="#000000" stroke="none" font-family="Arial" font-size="12px" font-style="normal" font-weight="normal" text-decoration="none" x="253" y="193">Annulation</text></g></g><g transform="translate(-238,2) scale(1,1)"><g><path fill="none" stroke="none"/><text fill="#000000" stroke="none" font-family="Arial" font-size="12px" font-style="normal" font-weight="normal" text-decoration="none" x="253" y="207">explicitée</text></g></g><g transform="translate(-238,2) scale(1,1)"><g><path fill="none" stroke="none"/><text fill="#000000" stroke="none" font-family="Arial" font-size="12px" font-style="normal" font-weight="normal" text-decoration="none" x="261" y="505">objectif atteint (emprunt</text><text fill="#000000" stroke="none" font-family="Arial" font-size="12px" font-style="normal" font-weight="normal" text-decoration="none" x="261" y="517">enregistré)</text></g></g><g transform="translate(-238,2) scale(1,1)"><path fill="#C0C0C0" stroke="none" d="M 417 79 L 502.673828125 79 Q 512.673828125 79 512.673828125 89 L 512.673828125 108 Q 512.673828125 118 502.673828125 118 L 417 118 Q 407 118 407 108 L 407 89 Q 407 79 417 79 Z" opacity="0.2"/></g><g transform="translate(-238,2) scale(1,1)"><path fill="#ffffff" stroke="none" d="M 410 72 L 495.673828125 72 Q 505.673828125 72 505.673828125 82 L 505.673828125 101 Q 505.673828125 111 495.673828125 111 L 410 111 Q 400 111 400 101 L 400 82 Q 400 72 410 72 Z"/></g><g transform="translate(-238,2) scale(1,1)"><path fill="none" stroke="#000000" d="M 410 72 L 495.673828125 72 Q 505.673828125 72 505.673828125 82 L 505.673828125 101 Q 505.673828125 111 495.673828125 111 L 410 111 Q 400 111 400 101 L 400 82 Q 400 72 410 72 Z" stroke-miterlimit="10"/></g><g transform="translate(-238,2) scale(1,1)"><g><path fill="none" stroke="none"/><text fill="#000000" stroke="none" font-family="Arial" font-size="12px" font-style="normal" font-weight="bold" text-decoration="none" x="408.4697265625" y="90.5">identifier abonné</text></g></g><g transform="translate(-238,2) scale(1,1)"><path fill="#C0C0C0" stroke="none" d="M 449 199 L 626.07421875 199 Q 636.07421875 199 636.07421875 209 L 636.07421875 228 Q 636.07421875 238 626.07421875 238 L 449 238 Q 439 238 439 228 L 439 209 Q 439 199 449 199 Z" opacity="0.2"/></g><g transform="translate(-238,2) scale(1,1)"><path fill="#ffffff" stroke="none" d="M 442 192 L 619.07421875 192 Q 629.07421875 192 629.07421875 202 L 629.07421875 221 Q 629.07421875 231 619.07421875 231 L 442 231 Q 432 231 432 221 L 432 202 Q 432 192 442 192 Z"/></g><g transform="translate(-238,2) scale(1,1)"><path fill="none" stroke="#000000" d="M 442 192 L 619.07421875 192 Q 629.07421875 192 629.07421875 202 L 629.07421875 221 Q 629.07421875 231 619.07421875 231 L 442 231 Q 432 231 432 221 L 432 202 Q 432 192 442 192 Z" stroke-miterlimit="10"/></g><g transform="translate(-238,2) scale(1,1)"><g><path fill="none" stroke="none"/><text fill="#000000" stroke="none" font-family="Arial" font-size="12px" font-style="normal" font-weight="bold" text-decoration="none" x="443.8212890625" y="210.5">calculer_nb_emprunts_autorisés</text></g></g><g transform="translate(-238,2) scale(1,1)"><path fill="#ffffff" stroke="none" d="M 624 96 L 733 96 L 743 106 L 743 143 L 624 143 L 624 96"/></g><g transform="translate(-238,2) scale(1,1)"><path fill="none" stroke="#000000" d="M 624 96 L 733 96 L 743 106 L 743 143 L 624 143 L 624 96 L 624 96" stroke-miterlimit="10"/></g><g transform="translate(-238,2) scale(1,1)"><path fill="none" stroke="#000000" d="M 733 96 L 733 106 L 743 106 L 733 96" stroke-miterlimit="10"/></g><g transform="translate(-238,2) scale(1,1)"><g><path fill="none" stroke="none"/><text fill="#000000" stroke="none" font-family="Arial" font-size="12px" font-style="normal" font-weight="normal" text-decoration="none" x="629" y="113">retourne 0 si pas</text><text fill="#000000" stroke="none" font-family="Arial" font-size="12px" font-style="normal" font-weight="normal" text-decoration="none" x="629" y="125">d'autorisation (ex:</text><text fill="#000000" stroke="none" font-family="Arial" font-size="12px" font-style="normal" font-weight="normal" text-decoration="none" x="629" y="137">contentieux)</text></g></g><g transform="translate(-238,2) scale(1,1)"><path fill="none" stroke="#000000" d="M 642 145 L 564 191" stroke-miterlimit="10" stroke-dasharray="3"/></g><g transform="translate(-238,2) scale(1,1)"><path fill="none" stroke="#000000" d="M 348 53 L 399 72" stroke-miterlimit="10"/></g><g transform="translate(-238,2) scale(1,1)"><path fill="none" stroke="#000000" d="M 388.00715852022904 72.3967823088636 L 399 72 L 390.9463197838929 64.50745470639751" stroke-miterlimit="10"/></g><g transform="translate(-238,2) scale(1,1)"><path fill="#C0C0C0" stroke="none" d="M 471 152.5 L 482.5 143 L 493 152.5 L 482.5 161 L 471 152.5" opacity="0.2"/></g><g transform="translate(-238,2) scale(1,1)"><path fill="#ffffff" stroke="none" d="M 464 145 L 475 136 L 486 145 L 475 154 L 464 145"/></g><g transform="translate(-238,2) scale(1,1)"><path fill="none" stroke="#000000" d="M 464 145 L 475 136 L 486 145 L 475 154 L 464 145 L 464 145" stroke-miterlimit="10"/></g><g transform="translate(-238,2) scale(1,1)"><path fill="none" stroke="#000000" d="M 461 112 L 471 135" stroke-miterlimit="10"/></g><g transform="translate(-238,2) scale(1,1)"><path fill="none" stroke="#000000" d="M 463.08745348714154 127.35855984242161 L 471 135 L 470.8082988577587 124.00167055084894" stroke-miterlimit="10"/></g><g transform="translate(-238,2) scale(1,1)"><g><path fill="none" stroke="none"/><text fill="#000000" stroke="none" font-family="Arial" font-size="12px" font-style="normal" font-weight="normal" text-decoration="none" x="477.5" y="130.5">identification réussie ?</text></g></g><g transform="translate(-238,2) scale(1,1)"><path fill="none" stroke="#000000" d="M 463 146 L 298 155" stroke-miterlimit="10"/></g><g transform="translate(-238,2) scale(1,1)"><path fill="none" stroke="#000000" d="M 307.9183212289037 150.24322546253475 L 298 155 L 308.3768597309615 158.64976466692713" stroke-miterlimit="10"/></g><g transform="translate(-238,2) scale(1,1)"><g><path fill="none" stroke="none"/><text fill="#000000" stroke="none" font-family="Arial" font-size="12px" font-style="normal" font-weight="normal" text-decoration="none" x="357.5" y="169.5"> [pas ok]</text></g></g><g transform="translate(-238,2) scale(1,1)"><path fill="none" stroke="#000000" d="M 483 155 L 513 191" stroke-miterlimit="10"/></g><g transform="translate(-238,2) scale(1,1)"><path fill="none" stroke="#000000" d="M 503.2601729802721 185.88768451425597 L 513 191 L 509.72785521430103 180.49794931923182" stroke-miterlimit="10"/></g><g transform="translate(-238,2) scale(1,1)"><g><path fill="none" stroke="none"/><text fill="#000000" stroke="none" font-family="Arial" font-size="12px" font-style="normal" font-weight="normal" text-decoration="none" x="497.658203125" y="168.5"> [ok]</text></g></g><g transform="translate(-238,2) scale(1,1)"><g><path fill="none" stroke="none"/><text fill="#2b2bff" stroke="none" font-family="Arial" font-size="12px" font-style="normal" font-weight="normal" text-decoration="none" x="429" y="25">diag. d'activités pour enregistrer début emprunt</text></g></g><g transform="translate(-238,2) scale(1,1)"><path fill="#C0C0C0" stroke="none" d="M 535 272.5 L 546.5 263 L 557 272.5 L 546.5 281 L 535 272.5" opacity="0.2"/></g><g transform="translate(-238,2) scale(1,1)"><path fill="#ffffff" stroke="none" d="M 528 265 L 539 256 L 550 265 L 539 274 L 528 265"/></g><g transform="translate(-238,2) scale(1,1)"><path fill="none" stroke="#000000" d="M 528 265 L 539 256 L 550 265 L 539 274 L 528 265 L 528 265" stroke-miterlimit="10"/></g><g transform="translate(-238,2) scale(1,1)"><path fill="#C0C0C0" stroke="none" d="M 489 303 L 706.75 303 Q 716.75 303 716.75 313 L 716.75 332 Q 716.75 342 706.75 342 L 489 342 Q 479 342 479 332 L 479 313 Q 479 303 489 303 Z" opacity="0.2"/></g><g transform="translate(-238,2) scale(1,1)"><path fill="#ffffff" stroke="none" d="M 482 296 L 699.75 296 Q 709.75 296 709.75 306 L 709.75 325 Q 709.75 335 699.75 335 L 482 335 Q 472 335 472 325 L 472 306 Q 472 296 482 296 Z"/></g><g transform="translate(-238,2) scale(1,1)"><path fill="none" stroke="#000000" d="M 482 296 L 699.75 296 Q 709.75 296 709.75 306 L 709.75 325 Q 709.75 335 699.75 335 L 482 335 Q 472 335 472 325 L 472 306 Q 472 296 482 296 Z" stroke-miterlimit="10"/></g><g transform="translate(-238,2) scale(1,1)"><g><path fill="none" stroke="none"/><text fill="#000000" stroke="none" font-family="Arial" font-size="12px" font-style="normal" font-weight="bold" text-decoration="none" x="484.1552734375" y="314.5">renseigner num exemplaire à emprunter</text></g></g><g transform="translate(-238,2) scale(1,1)"><path fill="#C0C0C0" stroke="none" d="M 609 375 L 712.029296875 375 Q 722.029296875 375 722.029296875 385 L 722.029296875 404 Q 722.029296875 414 712.029296875 414 L 609 414 Q 599 414 599 404 L 599 385 Q 599 375 609 375 Z" opacity="0.2"/></g><g transform="translate(-238,2) scale(1,1)"><path fill="#ffffff" stroke="none" d="M 602 368 L 705.029296875 368 Q 715.029296875 368 715.029296875 378 L 715.029296875 397 Q 715.029296875 407 705.029296875 407 L 602 407 Q 592 407 592 397 L 592 378 Q 592 368 602 368 Z"/></g><g transform="translate(-238,2) scale(1,1)"><path fill="none" stroke="#000000" d="M 602 368 L 705.029296875 368 Q 715.029296875 368 715.029296875 378 L 715.029296875 397 Q 715.029296875 407 705.029296875 407 L 602 407 Q 592 407 592 397 L 592 378 Q 592 368 602 368 Z" stroke-miterlimit="10"/></g><g transform="translate(-238,2) scale(1,1)"><g><path fill="none" stroke="none"/><text fill="#000000" stroke="none" font-family="Arial" font-size="12px" font-style="normal" font-weight="bold" text-decoration="none" x="601.158203125" y="386.5">enregistrer emprunt</text></g></g><g transform="translate(-238,2) scale(1,1)"><path fill="#C0C0C0" stroke="none" d="M 383 392.5 L 394.5 383 L 405 392.5 L 394.5 401 L 383 392.5" opacity="0.2"/></g><g transform="translate(-238,2) scale(1,1)"><path fill="#ffffff" stroke="none" d="M 376 385 L 387 376 L 398 385 L 387 394 L 376 385"/></g><g transform="translate(-238,2) scale(1,1)"><path fill="none" stroke="#000000" d="M 376 385 L 387 376 L 398 385 L 387 394 L 376 385 L 376 385" stroke-miterlimit="10"/></g><g transform="translate(-238,2) scale(1,1)"><path fill="none" stroke="#000000" d="M 534 232 L 537 255" stroke-miterlimit="10"/></g><g transform="translate(-238,2) scale(1,1)"><path fill="none" stroke="#000000" d="M 531.5114083882078 245.4671430243099 L 537 255 L 539.85972746373 244.3782318405461" stroke-miterlimit="10"/></g><g transform="translate(-238,2) scale(1,1)"><g><path fill="none" stroke="none"/><text fill="#000000" stroke="none" font-family="Arial" font-size="12px" font-style="normal" font-weight="normal" text-decoration="none" x="542.5" y="250.5">au moins droit à un emprunt ?</text></g></g><g transform="translate(-238,2) scale(1,1)"><path fill="none" stroke="#000000" d="M 549 275 L 570 295" stroke-miterlimit="10"/></g><g transform="translate(-238,2) scale(1,1)"><path fill="none" stroke="#000000" d="M 559.7377059610197 291.03953019737423 L 570 295 L 565.543937348628 284.94298724038555" stroke-miterlimit="10"/></g><g transform="translate(-238,2) scale(1,1)"><g><path fill="none" stroke="none"/><text fill="#000000" stroke="none" font-family="Arial" font-size="12px" font-style="normal" font-weight="normal" text-decoration="none" x="555.6552734375" y="278.5"> [oui]</text></g></g><g transform="translate(-238,2) scale(1,1)"><path fill="none" stroke="#000000" d="M 527 265 L 377 264 L 296 170" stroke-miterlimit="10"/></g><g transform="translate(-238,2) scale(1,1)"><path fill="none" stroke="#000000" d="M 305.8229019222356 174.95081789466553 L 296 170 L 299.44508365440544 180.44659746588087" stroke-miterlimit="10"/></g><g transform="translate(-238,2) scale(1,1)"><g><path fill="none" stroke="none"/><text fill="#000000" stroke="none" font-family="Arial" font-size="12px" font-style="normal" font-weight="normal" text-decoration="none" x="414.5" y="276.5"> [non]</text></g></g><g transform="translate(-238,2) scale(1,1)"><path fill="none" stroke="#000000" d="M 608 336 L 636 367" stroke-miterlimit="10"/></g><g transform="translate(-238,2) scale(1,1)"><path fill="none" stroke="#000000" d="M 626.0642044472825 362.27983403526963 L 636 367 L 632.3119929501771 356.63667022620353" stroke-miterlimit="10"/></g><g transform="translate(-238,2) scale(1,1)"><path fill="#C0C0C0" stroke="none" d="M 401 463 L 546.720703125 463 Q 556.720703125 463 556.720703125 473 L 556.720703125 492 Q 556.720703125 502 546.720703125 502 L 401 502 Q 391 502 391 492 L 391 473 Q 391 463 401 463 Z" opacity="0.2"/></g><g transform="translate(-238,2) scale(1,1)"><path fill="#ffffff" stroke="none" d="M 394 456 L 539.720703125 456 Q 549.720703125 456 549.720703125 466 L 549.720703125 485 Q 549.720703125 495 539.720703125 495 L 394 495 Q 384 495 384 485 L 384 466 Q 384 456 394 456 Z"/></g><g transform="translate(-238,2) scale(1,1)"><path fill="none" stroke="#000000" d="M 394 456 L 539.720703125 456 Q 549.720703125 456 549.720703125 466 L 549.720703125 485 Q 549.720703125 495 539.720703125 495 L 394 495 Q 384 495 384 485 L 384 466 Q 384 456 394 456 Z" stroke-miterlimit="10"/></g><g transform="translate(-238,2) scale(1,1)"><g><path fill="none" stroke="none"/><text fill="#000000" stroke="none" font-family="Arial" font-size="12px" font-style="normal" font-weight="bold" text-decoration="none" x="394.2685546875" y="474.5">résumé emprunts effectués</text></g></g><g transform="translate(-238,2) scale(1,1)"><path fill="none" stroke="#000000" d="M 591 387 L 399 385" stroke-miterlimit="10"/></g><g transform="translate(-238,2) scale(1,1)"><path fill="none" stroke="#000000" d="M 409.20597030660895 380.8965660599181 L 399 385 L 409.1182767775747 389.3151448472088" stroke-miterlimit="10"/></g><g transform="translate(-238,2) scale(1,1)"><g><path fill="none" stroke="none"/><text fill="#000000" stroke="none" font-family="Arial" font-size="12px" font-style="normal" font-weight="normal" text-decoration="none" x="414.5" y="402.5">droit et envie autre emprunt ?</text></g></g><g transform="translate(-238,2) scale(1,1)"><path fill="none" stroke="#000000" d="M 396 395 L 448 455" stroke-miterlimit="10"/></g><g transform="translate(-238,2) scale(1,1)"><path fill="none" stroke="#000000" d="M 438.16306727169956 450.0771192885779 L 448 455 L 444.5252404957619 444.5632358277239" stroke-miterlimit="10"/></g><g transform="translate(-238,2) scale(1,1)"><g><path fill="none" stroke="none"/><text fill="#000000" stroke="none" font-family="Arial" font-size="12px" font-style="normal" font-weight="normal" text-decoration="none" x="423.5" y="427.5"> [non]</text></g></g><g transform="translate(-238,2) scale(1,1)"><path fill="none" stroke="#000000" d="M 383 472 L 306 469" stroke-miterlimit="10"/></g><g transform="translate(-238,2) scale(1,1)"><path fill="none" stroke="#000000" d="M 316.3188531963796 465.18932175176565 L 306 469 L 315.9910874994751 473.6019746389819" stroke-miterlimit="10"/></g><g transform="translate(-238,2) scale(1,1)"><path fill="none" stroke="#000000" d="M 375 385 L 304 384 L 304 312 L 471 314" stroke-miterlimit="10"/></g><g transform="translate(-238,2) scale(1,1)"><path fill="none" stroke="#000000" d="M 460.78764408708565 318.0875159581295 L 471 314 L 460.88846362988613 309.66908413428933" stroke-miterlimit="10"/></g><g transform="translate(-238,2) scale(1,1)"><g><path fill="none" stroke="none"/><text fill="#000000" stroke="none" font-family="Arial" font-size="12px" font-style="normal" font-weight="normal" text-decoration="none" x="275.6552734375" y="352.5"> [oui]</text></g></g></g></svg>