<svg version="1.1" xmlns="http://www.w3.org/2000/svg" xmlns:xlink="http://www.w3.org/1999/xlink" width="706.17529296875" height="451"><defs/><g><g transform="translate(-6,-14) scale(1,1)"><path fill="#ffffff" stroke="none" d="M 78.80388156960227 65.68 C 78.80388156960227 60.88616793600001 82.68972389454773 57 87.483154296875 57 C 92.27658469920227 57 96.16242702414773 60.88616793600001 96.16242702414773 65.68 C 96.16242702414773 70.473832064 92.27658469920227 74.36 87.483154296875 74.36 C 82.68972389454773 74.36 78.80388156960227 70.473832064 78.80388156960227 65.68 Z"/></g><g transform="translate(-6,-14) scale(1,1)"><path fill="none" stroke="#000000" d="M 78.80388156960227 65.68 C 78.80388156960227 60.88616793600001 82.68972389454773 57 87.483154296875 57 C 92.27658469920227 57 96.16242702414773 60.88616793600001 96.16242702414773 65.68 C 96.16242702414773 70.473832064 92.27658469920227 74.36 87.483154296875 74.36 C 82.68972389454773 74.36 78.80388156960227 70.473832064 78.80388156960227 65.68 Z" stroke-miterlimit="10"/></g><g transform="translate(-6,-14) scale(1,1)"><path fill="none" stroke="#000000" d="M 87.483154296875 74.36 L 87.483154296875 91.64" stroke-miterlimit="10"/></g><g transform="translate(-6,-14) scale(1,1)"><path fill="none" stroke="#000000" d="M 78.29333611505682 80.84 L 96.67297247869318 80.84" stroke-miterlimit="10"/></g><g transform="translate(-6,-14) scale(1,1)"><path fill="none" stroke="#000000" d="M 87.483154296875 91.64 L 74.71951793323863 109" stroke-miterlimit="10"/></g><g transform="translate(-6,-14) scale(1,1)"><path fill="none" stroke="#000000" d="M 87.483154296875 91.64 L 100.24679066051137 109" stroke-miterlimit="10"/></g><g transform="translate(-6,-14) scale(1,1)"><g><path fill="none" stroke="none"/><text fill="#000000" stroke="none" font-family="Arial" font-size="13px" font-style="normal" font-weight="bold" text-decoration="none" x="48.4609375" y="129.5">Bibliothecaire</text></g></g><g transform="translate(-6,-14) scale(1,1)"><path fill="#ffffff" stroke="none" d="M 109.80388156960228 385.68 C 109.80388156960228 380.886167936 113.68972389454774 377 118.483154296875 377 C 123.27658469920226 377 127.16242702414772 380.886167936 127.16242702414772 385.68 C 127.16242702414772 390.473832064 123.27658469920226 394.36 118.483154296875 394.36 C 113.68972389454774 394.36 109.80388156960228 390.473832064 109.80388156960228 385.68 Z"/></g><g transform="translate(-6,-14) scale(1,1)"><path fill="none" stroke="#000000" d="M 109.80388156960228 385.68 C 109.80388156960228 380.886167936 113.68972389454774 377 118.483154296875 377 C 123.27658469920226 377 127.16242702414772 380.886167936 127.16242702414772 385.68 C 127.16242702414772 390.473832064 123.27658469920226 394.36 118.483154296875 394.36 C 113.68972389454774 394.36 109.80388156960228 390.473832064 109.80388156960228 385.68 Z" stroke-miterlimit="10"/></g><g transform="translate(-6,-14) scale(1,1)"><path fill="none" stroke="#000000" d="M 118.483154296875 394.36 L 118.483154296875 411.64" stroke-miterlimit="10"/></g><g transform="translate(-6,-14) scale(1,1)"><path fill="none" stroke="#000000" d="M 109.29333611505683 400.84 L 127.67297247869317 400.84" stroke-miterlimit="10"/></g><g transform="translate(-6,-14) scale(1,1)"><path fill="none" stroke="#000000" d="M 118.483154296875 411.64 L 105.71951793323865 429" stroke-miterlimit="10"/></g><g transform="translate(-6,-14) scale(1,1)"><path fill="none" stroke="#000000" d="M 118.483154296875 411.64 L 131.24679066051135 429" stroke-miterlimit="10"/></g><g transform="translate(-6,-14) scale(1,1)"><g><path fill="none" stroke="none"/><text fill="#000000" stroke="none" font-family="Arial" font-size="13px" font-style="normal" font-weight="bold" text-decoration="none" x="41.873291015625" y="449.5">Responsable Abonnement</text></g></g><g transform="translate(-6,-14) scale(1,1)"><path fill="#ffffff" stroke="none" d="M 256 224 L 460 224 L 470 234 L 470 374 L 256 374 L 256 224"/></g><g transform="translate(-6,-14) scale(1,1)"><path fill="none" stroke="#000000" d="M 256 224 L 460 224 L 470 234 L 470 374 L 256 374 L 256 224 L 256 224" stroke-miterlimit="10"/></g><g transform="translate(-6,-14) scale(1,1)"><path fill="none" stroke="#000000" d="M 460 224 L 460 234 L 470 234 L 460 224" stroke-miterlimit="10"/></g><g transform="translate(-6,-14) scale(1,1)"><g><path fill="none" stroke="none"/><text fill="#000000" stroke="none" font-family="Arial" font-size="13px" font-style="normal" font-weight="normal" text-decoration="none" x="261" y="242">          appli_bibliotheque</text></g></g><g transform="translate(-6,-14) scale(1,1)"><path fill="#ffffff" stroke="none" d="M 638.4083737571023 121.68 C 638.4083737571023 116.886167936 642.2942160820477 113 647.087646484375 113 C 651.8810768867023 113 655.7669192116477 116.886167936 655.7669192116477 121.68 C 655.7669192116477 126.473832064 651.8810768867023 130.36 647.087646484375 130.36 C 642.2942160820477 130.36 638.4083737571023 126.473832064 638.4083737571023 121.68 Z"/></g><g transform="translate(-6,-14) scale(1,1)"><path fill="none" stroke="#000000" d="M 638.4083737571023 121.68 C 638.4083737571023 116.886167936 642.2942160820477 113 647.087646484375 113 C 651.8810768867023 113 655.7669192116477 116.886167936 655.7669192116477 121.68 C 655.7669192116477 126.473832064 651.8810768867023 130.36 647.087646484375 130.36 C 642.2942160820477 130.36 638.4083737571023 126.473832064 638.4083737571023 121.68 Z" stroke-miterlimit="10"/></g><g transform="translate(-6,-14) scale(1,1)"><path fill="none" stroke="#000000" d="M 647.087646484375 130.36 L 647.087646484375 147.64" stroke-miterlimit="10"/></g><g transform="translate(-6,-14) scale(1,1)"><path fill="none" stroke="#000000" d="M 637.8978283025568 136.84 L 656.2774646661932 136.84" stroke-miterlimit="10"/></g><g transform="translate(-6,-14) scale(1,1)"><path fill="none" stroke="#000000" d="M 647.087646484375 147.64 L 634.3240101207386 165" stroke-miterlimit="10"/></g><g transform="translate(-6,-14) scale(1,1)"><path fill="none" stroke="#000000" d="M 647.087646484375 147.64 L 659.8512828480114 165" stroke-miterlimit="10"/></g><g transform="translate(-6,-14) scale(1,1)"><g><path fill="none" stroke="none"/><text fill="#000000" stroke="none" font-family="Arial" font-size="13px" font-style="normal" font-weight="normal" text-decoration="none" x="596.5" y="183.5">«logiciel externe»</text></g></g><g transform="translate(-6,-14) scale(1,1)"><g><path fill="none" stroke="none"/><text fill="#000000" stroke="none" font-family="Arial" font-size="13px" font-style="normal" font-weight="bold" text-decoration="none" x="602.285888671875" y="198.5">logiciel_compta</text></g></g><g transform="translate(-6,-14) scale(1,1)"><path fill="#ffffff" stroke="none" d="M 16 144 L 269 144 L 279 154 L 279 255 L 16 255 L 16 144"/></g><g transform="translate(-6,-14) scale(1,1)"><path fill="none" stroke="#000000" d="M 16 144 L 269 144 L 279 154 L 279 255 L 16 255 L 16 144 L 16 144" stroke-miterlimit="10"/></g><g transform="translate(-6,-14) scale(1,1)"><path fill="none" stroke="#000000" d="M 269 144 L 269 154 L 279 154 L 269 144" stroke-miterlimit="10"/></g><g transform="translate(-6,-14) scale(1,1)"><g><path fill="none" stroke="none"/><text fill="#000000" stroke="none" font-family="Arial" font-size="13px" font-style="normal" font-weight="normal" text-decoration="none" x="21" y="162">--&gt; enregistrer début emprunt</text></g></g><g transform="translate(-6,-14) scale(1,1)"><g><path fill="none" stroke="none"/><text fill="#000000" stroke="none" font-family="Arial" font-size="13px" font-style="normal" font-weight="normal" text-decoration="none" x="21" y="177">--&gt; enregistrer fin emrprunt</text></g></g><g transform="translate(-6,-14) scale(1,1)"><g><path fill="none" stroke="none"/><text fill="#000000" stroke="none" font-family="Arial" font-size="13px" font-style="normal" font-weight="normal" text-decoration="none" x="21" y="192">---&gt; enregistrer livre neuf</text></g></g><g transform="translate(-6,-14) scale(1,1)"><g><path fill="none" stroke="none"/><text fill="#000000" stroke="none" font-family="Arial" font-size="13px" font-style="normal" font-weight="normal" text-decoration="none" x="21" y="207">---&gt; lancer restauration</text></g></g><g transform="translate(-6,-14) scale(1,1)"><g><path fill="none" stroke="none"/><text fill="#000000" stroke="none" font-family="Arial" font-size="13px" font-style="normal" font-weight="normal" text-decoration="none" x="21" y="222">---&gt; réintégrer livre restauré </text></g></g><g transform="translate(-6,-14) scale(1,1)"><g><path fill="none" stroke="none"/><text fill="#000000" stroke="none" font-family="Arial" font-size="13px" font-style="normal" font-weight="normal" text-decoration="none" x="21" y="237">---&gt; ...</text></g></g><g transform="translate(-6,-14) scale(1,1)"><path fill="#ffffff" stroke="none" d="M 144 320 L 277 320 L 287 330 L 287 384 L 144 384 L 144 320"/></g><g transform="translate(-6,-14) scale(1,1)"><path fill="none" stroke="#000000" d="M 144 320 L 277 320 L 287 330 L 287 384 L 144 384 L 144 320 L 144 320" stroke-miterlimit="10"/></g><g transform="translate(-6,-14) scale(1,1)"><path fill="none" stroke="#000000" d="M 277 320 L 277 330 L 287 330 L 277 320" stroke-miterlimit="10"/></g><g transform="translate(-6,-14) scale(1,1)"><g><path fill="none" stroke="none"/><text fill="#000000" stroke="none" font-family="Arial" font-size="13px" font-style="normal" font-weight="normal" text-decoration="none" x="149" y="338">--&gt; inscrire abonné</text></g></g><g transform="translate(-6,-14) scale(1,1)"><g><path fill="none" stroke="none"/><text fill="#000000" stroke="none" font-family="Arial" font-size="13px" font-style="normal" font-weight="normal" text-decoration="none" x="149" y="353">--&gt; gérer contentieux</text></g></g><g transform="translate(-6,-14) scale(1,1)"><path fill="#ffffff" stroke="none" d="M 432 192 L 548 192 L 558 202 L 558 286 L 432 286 L 432 192"/></g><g transform="translate(-6,-14) scale(1,1)"><path fill="none" stroke="#000000" d="M 432 192 L 548 192 L 558 202 L 558 286 L 432 286 L 432 192 L 432 192" stroke-miterlimit="10"/></g><g transform="translate(-6,-14) scale(1,1)"><path fill="none" stroke="#000000" d="M 548 192 L 548 202 L 558 202 L 548 192" stroke-miterlimit="10"/></g><g transform="translate(-6,-14) scale(1,1)"><g><path fill="none" stroke="none"/><text fill="#000000" stroke="none" font-family="Arial" font-size="13px" font-style="normal" font-weight="normal" text-decoration="none" x="437" y="210">déléguer enreg.</text><text fill="#000000" stroke="none" font-family="Arial" font-size="13px" font-style="normal" font-weight="normal" text-decoration="none" x="437" y="223">comptable --&gt;</text></g></g><g transform="translate(-6,-14) scale(1,1)"><g><path fill="none" stroke="none"/><text fill="#d51267" stroke="none" font-family="Arial" font-size="13px" font-style="normal" font-weight="normal" text-decoration="none" x="253" y="42">Digramme de contexte (préliminaire au Uses Cases)</text></g></g></g></svg>