<svg version="1.1" xmlns="http://www.w3.org/2000/svg" xmlns:xlink="http://www.w3.org/1999/xlink" width="762.17529296875" height="632"><defs/><g><g transform="translate(2,-12) scale(1,1)"><path fill="#ffffff" stroke="none" d="M 54.80388156960227 185.68 C 54.80388156960227 180.886167936 58.689723894547726 177 63.483154296875 177 C 68.27658469920227 177 72.16242702414773 180.886167936 72.16242702414773 185.68 C 72.16242702414773 190.47383206400002 68.27658469920227 194.36 63.483154296875 194.36 C 58.689723894547726 194.36 54.80388156960227 190.47383206400002 54.80388156960227 185.68 Z"/></g><g transform="translate(2,-12) scale(1,1)"><path fill="none" stroke="#000000" d="M 54.80388156960227 185.68 C 54.80388156960227 180.886167936 58.689723894547726 177 63.483154296875 177 C 68.27658469920227 177 72.16242702414773 180.886167936 72.16242702414773 185.68 C 72.16242702414773 190.47383206400002 68.27658469920227 194.36 63.483154296875 194.36 C 58.689723894547726 194.36 54.80388156960227 190.47383206400002 54.80388156960227 185.68 Z" stroke-miterlimit="10"/></g><g transform="translate(2,-12) scale(1,1)"><path fill="none" stroke="#000000" d="M 63.483154296875 194.36 L 63.483154296875 211.64" stroke-miterlimit="10"/></g><g transform="translate(2,-12) scale(1,1)"><path fill="none" stroke="#000000" d="M 54.29333611505682 200.84 L 72.67297247869318 200.84" stroke-miterlimit="10"/></g><g transform="translate(2,-12) scale(1,1)"><path fill="none" stroke="#000000" d="M 63.483154296875 211.64 L 50.719517933238635 229" stroke-miterlimit="10"/></g><g transform="translate(2,-12) scale(1,1)"><path fill="none" stroke="#000000" d="M 63.483154296875 211.64 L 76.24679066051137 229" stroke-miterlimit="10"/></g><g transform="translate(2,-12) scale(1,1)"><g><path fill="none" stroke="none"/><text fill="#000000" stroke="none" font-family="Arial" font-size="13px" font-style="normal" font-weight="bold" text-decoration="none" x="24.4609375" y="249.5">Bibliothecaire</text></g></g><g transform="translate(2,-12) scale(1,1)"><path fill="#ffffff" stroke="none" d="M 101.80388156960227 537.6800000000001 C 101.80388156960227 532.8861679360001 105.68972389454773 529 110.483154296875 529 C 115.27658469920227 529 119.16242702414773 532.8861679360001 119.16242702414773 537.6800000000001 C 119.16242702414773 542.473832064 115.27658469920227 546.36 110.483154296875 546.36 C 105.68972389454773 546.36 101.80388156960227 542.473832064 101.80388156960227 537.6800000000001 Z"/></g><g transform="translate(2,-12) scale(1,1)"><path fill="none" stroke="#000000" d="M 101.80388156960227 537.6800000000001 C 101.80388156960227 532.8861679360001 105.68972389454773 529 110.483154296875 529 C 115.27658469920227 529 119.16242702414773 532.8861679360001 119.16242702414773 537.6800000000001 C 119.16242702414773 542.473832064 115.27658469920227 546.36 110.483154296875 546.36 C 105.68972389454773 546.36 101.80388156960227 542.473832064 101.80388156960227 537.6800000000001 Z" stroke-miterlimit="10"/></g><g transform="translate(2,-12) scale(1,1)"><path fill="none" stroke="#000000" d="M 110.483154296875 546.36 L 110.483154296875 563.64" stroke-miterlimit="10"/></g><g transform="translate(2,-12) scale(1,1)"><path fill="none" stroke="#000000" d="M 101.29333611505682 552.84 L 119.67297247869318 552.84" stroke-miterlimit="10"/></g><g transform="translate(2,-12) scale(1,1)"><path fill="none" stroke="#000000" d="M 110.483154296875 563.64 L 97.71951793323863 581" stroke-miterlimit="10"/></g><g transform="translate(2,-12) scale(1,1)"><path fill="none" stroke="#000000" d="M 110.483154296875 563.64 L 123.24679066051137 581" stroke-miterlimit="10"/></g><g transform="translate(2,-12) scale(1,1)"><g><path fill="none" stroke="none"/><text fill="#000000" stroke="none" font-family="Arial" font-size="13px" font-style="normal" font-weight="bold" text-decoration="none" x="33.873291015625" y="601.5">Responsable Abonnement</text></g></g><g transform="translate(2,-12) scale(1,1)"><path fill="#C0C0C0" stroke="none" d="M 223 168 C 223 158.6111584 277.1735392 151 344 151 C 410.8264608 151 465 158.6111584 465 168 C 465 177.3888416 410.8264608 185 344 185 C 277.1735392 185 223 177.3888416 223 168 Z" opacity="0.2"/></g><g transform="translate(2,-12) scale(1,1)"><path fill="#ffffff" stroke="none" d="M 216 161 C 216 151.6111584 270.1735392 144 337 144 C 403.8264608 144 458 151.6111584 458 161 C 458 170.3888416 403.8264608 178 337 178 C 270.1735392 178 216 170.3888416 216 161 Z"/></g><g transform="translate(2,-12) scale(1,1)"><path fill="none" stroke="#000000" d="M 216 161 C 216 151.6111584 270.1735392 144 337 144 C 403.8264608 144 458 151.6111584 458 161 C 458 170.3888416 403.8264608 178 337 178 C 270.1735392 178 216 170.3888416 216 161 Z" stroke-miterlimit="10"/></g><g transform="translate(2,-12) scale(1,1)"><g><path fill="none" stroke="none"/><text fill="#000000" stroke="none" font-family="Arial" font-size="13px" font-style="normal" font-weight="bold" text-decoration="none" x="262.208740234375" y="168">enregistrer debut emprunt</text></g></g><g transform="translate(2,-12) scale(1,1)"><path fill="#C0C0C0" stroke="none" d="M 495 224 C 495 214.6111584 549.1735392 207 616 207 C 682.8264608 207 737 214.6111584 737 224 C 737 233.3888416 682.8264608 241 616 241 C 549.1735392 241 495 233.3888416 495 224 Z" opacity="0.2"/></g><g transform="translate(2,-12) scale(1,1)"><path fill="#ffffff" stroke="none" d="M 488 217 C 488 207.6111584 542.1735392 200 609 200 C 675.8264608 200 730 207.6111584 730 217 C 730 226.3888416 675.8264608 234 609 234 C 542.1735392 234 488 226.3888416 488 217 Z"/></g><g transform="translate(2,-12) scale(1,1)"><path fill="none" stroke="#000000" d="M 488 217 C 488 207.6111584 542.1735392 200 609 200 C 675.8264608 200 730 207.6111584 730 217 C 730 226.3888416 675.8264608 234 609 234 C 542.1735392 234 488 226.3888416 488 217 Z" stroke-miterlimit="10"/></g><g transform="translate(2,-12) scale(1,1)"><g><path fill="none" stroke="none"/><text fill="#000000" stroke="none" font-family="Arial" font-size="13px" font-style="normal" font-weight="bold" text-decoration="none" x="534.945068359375" y="224">verifier droits à emprunter</text></g></g><g transform="translate(2,-12) scale(1,1)"><path fill="none" stroke="#000000" d="M 424 179 L 522 199" stroke-miterlimit="10" stroke-dasharray="3"/></g><g transform="translate(2,-12) scale(1,1)"><path fill="none" stroke="#000000" d="M 511.2008347054439 201.09237399641066 L 522 199 L 512.8843051474246 192.84336883070534" stroke-miterlimit="10"/></g><g transform="translate(2,-12) scale(1,1)"><g><path fill="none" stroke="none"/><text fill="#000000" stroke="none" font-family="Arial" font-size="13px" font-style="normal" font-weight="normal" text-decoration="none" x="464" y="173">«include»</text></g></g><g transform="translate(2,-12) scale(1,1)"><path fill="#C0C0C0" stroke="none" d="M 567 384 C 567 374.6111584 606.8466528 367 656 367 C 705.1533472 367 745 374.6111584 745 384 C 745 393.3888416 705.1533472 401 656 401 C 606.8466528 401 567 393.3888416 567 384 Z" opacity="0.2"/></g><g transform="translate(2,-12) scale(1,1)"><path fill="#ffffff" stroke="none" d="M 560 377 C 560 367.6111584 599.8466528 360 649 360 C 698.1533472 360 738 367.6111584 738 377 C 738 386.3888416 698.1533472 394 649 394 C 599.8466528 394 560 386.3888416 560 377 Z"/></g><g transform="translate(2,-12) scale(1,1)"><path fill="none" stroke="#000000" d="M 560 377 C 560 367.6111584 599.8466528 360 649 360 C 698.1533472 360 738 367.6111584 738 377 C 738 386.3888416 698.1533472 394 649 394 C 599.8466528 394 560 386.3888416 560 377 Z" stroke-miterlimit="10"/></g><g transform="translate(2,-12) scale(1,1)"><g><path fill="none" stroke="none"/><text fill="#000000" stroke="none" font-family="Arial" font-size="13px" font-style="normal" font-weight="bold" text-decoration="none" x="595.16552734375" y="384">lancer restauration</text></g></g><g transform="translate(2,-12) scale(1,1)"><path fill="none" stroke="#000000" d="M 569 395 L 445 423" stroke-miterlimit="10" stroke-dasharray="3"/></g><g transform="translate(2,-12) scale(1,1)"><path fill="none" stroke="#000000" d="M 453.9858976975495 416.65542416160275 L 445 423 L 455.8402817960689 424.8676965979028" stroke-miterlimit="10"/></g><g transform="translate(2,-12) scale(1,1)"><g><path fill="none" stroke="none"/><text fill="#000000" stroke="none" font-family="Arial" font-size="13px" font-style="normal" font-weight="normal" text-decoration="none" x="544" y="409">«extend»</text></g></g><g transform="translate(2,-12) scale(1,1)"><path fill="#ffffff" stroke="none" d="M 528 464 L 586 464 L 596 474 L 596 502 L 528 502 L 528 464"/></g><g transform="translate(2,-12) scale(1,1)"><path fill="none" stroke="#000000" d="M 528 464 L 586 464 L 596 474 L 596 502 L 528 502 L 528 464 L 528 464" stroke-miterlimit="10"/></g><g transform="translate(2,-12) scale(1,1)"><path fill="none" stroke="#000000" d="M 586 464 L 586 474 L 596 474 L 586 464" stroke-miterlimit="10"/></g><g transform="translate(2,-12) scale(1,1)"><g><path fill="none" stroke="none"/><text fill="#000000" stroke="none" font-family="Arial" font-size="13px" font-style="normal" font-weight="normal" text-decoration="none" x="533" y="482">si abimé</text></g></g><g transform="translate(2,-12) scale(1,1)"><path fill="none" stroke="#000000" d="M 547 463 L 507 409" stroke-miterlimit="10" stroke-dasharray="3"/></g><g transform="translate(2,-12) scale(1,1)"><path fill="#C0C0C0" stroke="none" d="M 167 320 C 167 310.6111584 215.129384 303 274.5 303 C 333.870616 303 382 310.6111584 382 320 C 382 329.3888416 333.870616 337 274.5 337 C 215.129384 337 167 329.3888416 167 320 Z" opacity="0.2"/></g><g transform="translate(2,-12) scale(1,1)"><path fill="#ffffff" stroke="none" d="M 160 313 C 160 303.6111584 208.129384 296 267.5 296 C 326.870616 296 375 303.6111584 375 313 C 375 322.3888416 326.870616 330 267.5 330 C 208.129384 330 160 322.3888416 160 313 Z"/></g><g transform="translate(2,-12) scale(1,1)"><path fill="none" stroke="#000000" d="M 160 313 C 160 303.6111584 208.129384 296 267.5 296 C 326.870616 296 375 303.6111584 375 313 C 375 322.3888416 326.870616 330 267.5 330 C 208.129384 330 160 322.3888416 160 313 Z" stroke-miterlimit="10"/></g><g transform="translate(2,-12) scale(1,1)"><g><path fill="none" stroke="none"/><text fill="#000000" stroke="none" font-family="Arial" font-size="13px" font-style="normal" font-weight="bold" text-decoration="none" x="202.109619140625" y="320">enregistrer fin emprunt</text></g></g><g transform="translate(2,-12) scale(1,1)"><path fill="#C0C0C0" stroke="none" d="M 111 72 C 111 62.6111584 154.8760896 55 209 55 C 263.1239104 55 307 62.6111584 307 72 C 307 81.3888416 263.1239104 89 209 89 C 154.8760896 89 111 81.3888416 111 72 Z" opacity="0.2"/></g><g transform="translate(2,-12) scale(1,1)"><path fill="#ffffff" stroke="none" d="M 104 65 C 104 55.6111584 147.8760896 48 202 48 C 256.1239104 48 300 55.6111584 300 65 C 300 74.3888416 256.1239104 82 202 82 C 147.8760896 82 104 74.3888416 104 65 Z"/></g><g transform="translate(2,-12) scale(1,1)"><path fill="none" stroke="#000000" d="M 104 65 C 104 55.6111584 147.8760896 48 202 48 C 256.1239104 48 300 55.6111584 300 65 C 300 74.3888416 256.1239104 82 202 82 C 147.8760896 82 104 74.3888416 104 65 Z" stroke-miterlimit="10"/></g><g transform="translate(2,-12) scale(1,1)"><g><path fill="none" stroke="none"/><text fill="#000000" stroke="none" font-family="Arial" font-size="13px" font-style="normal" font-weight="bold" text-decoration="none" x="142.7509765625" y="72">enregistrer livre neuf</text></g></g><g transform="translate(2,-12) scale(1,1)"><path fill="#ffffff" stroke="none" d="M 686.4083737571023 89.68 C 686.4083737571023 84.886167936 690.2942160820477 81 695.087646484375 81 C 699.8810768867023 81 703.7669192116477 84.886167936 703.7669192116477 89.68 C 703.7669192116477 94.473832064 699.8810768867023 98.36 695.087646484375 98.36 C 690.2942160820477 98.36 686.4083737571023 94.473832064 686.4083737571023 89.68 Z"/></g><g transform="translate(2,-12) scale(1,1)"><path fill="none" stroke="#000000" d="M 686.4083737571023 89.68 C 686.4083737571023 84.886167936 690.2942160820477 81 695.087646484375 81 C 699.8810768867023 81 703.7669192116477 84.886167936 703.7669192116477 89.68 C 703.7669192116477 94.473832064 699.8810768867023 98.36 695.087646484375 98.36 C 690.2942160820477 98.36 686.4083737571023 94.473832064 686.4083737571023 89.68 Z" stroke-miterlimit="10"/></g><g transform="translate(2,-12) scale(1,1)"><path fill="none" stroke="#000000" d="M 695.087646484375 98.36 L 695.087646484375 115.64" stroke-miterlimit="10"/></g><g transform="translate(2,-12) scale(1,1)"><path fill="none" stroke="#000000" d="M 685.8978283025568 104.84 L 704.2774646661932 104.84" stroke-miterlimit="10"/></g><g transform="translate(2,-12) scale(1,1)"><path fill="none" stroke="#000000" d="M 695.087646484375 115.64 L 682.3240101207386 133" stroke-miterlimit="10"/></g><g transform="translate(2,-12) scale(1,1)"><path fill="none" stroke="#000000" d="M 695.087646484375 115.64 L 707.8512828480114 133" stroke-miterlimit="10"/></g><g transform="translate(2,-12) scale(1,1)"><g><path fill="none" stroke="none"/><text fill="#000000" stroke="none" font-family="Arial" font-size="13px" font-style="normal" font-weight="normal" text-decoration="none" x="644.5" y="151.5">«logiciel externe»</text></g></g><g transform="translate(2,-12) scale(1,1)"><g><path fill="none" stroke="none"/><text fill="#000000" stroke="none" font-family="Arial" font-size="13px" font-style="normal" font-weight="bold" text-decoration="none" x="650.285888671875" y="166.5">logiciel_compta</text></g></g><g transform="translate(2,-12) scale(1,1)"><path fill="#C0C0C0" stroke="none" d="M 383 56 C 383 46.6111584 455.5298624 39 545 39 C 634.4701376 39 707 46.6111584 707 56 C 707 65.3888416 634.4701376 73 545 73 C 455.5298624 73 383 65.3888416 383 56 Z" opacity="0.2"/></g><g transform="translate(2,-12) scale(1,1)"><path fill="#ffffff" stroke="none" d="M 376 49 C 376 39.6111584 448.5298624 32 538 32 C 627.4701376 32 700 39.6111584 700 49 C 700 58.3888416 627.4701376 66 538 66 C 448.5298624 66 376 58.3888416 376 49 Z"/></g><g transform="translate(2,-12) scale(1,1)"><path fill="none" stroke="#000000" d="M 376 49 C 376 39.6111584 448.5298624 32 538 32 C 627.4701376 32 700 39.6111584 700 49 C 700 58.3888416 627.4701376 66 538 66 C 448.5298624 66 376 58.3888416 376 49 Z" stroke-miterlimit="10"/></g><g transform="translate(2,-12) scale(1,1)"><g><path fill="none" stroke="none"/><text fill="#000000" stroke="none" font-family="Arial" font-size="13px" font-style="normal" font-weight="bold" text-decoration="none" x="435.74560546875" y="56">déléguer enregistrement comptable</text></g></g><g transform="translate(2,-12) scale(1,1)"><path fill="none" stroke="#000000" d="M 100 175 L 185 83" stroke-miterlimit="10"/></g><g transform="translate(2,-12) scale(1,1)"><path fill="none" stroke="#000000" d="M 181.19537008472165 93.3210847883238 L 185 83 L 175.0116113439764 87.60782943002656" stroke-miterlimit="10"/></g><g transform="translate(2,-12) scale(1,1)"><path fill="none" stroke="#000000" d="M 301 60 L 375 57" stroke-miterlimit="10" stroke-dasharray="3"/></g><g transform="translate(2,-12) scale(1,1)"><path fill="none" stroke="#000000" d="M 365.0161822784029 61.61772494870831 L 375 57 L 364.6751501620423 53.20559941181419" stroke-miterlimit="10"/></g><g transform="translate(2,-12) scale(1,1)"><g><path fill="none" stroke="none"/><text fill="#000000" stroke="none" font-family="Arial" font-size="13px" font-style="normal" font-weight="normal" text-decoration="none" x="310" y="35">«include»</text></g></g><g transform="translate(2,-12) scale(1,1)"><path fill="none" stroke="#000000" d="M 575 67 L 639 99" stroke-miterlimit="10"/></g><g transform="translate(2,-12) scale(1,1)"><path fill="none" stroke="#000000" d="M 628.0276737030609 98.22022077900253 L 639 99 L 631.7927808450386 90.69000649504723" stroke-miterlimit="10"/></g><g transform="translate(2,-12) scale(1,1)"><path fill="none" stroke="#000000" d="M 112 213 L 135 212" stroke-miterlimit="10"/></g><g transform="translate(2,-12) scale(1,1)"><path fill="none" stroke="#000000" d="M 125.02976686499362 216.64698302489055 L 135 212 L 124.66406733126729 208.23589374918507" stroke-miterlimit="10"/></g><g transform="translate(2,-12) scale(1,1)"><path fill="#C0C0C0" stroke="none" d="M 255 448 C 255 438.6111584 307.38267840000003 431 372 431 C 436.61732159999997 431 489 438.6111584 489 448 C 489 457.3888416 436.61732159999997 465 372 465 C 307.38267840000003 465 255 457.3888416 255 448 Z" opacity="0.2"/></g><g transform="translate(2,-12) scale(1,1)"><path fill="#ffffff" stroke="none" d="M 248 441 C 248 431.6111584 300.38267840000003 424 365 424 C 429.61732159999997 424 482 431.6111584 482 441 C 482 450.3888416 429.61732159999997 458 365 458 C 300.38267840000003 458 248 450.3888416 248 441 Z"/></g><g transform="translate(2,-12) scale(1,1)"><path fill="none" stroke="#000000" d="M 248 441 C 248 431.6111584 300.38267840000003 424 365 424 C 429.61732159999997 424 482 431.6111584 482 441 C 482 450.3888416 429.61732159999997 458 365 458 C 300.38267840000003 458 248 450.3888416 248 441 Z" stroke-miterlimit="10"/></g><g transform="translate(2,-12) scale(1,1)"><g><path fill="none" stroke="none"/><text fill="#000000" stroke="none" font-family="Arial" font-size="13px" font-style="normal" font-weight="bold" text-decoration="none" x="292.747802734375" y="448">verifier et enregistrer état</text></g></g><g transform="translate(2,-12) scale(1,1)"><path fill="none" stroke="#000000" d="M 281 331 L 351 423" stroke-miterlimit="10" stroke-dasharray="3"/></g><g transform="translate(2,-12) scale(1,1)"><path fill="none" stroke="#000000" d="M 341.49622347863107 417.4612066447757 L 351 423 L 348.19633351592864 412.36329683378847" stroke-miterlimit="10"/></g><g transform="translate(2,-12) scale(1,1)"><g><path fill="none" stroke="none"/><text fill="#000000" stroke="none" font-family="Arial" font-size="13px" font-style="normal" font-weight="normal" text-decoration="none" x="309" y="383">«include»</text></g></g><g transform="translate(2,-12) scale(1,1)"><path fill="#C0C0C0" stroke="none" d="M 295 544 C 295 534.6111584 328.57864 527 370 527 C 411.42136 527 445 534.6111584 445 544 C 445 553.3888416 411.42136 561 370 561 C 328.57864 561 295 553.3888416 295 544 Z" opacity="0.2"/></g><g transform="translate(2,-12) scale(1,1)"><path fill="#ffffff" stroke="none" d="M 288 537 C 288 527.6111584 321.57864 520 363 520 C 404.42136 520 438 527.6111584 438 537 C 438 546.3888416 404.42136 554 363 554 C 321.57864 554 288 546.3888416 288 537 Z"/></g><g transform="translate(2,-12) scale(1,1)"><path fill="none" stroke="#000000" d="M 288 537 C 288 527.6111584 321.57864 520 363 520 C 404.42136 520 438 527.6111584 438 537 C 438 546.3888416 404.42136 554 363 554 C 321.57864 554 288 546.3888416 288 537 Z" stroke-miterlimit="10"/></g><g transform="translate(2,-12) scale(1,1)"><g><path fill="none" stroke="none"/><text fill="#000000" stroke="none" font-family="Arial" font-size="13px" font-style="normal" font-weight="bold" text-decoration="none" x="318.556884765625" y="544">inscrire abonné</text></g></g><g transform="translate(2,-12) scale(1,1)"><path fill="#C0C0C0" stroke="none" d="M 295 624 C 295 614.6111584 332.3842192 607 378.5 607 C 424.6157808 607 462 614.6111584 462 624 C 462 633.3888416 424.6157808 641 378.5 641 C 332.3842192 641 295 633.3888416 295 624 Z" opacity="0.2"/></g><g transform="translate(2,-12) scale(1,1)"><path fill="#ffffff" stroke="none" d="M 288 617 C 288 607.6111584 325.3842192 600 371.5 600 C 417.6157808 600 455 607.6111584 455 617 C 455 626.3888416 417.6157808 634 371.5 634 C 325.3842192 634 288 626.3888416 288 617 Z"/></g><g transform="translate(2,-12) scale(1,1)"><path fill="none" stroke="#000000" d="M 288 617 C 288 607.6111584 325.3842192 600 371.5 600 C 417.6157808 600 455 607.6111584 455 617 C 455 626.3888416 417.6157808 634 371.5 634 C 325.3842192 634 288 626.3888416 288 617 Z" stroke-miterlimit="10"/></g><g transform="translate(2,-12) scale(1,1)"><g><path fill="none" stroke="none"/><text fill="#000000" stroke="none" font-family="Arial" font-size="13px" font-style="normal" font-weight="bold" text-decoration="none" x="321.274169921875" y="624">gérer contentieux</text></g></g><g transform="translate(2,-12) scale(1,1)"><path fill="none" stroke="#000000" d="M 198 557 L 287 546" stroke-miterlimit="10"/></g><g transform="translate(2,-12) scale(1,1)"><path fill="none" stroke="#000000" d="M 277.43041734493295 551.4243052834294 L 287 546 L 276.397720162338 543.0688462606158" stroke-miterlimit="10"/></g><g transform="translate(2,-12) scale(1,1)"><path fill="none" stroke="#000000" d="M 198 584 L 287 601" stroke-miterlimit="10"/></g><g transform="translate(2,-12) scale(1,1)"><path fill="none" stroke="#000000" d="M 276.22800911468136 603.2280512486502 L 287 601 L 277.80758205135976 594.9585223448632" stroke-miterlimit="10"/></g><g transform="translate(2,-12) scale(1,1)"><path fill="#C0C0C0" stroke="none" d="M 463 304 C 463 294.6111584 511.5770992 287 571.5 287 C 631.4229008 287 680 294.6111584 680 304 C 680 313.3888416 631.4229008 321 571.5 321 C 511.5770992 321 463 313.3888416 463 304 Z" opacity="0.2"/></g><g transform="translate(2,-12) scale(1,1)"><path fill="#ffffff" stroke="none" d="M 456 297 C 456 287.6111584 504.5770992 280 564.5 280 C 624.4229008 280 673 287.6111584 673 297 C 673 306.3888416 624.4229008 314 564.5 314 C 504.5770992 314 456 306.3888416 456 297 Z"/></g><g transform="translate(2,-12) scale(1,1)"><path fill="none" stroke="#000000" d="M 456 297 C 456 287.6111584 504.5770992 280 564.5 280 C 624.4229008 280 673 287.6111584 673 297 C 673 306.3888416 624.4229008 314 564.5 314 C 504.5770992 314 456 306.3888416 456 297 Z" stroke-miterlimit="10"/></g><g transform="translate(2,-12) scale(1,1)"><g><path fill="none" stroke="none"/><text fill="#000000" stroke="none" font-family="Arial" font-size="13px" font-style="normal" font-weight="bold" text-decoration="none" x="498.379638671875" y="304">enregistrer contentieux</text></g></g><g transform="translate(2,-12) scale(1,1)"><path fill="none" stroke="#000000" d="M 539 315 L 390 423" stroke-miterlimit="10" stroke-dasharray="3"/></g><g transform="translate(2,-12) scale(1,1)"><path fill="none" stroke="#000000" d="M 395.7579881800574 413.6274031283577 L 390 423 L 400.69893929337667 420.44408568284445" stroke-miterlimit="10"/></g><g transform="translate(2,-12) scale(1,1)"><g><path fill="none" stroke="none"/><text fill="#000000" stroke="none" font-family="Arial" font-size="13px" font-style="normal" font-weight="normal" text-decoration="none" x="440" y="348">«extend»</text></g></g><g transform="translate(2,-12) scale(1,1)"><path fill="none" stroke="#000000" d="M 545 463 L 464 369" stroke-miterlimit="10" stroke-dasharray="3"/></g><g transform="translate(2,-12) scale(1,1)"><path fill="#C0C0C0" stroke="none" d="M 399 120 C 399 110.6111584 443.3238048 103 498 103 C 552.6761952 103 597 110.6111584 597 120 C 597 129.3888416 552.6761952 137 498 137 C 443.3238048 137 399 129.3888416 399 120 Z" opacity="0.2"/></g><g transform="translate(2,-12) scale(1,1)"><path fill="#ffffff" stroke="none" d="M 392 113 C 392 103.6111584 436.3238048 96 491 96 C 545.6761952 96 590 103.6111584 590 113 C 590 122.3888416 545.6761952 130 491 130 C 436.3238048 130 392 122.3888416 392 113 Z"/></g><g transform="translate(2,-12) scale(1,1)"><path fill="none" stroke="#000000" d="M 392 113 C 392 103.6111584 436.3238048 96 491 96 C 545.6761952 96 590 103.6111584 590 113 C 590 122.3888416 545.6761952 130 491 130 C 436.3238048 130 392 122.3888416 392 113 Z" stroke-miterlimit="10"/></g><g transform="translate(2,-12) scale(1,1)"><g><path fill="none" stroke="none"/><text fill="#000000" stroke="none" font-family="Arial" font-size="13px" font-style="normal" font-weight="bold" text-decoration="none" x="431.385986328125" y="120">identifier emprunteur</text></g></g><g transform="translate(2,-12) scale(1,1)"><path fill="none" stroke="#000000" d="M 395 143 L 433 131" stroke-miterlimit="10" stroke-dasharray="3"/></g><g transform="translate(2,-12) scale(1,1)"><path fill="none" stroke="#000000" d="M 424.5766672645996 138.07442334248753 L 433 131 L 422.0414315841504 130.0461770210651" stroke-miterlimit="10"/></g><g transform="translate(2,-12) scale(1,1)"><g><path fill="none" stroke="none"/><text fill="#000000" stroke="none" font-family="Arial" font-size="13px" font-style="normal" font-weight="normal" text-decoration="none" x="327" y="125">«include»</text></g></g><g transform="translate(2,-12) scale(1,1)"><path fill="#C0C0C0" stroke="none" d="M 15 384 C 15 374.6111584 64.0248144 367 124.5 367 C 184.9751856 367 234 374.6111584 234 384 C 234 393.3888416 184.9751856 401 124.5 401 C 64.0248144 401 15 393.3888416 15 384 Z" opacity="0.2"/></g><g transform="translate(2,-12) scale(1,1)"><path fill="#ffffff" stroke="none" d="M 8 377 C 8 367.6111584 57.0248144 360 117.5 360 C 177.9751856 360 227 367.6111584 227 377 C 227 386.3888416 177.9751856 394 117.5 394 C 57.0248144 394 8 386.3888416 8 377 Z"/></g><g transform="translate(2,-12) scale(1,1)"><path fill="none" stroke="#000000" d="M 8 377 C 8 367.6111584 57.0248144 360 117.5 360 C 177.9751856 360 227 367.6111584 227 377 C 227 386.3888416 177.9751856 394 117.5 394 C 57.0248144 394 8 386.3888416 8 377 Z" stroke-miterlimit="10"/></g><g transform="translate(2,-12) scale(1,1)"><g><path fill="none" stroke="none"/><text fill="#000000" stroke="none" font-family="Arial" font-size="13px" font-style="normal" font-weight="bold" text-decoration="none" x="50.306884765625" y="384">réintégrer livre restauré</text></g></g><g transform="translate(2,-12) scale(1,1)"><path fill="none" stroke="#000000" d="M 77 256 L 111 359" stroke-miterlimit="10"/></g><g transform="translate(2,-12) scale(1,1)"><path fill="none" stroke="#000000" d="M 103.8170387583671 350.6690296002687 L 111 359 L 111.81176506055567 348.0299937335268" stroke-miterlimit="10"/></g><g transform="translate(2,-12) scale(1,1)"><path fill="#C0C0C0" stroke="none" d="M 143 216 C 143 206.6111584 173.6684912 199 211.5 199 C 249.3315088 199 280 206.6111584 280 216 C 280 225.3888416 249.3315088 233 211.5 233 C 173.6684912 233 143 225.3888416 143 216 Z" opacity="0.2"/></g><g transform="translate(2,-12) scale(1,1)"><path fill="#ffffff" stroke="none" d="M 136 209 C 136 199.6111584 166.6684912 192 204.5 192 C 242.3315088 192 273 199.6111584 273 209 C 273 218.3888416 242.3315088 226 204.5 226 C 166.6684912 226 136 218.3888416 136 209 Z"/></g><g transform="translate(2,-12) scale(1,1)"><path fill="none" stroke="#000000" d="M 136 209 C 136 199.6111584 166.6684912 192 204.5 192 C 242.3315088 192 273 199.6111584 273 209 C 273 218.3888416 242.3315088 226 204.5 226 C 166.6684912 226 136 218.3888416 136 209 Z" stroke-miterlimit="10"/></g><g transform="translate(2,-12) scale(1,1)"><g><path fill="none" stroke="none"/><text fill="#000000" stroke="none" font-family="Arial" font-size="13px" font-style="normal" font-weight="bold" text-decoration="none" x="163.675048828125" y="216">gérer emprunt</text></g></g><g transform="translate(2,-12) scale(1,1)"><path fill="none" stroke="#000000" d="M 256 295 L 215 227" stroke-miterlimit="10"/></g><g transform="translate(2,-12) scale(1,1)"><path fill="#FFFFFF" stroke="none" d="M 232.70481612760082 240.05907676246088 L 215 227 L 218.28503380871572 248.75335727825924"/></g><g transform="translate(2,-12) scale(1,1)"><path fill="none" stroke="#000000" d="M 232.70481612760082 240.05907676246088 L 215 227 L 218.28503380871572 248.75335727825924 L 232.70481612760082 240.05907676246088" stroke-miterlimit="10"/></g><g transform="translate(2,-12) scale(1,1)"><path fill="none" stroke="#000000" d="M 287 179 L 254 191" stroke-miterlimit="10"/></g><g transform="translate(2,-12) scale(1,1)"><path fill="#FFFFFF" stroke="none" d="M 270.2244830083754 176.1417985236793 L 254 191 L 275.9787769766105 191.96610693632582"/></g><g transform="translate(2,-12) scale(1,1)"><path fill="none" stroke="#000000" d="M 270.2244830083754 176.1417985236793 L 254 191 L 275.9787769766105 191.96610693632582 L 270.2244830083754 176.1417985236793" stroke-miterlimit="10"/></g></g></svg>